<svg width="1920" height="401" viewBox="0 0 1920 401" fill="none" xmlns="http://www.w3.org/2000/svg">
<mask id="mask0" mask-type="alpha" maskUnits="userSpaceOnUse" x="0" y="0" width="1920" height="401">
<rect width="1920" height="401" fill="#FFD9DA"/>
</mask>
<g mask="url(#mask0)">
<path d="M970.788 63.2487C968.92 61.6521 966.366 61.3253 964.217 62.2348C962.933 61.1782 961.531 60.1701 960.003 59.2467C946.639 51.1872 930.743 56.6722 930.073 56.9063C928.655 57.4068 927.5 58.3835 926.762 59.6151C926.319 59.8886 925.923 60.2292 925.558 60.6104C908.766 54.4129 894.512 61.6451 893.839 61.9939C891.946 62.9787 890.758 64.8198 890.516 66.83C879.765 68.1011 870.327 73.9916 864.716 79.6874C862.56 81.8784 860.788 84.1818 859.472 86.4956C859.428 86.5721 859.295 86.8096 859.098 87.1827C857.073 86.7053 854.881 87.2313 853.296 88.7399C843.212 98.3253 839.312 107.052 838.084 113.944C836.299 115.243 835.236 117.459 835.442 119.783C835.978 125.753 838.408 130.948 841.152 135.045C840.67 136.818 840.99 138.732 842.05 140.274C840.367 142.585 840.416 145.761 842.262 147.999C842.977 148.862 844.76 150.969 847.164 153.452C846.72 155.238 847.07 157.191 848.242 158.752C848.53 159.14 855.523 168.327 869.31 174.716C876.801 178.183 887.276 181.232 900.531 180.799C894.813 184.971 885.725 193.95 883.593 209.909C883.593 209.909 888.488 201.439 895.621 193.696L888.045 208.139C888.045 208.139 912.16 197.897 921.191 177.514C924.332 176.637 927.574 175.573 930.922 174.289C931.323 174.132 931.699 173.935 932.049 173.71C938.565 177.751 961.33 194.097 978.882 234.343C980.167 237.282 981.358 240.142 982.469 242.912C979.903 240.791 976.722 238.22 973.348 235.617C970.317 215.346 959.098 209.199 959.098 209.199C958.899 219.133 961.543 225.244 963.927 228.72C961.646 227.161 959.449 225.762 957.464 224.653C949.755 211.567 938.334 206.746 928.711 207.824C914.367 209.425 902.823 222.116 902.823 222.116C902.823 222.116 910.244 240.903 925.954 241.611C941.663 242.315 955.695 228.899 955.695 228.899C944.61 221.916 927.686 221.86 927.686 221.86C937.876 218.878 948.987 222.789 954.877 225.491C954.877 225.491 972.251 237.078 985.042 249.599C999.027 287.24 997.049 307.358 997.049 307.358L999.755 304.608C999.755 304.608 1005.68 279.124 981.584 231.099C959.654 187.389 954.752 182.285 951.874 172.309C950.387 167.164 949.335 162.742 948.741 160.06C949.754 158.635 950.543 157.153 951.097 155.628C951.568 155.734 952.046 155.766 952.524 155.765C957.637 156.306 975.474 158.814 988.17 168.189C988.17 168.189 975.408 153.159 962.14 150.026C962.496 149.69 962.846 149.366 963.209 148.996C964.16 148.029 965.062 147.011 965.929 145.951C968.141 147.009 975.043 149.325 982.635 141.824C991.863 132.7 1002 128.406 1002 128.406C1002 128.406 984.542 122.38 974.225 130.94C979.067 116.817 974.505 107.638 973.932 106.577C973.404 105.597 972.636 104.796 971.722 104.22C973.156 101.766 974.498 99.3287 975.66 96.9616C983.733 80.4927 976.006 67.7071 970.788 63.2487ZM943.072 234.193C921.157 245.096 909.982 229.171 909.982 229.171C922.435 236.514 943.072 234.193 943.072 234.193ZM929.249 69.3281C946.066 79.2414 952.848 90.8463 949.717 102.522C946.582 114.202 935.516 126.439 935.516 126.439C935.516 126.439 944.909 103.941 938.685 93.875C932.461 83.8087 919.259 75.974 919.259 75.974C919.259 75.974 929.588 79.4824 937.077 86.6173C937.077 86.6173 917.687 64.5742 896.755 67.5889C896.755 67.5913 912.436 59.4113 929.249 69.3281ZM883.791 139.481C883.791 139.481 888.079 132.878 895.744 129.596C895.744 129.596 885.951 130.792 882.692 133.604C882.692 133.604 879.838 125.005 889.783 120.402C899.727 115.799 910.134 113.984 918.125 105.863C926.124 97.7414 927.197 92.1567 927.197 92.1567C927.197 92.1567 933.476 97.6985 934.257 107.475C934.94 116.026 931.799 125.968 926.992 130.344C926.992 130.344 903.809 130.399 885.929 143.306C885.929 143.306 891.826 136.069 902.456 131.773C902.455 131.776 889.712 135.222 883.791 139.481ZM904.618 90.8429C904.618 90.8429 910.945 89.4397 914.933 93.3744C914.933 93.3744 913.824 88.5904 909.457 87.9798C909.457 87.9798 918.981 87.9544 919.345 96.0764C919.707 104.196 909.023 107.488 909.023 107.488C909.023 107.488 917.836 99.433 912.844 95.5006C907.846 91.5635 904.618 90.8429 904.618 90.8429ZM897.627 100.689C897.963 95.8574 914.957 97.3359 907.803 101.853C907.802 101.852 897.292 105.531 897.627 100.689ZM889.284 95.92C888.08 100.639 897.195 106.665 897.195 106.665C892.639 107.837 889.773 111.168 889.773 111.168C894.093 108.531 903.092 110.258 903.092 110.258C888.422 113.038 881.431 123.512 881.431 123.512C881.431 123.512 874.998 108.429 880.612 97.2258C886.231 86.0241 901.01 89.2578 901.01 89.2578C901.01 89.2578 890.487 91.1997 889.284 95.92ZM864.935 89.6599C870.315 80.1973 885.373 70.905 899.295 73.2593C913.215 75.616 922.458 88.4746 922.458 88.4746C915.822 81.5158 906.89 79.5449 906.89 79.5449C914.625 82.7312 919.242 89.0006 919.242 89.0006C909.515 80.8982 892.48 75.9334 878.895 90.4802C865.307 105.027 877.63 136.119 877.63 136.119C871.164 131.505 867.688 125.348 867.688 125.348L870.627 133.653C863.909 128.516 862.668 116.956 862.668 116.956C862.206 121.668 862.611 125.758 862.611 125.758C854.778 107.221 864.935 89.6599 864.935 89.6599ZM841.727 119.225C841.727 119.225 842.369 121.823 845.252 126.141C845.252 126.141 837.829 112.187 857.646 93.3131C857.646 93.3131 848.132 113.719 857.791 128.155C857.791 128.155 854.427 125.821 851.28 119.771C851.28 119.771 852.02 135.265 875.794 147.603C875.794 147.603 859.153 148.441 847.238 136.71L854.038 139.962C854.038 139.96 842.814 131.367 841.727 119.225ZM943.437 156.63C935.215 167.728 914.508 167.763 914.508 167.763L928.649 168.399C904.64 177.628 886.47 175.096 873.991 169.882C902.68 168.567 915.734 149.776 915.734 149.776C895.989 165.127 872.167 165.105 864.113 164.587C856.874 159.748 853.284 154.968 853.284 154.968C858.521 158.648 865.719 159.584 865.719 159.584C858.013 157.163 847.123 143.979 847.123 143.979C847.123 143.979 867.3 155.724 879.683 153.897C892.07 152.063 923.066 135.833 929.634 135.164C936.196 134.492 951.662 145.532 943.437 156.63ZM967.294 131.401C961.697 144.835 952.434 149.494 952.434 149.494C952.434 149.494 948 138.027 953.256 127.666C958.753 116.837 966.379 109.093 966.379 109.093L961.766 121.774L968.367 109.575C968.368 109.573 972.895 117.97 967.294 131.401ZM969.988 94.1843C961.931 110.612 944.451 131.051 946.235 143.388C946.235 143.388 940.266 131.114 946.503 119.781C952.737 108.451 961.899 90.4025 956.264 83.3777C950.631 76.354 930.087 64.9797 930.087 64.9797C930.087 64.9797 941.891 67.9898 950.488 73.9985C950.488 73.9985 941.497 65.1395 932.177 62.857C932.177 62.857 945.781 58.0406 956.743 64.6529C967.704 71.2607 970.894 83.2677 970.894 83.2677C970.894 83.2677 970.444 72.9778 966.686 68.0477C966.685 68.0489 978.043 77.7548 969.988 94.1843Z" fill="#DA666A" fill-opacity="0.1"/>
<path d="M977.234 212.069C977.253 214.49 979.233 219.696 979.233 219.696C982.17 214.386 985.817 205.096 985.817 205.096C985.909 212.406 981.708 223.362 981.708 223.362C1001.47 203.287 989.936 186.839 989.936 186.839C975.495 200.84 977.234 212.069 977.234 212.069Z" fill="#DA666A" fill-opacity="0.1"/>
<path d="M968.912 236.357C968.912 236.357 958.734 246.185 951.699 255.496C951.699 255.496 955.829 244.802 966.491 233.974C966.491 233.974 951.108 232.606 941.131 246.733C931.156 260.86 940.691 275.502 940.691 275.502C940.691 275.502 972.687 265.666 968.912 236.357ZM939.547 266.871C935.009 248.744 952.762 238.664 952.762 238.664C939.057 250.665 939.547 266.871 939.547 266.871Z" fill="#DA666A" fill-opacity="0.1"/>
<path d="M1194.43 281.518C1194.43 281.518 1181.26 276.339 1169.87 273.805C1169.87 273.805 1181.32 273.121 1195.59 278.326C1195.59 278.326 1190.45 263.763 1173.46 260.552C1156.46 257.343 1147.1 272.096 1147.1 272.096C1147.1 272.096 1169.33 297.12 1194.43 281.518ZM1154.48 267.472C1169.08 255.818 1185.63 267.783 1185.63 267.783C1169.02 260.298 1154.48 267.472 1154.48 267.472Z" fill="#DA666A" fill-opacity="0.15"/>
<path d="M599.47 125.069C599.47 125.069 608.61 130.12 616.704 133.067C616.704 133.067 608.264 132.47 598.313 127.293C598.313 127.293 600.681 138.444 612.811 142.422C624.941 146.399 633.206 136.498 633.206 136.498C633.206 136.498 619.332 116.054 599.47 125.069ZM627.364 139.176C615.557 146.306 604.598 135.964 604.598 135.964C616.035 143.033 627.364 139.176 627.364 139.176Z" fill="#DA666A" fill-opacity="0.15"/>
<path d="M1197.54 96.4168C1197.54 96.4168 1194.58 82.5832 1190.39 71.6904C1190.39 71.6904 1197.29 80.8471 1200.85 95.6212C1200.85 95.6212 1210.14 83.284 1203.41 67.3486C1196.69 51.4152 1179.22 51.7731 1179.22 51.7731C1179.22 51.7731 1170.66 84.1346 1197.54 96.4168ZM1187.15 55.3627C1204.94 61.088 1204.12 81.4863 1204.12 81.4863C1201.17 63.5099 1187.15 55.3627 1187.15 55.3627Z" fill="#DA666A" fill-opacity="0.15"/>
<path d="M1897.39 201.492C1897.39 201.492 1888.52 190.47 1879.88 182.625C1879.88 182.625 1890.16 187.701 1899.98 199.296C1899.98 199.296 1902.73 184.099 1889.56 172.889C1876.39 161.682 1860.95 169.858 1860.95 169.858C1860.95 169.858 1867.86 202.61 1897.39 201.492ZM1869.65 169.497C1888.11 166.611 1896.55 185.2 1896.55 185.2C1885.83 170.469 1869.65 169.497 1869.65 169.497Z" fill="#DA666A" fill-opacity="0.15"/>
<path d="M1727.23 62.0687C1727.25 64.4902 1729.23 69.696 1729.23 69.696C1732.17 64.386 1735.82 55.096 1735.82 55.096C1735.91 62.4058 1731.71 73.3619 1731.71 73.3619C1751.47 53.2873 1739.94 36.8393 1739.94 36.8393C1725.5 50.8403 1727.23 62.0687 1727.23 62.0687Z" fill="#DA666A" fill-opacity="0.15"/>
<path d="M707.311 286.056C709.389 287.299 714.865 288.314 714.865 288.314C711.856 283.044 705.817 275.098 705.817 275.098C712.108 278.821 719.283 288.106 719.283 288.106C712.41 260.786 692.363 262.088 692.363 262.088C696.815 281.704 707.311 286.056 707.311 286.056Z" fill="#DA666A" fill-opacity="0.15"/>
<path d="M438.178 164.294C436.653 162.413 431.857 159.581 431.857 159.581C432.875 165.563 435.822 175.098 435.822 175.098C431.189 169.443 427.635 158.26 427.635 158.26C424.718 186.28 443.995 191.935 443.995 191.935C446.544 171.983 438.178 164.294 438.178 164.294Z" fill="#DA666A" fill-opacity="0.15"/>
<path d="M1744.78 290.472C1743.16 292.274 1741.12 297.457 1741.12 297.457C1746.87 295.508 1755.82 291.095 1755.82 291.095C1750.97 296.562 1740.48 301.833 1740.48 301.833C1768.61 300.298 1771.16 280.37 1771.16 280.37C1751.05 280.999 1744.78 290.472 1744.78 290.472Z" fill="#DA666A" fill-opacity="0.15"/>
</g>
</svg>
