<svg width="45" height="49" viewBox="0 0 45 49" fill="none" xmlns="http://www.w3.org/2000/svg">
<mask id="path-1-inside-1" fill="white">
<path d="M16.7085 9.37323C16.944 9.07345 17.3229 8.94617 17.6782 9.0194C17.8413 8.81954 18.0239 8.62351 18.2284 8.43652C20.0167 6.80375 22.6061 7.15622 22.7153 7.17152C22.9466 7.20467 23.1525 7.3183 23.3027 7.48341C23.3785 7.51161 23.4493 7.55144 23.5166 7.59839C25.8841 6.14501 28.2769 6.81338 28.3901 6.84604C28.7087 6.9385 28.946 7.18275 29.0445 7.48145C30.721 7.34857 32.3392 7.95885 33.3683 8.65572C33.7639 8.92384 34.1045 9.2207 34.3758 9.53305C34.3848 9.54336 34.4124 9.57548 34.4539 9.6263C34.7477 9.49213 35.0977 9.50567 35.3854 9.68722C37.2152 10.8405 38.0768 12.0507 38.4751 13.0627C38.7869 13.2062 39.0167 13.5114 39.0566 13.8715C39.1581 14.7966 38.9472 15.6614 38.6549 16.3685C38.7827 16.6237 38.7926 16.9248 38.6785 17.1918C39.0058 17.4926 39.0956 17.9777 38.883 18.3743C38.8006 18.5275 38.5937 18.9025 38.3036 19.3535C38.426 19.6119 38.4326 19.9199 38.302 20.1931C38.27 20.2609 37.4867 21.8719 35.5825 23.2632C34.548 24.0186 33.046 24.8007 31.0138 25.1371C32.0127 25.5988 33.6723 26.69 34.4863 29.055C34.4863 29.055 33.481 27.914 32.1572 26.9518L33.754 28.9206C33.754 28.9206 29.7669 28.0934 27.7664 25.2643C27.2611 25.2261 26.7347 25.1626 26.1853 25.0688C26.1194 25.057 26.0562 25.0384 25.996 25.0148C25.1275 25.8279 22.1614 29.0077 20.7221 35.6679C20.6165 36.1545 20.5228 36.626 20.4385 37.0815C20.7643 36.6806 21.1699 36.1926 21.604 35.694C21.444 32.5156 22.9643 31.2392 22.9643 31.2392C23.2993 32.7456 23.084 33.7562 22.8274 34.3578C23.1271 34.0513 23.4188 33.7715 23.6871 33.5425C24.46 31.3161 26.0517 30.2354 27.5505 30.1072C29.7844 29.9156 31.9317 31.4972 31.9317 31.4972C31.9317 31.4972 31.3775 34.5829 29.0064 35.1676C26.6354 35.7518 24.0867 34.1353 24.0867 34.1353C25.5609 32.7356 28.1369 32.2131 28.1369 32.2131C26.4934 32.0686 24.9211 33.0012 24.1068 33.5914C24.1068 33.5914 21.8159 35.8831 20.2516 38.1777C19.2758 44.3332 20.1939 47.336 20.1939 47.336L19.6976 46.9996C19.6976 46.9996 18.0138 43.2994 20.2111 35.256C22.2109 27.9355 22.801 27.0096 22.9335 25.4034C23.0021 24.5749 23.0268 23.8698 23.035 23.4434C22.8371 23.2571 22.6715 23.0555 22.5404 22.8401C22.4718 22.8705 22.4001 22.8899 22.3271 22.9043C21.565 23.1419 18.9251 24.0654 17.2789 25.8781C17.2789 25.8781 18.7617 23.2023 20.6866 22.3225C20.622 22.2822 20.5587 22.2434 20.4922 22.1981C20.3176 22.0797 20.1491 21.9522 19.9844 21.8172C19.68 22.0454 18.6998 22.6075 17.3135 21.696C15.6281 20.587 13.953 20.2409 13.953 20.2409C13.953 20.2409 16.4268 18.7935 18.2606 19.7835C17.09 17.7804 17.5035 16.2444 17.5582 16.0654C17.6086 15.9002 17.701 15.7549 17.8226 15.6395C17.5289 15.3095 17.2498 14.979 17.0002 14.6539C15.2654 12.3919 16.0504 10.2105 16.7085 9.37323ZM26.1717 34.558C29.8439 35.5526 31.0576 32.7887 31.0576 32.7887C29.3857 34.2849 26.1717 34.558 26.1717 34.558ZM23.2215 9.03793C20.9641 11.0578 20.2869 13.0305 21.122 14.7131C21.9575 16.3962 24.0182 17.9232 24.0182 17.9232C24.0182 17.9232 21.8977 14.7832 22.537 13.0617C23.1763 11.3401 24.9468 9.74648 24.9468 9.74648C24.9468 9.74648 23.4813 10.5942 22.5594 11.9079C22.5594 11.9079 24.8367 7.96313 28.1173 7.78663C28.1176 7.78677 25.4782 7.01766 23.2215 9.03793ZM32.2964 18.3386C32.2964 18.3386 31.4408 17.4635 30.1728 17.1964C30.1728 17.1964 31.701 17.0812 32.2836 17.4104C32.2836 17.4104 32.4546 16.0146 30.7988 15.6157C29.143 15.2168 27.5023 15.2565 26.0361 14.2627C24.5687 13.269 24.234 12.4513 24.234 12.4513C24.234 12.4513 23.4477 13.4856 23.6285 14.9978C23.7866 16.3204 24.5699 17.7388 25.4363 18.2591C25.4363 18.2591 28.969 17.5636 32.0881 18.9858C32.0881 18.9858 30.9679 18.0631 29.2172 17.7317C29.2175 17.7318 31.264 17.8699 32.2964 18.3386ZM27.6329 11.5657C27.6329 11.5657 26.6261 11.5442 26.1393 12.2643C26.1393 12.2643 26.1615 11.5023 26.8079 11.2768C26.8079 11.2768 25.3565 11.562 25.5502 12.8097C25.7441 14.0569 27.4723 14.2337 27.4723 14.2337C27.4723 14.2337 25.8831 13.2749 26.5227 12.5246C27.1634 11.7732 27.6329 11.5657 27.6329 11.5657ZM28.9995 12.8522C28.8002 12.1268 26.257 12.8678 27.4853 13.3384C27.4855 13.3386 29.1991 13.5796 28.9995 12.8522ZM30.1241 11.873C30.4522 12.5549 29.2487 13.7491 29.2487 13.7491C29.9787 13.7891 30.5172 14.2093 30.5172 14.2093C29.7785 13.9389 28.4608 14.4752 28.4608 14.4752C30.7803 14.453 32.1663 15.8354 32.1663 15.8354C32.1663 15.8354 32.6836 13.3437 31.4851 11.8085C30.2857 10.2737 28.1339 11.2147 28.1339 11.2147C28.1339 11.2147 29.7961 11.1911 30.1241 11.873ZM33.6407 10.1807C32.5312 8.90331 29.9528 7.94571 27.9045 8.72684C25.8567 9.50825 24.843 11.7466 24.843 11.7466C25.6405 10.4856 26.9405 9.9144 26.9405 9.9144C25.8601 10.6343 25.3491 11.729 25.3491 11.729C26.5821 10.2001 29.0245 8.92707 31.5398 10.7294C34.0553 12.5316 33.1319 17.6394 33.1319 17.6394C33.9752 16.7407 34.3158 15.6978 34.3158 15.6978L34.1231 17.0512C34.9887 16.0651 34.8233 14.2675 34.8233 14.2675C35.0382 14.9709 35.1018 15.6059 35.1018 15.6059C35.7262 12.5462 33.6407 10.1807 33.6407 10.1807ZM38.082 13.9772C38.082 13.9772 38.0639 14.3921 37.7571 15.1372C37.7571 15.1372 38.4599 12.7874 34.8627 10.5154C34.8627 10.5154 36.9377 13.3334 35.9091 15.8244C35.9091 15.8244 36.35 15.367 36.6438 14.3503C36.6438 14.3503 37.0061 16.7318 33.7634 19.3321C33.7634 19.3321 36.3238 18.9544 37.7787 16.8066L36.8427 17.5082C36.8429 17.508 38.2891 15.859 38.082 13.9772ZM23.7374 22.7603C25.33 24.2002 28.4849 23.5768 28.4849 23.5768L26.3506 24.103C30.2905 24.7793 32.9803 23.8421 34.721 22.6694C30.311 23.3402 27.7467 20.8756 27.7467 20.8756C31.2245 22.6132 34.8523 21.8866 36.063 21.5632C37.0173 20.6068 37.4174 19.77 37.4174 19.77C36.7326 20.4892 35.665 20.8502 35.665 20.8502C36.7645 20.2478 38.0189 17.9099 38.0189 17.9099C38.0189 17.9099 35.3058 20.3107 33.3638 20.4084C31.4209 20.5052 26.2022 18.9752 25.1813 19.0729C24.1616 19.1701 22.1444 21.32 23.7374 22.7603ZM19.3302 19.6435C20.5947 21.519 22.1485 21.9471 22.1485 21.9471C22.1485 21.9471 22.4722 20.0666 21.3538 18.6486C20.1846 17.1669 18.7856 16.2193 18.7856 16.2193L19.877 18.01L18.4975 16.3531C18.4973 16.3529 18.0653 17.7687 19.3302 19.6435ZM17.7789 14.0589C19.5098 16.3153 22.799 18.8965 22.9055 20.829C22.9055 20.829 23.4383 18.779 22.1409 17.243C20.8438 15.7072 18.895 13.2375 19.5378 11.9969C20.1804 10.7566 22.9607 8.40111 22.9607 8.40111C22.9607 8.40111 21.2551 9.21778 20.1299 10.3936C20.1299 10.3936 21.2277 8.77187 22.5773 8.1414C22.5773 8.1414 20.3576 7.8211 18.8907 9.16063C17.4238 10.4995 17.3061 12.4243 17.3061 12.4243C17.3061 12.4243 17.0592 10.844 17.4804 9.97937C17.4804 9.97937 16.0482 11.8021 17.7789 14.0589Z"/>
</mask>
<path d="M16.7085 9.37323C16.944 9.07345 17.3229 8.94617 17.6782 9.0194C17.8413 8.81954 18.0239 8.62351 18.2284 8.43652C20.0167 6.80375 22.6061 7.15622 22.7153 7.17152C22.9466 7.20467 23.1525 7.3183 23.3027 7.48341C23.3785 7.51161 23.4493 7.55144 23.5166 7.59839C25.8841 6.14501 28.2769 6.81338 28.3901 6.84604C28.7087 6.9385 28.946 7.18275 29.0445 7.48145C30.721 7.34857 32.3392 7.95885 33.3683 8.65572C33.7639 8.92384 34.1045 9.2207 34.3758 9.53305C34.3848 9.54336 34.4124 9.57548 34.4539 9.6263C34.7477 9.49213 35.0977 9.50567 35.3854 9.68722C37.2152 10.8405 38.0768 12.0507 38.4751 13.0627C38.7869 13.2062 39.0167 13.5114 39.0566 13.8715C39.1581 14.7966 38.9472 15.6614 38.6549 16.3685C38.7827 16.6237 38.7926 16.9248 38.6785 17.1918C39.0058 17.4926 39.0956 17.9777 38.883 18.3743C38.8006 18.5275 38.5937 18.9025 38.3036 19.3535C38.426 19.6119 38.4326 19.9199 38.302 20.1931C38.27 20.2609 37.4867 21.8719 35.5825 23.2632C34.548 24.0186 33.046 24.8007 31.0138 25.1371C32.0127 25.5988 33.6723 26.69 34.4863 29.055C34.4863 29.055 33.481 27.914 32.1572 26.9518L33.754 28.9206C33.754 28.9206 29.7669 28.0934 27.7664 25.2643C27.2611 25.2261 26.7347 25.1626 26.1853 25.0688C26.1194 25.057 26.0562 25.0384 25.996 25.0148C25.1275 25.8279 22.1614 29.0077 20.7221 35.6679C20.6165 36.1545 20.5228 36.626 20.4385 37.0815C20.7643 36.6806 21.1699 36.1926 21.604 35.694C21.444 32.5156 22.9643 31.2392 22.9643 31.2392C23.2993 32.7456 23.084 33.7562 22.8274 34.3578C23.1271 34.0513 23.4188 33.7715 23.6871 33.5425C24.46 31.3161 26.0517 30.2354 27.5505 30.1072C29.7844 29.9156 31.9317 31.4972 31.9317 31.4972C31.9317 31.4972 31.3775 34.5829 29.0064 35.1676C26.6354 35.7518 24.0867 34.1353 24.0867 34.1353C25.5609 32.7356 28.1369 32.2131 28.1369 32.2131C26.4934 32.0686 24.9211 33.0012 24.1068 33.5914C24.1068 33.5914 21.8159 35.8831 20.2516 38.1777C19.2758 44.3332 20.1939 47.336 20.1939 47.336L19.6976 46.9996C19.6976 46.9996 18.0138 43.2994 20.2111 35.256C22.2109 27.9355 22.801 27.0096 22.9335 25.4034C23.0021 24.5749 23.0268 23.8698 23.035 23.4434C22.8371 23.2571 22.6715 23.0555 22.5404 22.8401C22.4718 22.8705 22.4001 22.8899 22.3271 22.9043C21.565 23.1419 18.9251 24.0654 17.2789 25.8781C17.2789 25.8781 18.7617 23.2023 20.6866 22.3225C20.622 22.2822 20.5587 22.2434 20.4922 22.1981C20.3176 22.0797 20.1491 21.9522 19.9844 21.8172C19.68 22.0454 18.6998 22.6075 17.3135 21.696C15.6281 20.587 13.953 20.2409 13.953 20.2409C13.953 20.2409 16.4268 18.7935 18.2606 19.7835C17.09 17.7804 17.5035 16.2444 17.5582 16.0654C17.6086 15.9002 17.701 15.7549 17.8226 15.6395C17.5289 15.3095 17.2498 14.979 17.0002 14.6539C15.2654 12.3919 16.0504 10.2105 16.7085 9.37323ZM26.1717 34.558C29.8439 35.5526 31.0576 32.7887 31.0576 32.7887C29.3857 34.2849 26.1717 34.558 26.1717 34.558ZM23.2215 9.03793C20.9641 11.0578 20.2869 13.0305 21.122 14.7131C21.9575 16.3962 24.0182 17.9232 24.0182 17.9232C24.0182 17.9232 21.8977 14.7832 22.537 13.0617C23.1763 11.3401 24.9468 9.74648 24.9468 9.74648C24.9468 9.74648 23.4813 10.5942 22.5594 11.9079C22.5594 11.9079 24.8367 7.96313 28.1173 7.78663C28.1176 7.78677 25.4782 7.01766 23.2215 9.03793ZM32.2964 18.3386C32.2964 18.3386 31.4408 17.4635 30.1728 17.1964C30.1728 17.1964 31.701 17.0812 32.2836 17.4104C32.2836 17.4104 32.4546 16.0146 30.7988 15.6157C29.143 15.2168 27.5023 15.2565 26.0361 14.2627C24.5687 13.269 24.234 12.4513 24.234 12.4513C24.234 12.4513 23.4477 13.4856 23.6285 14.9978C23.7866 16.3204 24.5699 17.7388 25.4363 18.2591C25.4363 18.2591 28.969 17.5636 32.0881 18.9858C32.0881 18.9858 30.9679 18.0631 29.2172 17.7317C29.2175 17.7318 31.264 17.8699 32.2964 18.3386ZM27.6329 11.5657C27.6329 11.5657 26.6261 11.5442 26.1393 12.2643C26.1393 12.2643 26.1615 11.5023 26.8079 11.2768C26.8079 11.2768 25.3565 11.562 25.5502 12.8097C25.7441 14.0569 27.4723 14.2337 27.4723 14.2337C27.4723 14.2337 25.8831 13.2749 26.5227 12.5246C27.1634 11.7732 27.6329 11.5657 27.6329 11.5657ZM28.9995 12.8522C28.8002 12.1268 26.257 12.8678 27.4853 13.3384C27.4855 13.3386 29.1991 13.5796 28.9995 12.8522ZM30.1241 11.873C30.4522 12.5549 29.2487 13.7491 29.2487 13.7491C29.9787 13.7891 30.5172 14.2093 30.5172 14.2093C29.7785 13.9389 28.4608 14.4752 28.4608 14.4752C30.7803 14.453 32.1663 15.8354 32.1663 15.8354C32.1663 15.8354 32.6836 13.3437 31.4851 11.8085C30.2857 10.2737 28.1339 11.2147 28.1339 11.2147C28.1339 11.2147 29.7961 11.1911 30.1241 11.873ZM33.6407 10.1807C32.5312 8.90331 29.9528 7.94571 27.9045 8.72684C25.8567 9.50825 24.843 11.7466 24.843 11.7466C25.6405 10.4856 26.9405 9.9144 26.9405 9.9144C25.8601 10.6343 25.3491 11.729 25.3491 11.729C26.5821 10.2001 29.0245 8.92707 31.5398 10.7294C34.0553 12.5316 33.1319 17.6394 33.1319 17.6394C33.9752 16.7407 34.3158 15.6978 34.3158 15.6978L34.1231 17.0512C34.9887 16.0651 34.8233 14.2675 34.8233 14.2675C35.0382 14.9709 35.1018 15.6059 35.1018 15.6059C35.7262 12.5462 33.6407 10.1807 33.6407 10.1807ZM38.082 13.9772C38.082 13.9772 38.0639 14.3921 37.7571 15.1372C37.7571 15.1372 38.4599 12.7874 34.8627 10.5154C34.8627 10.5154 36.9377 13.3334 35.9091 15.8244C35.9091 15.8244 36.35 15.367 36.6438 14.3503C36.6438 14.3503 37.0061 16.7318 33.7634 19.3321C33.7634 19.3321 36.3238 18.9544 37.7787 16.8066L36.8427 17.5082C36.8429 17.508 38.2891 15.859 38.082 13.9772ZM23.7374 22.7603C25.33 24.2002 28.4849 23.5768 28.4849 23.5768L26.3506 24.103C30.2905 24.7793 32.9803 23.8421 34.721 22.6694C30.311 23.3402 27.7467 20.8756 27.7467 20.8756C31.2245 22.6132 34.8523 21.8866 36.063 21.5632C37.0173 20.6068 37.4174 19.77 37.4174 19.77C36.7326 20.4892 35.665 20.8502 35.665 20.8502C36.7645 20.2478 38.0189 17.9099 38.0189 17.9099C38.0189 17.9099 35.3058 20.3107 33.3638 20.4084C31.4209 20.5052 26.2022 18.9752 25.1813 19.0729C24.1616 19.1701 22.1444 21.32 23.7374 22.7603ZM19.3302 19.6435C20.5947 21.519 22.1485 21.9471 22.1485 21.9471C22.1485 21.9471 22.4722 20.0666 21.3538 18.6486C20.1846 17.1669 18.7856 16.2193 18.7856 16.2193L19.877 18.01L18.4975 16.3531C18.4973 16.3529 18.0653 17.7687 19.3302 19.6435ZM17.7789 14.0589C19.5098 16.3153 22.799 18.8965 22.9055 20.829C22.9055 20.829 23.4383 18.779 22.1409 17.243C20.8438 15.7072 18.895 13.2375 19.5378 11.9969C20.1804 10.7566 22.9607 8.40111 22.9607 8.40111C22.9607 8.40111 21.2551 9.21778 20.1299 10.3936C20.1299 10.3936 21.2277 8.77187 22.5773 8.1414C22.5773 8.1414 20.3576 7.8211 18.8907 9.16063C17.4238 10.4995 17.3061 12.4243 17.3061 12.4243C17.3061 12.4243 17.0592 10.844 17.4804 9.97937C17.4804 9.97937 16.0482 11.8021 17.7789 14.0589Z" fill="#FF9497" stroke="#3F3F3F" stroke-width="2" mask="url(#path-1-inside-1)"/>
<path d="M19.7273 31.9547C19.6826 31.8048 19.6075 31.6049 19.4818 31.3696C19.2277 30.8942 18.7599 30.2611 17.8955 29.6004C17.8686 29.8327 17.8613 30.1174 17.9052 30.4375C17.9545 30.7966 18.0699 31.2128 18.3082 31.6589C18.2974 31.6117 18.2875 31.5647 18.2787 31.5183L19.1902 31.1548L19.1903 31.1548L19.1903 31.1548L19.1903 31.1548L19.1904 31.1549L19.1908 31.1555L19.1924 31.158L19.1992 31.1685L19.2262 31.2099C19.2498 31.2462 19.2844 31.299 19.3279 31.3647C19.4149 31.4962 19.5373 31.679 19.6784 31.8839C19.6945 31.9073 19.7108 31.9309 19.7273 31.9547Z" fill="#DA666A" stroke="#3F3F3F"/>
<path d="M27.2179 39.5103C27.2179 39.5103 27.2179 39.5102 27.2205 39.5097L27.5518 39.4896C27.5351 39.7732 27.4914 40.0211 27.447 40.2113C27.348 40.1917 27.2337 40.1668 27.1073 40.1357C26.6441 40.0215 26.028 39.8251 25.4066 39.4975C24.414 38.974 23.429 38.131 23.0043 36.7503C23.0387 36.7745 23.0737 36.7991 23.1092 36.8242C23.7356 37.2672 24.5207 37.8529 25.1792 38.4371L25.9328 37.7946L25.5111 38.0631C25.9328 37.7946 25.9328 37.7944 25.9327 37.7943L25.9325 37.794L25.9321 37.7934L25.931 37.7917L25.9278 37.7867L25.917 37.7703C25.9079 37.7565 25.8951 37.7373 25.8783 37.713C25.8449 37.6643 25.7962 37.5952 25.7321 37.509C25.6039 37.3368 25.4137 37.0958 25.1609 36.8129C24.8502 36.4652 24.4436 36.0528 23.9394 35.6263C23.9446 35.6266 23.9497 35.627 23.9549 35.6274C24.1797 35.6445 24.4248 35.6808 24.682 35.7471L24.584 35.9663C25.709 36.6128 26.3686 37.5041 26.7487 38.2385C26.9388 38.6057 27.0576 38.9314 27.1283 39.1625C27.1636 39.2779 27.1867 39.3691 27.2007 39.4294C27.2076 39.4595 27.2123 39.4818 27.215 39.4956L27.2177 39.5096L27.2179 39.5103ZM27.2179 39.5103L27.218 39.5111L27.2179 39.5106L27.2179 39.5103ZM27.3362 40.591L27.3365 40.5902L27.3364 40.5905L27.3362 40.591Z" fill="#FF8E91" stroke="#3F3F3F"/>
</svg>
