<svg width="62" height="86" viewBox="0 0 62 86" fill="none" xmlns="http://www.w3.org/2000/svg">
<g clip-path="url(#clip0)">
<path d="M17.3134 84.3924L17.3133 84.3917C17.28 84.2051 17.2924 83.9067 17.3174 83.5822C17.3444 83.2331 17.393 82.7812 17.4596 82.2444C17.593 81.1697 17.8006 79.7348 18.0579 78.0603C18.5728 74.7105 19.2891 70.386 20.0149 66.0349C20.122 65.3924 20.2294 64.7494 20.3363 64.1089C20.954 60.4091 21.5582 56.7909 22.0305 53.8371C22.3075 52.1043 22.5388 50.603 22.7007 49.4495C22.865 48.2787 22.9516 47.5064 22.9516 47.2025C22.9516 46.1004 22.2744 45.259 21.5118 44.3115C21.4623 44.25 21.4125 44.1881 21.3624 44.1256C20.9749 43.6417 20.5697 43.1111 20.3474 42.5283C20.1138 41.9158 20.0827 41.2493 20.4173 40.525L17.3134 84.3924ZM17.3134 84.3924C17.346 84.574 17.4442 84.7109 17.5345 84.8043C17.6262 84.8992 17.7362 84.977 17.8463 85.0418C18.0664 85.1711 18.353 85.2864 18.6773 85.3909C19.331 85.6014 20.2267 85.7957 21.2691 85.9607C23.3586 86.2914 26.1014 86.5145 28.8166 86.4993H28.8167M17.3134 84.3924L28.8167 86.4993M28.8167 86.4993C31.4285 86.4841 34.0175 86.2391 35.978 85.9002C36.9559 85.7311 37.7931 85.536 38.4037 85.3285C38.7065 85.2256 38.9751 85.1125 39.1819 84.9866C39.2854 84.9235 39.3894 84.8477 39.4764 84.7554C39.5619 84.6646 39.6555 84.5315 39.6867 84.3555L39.1944 84.2682L39.6865 84.3567C39.7202 84.1698 39.7079 83.8712 39.683 83.5469C39.6562 83.1977 39.6077 82.7458 39.5412 82.2091C39.4081 81.1346 39.2007 79.6997 38.9435 78.0255C38.429 74.6759 37.7129 70.3517 36.9872 66.0008C36.8783 65.348 36.7692 64.6946 36.6606 64.0438C36.0447 60.3552 35.4426 56.7491 34.9716 53.8038C34.6945 52.0712 34.4633 50.57 34.3014 49.4167C34.1371 48.246 34.0504 47.474 34.0504 47.1702C34.0504 46.5911 34.2424 46.048 34.5424 45.5067M28.8167 86.4993L34.5424 45.5067M26.3399 50.8697C26.31 51.1655 26.2814 51.4651 26.2527 51.7672C26.1697 52.6383 26.0847 53.531 25.9574 54.4191L25.9573 54.4191L25.956 54.4298C25.6601 56.8696 25.2796 59.4639 24.8713 62.0559C24.0348 67.2332 23.0029 72.3734 22.1084 76.2057L22.1076 76.2094C22.0455 76.4851 21.9833 76.7529 21.9213 77.0128C21.9488 76.7469 21.9782 76.4737 22.0101 76.1933L22.0104 76.1898C22.4257 72.2781 23.1485 67.0896 23.9743 61.9143C24.1288 61.0228 24.2781 60.1342 24.4259 59.254C24.7086 57.571 24.9862 55.9186 25.2855 54.3348L25.2855 54.3348L25.2861 54.3317C25.3914 53.7548 25.4946 53.188 25.5958 52.6326C25.7048 52.0337 25.8114 51.4481 25.9158 50.8774L25.9162 50.8748C25.9781 50.526 26.045 50.1766 26.1115 49.8292C26.2478 49.1178 26.3824 48.4149 26.4685 47.7431C26.5076 47.4815 26.5457 47.2251 26.5828 46.9753C26.5843 46.9656 26.5858 46.9558 26.5872 46.946C26.585 47.0097 26.5825 47.0737 26.5799 47.139C26.573 47.3143 26.5657 47.4996 26.5633 47.7183L26.5633 47.7201C26.5562 48.6725 26.4544 49.7253 26.3399 50.8697ZM26.3399 50.8697L26.8374 50.9201M26.3399 50.8697C26.3399 50.8699 26.3399 50.8701 26.3399 50.8703L26.8374 50.9201M26.8374 50.9201C26.9514 49.7798 27.056 48.7035 27.0633 47.7238L25.365 62.1347C25.7739 59.5394 26.1555 56.9384 26.4523 54.49C26.5815 53.5892 26.6681 52.6791 26.7514 51.8049C26.7799 51.5051 26.8081 51.2096 26.8374 50.9201ZM34.5424 45.5067C34.789 45.0619 35.0906 44.6471 35.401 44.2204M34.5424 45.5067L35.401 44.2204M35.401 44.2204C35.4751 44.1185 35.5498 44.0159 35.6243 43.912M35.401 44.2204L35.6243 43.912M35.6243 43.912C35.9934 43.3974 36.3706 42.8369 36.5423 42.2473M35.6243 43.912L36.5423 42.2473M36.5423 42.2473C36.7254 41.6184 36.6733 40.9634 36.2228 40.3097L36.5423 42.2473ZM36.2226 40.3096C35.9598 39.9281 35.4982 39.6526 34.9939 39.4439C34.4732 39.2285 33.831 39.0539 33.121 38.9161C31.6992 38.64 29.9453 38.4999 28.2123 38.5C26.4803 38.5001 24.7437 38.6403 23.3589 38.9361C22.6678 39.0837 22.0445 39.2741 21.5476 39.5166C21.0645 39.7523 20.6256 40.0735 20.4173 40.5249L36.2226 40.3096Z" stroke="#3F3F3F"/>
</g>
<g clip-path="url(#clip1)">
<mask id="path-4-inside-1" fill="white">
<path d="M23.7085 17.3732C23.944 17.0734 24.3229 16.9462 24.6782 17.0194C24.8413 16.8195 25.0239 16.6235 25.2284 16.4365C27.0167 14.8037 29.6061 15.1562 29.7153 15.1715C29.9466 15.2047 30.1525 15.3183 30.3027 15.4834C30.3785 15.5116 30.4493 15.5514 30.5166 15.5984C32.8841 14.145 35.2769 14.8134 35.3901 14.846C35.7087 14.9385 35.946 15.1827 36.0445 15.4815C37.721 15.3486 39.3392 15.9589 40.3683 16.6557C40.7639 16.9238 41.1045 17.2207 41.3758 17.5331C41.3848 17.5434 41.4124 17.5755 41.4539 17.6263C41.7477 17.4921 42.0977 17.5057 42.3854 17.6872C44.2152 18.8405 45.0768 20.0507 45.4751 21.0627C45.7869 21.2062 46.0167 21.5114 46.0566 21.8715C46.1581 22.7966 45.9472 23.6614 45.6549 24.3685C45.7827 24.6237 45.7926 24.9248 45.6785 25.1918C46.0058 25.4926 46.0956 25.9777 45.883 26.3743C45.8006 26.5275 45.5937 26.9025 45.3036 27.3535C45.426 27.6119 45.4326 27.9199 45.302 28.1931C45.27 28.2609 44.4867 29.8719 42.5825 31.2632C41.548 32.0186 40.046 32.8007 38.0138 33.1371C39.0127 33.5988 40.6723 34.69 41.4863 37.055C41.4863 37.055 40.481 35.914 39.1572 34.9518L40.754 36.9206C40.754 36.9206 36.7669 36.0934 34.7664 33.2643C34.2611 33.2261 33.7347 33.1626 33.1853 33.0688C33.1194 33.057 33.0562 33.0384 32.996 33.0148C32.1275 33.8279 29.1614 37.0077 27.7221 43.6679C27.6165 44.1545 27.5228 44.626 27.4385 45.0815C27.7643 44.6806 28.1699 44.1926 28.604 43.694C28.444 40.5156 29.9643 39.2392 29.9643 39.2392C30.2993 40.7456 30.084 41.7562 29.8274 42.3578C30.1271 42.0513 30.4188 41.7715 30.6871 41.5425C31.46 39.3161 33.0517 38.2354 34.5505 38.1072C36.7844 37.9156 38.9317 39.4972 38.9317 39.4972C38.9317 39.4972 38.3775 42.5829 36.0064 43.1676C33.6354 43.7518 31.0867 42.1353 31.0867 42.1353C32.5609 40.7356 35.1369 40.2131 35.1369 40.2131C33.4934 40.0686 31.9211 41.0012 31.1068 41.5914C31.1068 41.5914 28.8159 43.8831 27.2516 46.1777C26.2758 52.3332 27.1939 55.336 27.1939 55.336L26.6976 54.9996C26.6976 54.9996 25.0138 51.2994 27.2111 43.256C29.2109 35.9355 29.801 35.0096 29.9335 33.4034C30.0021 32.5749 30.0268 31.8698 30.035 31.4434C29.8371 31.2571 29.6715 31.0555 29.5404 30.8401C29.4718 30.8705 29.4001 30.8899 29.3271 30.9043C28.565 31.1419 25.9251 32.0654 24.2789 33.8781C24.2789 33.8781 25.7617 31.2023 27.6866 30.3225C27.622 30.2822 27.5587 30.2434 27.4922 30.1981C27.3176 30.0797 27.1491 29.9522 26.9844 29.8172C26.68 30.0454 25.6998 30.6075 24.3135 29.696C22.6281 28.587 20.953 28.2409 20.953 28.2409C20.953 28.2409 23.4268 26.7935 25.2606 27.7835C24.09 25.7804 24.5035 24.2444 24.5582 24.0654C24.6086 23.9002 24.701 23.7549 24.8226 23.6395C24.5289 23.3095 24.2498 22.979 24.0002 22.6539C22.2654 20.3919 23.0504 18.2105 23.7085 17.3732ZM33.1717 42.558C36.8439 43.5526 38.0576 40.7887 38.0576 40.7887C36.3857 42.2849 33.1717 42.558 33.1717 42.558ZM30.2215 17.0379C27.9641 19.0578 27.2869 21.0305 28.122 22.7131C28.9575 24.3962 31.0182 25.9232 31.0182 25.9232C31.0182 25.9232 28.8977 22.7832 29.537 21.0617C30.1763 19.3401 31.9468 17.7465 31.9468 17.7465C31.9468 17.7465 30.4813 18.5942 29.5594 19.9079C29.5594 19.9079 31.8367 15.9631 35.1173 15.7866C35.1176 15.7868 32.4782 15.0177 30.2215 17.0379ZM39.2964 26.3386C39.2964 26.3386 38.4408 25.4635 37.1728 25.1964C37.1728 25.1964 38.701 25.0812 39.2836 25.4104C39.2836 25.4104 39.4546 24.0146 37.7988 23.6157C36.143 23.2168 34.5023 23.2565 33.0361 22.2627C31.5687 21.269 31.234 20.4513 31.234 20.4513C31.234 20.4513 30.4477 21.4856 30.6285 22.9978C30.7866 24.3204 31.5699 25.7388 32.4363 26.2591C32.4363 26.2591 35.969 25.5636 39.0881 26.9858C39.0881 26.9858 37.9679 26.0631 36.2172 25.7317C36.2175 25.7318 38.264 25.8699 39.2964 26.3386ZM34.6329 19.5657C34.6329 19.5657 33.6261 19.5442 33.1393 20.2643C33.1393 20.2643 33.1615 19.5023 33.8079 19.2768C33.8079 19.2768 32.3565 19.562 32.5502 20.8097C32.7441 22.0569 34.4723 22.2337 34.4723 22.2337C34.4723 22.2337 32.8831 21.2749 33.5227 20.5246C34.1634 19.7732 34.6329 19.5657 34.6329 19.5657ZM35.9995 20.8522C35.8002 20.1268 33.257 20.8678 34.4853 21.3384C34.4855 21.3386 36.1991 21.5796 35.9995 20.8522ZM37.1241 19.873C37.4522 20.5549 36.2487 21.7491 36.2487 21.7491C36.9787 21.7891 37.5172 22.2093 37.5172 22.2093C36.7785 21.9389 35.4608 22.4752 35.4608 22.4752C37.7803 22.453 39.1663 23.8354 39.1663 23.8354C39.1663 23.8354 39.6836 21.3437 38.4851 19.8085C37.2857 18.2737 35.1339 19.2147 35.1339 19.2147C35.1339 19.2147 36.7961 19.1911 37.1241 19.873ZM40.6407 18.1807C39.5312 16.9033 36.9528 15.9457 34.9045 16.7268C32.8567 17.5082 31.843 19.7466 31.843 19.7466C32.6405 18.4856 33.9405 17.9144 33.9405 17.9144C32.8601 18.6343 32.3491 19.729 32.3491 19.729C33.5821 18.2001 36.0245 16.9271 38.5398 18.7294C41.0553 20.5316 40.1319 25.6394 40.1319 25.6394C40.9752 24.7407 41.3158 23.6978 41.3158 23.6978L41.1231 25.0512C41.9887 24.0651 41.8233 22.2675 41.8233 22.2675C42.0382 22.9709 42.1018 23.6059 42.1018 23.6059C42.7262 20.5462 40.6407 18.1807 40.6407 18.1807ZM45.082 21.9772C45.082 21.9772 45.0639 22.3921 44.7571 23.1372C44.7571 23.1372 45.4599 20.7874 41.8627 18.5154C41.8627 18.5154 43.9377 21.3334 42.9091 23.8244C42.9091 23.8244 43.35 23.367 43.6438 22.3503C43.6438 22.3503 44.0061 24.7318 40.7634 27.3321C40.7634 27.3321 43.3238 26.9544 44.7787 24.8066L43.8427 25.5082C43.8429 25.508 45.2891 23.859 45.082 21.9772ZM30.7374 30.7603C32.33 32.2002 35.4849 31.5768 35.4849 31.5768L33.3506 32.103C37.2905 32.7793 39.9803 31.8421 41.721 30.6694C37.311 31.3402 34.7467 28.8756 34.7467 28.8756C38.2245 30.6132 41.8523 29.8866 43.063 29.5632C44.0173 28.6068 44.4174 27.77 44.4174 27.77C43.7326 28.4892 42.665 28.8502 42.665 28.8502C43.7645 28.2478 45.0189 25.9099 45.0189 25.9099C45.0189 25.9099 42.3058 28.3107 40.3638 28.4084C38.4209 28.5052 33.2022 26.9752 32.1813 27.0729C31.1616 27.1701 29.1444 29.32 30.7374 30.7603ZM26.3302 27.6435C27.5947 29.519 29.1485 29.9471 29.1485 29.9471C29.1485 29.9471 29.4722 28.0666 28.3538 26.6486C27.1846 25.1669 25.7856 24.2193 25.7856 24.2193L26.877 26.01L25.4975 24.3531C25.4973 24.3529 25.0653 25.7687 26.3302 27.6435ZM24.7789 22.0589C26.5098 24.3153 29.799 26.8965 29.9055 28.829C29.9055 28.829 30.4383 26.779 29.1409 25.243C27.8438 23.7072 25.895 21.2375 26.5378 19.9969C27.1804 18.7566 29.9607 16.4011 29.9607 16.4011C29.9607 16.4011 28.2551 17.2178 27.1299 18.3936C27.1299 18.3936 28.2277 16.7719 29.5773 16.1414C29.5773 16.1414 27.3576 15.8211 25.8907 17.1606C24.4238 18.4995 24.3061 20.4243 24.3061 20.4243C24.3061 20.4243 24.0592 18.844 24.4804 17.9794C24.4804 17.9794 23.0482 19.8021 24.7789 22.0589Z"/>
</mask>
<path d="M23.7085 17.3732C23.944 17.0734 24.3229 16.9462 24.6782 17.0194C24.8413 16.8195 25.0239 16.6235 25.2284 16.4365C27.0167 14.8037 29.6061 15.1562 29.7153 15.1715C29.9466 15.2047 30.1525 15.3183 30.3027 15.4834C30.3785 15.5116 30.4493 15.5514 30.5166 15.5984C32.8841 14.145 35.2769 14.8134 35.3901 14.846C35.7087 14.9385 35.946 15.1827 36.0445 15.4815C37.721 15.3486 39.3392 15.9589 40.3683 16.6557C40.7639 16.9238 41.1045 17.2207 41.3758 17.5331C41.3848 17.5434 41.4124 17.5755 41.4539 17.6263C41.7477 17.4921 42.0977 17.5057 42.3854 17.6872C44.2152 18.8405 45.0768 20.0507 45.4751 21.0627C45.7869 21.2062 46.0167 21.5114 46.0566 21.8715C46.1581 22.7966 45.9472 23.6614 45.6549 24.3685C45.7827 24.6237 45.7926 24.9248 45.6785 25.1918C46.0058 25.4926 46.0956 25.9777 45.883 26.3743C45.8006 26.5275 45.5937 26.9025 45.3036 27.3535C45.426 27.6119 45.4326 27.9199 45.302 28.1931C45.27 28.2609 44.4867 29.8719 42.5825 31.2632C41.548 32.0186 40.046 32.8007 38.0138 33.1371C39.0127 33.5988 40.6723 34.69 41.4863 37.055C41.4863 37.055 40.481 35.914 39.1572 34.9518L40.754 36.9206C40.754 36.9206 36.7669 36.0934 34.7664 33.2643C34.2611 33.2261 33.7347 33.1626 33.1853 33.0688C33.1194 33.057 33.0562 33.0384 32.996 33.0148C32.1275 33.8279 29.1614 37.0077 27.7221 43.6679C27.6165 44.1545 27.5228 44.626 27.4385 45.0815C27.7643 44.6806 28.1699 44.1926 28.604 43.694C28.444 40.5156 29.9643 39.2392 29.9643 39.2392C30.2993 40.7456 30.084 41.7562 29.8274 42.3578C30.1271 42.0513 30.4188 41.7715 30.6871 41.5425C31.46 39.3161 33.0517 38.2354 34.5505 38.1072C36.7844 37.9156 38.9317 39.4972 38.9317 39.4972C38.9317 39.4972 38.3775 42.5829 36.0064 43.1676C33.6354 43.7518 31.0867 42.1353 31.0867 42.1353C32.5609 40.7356 35.1369 40.2131 35.1369 40.2131C33.4934 40.0686 31.9211 41.0012 31.1068 41.5914C31.1068 41.5914 28.8159 43.8831 27.2516 46.1777C26.2758 52.3332 27.1939 55.336 27.1939 55.336L26.6976 54.9996C26.6976 54.9996 25.0138 51.2994 27.2111 43.256C29.2109 35.9355 29.801 35.0096 29.9335 33.4034C30.0021 32.5749 30.0268 31.8698 30.035 31.4434C29.8371 31.2571 29.6715 31.0555 29.5404 30.8401C29.4718 30.8705 29.4001 30.8899 29.3271 30.9043C28.565 31.1419 25.9251 32.0654 24.2789 33.8781C24.2789 33.8781 25.7617 31.2023 27.6866 30.3225C27.622 30.2822 27.5587 30.2434 27.4922 30.1981C27.3176 30.0797 27.1491 29.9522 26.9844 29.8172C26.68 30.0454 25.6998 30.6075 24.3135 29.696C22.6281 28.587 20.953 28.2409 20.953 28.2409C20.953 28.2409 23.4268 26.7935 25.2606 27.7835C24.09 25.7804 24.5035 24.2444 24.5582 24.0654C24.6086 23.9002 24.701 23.7549 24.8226 23.6395C24.5289 23.3095 24.2498 22.979 24.0002 22.6539C22.2654 20.3919 23.0504 18.2105 23.7085 17.3732ZM33.1717 42.558C36.8439 43.5526 38.0576 40.7887 38.0576 40.7887C36.3857 42.2849 33.1717 42.558 33.1717 42.558ZM30.2215 17.0379C27.9641 19.0578 27.2869 21.0305 28.122 22.7131C28.9575 24.3962 31.0182 25.9232 31.0182 25.9232C31.0182 25.9232 28.8977 22.7832 29.537 21.0617C30.1763 19.3401 31.9468 17.7465 31.9468 17.7465C31.9468 17.7465 30.4813 18.5942 29.5594 19.9079C29.5594 19.9079 31.8367 15.9631 35.1173 15.7866C35.1176 15.7868 32.4782 15.0177 30.2215 17.0379ZM39.2964 26.3386C39.2964 26.3386 38.4408 25.4635 37.1728 25.1964C37.1728 25.1964 38.701 25.0812 39.2836 25.4104C39.2836 25.4104 39.4546 24.0146 37.7988 23.6157C36.143 23.2168 34.5023 23.2565 33.0361 22.2627C31.5687 21.269 31.234 20.4513 31.234 20.4513C31.234 20.4513 30.4477 21.4856 30.6285 22.9978C30.7866 24.3204 31.5699 25.7388 32.4363 26.2591C32.4363 26.2591 35.969 25.5636 39.0881 26.9858C39.0881 26.9858 37.9679 26.0631 36.2172 25.7317C36.2175 25.7318 38.264 25.8699 39.2964 26.3386ZM34.6329 19.5657C34.6329 19.5657 33.6261 19.5442 33.1393 20.2643C33.1393 20.2643 33.1615 19.5023 33.8079 19.2768C33.8079 19.2768 32.3565 19.562 32.5502 20.8097C32.7441 22.0569 34.4723 22.2337 34.4723 22.2337C34.4723 22.2337 32.8831 21.2749 33.5227 20.5246C34.1634 19.7732 34.6329 19.5657 34.6329 19.5657ZM35.9995 20.8522C35.8002 20.1268 33.257 20.8678 34.4853 21.3384C34.4855 21.3386 36.1991 21.5796 35.9995 20.8522ZM37.1241 19.873C37.4522 20.5549 36.2487 21.7491 36.2487 21.7491C36.9787 21.7891 37.5172 22.2093 37.5172 22.2093C36.7785 21.9389 35.4608 22.4752 35.4608 22.4752C37.7803 22.453 39.1663 23.8354 39.1663 23.8354C39.1663 23.8354 39.6836 21.3437 38.4851 19.8085C37.2857 18.2737 35.1339 19.2147 35.1339 19.2147C35.1339 19.2147 36.7961 19.1911 37.1241 19.873ZM40.6407 18.1807C39.5312 16.9033 36.9528 15.9457 34.9045 16.7268C32.8567 17.5082 31.843 19.7466 31.843 19.7466C32.6405 18.4856 33.9405 17.9144 33.9405 17.9144C32.8601 18.6343 32.3491 19.729 32.3491 19.729C33.5821 18.2001 36.0245 16.9271 38.5398 18.7294C41.0553 20.5316 40.1319 25.6394 40.1319 25.6394C40.9752 24.7407 41.3158 23.6978 41.3158 23.6978L41.1231 25.0512C41.9887 24.0651 41.8233 22.2675 41.8233 22.2675C42.0382 22.9709 42.1018 23.6059 42.1018 23.6059C42.7262 20.5462 40.6407 18.1807 40.6407 18.1807ZM45.082 21.9772C45.082 21.9772 45.0639 22.3921 44.7571 23.1372C44.7571 23.1372 45.4599 20.7874 41.8627 18.5154C41.8627 18.5154 43.9377 21.3334 42.9091 23.8244C42.9091 23.8244 43.35 23.367 43.6438 22.3503C43.6438 22.3503 44.0061 24.7318 40.7634 27.3321C40.7634 27.3321 43.3238 26.9544 44.7787 24.8066L43.8427 25.5082C43.8429 25.508 45.2891 23.859 45.082 21.9772ZM30.7374 30.7603C32.33 32.2002 35.4849 31.5768 35.4849 31.5768L33.3506 32.103C37.2905 32.7793 39.9803 31.8421 41.721 30.6694C37.311 31.3402 34.7467 28.8756 34.7467 28.8756C38.2245 30.6132 41.8523 29.8866 43.063 29.5632C44.0173 28.6068 44.4174 27.77 44.4174 27.77C43.7326 28.4892 42.665 28.8502 42.665 28.8502C43.7645 28.2478 45.0189 25.9099 45.0189 25.9099C45.0189 25.9099 42.3058 28.3107 40.3638 28.4084C38.4209 28.5052 33.2022 26.9752 32.1813 27.0729C31.1616 27.1701 29.1444 29.32 30.7374 30.7603ZM26.3302 27.6435C27.5947 29.519 29.1485 29.9471 29.1485 29.9471C29.1485 29.9471 29.4722 28.0666 28.3538 26.6486C27.1846 25.1669 25.7856 24.2193 25.7856 24.2193L26.877 26.01L25.4975 24.3531C25.4973 24.3529 25.0653 25.7687 26.3302 27.6435ZM24.7789 22.0589C26.5098 24.3153 29.799 26.8965 29.9055 28.829C29.9055 28.829 30.4383 26.779 29.1409 25.243C27.8438 23.7072 25.895 21.2375 26.5378 19.9969C27.1804 18.7566 29.9607 16.4011 29.9607 16.4011C29.9607 16.4011 28.2551 17.2178 27.1299 18.3936C27.1299 18.3936 28.2277 16.7719 29.5773 16.1414C29.5773 16.1414 27.3576 15.8211 25.8907 17.1606C24.4238 18.4995 24.3061 20.4243 24.3061 20.4243C24.3061 20.4243 24.0592 18.844 24.4804 17.9794C24.4804 17.9794 23.0482 19.8021 24.7789 22.0589Z" fill="#FF9497" stroke="#3F3F3F" stroke-width="2" mask="url(#path-4-inside-1)"/>
<path d="M26.7273 39.9547C26.6826 39.8048 26.6075 39.6049 26.4818 39.3696C26.2277 38.8942 25.7599 38.2611 24.8955 37.6004C24.8686 37.8327 24.8613 38.1174 24.9052 38.4375C24.9545 38.7966 25.0699 39.2128 25.3082 39.6589C25.2974 39.6117 25.2875 39.5647 25.2787 39.5183L26.1902 39.1548L26.1903 39.1548L26.1903 39.1548L26.1903 39.1548L26.1904 39.1549L26.1908 39.1555L26.1924 39.158L26.1992 39.1685L26.2262 39.2099C26.2498 39.2462 26.2844 39.299 26.3279 39.3647C26.4149 39.4962 26.5373 39.679 26.6784 39.8839C26.6945 39.9073 26.7108 39.9309 26.7273 39.9547Z" fill="#DA666A" stroke="#3F3F3F"/>
<path d="M34.2179 47.5103C34.2179 47.5103 34.2179 47.5102 34.2205 47.5097L34.5518 47.4896C34.5351 47.7732 34.4914 48.0211 34.447 48.2113C34.348 48.1917 34.2337 48.1668 34.1073 48.1357C33.6441 48.0215 33.028 47.8251 32.4066 47.4975C31.414 46.974 30.429 46.131 30.0043 44.7503C30.0387 44.7745 30.0737 44.7991 30.1092 44.8242C30.7356 45.2672 31.5207 45.8529 32.1792 46.4371L32.9328 45.7946L32.5111 46.0631C32.9328 45.7946 32.9328 45.7944 32.9327 45.7943L32.9325 45.794L32.9321 45.7934L32.931 45.7917L32.9278 45.7867L32.917 45.7703C32.9079 45.7565 32.8951 45.7373 32.8783 45.713C32.8449 45.6643 32.7962 45.5952 32.7321 45.509C32.6039 45.3368 32.4137 45.0958 32.1609 44.8129C31.8502 44.4652 31.4436 44.0528 30.9394 43.6263C30.9446 43.6266 30.9497 43.627 30.9549 43.6274C31.1797 43.6445 31.4248 43.6808 31.682 43.7471L31.584 43.9663C32.709 44.6128 33.3686 45.5041 33.7487 46.2385C33.9388 46.6057 34.0576 46.9314 34.1283 47.1625C34.1636 47.2779 34.1867 47.3691 34.2007 47.4294C34.2076 47.4595 34.2123 47.4818 34.215 47.4956L34.2177 47.5096L34.2179 47.5103ZM34.2179 47.5103L34.218 47.5111L34.2179 47.5106L34.2179 47.5103ZM34.3362 48.591L34.3365 48.5902L34.3364 48.5905L34.3362 48.591Z" fill="#FF8E91" stroke="#3F3F3F"/>
</g>
<defs>
<clipPath id="clip0">
<rect x="5" y="39" width="47" height="47" fill="white"/>
</clipPath>
<clipPath id="clip1">
<rect width="37.1912" height="55.0429" transform="matrix(-0.832246 -0.554406 -0.554406 0.832246 61.4688 17.6189)" fill="white"/>
</clipPath>
</defs>
</svg>
