<svg width="12" height="12" viewBox="0 0 12 12" fill="none" xmlns="http://www.w3.org/2000/svg">
<path d="M6.66246 6.00075L11.8622 0.800964C12.0453 0.617894 12.0453 0.321082 11.8622 0.138035C11.6792 -0.0450117 11.3823 -0.0450351 11.1993 0.138035L5.99951 5.33783L0.799743 0.138035C0.616673 -0.0450351 0.319861 -0.0450351 0.136814 0.138035C-0.0462324 0.321105 -0.0462558 0.617917 0.136814 0.800964L5.33658 6.00073L0.136814 11.2005C-0.0462558 11.3836 -0.0462558 11.6804 0.136814 11.8635C0.228337 11.955 0.348314 12.0007 0.46829 12.0007C0.588267 12.0007 0.70822 11.955 0.799766 11.8635L5.99951 6.66368L11.1993 11.8635C11.2908 11.955 11.4108 12.0007 11.5307 12.0007C11.6507 12.0007 11.7707 11.955 11.8622 11.8635C12.0453 11.6804 12.0453 11.3836 11.8622 11.2005L6.66246 6.00075Z" fill="black"/>
</svg>
