<svg width="243" height="605" viewBox="0 0 243 605" fill="none" xmlns="http://www.w3.org/2000/svg">
<path d="M214.518 555.569C214.518 555.569 209.339 568.735 206.805 580.126C206.805 580.126 206.121 568.683 211.326 554.405C211.326 554.405 196.763 559.547 193.552 576.542C190.343 593.535 205.096 602.897 205.096 602.897C205.096 602.897 230.12 580.665 214.518 555.569ZM200.472 595.52C188.818 580.914 200.783 564.373 200.783 564.373C193.298 580.98 200.472 595.52 200.472 595.52Z" fill="#DA666A" fill-opacity="0.1"/>
<path d="M155.113 48.9613C155.113 48.9613 161.957 36.5789 165.948 25.6129C165.948 25.6129 165.141 37.0482 158.126 50.529C158.126 50.529 173.233 47.3208 178.623 30.8869C184.011 14.4538 170.598 3.25642 170.598 3.25642C170.598 3.25642 142.9 22.0522 155.113 48.9613ZM174.225 11.171C183.885 27.1668 169.874 42.0146 169.874 42.0146C179.451 26.5189 174.225 11.171 174.225 11.171Z" fill="#DA666A" fill-opacity="0.1"/>
<path d="M239.417 312.456C239.417 312.456 225.583 315.422 214.69 319.609C214.69 319.609 223.847 312.712 238.621 309.154C238.621 309.154 226.284 299.863 210.348 306.585C194.415 313.309 194.773 330.777 194.773 330.777C194.773 330.777 227.134 339.334 239.417 312.456ZM198.362 322.846C204.088 305.058 224.486 305.881 224.486 305.881C206.51 308.828 198.362 322.846 198.362 322.846Z" fill="#DA666A" fill-opacity="0.1"/>
<path d="M165.069 532.764C167.49 532.746 172.696 530.766 172.696 530.766C167.386 527.829 158.096 524.181 158.096 524.181C165.406 524.09 176.362 528.291 176.362 528.291C156.287 508.527 139.839 520.062 139.839 520.062C153.84 534.503 165.069 532.764 165.069 532.764Z" fill="#DA666A" fill-opacity="0.1"/>
<path d="M29.0558 122.688C30.2989 120.61 31.3139 115.133 31.3139 115.133C26.0443 118.142 18.0987 124.182 18.0987 124.182C21.8209 117.89 31.1058 110.715 31.1058 110.715C3.786 117.588 5.08858 137.636 5.08858 137.636C24.7038 133.184 29.0558 122.688 29.0558 122.688Z" fill="#DA666A" fill-opacity="0.1"/>
<path d="M37.2936 221.82C35.4129 223.346 32.5805 228.142 32.5805 228.142C38.5627 227.123 48.0982 224.177 48.0982 224.177C42.4431 228.81 31.2601 232.363 31.2601 232.363C59.2797 235.281 64.9347 216.003 64.9347 216.003C44.9826 213.455 37.2936 221.82 37.2936 221.82Z" fill="#DA666A" fill-opacity="0.1"/>
<path d="M87.4717 585.22C89.2746 586.837 94.4568 588.878 94.4568 588.878C92.5083 583.131 88.0953 574.179 88.0953 574.179C93.5616 579.033 98.8336 589.516 98.8336 589.516C97.2982 561.387 77.3702 558.842 77.3702 558.842C77.9988 578.946 87.4717 585.22 87.4717 585.22Z" fill="#DA666A" fill-opacity="0.1"/>
</svg>
