<svg width="718" height="191" viewBox="0 0 718 191" fill="none" xmlns="http://www.w3.org/2000/svg">
<path d="M684.364 48.1109C684.364 48.1109 691.208 35.7284 695.2 24.7624C695.2 24.7624 694.392 36.1977 687.378 49.6786C687.378 49.6786 702.485 46.4704 707.875 30.0365C713.262 13.6033 699.849 2.40597 699.849 2.40597C699.849 2.40597 672.151 21.2017 684.364 48.1109ZM703.476 10.3206C713.137 26.3163 699.126 41.1642 699.126 41.1642C708.703 25.6684 703.476 10.3206 703.476 10.3206Z" fill="#DA666A" fill-opacity="0.1"/>
<path d="M49.2905 165.442C49.2905 165.442 35.457 168.408 24.5642 172.595C24.5642 172.595 33.7209 165.698 48.495 162.14C48.495 162.14 36.1577 152.849 20.2224 159.571C4.28898 166.295 4.64691 183.763 4.64691 183.763C4.64691 183.763 37.0084 192.32 49.2905 165.442ZM8.23649 175.832C13.9617 158.044 34.3601 158.867 34.3601 158.867C16.3836 161.814 8.23649 175.832 8.23649 175.832Z" fill="#DA666A" fill-opacity="0.1"/>
<path d="M548.716 144.001C548.716 144.001 556.208 156.002 563.849 164.822C563.849 164.822 554.25 158.556 545.881 145.872C545.881 145.872 541.338 160.632 553.078 173.333C564.817 186.032 581.124 179.756 581.124 179.756C581.124 179.756 578.168 146.414 548.716 144.001ZM572.444 179.077C553.77 179.74 547.608 160.277 547.608 160.277C556.492 176.181 572.444 179.077 572.444 179.077Z" fill="#DA666A" fill-opacity="0.1"/>
<path d="M543.234 34.8491C545.656 34.8305 550.862 32.8504 550.862 32.8504C545.551 29.9133 536.261 26.2659 536.261 26.2659C543.571 26.1744 554.527 30.3756 554.527 30.3756C534.453 10.6115 518.005 22.1469 518.005 22.1469C532.006 36.5882 543.234 34.8491 543.234 34.8491Z" fill="#DA666A" fill-opacity="0.1"/>
<path d="M145.109 68.3132C146.912 69.9299 152.094 71.9709 152.094 71.9709C150.146 66.224 145.733 57.2723 145.733 57.2723C151.199 62.1264 156.471 72.6094 156.471 72.6094C154.936 44.4802 135.008 41.9346 135.008 41.9346C135.637 62.039 145.109 68.3132 145.109 68.3132Z" fill="#DA666A" fill-opacity="0.1"/>
<path d="M418.697 107.973C419.94 105.895 420.955 100.418 420.955 100.418C415.685 103.427 407.74 109.467 407.74 109.467C411.462 103.175 420.747 96 420.747 96C393.427 102.873 394.73 122.921 394.73 122.921C414.345 118.469 418.697 107.973 418.697 107.973Z" fill="#DA666A" fill-opacity="0.1"/>
</svg>
