<svg width="389" height="317" viewBox="0 0 389 317" fill="none" xmlns="http://www.w3.org/2000/svg">
<path d="M260.164 61.3098C258.397 59.6935 255.98 59.3628 253.947 60.2835C252.732 59.2138 251.405 58.1934 249.959 57.2586C237.314 49.0999 222.272 54.6524 221.638 54.8893C220.296 55.396 219.203 56.3848 218.505 57.6315C218.086 57.9084 217.711 58.2532 217.366 58.6391C201.476 52.3652 187.989 59.6865 187.352 60.0395C185.561 61.0365 184.437 62.9002 184.208 64.9352C174.035 66.2219 165.104 72.1849 159.795 77.9509C157.755 80.1689 156.078 82.5006 154.833 84.8429C154.792 84.9203 154.666 85.1607 154.479 85.5384C152.563 85.0552 150.488 85.5877 148.989 87.1148C139.447 96.8182 135.757 105.653 134.595 112.629C132.905 113.944 131.9 116.188 132.095 118.54C132.602 124.583 134.902 129.843 137.498 133.99C137.042 135.784 137.344 137.722 138.348 139.283C136.755 141.623 136.802 144.838 138.548 147.103C139.225 147.977 140.912 150.11 143.187 152.624C142.767 154.431 143.098 156.409 144.206 157.989C144.479 158.382 151.096 167.682 164.142 174.149C171.23 177.659 181.142 180.745 193.685 180.307C188.274 184.53 179.674 193.62 177.657 209.776C177.657 209.776 182.289 201.201 189.038 193.363L181.869 207.984C181.869 207.984 204.689 197.615 213.234 176.981C216.206 176.094 219.273 175.017 222.442 173.717C222.821 173.558 223.176 173.358 223.508 173.131C229.673 177.222 251.215 193.769 267.823 234.51C269.039 237.486 270.166 240.38 271.217 243.185C268.789 241.037 265.78 238.435 262.587 235.8C259.719 215.279 249.103 209.057 249.103 209.057C248.914 219.113 251.416 225.299 253.673 228.818C251.514 227.24 249.435 225.823 247.557 224.701C240.262 211.454 229.455 206.574 220.349 207.665C206.776 209.286 195.853 222.132 195.853 222.132C195.853 222.132 202.875 241.151 217.741 241.868C232.605 242.581 245.883 229 245.883 229C235.394 221.931 219.38 221.873 219.38 221.873C229.022 218.855 239.535 222.814 245.109 225.549C245.109 225.549 261.549 237.279 273.652 249.954C286.885 288.059 285.014 308.424 285.014 308.424L287.574 305.641C287.574 305.641 293.18 279.843 270.38 231.226C249.629 186.978 244.991 181.811 242.267 171.713C240.861 166.504 239.865 162.028 239.303 159.313C240.261 157.87 241.008 156.37 241.532 154.826C241.978 154.933 242.43 154.966 242.882 154.965C247.72 155.513 264.599 158.052 276.611 167.542C276.611 167.542 264.536 152.327 251.981 149.156C252.319 148.815 252.65 148.487 252.993 148.113C253.893 147.133 254.746 146.104 255.567 145.03C257.66 146.101 264.191 148.446 271.374 140.853C280.107 131.616 289.695 127.269 289.695 127.269C289.695 127.269 273.179 121.169 263.417 129.834C267.999 115.538 263.681 106.246 263.14 105.172C262.64 104.179 261.913 103.369 261.048 102.786C262.405 100.302 263.675 97.834 264.774 95.4378C272.414 78.7661 265.102 65.8231 260.164 61.3098ZM233.938 234.359C213.202 245.396 202.628 229.274 202.628 229.274C214.411 236.708 233.938 234.359 233.938 234.359ZM220.859 67.464C236.771 77.4994 243.189 89.2472 240.226 101.067C237.26 112.891 226.789 125.278 226.789 125.278C226.789 125.278 235.677 102.503 229.787 92.3131C223.898 82.1229 211.406 74.1918 211.406 74.1918C211.406 74.1918 221.179 77.7433 228.266 84.9661C228.266 84.9661 209.918 62.6516 190.112 65.7035C190.112 65.7058 204.95 57.4251 220.859 67.464ZM177.845 138.481C177.845 138.481 181.902 131.797 189.155 128.474C189.155 128.474 179.888 129.684 176.804 132.531C176.804 132.531 174.104 123.827 183.514 119.167C192.924 114.507 202.771 112.67 210.333 104.449C217.902 96.2271 218.917 90.5737 218.917 90.5737C218.917 90.5737 224.858 96.1837 225.597 106.081C226.244 114.737 223.272 124.801 218.723 129.231C218.723 129.231 196.786 129.287 179.867 142.353C179.867 142.353 185.448 135.027 195.506 130.678C195.505 130.681 183.447 134.169 177.845 138.481ZM197.552 89.2437C197.552 89.2437 203.539 87.8232 207.312 91.8064C207.312 91.8064 206.263 86.9635 202.131 86.3454C202.131 86.3454 211.143 86.3196 211.487 94.5417C211.829 102.761 201.72 106.094 201.72 106.094C201.72 106.094 210.059 97.9395 205.336 93.9587C200.606 89.9732 197.552 89.2437 197.552 89.2437ZM190.936 99.211C191.254 94.32 207.335 95.8166 200.565 100.39C200.564 100.389 190.619 104.113 190.936 99.211ZM183.042 94.3833C181.903 99.1605 190.528 105.261 190.528 105.261C186.216 106.447 183.505 109.819 183.505 109.819C187.592 107.149 196.108 108.898 196.108 108.898C182.227 111.712 175.611 122.315 175.611 122.315C175.611 122.315 169.524 107.046 174.836 95.7052C180.153 84.3656 194.137 87.6391 194.137 87.6391C194.137 87.6391 184.18 89.6049 183.042 94.3833ZM160.003 88.0461C165.093 78.467 179.341 69.0603 192.515 71.4437C205.686 73.8294 214.433 86.8462 214.433 86.8462C208.153 79.8018 199.701 77.8067 199.701 77.8067C207.021 81.0322 211.39 87.3787 211.39 87.3787C202.186 79.1766 186.066 74.1507 173.211 88.8765C160.355 103.602 172.014 135.077 172.014 135.077C165.897 130.407 162.608 124.174 162.608 124.174L165.388 132.581C159.031 127.381 157.857 115.679 157.857 115.679C157.42 120.449 157.803 124.589 157.803 124.589C150.391 105.824 160.003 88.0461 160.003 88.0461ZM138.042 117.975C138.042 117.975 138.649 120.605 141.378 124.976C141.378 124.976 134.354 110.851 153.105 91.7443C153.105 91.7443 144.102 112.401 153.243 127.015C153.243 127.015 150.059 124.652 147.081 118.528C147.081 118.528 147.782 134.213 170.278 146.703C170.278 146.703 154.531 147.551 143.257 135.675L149.691 138.968C149.691 138.965 139.07 130.267 138.042 117.975ZM234.284 155.841C226.504 167.075 206.91 167.11 206.91 167.11L220.291 167.754C197.572 177.098 180.379 174.534 168.572 169.256C195.718 167.924 208.07 148.902 208.07 148.902C189.387 164.442 166.845 164.42 159.224 163.895C152.374 158.997 148.978 154.158 148.978 154.158C153.933 157.883 160.744 158.831 160.744 158.831C153.452 156.381 143.147 143.034 143.147 143.034C143.147 143.034 162.24 154.924 173.957 153.074C185.678 151.217 215.008 134.787 221.223 134.111C227.433 133.43 242.067 144.606 234.284 155.841ZM256.859 130.301C251.562 143.901 242.797 148.617 242.797 148.617C242.797 148.617 238.601 137.009 243.575 126.52C248.776 115.558 255.992 107.718 255.992 107.718L251.628 120.555L257.874 108.206C257.875 108.205 262.158 116.705 256.859 130.301ZM259.408 92.6263C251.784 109.256 235.243 129.947 236.931 142.436C236.931 142.436 231.283 130.01 237.185 118.538C243.084 107.068 251.753 88.7979 246.421 81.6866C241.091 74.5765 221.651 63.0621 221.651 63.0621C221.651 63.0621 232.821 66.1093 240.956 72.192C240.956 72.192 232.448 63.2239 223.629 60.9133C223.629 60.9133 236.501 56.0376 246.874 62.7313C257.247 69.4204 260.265 81.5752 260.265 81.5752C260.265 81.5752 259.838 71.1586 256.283 66.1679C256.282 66.1691 267.029 75.9945 259.408 92.6263Z" fill="#FFABAE" fill-opacity="0.17"/>
<path d="M32.4931 227.257C32.4931 227.257 23.7845 223.592 16.2498 221.799C16.2498 221.799 23.819 221.315 33.2626 224.998C33.2626 224.998 29.8614 214.693 18.6206 212.421C7.38031 210.15 1.18809 220.59 1.18809 220.59C1.18809 220.59 15.8933 238.298 32.4931 227.257ZM6.06749 217.318C15.7289 209.071 26.6698 217.538 26.6698 217.538C15.6847 212.241 6.06749 217.318 6.06749 217.318Z" fill="#FFABAE" fill-opacity="0.2"/>
<path d="M126.922 243.935C126.922 243.935 132.967 247.51 138.321 249.595C138.321 249.595 132.738 249.173 126.157 245.509C126.157 245.509 127.723 253.4 135.746 256.215C143.769 259.029 149.236 252.024 149.236 252.024C149.236 252.024 140.06 237.556 126.922 243.935ZM145.372 253.918C137.563 258.964 130.313 251.645 130.313 251.645C137.879 256.648 145.372 253.918 145.372 253.918Z" fill="#FFABAE" fill-opacity="0.2"/>
<path d="M56.4285 72.8795C56.4285 72.8795 54.4668 63.0904 51.6971 55.3824C51.6971 55.3824 56.2593 61.8619 58.6128 72.3165C58.6128 72.3165 64.7578 63.5863 60.3115 52.31C55.8644 41.035 44.3098 41.2883 44.3098 41.2883C44.3098 41.2883 38.6503 64.1883 56.4285 72.8795ZM49.5561 43.8284C61.3218 47.8798 60.7777 62.3142 60.7777 62.3142C58.8281 49.5936 49.5561 43.8284 49.5561 43.8284Z" fill="#FFABAE" fill-opacity="0.2"/>
<path d="M323.402 77.857C323.414 79.5706 324.724 83.2543 324.724 83.2543C326.667 79.4968 329.079 72.9229 329.079 72.9229C329.14 78.0956 326.361 85.8485 326.361 85.8485C339.434 71.6431 331.804 60.0039 331.804 60.0039C322.252 69.9114 323.402 77.857 323.402 77.857Z" fill="#FFABAE" fill-opacity="0.2"/>
<path d="M183.893 301.307C185.268 302.187 188.89 302.905 188.89 302.905C186.9 299.176 182.905 293.553 182.905 293.553C187.067 296.187 191.813 302.757 191.813 302.757C187.266 283.425 174.006 284.347 174.006 284.347C176.951 298.227 183.893 301.307 183.893 301.307Z" fill="#FFABAE" fill-opacity="0.2"/>
<path d="M193.305 4.26946C192.296 2.93861 189.124 0.934316 189.124 0.934316C189.798 5.1675 191.747 11.9151 191.747 11.9151C188.682 7.91338 186.332 -3.57306e-05 186.332 -3.57306e-05C184.402 19.8275 197.153 23.8291 197.153 23.8291C198.839 9.71042 193.305 4.26946 193.305 4.26946Z" fill="#FFABAE" fill-opacity="0.2"/>
<path d="M291.46 182.154C290.391 183.429 289.041 187.096 289.041 187.096C292.842 185.718 298.763 182.595 298.763 182.595C295.552 186.463 288.618 190.194 288.618 190.194C307.224 189.107 308.908 175.005 308.908 175.005C295.61 175.45 291.46 182.154 291.46 182.154Z" fill="#FFABAE" fill-opacity="0.2"/>
</svg>
