<svg width="533" height="353" viewBox="0 0 533 353" fill="none" xmlns="http://www.w3.org/2000/svg">
<path d="M396.946 83.2243C395.078 81.5162 392.524 81.1667 390.375 82.1397C389.091 81.0092 387.689 79.9308 386.161 78.9429C372.797 70.3207 356.901 76.1887 356.231 76.4391C354.813 76.9745 353.658 78.0195 352.92 79.3371C352.477 79.6296 352.081 79.9941 351.716 80.4019C334.924 73.7715 320.67 81.5088 319.997 81.8819C318.104 82.9355 316.916 84.9051 316.674 87.0557C305.923 88.4155 296.485 94.7173 290.875 100.811C288.718 103.155 286.946 105.619 285.631 108.094C285.587 108.176 285.453 108.43 285.256 108.83C283.231 108.319 281.039 108.882 279.454 110.495C269.37 120.75 265.47 130.086 264.242 137.459C262.457 138.849 261.394 141.22 261.6 143.707C262.136 150.093 264.566 155.651 267.31 160.034C266.828 161.93 267.148 163.978 268.208 165.628C266.525 168.101 266.574 171.498 268.42 173.892C269.135 174.815 270.918 177.07 273.322 179.726C272.879 181.637 273.228 183.726 274.4 185.396C274.688 185.811 281.681 195.64 295.469 202.474C302.959 206.184 313.434 209.446 326.689 208.982C320.971 213.446 311.883 223.052 309.751 240.126C309.751 240.126 314.646 231.063 321.779 222.781L314.203 238.232C314.203 238.232 338.319 227.274 347.349 205.468C350.49 204.53 353.732 203.392 357.08 202.018C357.481 201.85 357.857 201.639 358.207 201.399C364.723 205.722 387.488 223.21 405.04 266.265C406.325 269.41 407.516 272.469 408.627 275.433C406.061 273.163 402.88 270.413 399.506 267.629C396.475 245.942 385.256 239.366 385.256 239.366C385.057 249.994 387.701 256.531 390.085 260.25C387.804 258.582 385.607 257.085 383.623 255.899C375.913 241.899 364.492 236.742 354.869 237.894C340.525 239.607 328.981 253.184 328.981 253.184C328.981 253.184 336.402 273.283 352.112 274.041C367.821 274.794 381.853 260.442 381.853 260.442C370.769 252.971 353.844 252.91 353.844 252.91C364.035 249.721 375.145 253.904 381.035 256.795C381.035 256.795 398.409 269.192 411.2 282.586C425.185 322.856 423.207 344.379 423.207 344.379L425.913 341.437C425.913 341.437 431.837 314.173 407.742 262.794C385.812 216.033 380.91 210.572 378.032 199.9C376.546 194.395 375.493 189.665 374.899 186.796C375.912 185.271 376.701 183.685 377.255 182.054C377.726 182.167 378.204 182.202 378.682 182.201C383.795 182.779 401.632 185.463 414.328 195.492C414.328 195.492 401.566 179.413 388.298 176.061C388.654 175.702 389.004 175.355 389.367 174.959C390.318 173.924 391.22 172.836 392.088 171.702C394.299 172.833 401.201 175.311 408.793 167.286C418.021 157.525 428.155 152.931 428.155 152.931C428.155 152.931 410.7 146.484 400.383 155.642C405.225 140.533 400.663 130.714 400.09 129.578C399.562 128.53 398.794 127.673 397.88 127.057C399.314 124.432 400.656 121.824 401.818 119.291C409.891 101.672 402.164 87.9941 396.946 83.2243ZM369.23 266.105C347.315 277.769 336.14 260.732 336.14 260.732C348.593 268.588 369.23 266.105 369.23 266.105ZM355.407 89.7282C372.224 100.334 379.006 112.749 375.875 125.24C372.741 137.736 361.674 150.826 361.674 150.826C361.674 150.826 371.067 126.758 364.843 115.989C358.619 105.22 345.417 96.8382 345.417 96.8382C345.417 96.8382 355.746 100.592 363.235 108.225C363.235 108.225 343.845 84.6424 322.913 87.8676C322.913 87.8701 338.594 79.119 355.407 89.7282ZM309.949 164.78C309.949 164.78 314.237 157.716 321.902 154.204C321.902 154.204 312.109 155.483 308.85 158.492C308.85 158.492 305.996 149.293 315.941 144.368C325.885 139.444 336.292 137.503 344.283 128.815C352.282 120.125 353.355 114.151 353.355 114.151C353.355 114.151 359.634 120.08 360.415 130.539C361.099 139.687 357.957 150.323 353.15 155.005C353.15 155.005 329.967 155.063 312.087 168.872C312.087 168.872 317.984 161.13 328.614 156.533C328.613 156.537 315.87 160.223 309.949 164.78ZM330.776 112.745C330.776 112.745 337.103 111.244 341.091 115.454C341.091 115.454 339.982 110.336 335.615 109.682C335.615 109.682 345.139 109.655 345.503 118.344C345.865 127.031 335.181 130.553 335.181 130.553C335.181 130.553 343.994 121.935 339.002 117.728C334.004 113.516 330.776 112.745 330.776 112.745ZM323.785 123.279C324.121 118.11 341.115 119.692 333.961 124.525C333.96 124.523 323.45 128.459 323.785 123.279ZM315.442 118.177C314.238 123.226 323.354 129.672 323.354 129.672C318.797 130.926 315.931 134.489 315.931 134.489C320.251 131.668 329.25 133.516 329.25 133.516C314.58 136.49 307.589 147.695 307.589 147.695C307.589 147.695 301.156 131.559 306.77 119.574C312.389 107.59 327.168 111.05 327.168 111.05C327.168 111.05 316.645 113.127 315.442 118.177ZM291.094 111.48C296.473 101.356 311.531 91.4152 325.453 93.934C339.373 96.4552 348.617 110.212 348.617 110.212C341.98 102.767 333.048 100.658 333.048 100.658C340.783 104.067 345.4 110.774 345.4 110.774C335.673 102.106 318.638 96.7948 305.053 112.357C291.465 127.92 303.788 161.183 303.788 161.183C297.322 156.247 293.846 149.66 293.846 149.66L296.785 158.545C290.067 153.049 288.826 140.682 288.826 140.682C288.364 145.723 288.769 150.099 288.769 150.099C280.936 130.267 291.094 111.48 291.094 111.48ZM267.885 143.109C267.885 143.109 268.527 145.888 271.411 150.508C271.411 150.508 263.987 135.58 283.805 115.388C283.805 115.388 274.29 137.219 283.949 152.662C283.949 152.662 280.585 150.166 277.438 143.693C277.438 143.693 278.178 160.269 301.952 173.469C301.952 173.469 285.311 174.365 273.396 161.815L280.196 165.294C280.196 165.292 268.972 156.1 267.885 143.109ZM369.595 183.126C361.373 194.999 340.666 195.036 340.666 195.036L354.807 195.717C330.798 205.591 312.628 202.881 300.149 197.303C328.839 195.896 341.892 175.793 341.892 175.793C322.147 192.216 298.325 192.193 290.271 191.638C283.032 186.462 279.442 181.348 279.442 181.348C284.679 185.285 291.877 186.286 291.877 186.286C284.171 183.697 273.281 169.592 273.281 169.592C273.281 169.592 293.458 182.157 305.841 180.202C318.228 178.24 349.224 160.877 355.792 160.161C362.355 159.443 377.82 171.253 369.595 183.126ZM393.452 156.135C387.855 170.508 378.592 175.492 378.592 175.492C378.592 175.492 374.158 163.224 379.414 152.139C384.911 140.554 392.537 132.269 392.537 132.269L387.925 145.836L394.525 132.785C394.526 132.784 399.053 141.767 393.452 156.135ZM396.146 116.32C388.089 133.894 370.609 155.761 372.393 168.96C372.393 168.96 366.424 155.828 372.661 143.704C378.895 131.583 388.057 112.274 382.422 104.759C376.789 97.2447 356.245 85.0762 356.245 85.0762C356.245 85.0762 368.049 88.2965 376.646 94.7248C376.646 94.7248 367.655 85.2472 358.335 82.8053C358.335 82.8053 371.939 77.6526 382.901 84.7266C393.863 91.7958 397.052 104.641 397.052 104.641C397.052 104.641 396.602 93.6327 392.844 88.3585C392.843 88.3597 404.201 98.7434 396.146 116.32Z" fill="#FFABAE" fill-opacity="0.17"/>
<path d="M49.1246 287.625C49.1246 287.625 35.9585 282.085 24.5672 279.373C24.5672 279.373 36.0106 278.642 50.2878 284.211C50.2878 284.211 45.1459 268.631 28.1514 265.196C11.1579 261.763 1.79631 277.545 1.79631 277.545C1.79631 277.545 24.0283 304.317 49.1246 287.625ZM9.17318 272.599C23.7797 260.13 40.3206 272.931 40.3206 272.931C23.7128 264.924 9.17318 272.599 9.17318 272.599Z" fill="#FFABAE" fill-opacity="0.2"/>
<path d="M33.4154 163.973C33.4154 163.973 42.5551 169.377 50.6492 172.53C50.6492 172.53 42.2087 171.892 32.2583 166.353C32.2583 166.353 34.6263 178.282 46.7564 182.538C58.8859 186.793 67.1508 176.201 67.1508 176.201C67.1508 176.201 53.2774 154.329 33.4154 163.973ZM61.3089 179.065C49.5023 186.693 38.5429 175.63 38.5429 175.63C49.9805 183.192 61.3089 179.065 61.3089 179.065Z" fill="#FFABAE" fill-opacity="0.2"/>
<path d="M126.325 113.732C126.325 113.732 123.359 98.9328 119.172 87.2794C119.172 87.2794 126.069 97.0755 129.627 112.881C129.627 112.881 138.918 99.6825 132.196 82.6344C125.472 65.5885 108.004 65.9714 108.004 65.9714C108.004 65.9714 99.4474 100.593 126.325 113.732ZM115.935 69.8116C133.723 75.9366 132.9 97.7593 132.9 97.7593C129.953 78.5276 115.935 69.8116 115.935 69.8116Z" fill="#FFABAE" fill-opacity="0.2"/>
<path d="M483.679 133.997C483.698 136.587 485.678 142.157 485.678 142.157C488.615 136.476 492.262 126.537 492.262 126.537C492.354 134.358 488.152 146.079 488.152 146.079C507.917 124.602 496.381 107.006 496.381 107.006C481.94 121.984 483.679 133.997 483.679 133.997Z" fill="#FFABAE" fill-opacity="0.2"/>
<path d="M281.955 337.701C284.033 339.031 289.51 340.117 289.51 340.117C286.501 334.479 280.461 325.979 280.461 325.979C286.753 329.961 293.928 339.894 293.928 339.894C287.055 310.667 267.007 312.06 267.007 312.06C271.459 333.045 281.955 337.701 281.955 337.701Z" fill="#FFABAE" fill-opacity="0.2"/>
<path d="M336.065 6.45487C334.539 4.44283 329.743 1.41267 329.743 1.41267C330.762 7.81257 333.708 18.0138 333.708 18.0138C329.075 11.9639 325.522 7.54268e-05 325.522 7.54268e-05C322.604 29.9761 341.882 36.026 341.882 36.026C344.43 14.6807 336.065 6.45487 336.065 6.45487Z" fill="#FFABAE" fill-opacity="0.2"/>
<path d="M428.231 273.815C426.615 275.744 424.574 281.288 424.574 281.288C430.32 279.203 439.272 274.482 439.272 274.482C434.418 280.33 423.935 285.97 423.935 285.97C452.064 284.328 454.61 263.008 454.61 263.008C434.505 263.681 428.231 273.815 428.231 273.815Z" fill="#FFABAE" fill-opacity="0.2"/>
</svg>
