<svg width="30" height="30" viewBox="0 0 30 30" fill="none" xmlns="http://www.w3.org/2000/svg">
<g clip-path="url(#clip0)">
<path d="M11.1318 20.5569C4.50401 32.0365 -5.57289 14.5829 7.68259 14.5829C-5.57289 14.5829 4.50396 -2.87074 11.1318 8.60887C4.50401 -2.87068 24.6577 -2.87068 18.03 8.60887C24.6577 -2.87074 34.7346 14.5829 21.4791 14.5829C34.7346 14.5829 24.6577 32.0365 18.03 20.5569C24.6577 32.0365 4.50401 32.0365 11.1318 20.5569Z" fill="#FFABAE"/>
<path d="M21.4794 14.5745L14.7573 14.4841L14.7606 14.4786L14.7552 14.4787L18.0303 8.60895C24.658 -2.87062 4.50434 -2.87062 11.1321 8.60895L14.4077 14.4795L14.4013 14.4795L14.4047 14.4851L7.68302 14.6059C-5.57234 14.6499 4.56233 32.07 11.1519 20.5685L14.5786 14.7859L14.5812 14.7906L14.5843 14.7851L18.0376 20.5529C24.6792 32.0243 34.7348 14.5585 21.4794 14.5745Z" fill="#FFABAE"/>
<path d="M14.5807 23.6308C14.3342 23.6308 14.1343 23.8307 14.1343 24.0773V25.9523C14.1343 26.1989 14.3342 26.3988 14.5807 26.3988C14.8273 26.3988 15.0272 26.1989 15.0272 25.9523V24.0772C15.0271 23.8307 14.8273 23.6308 14.5807 23.6308Z" fill="#FFABAE"/>
<path d="M7.49285 9.27151L8.6424 10.2256C8.72574 10.2948 8.82681 10.3285 8.9273 10.3285C9.05553 10.3285 9.1828 10.2736 9.27104 10.1672C9.42855 9.97745 9.40241 9.69603 9.21265 9.53858L8.0631 8.58449C7.87334 8.42697 7.59192 8.45312 7.43446 8.64288C7.277 8.83258 7.30315 9.11406 7.49285 9.27151Z" fill="#FFABAE"/>
<path d="M6.79484 18.2969L5.14459 19.1905C4.92772 19.3079 4.84722 19.5789 4.96458 19.7957C5.04541 19.9449 5.199 20.0296 5.35754 20.0296C5.42932 20.0296 5.50212 20.0122 5.56969 19.9756L7.21993 19.082C7.43675 18.9646 7.5173 18.6937 7.39995 18.4769C7.28259 18.2601 7.01166 18.1794 6.79484 18.2969Z" fill="#FFABAE"/>
<path d="M22.6187 21.1426L21.4291 20.0819C21.2451 19.9178 20.9628 19.9339 20.7988 20.118C20.6347 20.302 20.6508 20.5842 20.8349 20.7483L22.0245 21.809C22.1097 21.8849 22.2157 21.9222 22.3215 21.9222C22.4443 21.9222 22.5667 21.8718 22.6549 21.7728C22.8189 21.5889 22.8028 21.3067 22.6187 21.1426Z" fill="#FFABAE"/>
<path d="M22.4708 16.9002L15.6073 14.4692L22.5601 10.0793C22.7685 9.94767 22.8308 9.67195 22.6992 9.46339C22.5676 9.25489 22.2919 9.19262 22.0834 9.32422L15.0375 13.773V7.1125C15.0375 6.86595 14.8376 6.66605 14.591 6.66605C14.3445 6.66605 14.1446 6.86595 14.1446 7.1125V13.6323L10.3707 10.5001C10.181 10.3426 9.89951 10.3688 9.74211 10.5585C9.58459 10.7483 9.6108 11.0297 9.8005 11.1872L12.3563 13.3084L6.3012 11.1397C6.06929 11.0566 5.81356 11.1773 5.73039 11.4094C5.64721 11.6415 5.76799 11.8971 6.00013 11.9802L13.4996 14.6663L8.71464 17.2573C8.49776 17.3747 8.41727 17.6457 8.53462 17.8625C8.61546 18.0117 8.76904 18.0964 8.92759 18.0964C8.99936 18.0964 9.07223 18.079 9.13973 18.0424L14.1317 15.3393L14.1341 22.2024C14.1342 22.4489 14.3341 22.6487 14.5806 22.6487H14.5807C14.8273 22.6486 15.0271 22.4487 15.0271 22.2021L15.0247 15.5679L19.6876 19.7254C19.7727 19.8013 19.8788 19.8386 19.9846 19.8386C20.1074 19.8386 20.2298 19.7882 20.318 19.6893C20.4821 19.5052 20.4659 19.223 20.2819 19.059L16.5853 15.763L22.1727 17.7421C22.222 17.7595 22.2723 17.7677 22.3217 17.7677C22.5055 17.7677 22.6777 17.6534 22.7425 17.4703C22.8249 17.2378 22.7032 16.9826 22.4708 16.9002Z" fill="#FFABAE"/>
<path d="M14.591 5.47554C14.8375 5.47554 15.0374 5.27564 15.0374 5.02908V3.14362C15.0374 2.89707 14.8375 2.69717 14.591 2.69717C14.3444 2.69717 14.1445 2.89707 14.1445 3.14362V5.02908C14.1446 5.27564 14.3444 5.47554 14.591 5.47554Z" fill="#FFABAE"/>
<path d="M14.5916 18.0652C16.5148 18.0652 18.0739 16.5061 18.0739 14.5829C18.0739 12.6597 16.5148 11.1006 14.5916 11.1006C12.6684 11.1006 11.1094 12.6597 11.1094 14.5829C11.1094 16.5061 12.6684 18.0652 14.5916 18.0652Z" fill="#FFABAE"/>
<path d="M12.8742 14.5829C12.8742 12.9647 13.9781 11.6047 15.4738 11.2139C15.1919 11.1401 14.8962 11.1007 14.5912 11.1007C12.6679 11.1007 11.1089 12.6597 11.1089 14.583C11.1089 16.5062 12.6679 18.0652 14.5912 18.0652C14.8962 18.0652 15.1919 18.0258 15.4738 17.9521C13.9781 17.5612 12.8742 16.2011 12.8742 14.5829Z" fill="#FFABAE"/>
</g>
<g clip-path="url(#clip1)">
<path d="M15.3907 24.195C15.1515 24.195 14.9575 24.3889 14.9575 24.6282V26.4474C14.9575 26.6866 15.1514 26.8806 15.3907 26.8806C15.6299 26.8806 15.8239 26.6867 15.8239 26.4474V24.6282C15.8238 24.389 15.6299 24.195 15.3907 24.195Z" fill="#222222" stroke="#222222" stroke-width="0.3"/>
<path d="M10.1816 10.5221L9.06625 9.59645C8.88213 9.4436 8.60908 9.46901 8.45629 9.65313C8.30351 9.83725 8.32891 10.1103 8.51298 10.2631L9.62835 11.1887C9.70918 11.2559 9.80728 11.2886 9.90475 11.2886C10.0292 11.2886 10.1526 11.2353 10.2383 11.1321C10.391 10.9479 10.3657 10.6749 10.1816 10.5221Z" fill="#222222" stroke="#222222" stroke-width="0.3"/>
<path d="M8.4231 19.1945C8.30917 18.9842 8.04637 18.9059 7.83593 19.0198L6.2348 19.8868C6.02442 20.0007 5.94626 20.2636 6.06014 20.474C6.13858 20.6188 6.28755 20.7009 6.44142 20.7009C6.51109 20.7009 6.58173 20.6841 6.6473 20.6486L8.24844 19.7816C8.45876 19.6678 8.53698 19.4049 8.4231 19.1945Z" fill="#222222" stroke="#222222" stroke-width="0.3"/>
<path d="M23.1891 21.7808L22.0349 20.7516C21.8563 20.5925 21.5825 20.6081 21.4233 20.7867C21.2641 20.9653 21.2798 21.2391 21.4583 21.3982L22.6126 22.4274C22.6952 22.5011 23.0164 22.626 23.2242 22.3924C23.3832 22.2137 23.3677 21.9401 23.1891 21.7808Z" fill="#222222" stroke="#222222" stroke-width="0.3"/>
<path d="M15.4005 3.88424C15.1613 3.88424 14.9673 4.07816 14.9673 4.31742V6.14677C14.9673 6.38598 15.1612 6.57995 15.4005 6.57995C15.6397 6.57995 15.8337 6.38603 15.8337 6.14677V4.31736C15.8337 4.07816 15.6397 3.88424 15.4005 3.88424Z" fill="#222222" stroke="#222222" stroke-width="0.3"/>
<path d="M28.724 18.6617C28.4355 17.5724 27.7404 16.6651 26.7138 16.0377C26.3015 15.7858 25.8385 15.5786 25.3262 15.4165C25.9185 15.2291 26.4451 14.9813 26.9032 14.6737C27.9388 13.9783 28.5962 12.9864 28.8045 11.805C29.2408 9.3307 27.6149 6.51444 25.2539 5.65514C24.1266 5.24486 22.9388 5.31823 21.8189 5.8674C21.3236 6.11025 20.8458 6.4422 20.3876 6.86126C20.5214 6.25484 20.57 5.67513 20.5327 5.12483C20.4483 3.88031 19.9179 2.81496 18.999 2.04384C17.0742 0.428863 13.8223 0.428863 11.8977 2.04384C10.9787 2.8149 10.4484 3.88031 10.364 5.12483C10.3265 5.67747 10.3756 6.25974 10.5107 6.86889C9.74142 6.16432 8.91994 5.70271 8.0697 5.50491C6.88118 5.22845 5.68458 5.46293 4.6092 6.18311C4.41038 6.31625 4.35717 6.58525 4.49031 6.78407C4.62344 6.98294 4.8925 7.03609 5.09126 6.90296C5.69876 6.49615 6.67468 6.06986 7.8735 6.34866C9.26357 6.67207 10.596 7.87819 11.7267 9.83657C11.8464 10.0438 12.1113 10.1148 12.3184 9.99511C12.5256 9.87548 12.5966 9.61058 12.4769 9.40344C11.5656 7.82487 11.1455 6.40506 11.2283 5.18344C11.2964 4.17967 11.7204 3.32345 12.4545 2.70746C14.0493 1.36923 16.8472 1.36923 18.442 2.70746C19.1762 3.32345 19.6002 4.17962 19.6683 5.18344C19.7512 6.40506 19.331 7.82492 18.4196 9.40344C18.3801 9.4718 18.3614 9.54649 18.3615 9.62015C18.3617 9.76969 18.4394 9.91496 18.5781 9.99517C18.7853 10.1148 19.0502 10.0438 19.1698 9.83663C20.0812 8.25805 21.1008 7.18432 22.2002 6.64529C23.1035 6.20237 24.0569 6.14147 24.9575 6.46926C26.9139 7.1813 28.3128 9.60437 27.9513 11.6546C27.7849 12.5984 27.2555 13.3937 26.4202 13.9546C25.4037 14.6371 23.964 14.9833 22.1412 14.9833C21.902 14.9833 21.7081 15.1772 21.7081 15.4164C21.7081 15.6557 21.902 15.8496 22.1412 15.8496C25.328 15.8496 27.3684 16.9272 27.8866 18.8836C28.3781 20.7394 27.3289 23.0747 25.5477 24.0894C25.3398 24.2078 25.2673 24.4723 25.3857 24.6801C25.4656 24.8204 25.6119 24.8989 25.7624 24.8989C25.8351 24.8989 25.9088 24.8807 25.9765 24.842C26.9856 24.2672 27.8281 23.3224 28.3488 22.1816C28.8823 21.0127 29.0155 19.7626 28.724 18.6617Z" fill="#222222" stroke="#222222" stroke-width="0.3"/>
<path d="M4.05432 7.18193C3.8714 7.02772 3.59812 7.05113 3.44397 7.23394C3.3747 7.31614 3.30673 7.40125 3.2419 7.48711C3.09766 7.67795 3.13549 7.94963 3.32627 8.09381C3.40449 8.15289 3.70779 8.28369 3.93298 8.00944C3.99154 7.93812 4.04697 7.8627 4.10633 7.79228C4.26049 7.60942 4.23724 7.33608 4.05432 7.18193Z" fill="#222222" stroke="#222222" stroke-width="0.3"/>
<path d="M23.0457 17.6648L19.1675 16.2912C19.1961 16.1702 19.2188 16.047 19.2354 15.9218H20.2825C20.5217 15.9218 20.7157 15.7279 20.7157 15.4887C20.7157 15.2495 20.5218 15.0555 20.2825 15.0555H19.2524C19.2079 14.5848 19.0775 14.139 18.8771 13.7335L23.1323 11.0469C23.3345 10.9192 23.395 10.6517 23.2673 10.4494C23.1395 10.2471 22.872 10.1866 22.6697 10.3144L18.4079 13.0053C18.2155 12.7703 17.9955 12.5588 17.7532 12.3754L18.3853 11.2425C18.5019 11.0336 18.427 10.7698 18.2181 10.6532C18.0092 10.5366 17.7453 10.6115 17.6288 10.8204L17.007 11.9347C16.6422 11.7718 16.2476 11.6639 15.8334 11.6232V8.16815C15.8334 7.92894 15.6395 7.73497 15.4003 7.73497C15.161 7.73497 14.9671 7.92889 14.9671 8.16815V11.6372C14.1275 11.7457 13.3728 12.1278 12.7958 12.6918L11.3055 11.4548C11.1214 11.3021 10.8483 11.3274 10.6956 11.5115C10.5427 11.6956 10.5681 11.9687 10.7523 12.1215L12.2487 13.3635C12.1691 13.4876 12.096 13.6161 12.0308 13.7494L7.35716 12.0754C7.13214 11.9948 6.88398 12.1119 6.80332 12.3372C6.72265 12.5624 6.83983 12.8103 7.06508 12.8909L11.7431 14.5665C11.7119 14.7029 11.6878 14.8417 11.6717 14.9832H10.1952C9.95597 14.9832 9.76199 15.1771 9.76199 15.4164C9.76199 15.6556 9.95591 15.8496 10.1952 15.8496H11.6717C11.7099 16.1857 11.7923 16.5086 11.9124 16.8125L9.69882 18.0112C9.48849 18.1251 9.41033 18.3879 9.52415 18.5984C9.69694 18.9178 10.0458 18.8085 10.1113 18.773L12.3201 17.577C12.5679 17.9357 12.8755 18.2497 13.2284 18.5052L12.5716 19.6136C12.4496 19.8193 12.5099 20.0992 12.7234 20.207C13.0154 20.3545 13.236 20.1917 13.3168 20.0552L13.983 18.9311C14.289 19.06 14.6155 19.1492 14.9559 19.1942L14.9572 22.8092C14.9572 23.0483 15.1511 23.2422 15.3903 23.2422H15.3905C15.6297 23.2421 15.8236 23.0482 15.8235 22.8089L15.8223 19.2105C16.6388 19.1328 17.3807 18.796 17.9655 18.284L20.3454 20.4059C20.428 20.4795 20.7161 20.5975 20.9569 20.3708C21.1312 20.2069 21.1004 19.9185 20.9219 19.7593L18.5489 17.6435C18.6712 17.4742 18.7801 17.2948 18.8737 17.1063L22.7565 18.4816C22.8043 18.4985 23.1707 18.5931 23.3094 18.2179C23.3924 17.9934 23.2713 17.7448 23.0457 17.6648ZM15.4581 18.3618C13.834 18.3618 12.5127 17.0405 12.5127 15.4164C12.5127 13.7922 13.834 12.4709 15.4581 12.4709C17.0823 12.4709 18.4036 13.7922 18.4036 15.4164C18.4036 17.0405 17.0823 18.3618 15.4581 18.3618Z" fill="#222222" stroke="#222222" stroke-width="0.3"/>
<path d="M24.4281 24.9663C24.4111 24.7276 24.2039 24.5478 23.9653 24.5648C22.7415 24.6518 20.9055 24.1025 19.1121 20.9961C18.9924 20.7888 18.7275 20.7179 18.5204 20.8375C18.3132 20.9572 18.2422 21.2221 18.3618 21.4292C19.2732 23.0078 19.6933 24.4276 19.6105 25.6492C19.5424 26.653 19.1184 27.5092 18.3843 28.1252C16.7895 29.4634 13.9916 29.4634 12.3968 28.1252C11.6626 27.5092 11.2386 26.653 11.1705 25.6492C11.0876 24.4276 11.5078 23.0077 12.4192 21.4292C12.4587 21.3608 12.4774 21.2862 12.4773 21.2125C12.4771 21.063 12.3994 20.9177 12.2607 20.8375C12.0535 20.7178 11.7886 20.7888 11.669 20.996C10.7576 22.5746 9.73801 23.6483 8.63865 24.1874C7.73532 24.6303 6.78185 24.6912 5.8813 24.3634C3.92497 23.6513 2.52602 21.2283 2.88753 19.178C3.05399 18.2342 3.58339 17.4389 4.41866 16.8781C5.43519 16.1955 6.87482 15.8494 8.69761 15.8494C8.93682 15.8494 9.1308 15.6555 9.1308 15.4162C9.1308 15.177 8.93688 14.983 8.69761 14.983C6.10889 14.983 4.2743 14.2753 3.39227 12.9363C2.69903 11.8839 2.64001 10.4926 3.23019 9.11894C3.32465 8.8991 3.22302 8.64446 3.00324 8.54995C2.7834 8.45538 2.52875 8.55718 2.43424 8.77691C1.72693 10.4231 1.81238 12.1128 2.66878 13.4129C3.14064 14.1292 3.98969 14.9342 5.51244 15.416C4.92026 15.6034 4.3937 15.8512 3.93563 16.1588C2.90001 16.8541 2.2426 17.8462 2.03427 19.0275C1.59801 21.5018 3.22404 24.318 5.5849 25.1773C6.71223 25.5876 7.90001 25.5142 9.01994 24.9651C9.51521 24.7222 9.993 24.3903 10.4513 23.9712C10.3175 24.5776 10.2688 25.1573 10.3062 25.7077C10.3905 26.9522 10.9209 28.0175 11.8399 28.7886C12.8022 29.5961 14.0963 29.9999 15.3905 29.9999C16.6847 29.9999 17.9788 29.5961 18.9411 28.7886C19.8601 28.0176 20.3905 26.9522 20.4749 25.7077C20.5122 25.1569 20.4635 24.5768 20.3296 23.9701C20.5898 24.2083 20.8563 24.4184 21.1285 24.5999C22.0586 25.2201 23.0335 25.4986 24.0266 25.4288C24.2653 25.412 24.445 25.2049 24.4281 24.9663Z" fill="#222222" stroke="#222222" stroke-width="0.3"/>
</g>
<defs>
<clipPath id="clip0">
<rect y="-0.000762939" width="29.1674" height="29.1674" fill="white"/>
</clipPath>
<clipPath id="clip1">
<rect x="0.833496" y="0.832592" width="29.1674" height="29.1674" fill="white"/>
</clipPath>
</defs>
</svg>
