<svg width="30" height="28" viewBox="0 0 30 28" fill="none" xmlns="http://www.w3.org/2000/svg">
<g clip-path="url(#clip0)">
<path d="M26.1001 21.5144C24.87 20.7242 23.2263 21.0081 22.0956 22.1008L21.0947 21.4578C21.5152 20.6101 21.7491 19.6721 21.7491 18.6849C21.7491 14.9051 18.324 9.40521 14.099 9.40521C9.87382 9.40521 6.4489 14.9051 6.4489 18.6849C6.4489 19.6721 6.68282 20.6101 7.10325 21.4578L6.10239 22.1008C4.97165 21.0081 3.32776 20.7242 2.09789 21.5144C0.629615 22.4576 0.307461 24.5732 1.37818 26.2399C2.44889 27.9064 4.507 28.4928 5.97507 27.5497L10.4267 24.6898C11.5168 25.2245 12.7681 25.5287 14.099 25.5287C15.4299 25.5287 16.6811 25.2245 17.7713 24.6898L22.2227 27.5497C23.691 28.4928 25.7491 27.9064 26.8198 26.2399C27.8905 24.5732 27.5684 22.4576 26.1001 21.5144Z" fill="#FFABAE"/>
<path d="M10.163 17.8951C9.3454 17.5018 7.95061 17.3255 6.83012 17.7096C6.86473 17.5936 6.90233 17.4774 6.94142 17.3612H6.57441C6.49237 17.8171 6.44922 18.2619 6.44922 18.6849C6.44922 19.6721 6.68314 20.6101 7.10357 21.4578L6.96749 21.5452C7.35031 21.605 7.71455 21.6298 8.02367 21.6283C9.10934 21.6238 11.0638 21.3869 11.311 19.8329C11.4445 18.994 10.8415 18.2219 10.163 17.8951Z" fill="#FFABAE"/>
<path d="M21.6239 17.3612H21.2565C21.2958 17.4776 21.3334 17.5941 21.3682 17.7103C20.2477 17.3255 18.8529 17.5018 18.0354 17.8951C17.3569 18.2219 16.7538 18.994 16.8873 19.8331C17.1345 21.3871 19.089 21.6238 20.1747 21.6283C20.4838 21.63 20.848 21.605 21.2309 21.5452L21.0948 21.4578C21.5152 20.6101 21.7491 19.6721 21.7491 18.6849C21.7491 18.2619 21.706 17.8171 21.6239 17.3612Z" fill="#FFABAE"/>
<path d="M21.0392 0.317176C20.3421 0.54106 19.7412 1.15268 19.3782 1.82989C17.9539 0.688037 16.1116 -0.000919342 14.099 -0.000919342C12.0864 -0.000919342 10.244 0.688037 8.81977 1.82989C8.45681 1.15268 7.85587 0.54106 7.1588 0.316962C5.52645 -0.207286 3.72576 2.02087 4.11265 2.9758C4.35704 3.57973 5.63284 4.11936 6.76315 4.32082C6.22673 5.35115 5.92508 6.51031 5.92508 7.73655C5.92508 12.0098 9.58456 14.1884 14.099 14.1884C18.6132 14.1884 22.2729 12.0098 22.2729 7.73655C22.2729 6.51031 21.9711 5.35115 21.4346 4.32082C22.5652 4.11936 23.8407 3.57973 24.0853 2.9758C24.4722 2.02087 22.6715 -0.207286 21.0392 0.317176Z" fill="#FFABAE"/>
<path d="M21.6748 0.243263C22.4426 0.869199 22.9356 1.83032 22.7147 2.37593C22.5109 2.87924 21.591 3.33791 20.6359 3.59341C20.3518 3.66925 20.1971 3.97581 20.3123 4.24626C20.6925 5.13923 20.9023 6.11467 20.9023 7.13667C20.9023 11.4099 17.2426 13.5885 12.7284 13.5885C11.4032 13.5885 10.1522 13.4007 9.04541 13.0275C10.4364 13.7994 12.1913 14.1884 14.0993 14.1884C18.6135 14.1884 22.2732 12.01 22.2732 7.73655C22.2732 6.51053 21.9713 5.35116 21.4349 4.32082C22.5654 4.11958 23.841 3.57974 24.0856 2.97602C24.4225 2.14414 23.1001 0.346874 21.6748 0.243263Z" fill="#FFABAE"/>
<path d="M17.2337 5.90361C17.0036 5.90361 16.8169 5.71711 16.8169 5.48703V5.1621C16.8169 4.9318 17.0036 4.7453 17.2337 4.7453C17.4638 4.7453 17.6503 4.9318 17.6503 5.1621V5.48703C17.6505 5.71711 17.4638 5.90361 17.2337 5.90361Z" fill="#FFABAE"/>
<path d="M10.9644 5.90361C10.7344 5.90361 10.5479 5.71711 10.5479 5.48703V5.1621C10.5479 4.9318 10.7344 4.7453 10.9644 4.7453C11.1945 4.7453 11.3812 4.9318 11.3812 5.1621V5.48703C11.3812 5.71711 11.1945 5.90361 10.9644 5.90361Z" fill="#FFABAE"/>
<path d="M14.0989 6.50049C12.4706 6.50049 11.1504 7.6902 11.1504 9.15783C11.1504 10.6255 12.4706 11.3723 14.0989 11.3723C15.7272 11.3723 17.0474 10.6255 17.0474 9.15783C17.0474 7.6902 15.7272 6.50049 14.0989 6.50049Z" fill="#FFABAE"/>
<path d="M14.0989 10.3815C13.8688 10.3815 13.6821 10.195 13.6821 9.96492V8.63486C13.6821 8.40478 13.8688 8.21828 14.0989 8.21828C14.329 8.21828 14.5155 8.40478 14.5155 8.63486V9.96492C14.5155 10.195 14.329 10.3815 14.0989 10.3815Z" fill="#FFABAE"/>
<path d="M14.0992 6.50049C13.3376 6.50049 12.7202 7.2059 12.7202 7.78612C12.7202 8.36633 13.3376 8.63487 14.0992 8.63487C14.8608 8.63487 15.478 8.36633 15.478 7.78612C15.478 7.2059 14.8608 6.50049 14.0992 6.50049Z" fill="#FFABAE"/>
<path d="M26.6252 26.5161C27.3094 25.2019 27.0219 23.6503 25.9172 22.9406C24.7356 22.1816 23.0669 22.6727 22.1902 24.0374C21.3744 25.3074 21.532 26.8861 22.5098 27.711C23.8604 28.3707 25.5891 27.8705 26.6252 26.5161Z" fill="#FFABAE"/>
<path d="M1.57304 26.5161C0.888781 25.2019 1.17611 23.6503 2.28101 22.9406C3.46259 22.1816 5.13126 22.6727 6.008 24.0374C6.82385 25.3074 6.66619 26.8861 5.6884 27.711C4.33762 28.3707 2.60914 27.8705 1.57304 26.5161Z" fill="#FFABAE"/>
<path d="M13.9589 24.5215C14.0443 24.5785 14.1541 24.5785 14.2396 24.5215C15.0697 23.9662 19.347 21.0286 20.5743 18.621C21.698 16.4172 20.8835 13.1615 18.278 12.4755C16.7642 12.0769 14.9539 12.7908 14.2105 14.1743C14.1622 14.264 14.0362 14.264 13.9879 14.1743C13.2445 12.7908 11.4344 12.0769 9.92039 12.4755C7.31495 13.1615 6.50038 16.4172 7.62408 18.621C8.85138 21.0286 13.1285 23.9662 13.9589 24.5215Z" fill="#FFABAE"/>
<path d="M18.2777 12.4755C17.7496 12.3364 17.1854 12.333 16.643 12.446C16.6784 12.4552 16.7139 12.4646 16.7489 12.4755C18.9972 13.1615 19.7 16.417 18.7306 18.621C17.7836 20.7733 14.7338 23.3495 13.5859 24.2679C13.7436 24.3766 13.8705 24.4625 13.9585 24.5215C14.044 24.5785 14.1538 24.5785 14.2392 24.5215C15.0694 23.9662 19.3467 21.0284 20.574 18.621C21.6977 16.417 20.8831 13.1615 18.2777 12.4755Z" fill="#FFABAE"/>
<path d="M24.3214 18.0767C23.9775 19.2433 22.7519 19.8252 21.5919 20.0705C21.0796 20.179 20.5797 20.2217 20.1747 20.2198C19.089 20.2151 17.1345 19.9784 16.8873 18.4245C16.7538 17.5853 17.3569 16.8133 18.0356 16.4866C18.8529 16.0933 20.2477 15.9171 21.3682 16.3018C21.0046 15.0852 20.3943 13.8436 19.6026 12.7552C19.8886 12.5684 20.1563 12.3627 20.4022 12.1384C20.4082 12.1416 20.4133 12.145 20.4186 12.1482C21.8141 13.0025 23.3351 14.2093 24.0914 15.8722C24.4005 16.5511 24.5413 17.3324 24.3214 18.0767Z" fill="#FFABAE"/>
<path d="M11.3109 18.4245C11.0638 19.9784 9.10927 20.2153 8.0236 20.2198C7.61856 20.2217 7.11866 20.179 6.60638 20.0707C5.44637 19.8252 4.22056 19.2433 3.87661 18.0767C3.657 17.3324 3.79778 16.5511 4.10691 15.8724C4.86316 14.2093 6.3842 13.0025 7.77964 12.1484C7.78476 12.1452 7.7901 12.1418 7.79608 12.1386C8.04197 12.3627 8.30965 12.5687 8.5957 12.7554C7.80335 13.8432 7.19365 15.0848 6.83005 16.3012C7.95054 15.9173 9.34533 16.0933 10.1629 16.4866C10.8414 16.8135 11.4445 17.5855 11.3109 18.4245Z" fill="#FFABAE"/>
<path d="M22.0146 15.6921C21.7102 15.5302 21.377 15.4163 21.0317 15.3422C21.1599 15.6618 21.2727 15.9827 21.3682 16.3018C21.2994 16.2781 21.4791 16.351 21.6237 16.4279C21.6859 16.4612 21.753 16.4768 21.8188 16.4768C21.9679 16.4768 22.1123 16.3965 22.187 16.2557C22.2951 16.0523 22.218 15.8 22.0146 15.6921Z" fill="#FFABAE"/>
<path d="M6.82973 16.3014C6.925 15.9824 7.0378 15.6618 7.16577 15.3426C6.82054 15.4165 6.48749 15.5304 6.18307 15.6923C5.97991 15.8002 5.90279 16.0525 6.01067 16.2559C6.08566 16.3967 6.22985 16.477 6.37897 16.477C6.44498 16.477 6.51185 16.4614 6.57423 16.4281C6.72248 16.3495 6.88271 16.2852 7.05083 16.2339C6.97628 16.254 6.90236 16.2764 6.82973 16.3014Z" fill="#FFABAE"/>
</g>
<g clip-path="url(#clip1)">
<path d="M27.8971 20.95C26.6534 20.151 24.9888 20.3245 23.748 21.3508L23.3387 21.088C23.4575 20.8105 23.5568 20.5259 23.6361 20.2369C25.0798 19.8739 26.0364 19.1121 26.3425 18.0741V18.0743C26.6224 17.1256 26.3646 16.2313 26.099 15.6486C25.5068 14.3463 24.4252 13.1895 22.8027 12.1245C23.8341 11.0147 24.3705 9.58936 24.3705 7.9207C24.3705 6.86814 24.1588 5.85276 23.7403 4.89506C24.1652 4.78589 24.5765 4.63934 24.9334 4.46801C25.5555 4.16914 25.9482 3.82776 26.0999 3.45327C26.2793 3.01041 26.1924 2.17384 25.3566 1.27381C25.0005 0.890135 24.5848 0.594044 24.1545 0.417372C23.6382 0.205451 23.1137 0.174261 22.6376 0.32722C22.0403 0.519274 21.4647 0.97751 21.0379 1.58764C19.598 0.560291 17.8358 -0.000915527 16.0257 -0.000915527C14.2154 -0.000915527 12.4532 0.560291 11.0133 1.58764C10.5865 0.97751 10.011 0.519274 9.41343 0.32722C8.93725 0.174261 8.41279 0.205451 7.89666 0.417372C7.46641 0.594044 7.05069 0.890135 6.69456 1.27381C5.85884 2.17384 5.7719 3.01041 5.95135 3.45327C6.10324 3.82776 6.49568 4.16914 7.11798 4.46801C7.47496 4.63934 7.88619 4.78589 8.31132 4.89506C8.14212 5.28344 8.00583 5.68442 7.90457 6.09245C7.84988 6.31228 7.98404 6.53488 8.20386 6.58936C8.42347 6.64405 8.64608 6.5101 8.70076 6.29006C8.82873 5.77436 9.01971 5.27105 9.26795 4.79422C9.32841 4.67844 9.32991 4.54086 9.27244 4.42358C9.21476 4.30651 9.10495 4.22383 8.97635 4.20076C7.8095 3.99268 6.84646 3.47741 6.71166 3.14521C6.61894 2.9162 6.81591 2.3488 7.29572 1.83203C7.75332 1.33919 8.48393 0.890349 9.16263 1.10825C9.68859 1.27723 10.2032 1.75277 10.5395 2.38042C10.5972 2.48787 10.6995 2.56414 10.8189 2.58849C10.9385 2.61306 11.0627 2.58294 11.1577 2.50667C12.5145 1.41866 14.2434 0.819424 16.0257 0.819424C17.8078 0.819424 19.5367 1.41866 20.8937 2.50689C20.9888 2.58315 21.1129 2.61328 21.2325 2.58871C21.3519 2.56435 21.4543 2.48809 21.5119 2.38042C21.8482 1.75299 22.3628 1.27723 22.8886 1.10825C23.5675 0.890349 24.2981 1.33919 24.7555 1.83203C25.2355 2.34901 25.4325 2.9162 25.3396 3.14521C25.205 3.47741 24.2419 3.99268 23.0751 4.20097C22.9465 4.22383 22.8367 4.30651 22.779 4.42358C22.7213 4.54086 22.723 4.67822 22.7833 4.79401C23.2921 5.7718 23.5502 6.82371 23.5502 7.9207C23.5502 9.52869 22.9779 10.8765 21.8817 11.8786C21.8773 11.8825 21.8726 11.8863 21.8681 11.8906C21.6485 12.0908 21.4049 12.2788 21.1439 12.449C21.1398 12.4516 21.136 12.4544 21.1319 12.4571C21.1161 12.4676 21.1001 12.4779 21.084 12.4881C20.8057 12.3309 20.5053 12.208 20.1866 12.1243C18.6651 11.7233 16.9309 12.3529 16.0257 13.5763C15.121 12.3531 13.3863 11.7233 11.8648 12.1243C11.5461 12.208 11.2457 12.3309 10.9674 12.4881C10.9514 12.4781 10.9355 12.4678 10.9197 12.4576C10.9157 12.4546 10.9116 12.4518 10.9073 12.449C10.6465 12.2785 10.4028 12.0908 10.1831 11.8906C10.1787 11.8865 10.1742 11.8825 10.1697 11.8788C9.07355 10.8767 8.50123 9.52891 8.50123 7.9207C8.50123 7.69425 8.31751 7.51053 8.09106 7.51053C7.8644 7.51053 7.68089 7.69425 7.68089 7.9207C7.68089 9.58958 8.21711 11.0149 9.24873 12.1247C7.62471 13.191 6.54417 14.3469 5.9522 15.6483C5.68666 16.2315 5.42881 17.1258 5.70888 18.0743C6.01479 19.1121 6.97164 19.8739 8.41514 20.2369C8.4944 20.5259 8.59395 20.8105 8.71273 21.088L8.30341 21.351C7.06265 20.3245 5.39783 20.1512 4.15408 20.95C2.54074 21.9863 2.1718 24.2986 3.3316 26.1045C4.10152 27.3021 5.36963 28 6.63069 28C6.94643 28 7.25983 27.956 7.56276 27.8656C7.56383 27.8654 7.56489 27.865 7.56596 27.8648C7.57023 27.8635 7.57429 27.8622 7.57835 27.8609C7.58262 27.8596 7.58668 27.8584 7.59096 27.8571C7.59245 27.8567 7.59395 27.8562 7.59544 27.8558C7.86141 27.7733 8.11862 27.6552 8.36131 27.4993L12.4912 24.846C14.708 25.8543 17.343 25.8543 19.56 24.846L23.6899 27.4993C23.9401 27.6599 24.2056 27.7806 24.4799 27.8631H24.4801C24.4882 27.8656 24.4964 27.868 24.5045 27.8705C24.5113 27.8725 24.5184 27.8744 24.5252 27.8765C24.5261 27.8767 24.5271 27.8769 24.528 27.8772C24.8185 27.9598 25.1184 28 25.4205 28C26.6918 28 27.9555 27.2933 28.7196 26.1042C29.8796 24.2984 29.5107 21.9861 27.8971 20.95ZM25.3524 15.9882C25.56 16.4443 25.764 17.1361 25.5557 17.8421C25.5557 17.8421 25.5557 17.8421 25.5555 17.8421C25.2396 18.9139 23.9531 19.336 23.2141 19.4924C21.7807 19.796 19.3665 19.6714 19.1374 18.2313C19.0422 17.6338 19.5002 17.0369 20.0249 16.7842C20.858 16.3832 22.3575 16.2696 23.3274 16.7851C23.5275 16.8915 23.7758 16.8154 23.8822 16.6152C23.9883 16.4153 23.9125 16.1668 23.7123 16.0606C23.6158 16.0092 23.5162 15.9628 23.4143 15.9211C23.0779 14.8682 22.5733 13.8323 21.9401 12.894C22.024 12.8316 22.1058 12.7678 22.1855 12.7026C23.7696 13.712 24.807 14.7887 25.3524 15.9882ZM12.0738 12.9175C13.3801 12.5731 14.9426 13.2219 15.5562 14.3631C15.6491 14.537 15.829 14.6451 16.0257 14.6451C16.2223 14.6451 16.4021 14.537 16.4946 14.364C17.1086 13.2219 18.6711 12.5731 19.9777 12.9175C20.6769 13.1014 21.2699 13.5193 21.6927 14.126C21.9939 14.5582 22.2056 15.085 22.3081 15.6464C21.3475 15.5377 20.34 15.722 19.669 16.0448C18.8796 16.4251 18.1654 17.3424 18.3274 18.3602C18.4799 19.3196 19.2152 19.984 20.4034 20.2779C18.8119 21.8853 16.6608 23.382 16.0257 23.8116C15.3902 23.3817 13.2395 21.8853 11.648 20.2779C12.8362 19.984 13.5715 19.3196 13.7241 18.3602C13.886 17.3424 13.1716 16.4251 12.3823 16.0448C11.7082 15.7205 10.6999 15.5383 9.74307 15.6462C9.84582 15.0848 10.0575 14.5582 10.3585 14.1262C10.7815 13.5193 11.3743 13.1014 12.0738 12.9175ZM6.49546 17.8421C6.28717 17.1363 6.49119 16.4443 6.69884 15.988C7.24424 14.7887 8.28162 13.712 9.86548 12.7026C9.94516 12.7678 10.027 12.8316 10.1107 12.8938C9.47795 13.8308 8.97336 14.8667 8.63646 15.9211C8.53477 15.9628 8.43522 16.0092 8.33866 16.0604C8.1387 16.1668 8.06265 16.4153 8.16904 16.6152C8.27521 16.8152 8.52345 16.8912 8.72362 16.7849C9.69372 16.2694 11.1932 16.3832 12.0261 16.7842C12.5297 17.0267 13.0116 17.6163 12.9138 18.2316C12.6845 19.6704 10.2635 19.7945 8.83685 19.4922C8.09811 19.336 6.81163 18.9141 6.49546 17.8421ZM7.63432 26.9641C7.46876 27.0404 7.29657 27.0961 7.12033 27.1318C7.11905 27.132 7.11798 27.1324 7.1167 27.1327C7.10943 27.1339 7.10196 27.1354 7.09469 27.1369C7.09128 27.1376 7.08807 27.1382 7.08465 27.1389C7.08081 27.1395 7.07696 27.1401 7.07312 27.1408C7.06543 27.1423 7.05774 27.1436 7.05005 27.1451L7.04834 27.1453C6.04492 27.317 4.93831 26.8575 4.21347 25.9297C3.65888 24.8325 3.89729 23.5885 4.77489 23.0248C5.7296 22.4112 7.09833 22.8336 7.82595 23.9662C8.48906 24.9985 8.40403 26.2766 7.63432 26.9641ZM19.4098 24.0096C18.3795 24.5151 17.2092 24.7821 16.0257 24.7821C14.842 24.7821 13.6717 24.5151 12.6414 24.0096C12.5126 23.9466 12.3598 23.9553 12.2391 24.0329L9.021 26.1004C9.19895 25.2726 9.03809 24.3352 8.51619 23.5227C7.54417 22.0098 5.66679 21.4766 4.33139 22.3345C4.02163 22.5336 3.76676 22.7898 3.57065 23.085C3.7281 22.4924 4.07546 21.9756 4.59736 21.6402C5.60334 20.9942 6.99322 21.2078 7.97763 22.1594C8.11456 22.2916 8.32413 22.3123 8.48436 22.2096L9.45616 21.5855C9.63219 21.4725 9.695 21.2454 9.60207 21.0583C9.49632 20.8447 9.40382 20.6253 9.32563 20.402C9.76144 20.4527 10.187 20.4631 10.6585 20.4292C12.3649 22.2918 14.9067 24.0502 15.6615 24.5554C15.7721 24.6293 15.8988 24.6665 16.0257 24.6665C16.1526 24.6665 16.2793 24.6293 16.3902 24.5554C17.1447 24.0502 19.6865 22.2918 21.393 20.4292C21.864 20.4631 22.2896 20.4527 22.7258 20.402C22.6474 20.6253 22.5551 20.8447 22.4494 21.0583C22.3564 21.2454 22.4194 21.4725 22.5953 21.5855L23.5671 22.2096C23.7271 22.3123 23.9369 22.2916 24.0738 22.1594C25.0582 21.2078 26.4481 20.9942 27.4539 21.6402C27.976 21.9756 28.3233 22.4924 28.4808 23.0852C28.2847 22.7898 28.0298 22.5336 27.72 22.3345C27.5293 22.2121 27.2757 22.2672 27.1531 22.458C27.0307 22.6486 27.086 22.9024 27.2765 23.0248C28.1541 23.5885 28.3923 24.8325 27.838 25.9297C27.1095 26.862 25.983 27.3345 24.954 27.1363C24.9488 27.1354 24.9439 27.1344 24.9388 27.1333C24.9349 27.1327 24.9309 27.1318 24.927 27.131C24.9204 27.1297 24.9138 27.1282 24.9072 27.1269C24.9063 27.1267 24.9055 27.1265 24.9046 27.1263C24.7375 27.0904 24.5743 27.0365 24.4169 26.9641C23.6472 26.2766 23.5622 24.9983 24.2253 23.9662C24.6068 23.3726 25.1868 22.9474 25.8172 22.7998C26.0377 22.7481 26.1746 22.5274 26.1231 22.307C26.0715 22.0863 25.8506 21.9494 25.6301 22.0011C24.7942 22.197 24.0306 22.7515 23.5352 23.5227C23.0133 24.3352 22.8525 25.2726 23.0302 26.1004L19.8121 24.0329C19.6914 23.9551 19.5389 23.9466 19.4098 24.0096Z" fill="#222222" stroke="#222222" stroke-width="0.2"/>
<path d="M19.479 5.73654V5.42122C19.479 5.19478 19.2953 5.01105 19.0689 5.01105C18.8422 5.01105 18.6587 5.19478 18.6587 5.42122V5.73654C18.6587 5.9632 18.8422 6.14671 19.0689 6.14671C19.2953 6.14671 19.479 5.9632 19.479 5.73654Z" fill="#222222" stroke="#222222" stroke-width="0.2"/>
<path d="M12.9829 5.01105C12.7563 5.01105 12.5728 5.19478 12.5728 5.42122V5.73654C12.5728 5.9632 12.7563 6.14671 12.9829 6.14671C13.2094 6.14671 13.3931 5.9632 13.3931 5.73654V5.42122C13.3931 5.19478 13.2094 5.01105 12.9829 5.01105Z" fill="#222222" stroke="#222222" stroke-width="0.2"/>
<path d="M16.0258 6.31036C14.2213 6.31036 12.7534 7.65153 12.7534 9.30011C12.7534 10.1128 13.1042 10.7857 13.7679 11.2461C14.3469 11.6477 15.1275 11.86 16.0258 11.86C16.9239 11.86 17.7047 11.6477 18.2834 11.2461C18.9472 10.7857 19.2982 10.1128 19.2982 9.30011C19.2982 7.65153 17.8301 6.31036 16.0258 6.31036ZM16.954 7.96856C16.954 8.37061 16.1207 8.38236 16.0258 8.38236C15.9307 8.38236 15.0974 8.37061 15.0974 7.96856C15.0974 7.50605 15.659 7.1307 16.0258 7.1307C16.3924 7.1307 16.954 7.50605 16.954 7.96856ZM16.0258 11.0397C14.2179 11.0397 13.5738 10.141 13.5738 9.30011C13.5738 8.70131 13.8493 8.15847 14.2941 7.76561C14.2828 7.83376 14.277 7.90148 14.277 7.96834C14.277 8.61671 14.7902 9.06662 15.6154 9.17642V10.0835C15.6154 10.3099 15.7991 10.4937 16.0256 10.4937C16.2523 10.4937 16.4358 10.3099 16.4358 10.0835V9.17642C17.2612 9.06662 17.7744 8.61671 17.7744 7.96834C17.7744 7.90148 17.7688 7.83397 17.7581 7.76625C18.2025 8.15911 18.4776 8.70174 18.4776 9.2999C18.4776 10.141 17.8335 11.0397 16.0258 11.0397Z" fill="#222222" stroke="#222222" stroke-width="0.2"/>
</g>
<defs>
<clipPath id="clip0">
<rect x="0.0898438" y="-0.000915527" width="28.0009" height="28.0009" fill="white"/>
</clipPath>
<clipPath id="clip1">
<rect x="1.99902" y="-0.000915527" width="28.0009" height="28.0009" fill="white"/>
</clipPath>
</defs>
</svg>
