<svg width="28" height="28" viewBox="0 0 28 28" fill="none" xmlns="http://www.w3.org/2000/svg">
<g clip-path="url(#clip0)">
<path d="M23.4965 12.8052L21.0368 19.7744C20.9662 19.9744 21.0458 20.1961 21.2265 20.3072C21.4398 20.4383 21.674 20.5415 21.8371 20.5415C22.6048 20.5415 23.3487 19.6639 24.0723 18.8099C24.6091 18.1762 25.2178 17.4583 25.7079 17.2623C25.8415 17.2089 26.0716 17.0591 26.1137 16.6536C26.193 15.8912 25.2597 13.743 24.0754 12.6521C23.8875 12.4789 23.5814 12.5643 23.4965 12.8052Z" fill="#FFABAE"/>
<path d="M5.98111 16.9843L5.57429 16.3065C4.77561 14.9754 3.26479 14.2569 1.72914 14.4738L1.30489 14.5341C1.16304 14.5543 1.03904 14.6398 0.969669 14.7649C0.400001 15.7931 0.65271 16.6957 0.875724 17.492C1.04432 18.0942 1.1902 18.6143 0.990361 19.144C0.940182 19.2772 0.955598 19.4283 1.03071 19.5493C1.18617 19.7988 3.22134 21.2555 5.35045 21.4598C5.36494 21.4611 5.37947 21.4618 5.39396 21.4618C5.53694 21.4618 5.67274 21.3946 5.75929 21.2791C6.7037 20.0198 6.79071 18.3341 5.98111 16.9843Z" fill="#FFABAE"/>
<path d="M10.9214 1.49222C9.54434 0.377144 7.16128 0.510456 6.87556 0.607763C6.72699 0.658615 6.61033 0.784892 6.57428 0.937603C6.47283 1.36713 6.15432 1.85382 5.84652 2.32442C5.32439 3.12264 4.78462 3.94791 4.98607 4.84313C5.03309 5.05233 5.21891 5.19977 5.43148 5.19977C5.43841 5.19977 5.44529 5.19956 5.45196 5.1993L6.59114 5.14845C8.55922 5.0605 10.3 3.84523 11.0608 2.02805C11.1401 1.83872 11.0809 1.62139 10.9214 1.49222Z" fill="#FFABAE"/>
<path d="M25.6946 10.0764C24.9666 7.08889 21.6052 5.88204 21.4625 5.83207C21.2245 5.74935 20.9642 5.87397 20.8806 6.1122C20.8445 6.21524 20.0008 8.66639 20.4767 11.0455C20.9478 13.4007 22.6056 15.6933 22.6759 15.7899C22.763 15.9092 22.9009 15.9775 23.045 15.9775C23.0758 15.9775 23.107 15.9743 23.138 15.9679C23.3138 15.9313 23.4516 15.7953 23.4909 15.6202C23.6076 15.0974 24.3594 13.4126 24.9085 12.1823C25.7485 10.2991 25.7445 10.2823 25.6946 10.0764Z" fill="#FFABAE"/>
<path d="M7.2292 4.27716C7.14824 4.16697 7.02202 4.09894 6.8855 4.0916C4.93066 3.98456 1.49993 7.20651 1.11515 7.5738C1.06228 7.62445 1.02235 7.68668 0.998757 7.75585C0.940766 7.9249 -0.403634 11.923 1.01904 14.618C1.58286 15.6863 2.49887 16.4016 3.7412 16.7439C3.78109 16.7551 3.82195 16.7604 3.86251 16.7604C3.94233 16.7604 4.02153 16.7395 4.09184 16.6987C4.19799 16.6371 4.27497 16.5354 4.30502 16.4166L7.30375 4.66064C7.33763 4.52806 7.31016 4.38735 7.2292 4.27716Z" fill="#FFABAE"/>
<path d="M19.3161 3.3435C17.2369 2.14447 16.4331 0.351919 16.4258 0.335003C16.3642 0.192948 16.2351 0.0916579 16.0823 0.0657921C16.0368 0.0579806 11.4782 -0.666623 9.95045 2.87761C9.8608 3.08572 9.9371 3.32793 10.1298 3.44702L21.0406 10.1931C21.1135 10.2382 21.197 10.2614 21.2808 10.2614C21.3277 10.2614 21.3745 10.2542 21.42 10.2397C21.5474 10.1989 21.6504 10.1046 21.702 9.98149C22.3897 8.34356 22.35 5.0928 19.3161 3.3435Z" fill="#FFABAE"/>
<path d="M20.6765 20.5498C20.6632 20.3187 20.4791 20.1343 20.2481 20.1203L5.8759 19.2482C5.69163 19.2382 5.51414 19.3403 5.43473 19.5103C5.18223 20.0485 5.04664 20.9507 5.42335 21.8682C5.90512 23.0421 7.07089 23.9774 8.88864 24.6482C9.81355 24.9894 10.4673 25.3134 11.044 25.5991C11.7607 25.9542 12.3794 26.2609 13.1923 26.4199C13.4198 26.4643 13.6518 26.4864 13.8864 26.4864C14.9913 26.4864 16.1606 25.9991 17.2455 25.0737C17.4598 24.8908 17.7683 24.7109 18.0946 24.5204C19.2424 23.8503 20.8141 22.9329 20.6765 20.5498Z" fill="#FFABAE"/>
<path d="M22.9014 13.8621C22.6635 13.139 22.4172 12.3914 22.322 11.6518C22.1561 10.3615 21.6496 9.39644 20.8165 8.7829C19.5468 7.84703 17.996 8.10532 17.9306 8.11691C17.781 8.14298 17.6543 8.24184 17.5923 8.38028L11.5139 21.9747C11.4342 22.1527 11.4767 22.3617 11.6192 22.4948C12.3922 23.2174 13.4724 23.7322 14.5911 23.7322C15.4011 23.7322 16.232 23.4619 16.9803 22.8048C17.8858 22.0099 18.7697 21.5944 19.6246 21.1925C21.0538 20.5205 22.4036 19.886 23.2797 17.6739C23.7586 16.4649 23.3422 15.2005 22.9014 13.8621Z" fill="#FFABAE"/>
<path d="M18.1839 6.38822C17.7272 5.47469 17.2704 5.0179 15.5671 4.47524C14.5842 4.16211 13.4226 3.98126 12.2375 3.28381C9.99371 1.96321 8.20612 2.86629 7.34024 3.52178C5.86801 4.63607 4.95666 6.63224 5.30838 7.97131C5.35991 8.16716 5.53388 8.3056 5.73615 8.31191L17.5663 8.67413C17.571 8.67434 17.5757 8.67434 17.5804 8.67434C17.664 8.67434 17.7463 8.65137 17.8179 8.60766C18.2613 8.33772 18.7029 7.42611 18.1839 6.38822Z" fill="#FFABAE"/>
<path d="M13.4072 20.7166L8.51288 7.45833C8.48097 7.37152 8.42323 7.29662 8.34781 7.24328C7.66397 6.76042 6.66793 6.85007 5.61472 7.48885C3.7243 8.63548 1.81442 10.8645 2.19671 13.6966C2.37384 15.0078 2.96374 15.6865 3.53429 16.3427C3.91348 16.7788 4.50177 17.6432 4.81382 18.3206C5.95952 20.8083 7.86515 22.499 9.78708 22.7329C9.9414 22.7518 10.0942 22.761 10.2456 22.761C11.4183 22.761 12.5023 22.2034 13.3356 21.1598C13.4355 21.0347 13.4626 20.8667 13.4072 20.7166Z" fill="#FFABAE"/>
<path d="M17.9878 8.13881C17.0091 7.21121 15.9499 6.89606 15.006 7.25068C14.9456 7.27339 14.8905 7.30867 14.8446 7.35435L7.35126 14.8037C7.31712 14.8376 7.28856 14.8768 7.26652 14.9197C6.88448 15.6678 6.96498 16.9495 7.46657 18.1095C7.84105 18.9755 8.78071 20.5185 10.8665 21.1234C11.363 21.2672 11.8787 21.3355 12.4021 21.3355C15.5244 21.3355 18.9074 18.9053 19.9394 15.627C20.8279 12.8053 19.597 9.66277 17.9878 8.13881Z" fill="#FFABAE"/>
<path d="M13.2469 6.30726C11.3917 5.59869 9.24693 5.97918 7.78204 7.27433C6.76588 8.17244 5.26908 10.2445 5.3099 12.2719C5.33039 13.2829 5.75127 14.1514 6.52745 14.7834C7.49612 15.5725 8.46785 15.8259 9.31676 15.8259C10.448 15.8257 11.3613 15.3756 11.7585 15.143C11.8065 15.1204 11.8513 15.089 11.8904 15.049L16.1608 10.6811C16.2573 10.5824 16.3042 10.4451 16.2879 10.308C16.0643 8.4176 14.9558 6.95939 13.2469 6.30726Z" fill="#FFABAE"/>
<path d="M16.1932 10.0796C15.3437 8.99831 14.084 8.31008 12.7373 8.1912C11.6489 8.09467 10.6234 8.39817 9.92413 9.022C8.6564 10.1537 8.19227 11.5456 8.65081 12.8413C8.88542 13.5048 9.35224 14.0724 9.91141 14.4311C9.1568 14.5335 8.72474 15.3567 9.08117 16.0297C9.58581 16.9825 10.4224 17.8227 11.4818 18.0224C11.7446 18.0719 12.0068 18.0962 12.2674 18.0962C13.6365 18.0962 15.3421 17.6832 16.3567 16.4373C17.5455 14.9774 18.2561 12.7045 16.1932 10.0796Z" fill="#FFABAE"/>
<path d="M13.8412 13.5439C13.5702 13.5244 12.9099 14.139 12.1496 13.3369C11.7574 12.9231 11.6863 12.2731 11.935 11.7601C11.9955 11.6352 12.0698 11.5262 12.1545 11.4321C12.318 11.2504 12.1867 10.9679 11.9437 10.9949C11.2989 11.0664 10.6872 11.432 10.3277 12.0741C9.91589 12.8096 9.99194 13.7541 10.5228 14.4089C11.403 15.4947 12.9915 15.4518 13.8237 14.43C13.9106 14.3233 13.9824 14.2102 14.0424 14.0922C14.1483 13.884 14.1699 13.5676 13.8412 13.5439Z" fill="#FFABAE"/>
</g>
<g clip-path="url(#clip1)">
<path d="M25.9504 13.9812C26.1099 13.6188 26.2708 13.2581 26.4173 12.9297C27.2559 11.0507 27.2519 11.0346 27.2039 10.8373C26.5573 8.18397 23.825 6.93882 23.1357 6.66349C22.7726 5.80769 22.0937 4.84005 20.8266 4.10935C18.7346 2.90299 17.9263 1.09899 17.9187 1.08183C17.861 0.948371 17.7396 0.85318 17.5962 0.829039C17.5499 0.821259 16.4462 0.640488 15.1503 0.880524C14.0203 1.0899 13.0945 1.55527 12.4079 2.24895C11.6706 1.65424 10.6688 1.43588 9.9564 1.35779C9.24933 1.28028 8.55456 1.31346 8.38695 1.37032C8.24702 1.41786 8.13644 1.53691 8.10246 1.68078C7.9996 2.11595 7.67925 2.60575 7.36942 3.07947C6.87957 3.82824 6.37432 4.6011 6.48439 5.42864C4.74486 6.34668 2.90111 8.08003 2.62515 8.34369C2.57549 8.39111 2.53796 8.44975 2.51571 8.51468C2.50124 8.55673 2.16035 9.56006 1.98604 10.8963C1.74789 12.7228 1.93227 14.227 2.53407 15.3671C2.55198 15.401 2.57132 15.4336 2.58996 15.4669C2.0397 16.4739 2.25233 17.392 2.44031 18.2025C2.58676 18.8338 2.71319 19.379 2.5069 19.9261C2.45988 20.0511 2.47452 20.1931 2.54517 20.3065C2.69894 20.5529 4.70087 21.9831 6.80817 22.202C6.84347 22.3446 6.88878 22.4888 6.94816 22.6335C7.42771 23.8021 8.59026 24.7339 10.4036 25.403C11.3315 25.7454 11.9871 26.0703 12.5655 26.3569C13.2817 26.7118 13.9002 27.0183 14.7111 27.1769C14.9373 27.2211 15.1678 27.243 15.4013 27.243C16.5014 27.243 17.6665 26.757 18.7479 25.8344C18.9646 25.6496 19.2746 25.4686 19.6027 25.2771C20.73 24.6192 22.2666 23.7206 22.179 21.4248C22.3763 21.316 22.5698 21.1993 22.7584 21.0704C22.786 21.0989 22.8177 21.1241 22.8539 21.1448C23.0252 21.2425 23.1956 21.2862 23.3652 21.2862C24.1227 21.2862 24.8634 20.4123 25.5839 19.5622C26.124 18.9248 26.7362 18.2024 27.2342 18.0033C27.3618 17.9523 27.5822 17.8082 27.6227 17.417C27.706 16.6167 26.9828 14.8 25.9504 13.9812ZM26.3443 10.9404C26.2528 11.1927 25.9258 11.9257 25.6337 12.58C25.1986 13.5553 24.819 14.4134 24.5504 15.075C24.5033 14.9284 24.4548 14.7809 24.4059 14.6324C24.1669 13.9067 23.9198 13.1563 23.8241 12.4124C23.7339 11.711 23.5421 11.107 23.2524 10.6032C23.5721 9.76595 23.6485 8.73544 23.4668 7.76551C24.3955 8.25531 25.8905 9.27661 26.3443 10.9404ZM20.7728 21.1654C19.903 21.5743 18.9172 22.0378 17.9158 22.917C16.6241 24.051 14.9886 23.6618 13.9232 22.7894C14.2109 22.5806 14.4816 22.3278 14.7312 22.0329C15.7372 21.9065 16.7685 21.5457 17.7404 20.9628C19.5078 19.903 20.8555 18.2337 21.4382 16.3831C22.1899 13.9957 21.3894 11.3799 20.1242 9.7128C20.5741 9.72367 21.2419 9.82384 21.8185 10.2485C22.4505 10.714 22.839 11.4788 22.9731 12.5219C23.0792 13.347 23.3393 14.1369 23.5909 14.9008C23.9808 16.0849 24.3491 17.2034 23.9877 18.116C23.2391 20.0058 22.1507 20.5175 20.7728 21.1654ZM7.11646 18.7194C6.75079 17.9255 6.29606 17.4025 5.89488 16.9411C5.34255 16.3058 4.90624 15.804 4.76437 14.7533C4.43583 12.3197 5.96656 9.97063 7.57348 8.99595C8.01585 8.72766 8.43271 8.58464 8.77686 8.57269C7.84234 9.6155 6.80245 11.3383 6.83666 13.0296C6.85726 14.0482 7.26411 14.8875 8.04583 15.5241C8.25206 15.6921 8.46521 15.8399 8.6839 15.9678C8.43929 16.7252 8.55199 17.8429 8.99493 18.8672C9.36809 19.7303 10.3046 21.2683 12.3832 21.8709C12.7308 21.9717 13.0923 22.0357 13.4624 22.0652C12.8487 22.5277 12.1491 22.722 11.401 22.631C9.77826 22.4335 8.13656 20.9346 7.11646 18.7194ZM9.3773 4.97019C10.0681 4.44721 11.4962 3.7283 13.2989 4.78896C14.6039 5.55684 15.8692 5.8483 16.8857 6.08245C18.2853 6.4048 19.0289 6.61275 19.3154 7.46569C19.5064 8.03443 19.1313 8.4085 18.9563 8.54609C18.0709 7.90646 17.1226 7.71603 16.2827 8.02128C15.8502 7.62284 15.3354 7.30426 14.7498 7.08081C12.9979 6.41224 10.9863 6.71778 9.53788 7.85057C9.00437 7.62455 8.33369 7.67838 7.61421 8.00474C7.6487 6.9549 8.48248 5.64757 9.3773 4.97019ZM12.6221 21.0469C10.8813 20.5421 10.0958 19.2512 9.78249 18.5267C9.40928 17.6635 9.34772 16.8338 9.47129 16.332C9.66076 16.3981 9.8532 16.4504 10.048 16.4885C10.4992 17.6093 11.6568 18.5109 12.9971 18.7634C13.2583 18.8126 13.5193 18.8369 13.7785 18.8369C15.1418 18.8369 16.453 18.1652 17.4638 16.9239C18.6338 15.4873 19.7172 13.5136 17.7624 10.9455C17.6462 10.1142 17.3565 9.36985 16.9175 8.74591C17.7046 8.65031 18.4289 9.18096 18.822 9.54336C20.2963 10.9027 21.3719 13.7363 20.6197 16.1253C20.0992 17.7785 18.8888 19.2735 17.299 20.2268C15.7445 21.1591 14.0398 21.4578 12.6221 21.0469ZM9.8719 8.68733C11.077 7.62215 12.9144 7.29882 14.4439 7.88249C15.0558 8.11601 15.9983 8.64551 16.541 9.78637C15.8582 9.32844 15.0691 9.04263 14.2472 8.9701C13.1642 8.87473 12.145 9.17535 11.4503 9.79541C10.1892 10.9211 9.727 12.3045 10.1823 13.591C10.5048 14.5023 11.2672 15.2306 12.1038 15.4803C11.2387 15.7935 9.92099 15.9447 8.58768 14.859C8.0103 14.3888 7.7098 13.7675 7.69458 13.0124C7.67147 11.8691 8.42671 9.9648 9.8719 8.68733ZM12.9152 14.81C12.6597 14.602 12.5006 14.3069 12.4671 13.9792C12.4335 13.6516 12.5296 13.3303 12.7376 13.0749C12.9456 12.8195 13.2407 12.6603 13.5684 12.6268C13.6111 12.6224 13.6537 12.6203 13.6962 12.6203C13.9787 12.6203 14.2505 12.7166 14.4726 12.8975C15 13.3269 15.0795 14.1053 14.6502 14.6326C14.4421 14.888 14.1471 15.0472 13.8194 15.0807C13.4919 15.1142 13.1705 15.018 12.9152 14.81ZM13.6901 15.9454C13.7619 15.9454 13.8343 15.9417 13.9068 15.9343C14.4625 15.8774 14.9628 15.6076 15.3156 15.1744C16.0438 14.2802 15.9088 12.9603 15.0146 12.232C14.5815 11.8793 14.0367 11.7162 13.4811 11.7732C12.9253 11.8301 12.425 12.0999 12.0723 12.5331C11.7195 12.9662 11.5565 13.5108 11.6134 14.0666C11.62 14.131 11.6297 14.1946 11.642 14.2574C11.3576 14.0084 11.1225 13.6758 10.9913 13.3047C10.6532 12.3494 11.0191 11.3304 12.0218 10.4355C12.5404 9.97258 13.3238 9.75004 14.1717 9.82481C15.2782 9.92252 16.3146 10.4898 17.0151 11.3814C18.5867 13.3812 18.0651 14.8268 16.7985 16.3821C15.4321 18.06 13.93 18.066 13.1561 17.9202C12.2628 17.7519 11.4774 17.2325 11.0471 16.5611C11.1809 16.5547 11.3153 16.5426 11.4501 16.5235C11.8782 16.463 12.5334 16.3043 13.2328 15.8944C13.3818 15.928 13.5349 15.9454 13.6901 15.9454ZM15.2831 1.72872C16.1215 1.56992 16.8858 1.61333 17.2422 1.64915C17.5443 2.22224 18.4839 3.74901 20.3979 4.85269C21.8133 5.6689 22.3579 6.82653 22.5655 7.65396C22.7629 8.44077 22.7291 9.19578 22.6008 9.7834C22.5138 9.70359 22.423 9.62797 22.3273 9.55755C21.4296 8.8963 20.3915 8.83486 19.8426 8.85866C20.1446 8.4656 20.3631 7.8901 20.1288 7.19253C19.6761 5.8447 18.4723 5.56742 17.0783 5.24632C16.0691 5.01384 14.9252 4.75035 13.7341 4.04946C13.305 3.79701 12.893 3.62688 12.5008 3.5203C13.0644 2.57423 13.9977 1.97213 15.2831 1.72872ZM8.08759 3.54925C8.37791 3.10538 8.67641 2.64905 8.84837 2.17487C9.44778 2.14747 10.9768 2.19787 11.8679 2.91569C11.7709 3.06305 11.6816 3.21722 11.6007 3.37849C10.3807 3.327 9.42358 3.85913 8.85947 4.28606C8.63139 4.45871 8.41681 4.65264 8.21836 4.8619C7.94635 4.87208 7.65002 4.93895 7.3403 5.04759C7.40483 4.59435 7.738 4.08367 8.08759 3.54925ZM3.29606 8.89081C3.53673 8.6669 4.3054 7.96584 5.21784 7.27891C6.19773 6.54118 6.90908 6.14309 7.41673 5.93394C6.91944 6.78877 6.67196 7.72249 6.78804 8.48671C5.04291 9.72676 3.5556 12.2139 3.91394 14.8682C3.97922 15.3518 4.10118 15.7489 4.25769 16.0908C3.85725 15.8012 3.53764 15.4293 3.294 14.9684C2.15937 12.8218 3.10631 9.50086 3.29606 8.89081ZM3.27638 18.0087C3.13365 17.3932 3.00688 16.8457 3.17656 16.275C3.7052 16.8413 4.39024 17.2441 5.22402 17.4773C5.2318 17.4862 5.23958 17.4952 5.2473 17.5041C5.62853 17.9426 6.02279 18.3959 6.33702 19.0784C6.52883 19.4949 6.74313 19.891 6.97567 20.2633C6.96989 20.2734 6.96423 20.2836 6.9592 20.2943C6.83357 20.5621 6.73729 20.9209 6.71967 21.327C5.25972 21.122 3.90571 20.2862 3.40321 19.9254C3.56447 19.2511 3.41831 18.6208 3.27638 18.0087ZM19.1704 24.5361C18.8082 24.7475 18.4661 24.9472 18.1913 25.1817C17.0834 26.1267 15.9062 26.5364 14.876 26.3348C14.1782 26.1984 13.6347 25.9291 12.9467 25.5882C12.349 25.292 11.6716 24.9563 10.7008 24.5981C9.14436 24.0238 8.12128 23.2319 7.74218 22.3079C7.55471 21.8511 7.55105 21.443 7.59647 21.1444C7.88697 21.5089 8.19725 21.8389 8.52304 22.1282C9.39131 22.8992 10.3505 23.3676 11.2972 23.4829C11.4503 23.5015 11.6023 23.5107 11.7528 23.5107C12.2313 23.5107 12.695 23.4172 13.1327 23.2353C13.138 23.2408 13.143 23.2466 13.1487 23.2519C13.8211 23.8802 14.7035 24.3126 15.5696 24.438C15.7533 24.4646 15.9347 24.4778 16.1139 24.4778C16.9833 24.4778 17.7935 24.1663 18.4819 23.5619C19.3921 22.7628 20.2796 22.3455 21.1378 21.942C21.1978 21.9138 21.2576 21.8856 21.3172 21.8574C21.2137 23.3433 20.1766 23.9488 19.1704 24.5361ZM24.9294 19.0074C24.544 19.4623 24.0157 20.0859 23.6335 20.324C24.0695 19.8556 24.4603 19.2528 24.7853 18.4319C25.0302 17.8137 25.0388 17.1795 24.9298 16.5275C24.96 16.4836 24.9832 16.434 24.9956 16.3787C25.0578 16.1001 25.2982 15.4961 25.5922 14.8063C26.3137 15.5101 26.7776 16.8458 26.7748 17.2698C26.1309 17.5897 25.5208 18.3096 24.9294 19.0074Z" fill="#222222"/>
</g>
<defs>
<clipPath id="clip0">
<rect y="-0.000274658" width="26.4866" height="26.4866" fill="white"/>
</clipPath>
<clipPath id="clip1">
<rect x="1.51367" y="0.756454" width="26.4866" height="26.4866" fill="white"/>
</clipPath>
</defs>
</svg>
