<svg width="36" height="37" viewBox="0 0 36 37" fill="none" xmlns="http://www.w3.org/2000/svg">
<g clip-path="url(#clip0)">
<path d="M30.3421 8.37974L31.1792 7.03288L29.2377 6.9997C28.3954 6.98564 27.5888 7.33856 27.0271 7.96684L27.93 9.74405C28.9132 9.7279 29.8211 9.21445 30.3421 8.37974Z" fill="#FFABAE"/>
<path d="M26.6393 7.41325C27.9159 6.07075 28.3623 4.13859 27.8045 2.36919L27.5856 1.67455C25.3965 2.36498 23.9419 4.4388 24.0354 6.73627" fill="#FFABAE"/>
<path d="M27.3277 17.7912C28.1738 20.4766 31.0328 21.9691 33.7134 21.1245L33.4945 20.4299C32.7256 17.9923 30.2726 16.5008 27.7597 16.9426" fill="#FFABAE"/>
<path d="M27.9838 15.7359L29.3681 16.2103C30.2626 16.5168 31.2495 16.369 32.0146 15.814L33.5865 14.674L32.1285 14.0502C31.1295 13.6225 29.9765 13.7878 29.1385 14.4786L28.0388 15.3845" fill="#FFABAE"/>
<path d="M25.3788 5.65703L26.6403 2.78184C26.7211 2.59773 26.9355 2.51436 27.1194 2.59549C27.3032 2.67645 27.3868 2.89136 27.3059 3.0753L26.0444 5.95049C25.9637 6.13455 25.7492 6.21797 25.5653 6.13701C25.3816 6.05583 25.2981 5.84109 25.3788 5.65703Z" fill="#FFABAE"/>
<path d="M29.7422 18.7467C29.8467 18.5749 30.0705 18.5204 30.2421 18.6252L32.9248 20.2611C33.0966 20.3656 33.1511 20.5899 33.0468 20.7616C32.9424 20.9336 32.7186 20.9881 32.547 20.8833L29.8642 19.2474C29.6924 19.1427 29.6379 18.9187 29.7422 18.7467Z" fill="#FFABAE"/>
<path d="M28.5365 10.9344L26.9256 7.76399C26.777 7.47133 26.5049 7.261 26.1846 7.19115L24.1921 6.75683C23.9551 6.7051 23.7076 6.73404 23.4889 6.83893L21.5088 7.78881L20.0126 7.87839L18.3839 7.24613C18.0666 7.12274 17.7064 7.23624 17.5172 7.51919L16.714 8.71983C16.6067 8.8802 16.4402 8.99138 16.2512 9.02875L14.1138 9.44933C13.9107 9.4891 13.7344 9.61361 13.6286 9.79161C13.523 9.96973 13.4982 10.1846 13.5605 10.3822L13.6443 10.6483L12.6226 13.4041C12.3674 14.0921 12.5476 14.8666 13.0802 15.3718L13.1971 15.4829L12.8984 16.8328C12.7918 17.1084 12.8015 17.4155 12.925 17.6842C13.0485 17.9527 13.2755 18.1597 13.5539 18.258L15.9237 19.0932C15.9237 19.0932 15.8685 22.5468 19.7731 22.8438C23.6777 23.1409 24.2985 20.2727 24.2985 20.2727L24.291 20.2697C24.3175 20.2614 24.3442 20.2529 24.3684 20.2393L26.2886 19.3178C26.5018 19.216 26.6761 19.0476 26.7851 18.8376L27.7221 17.0348C27.7761 16.9307 27.8131 16.8186 27.8317 16.7027L28.6429 11.6015C28.6785 11.3734 28.6412 11.14 28.5365 10.9344Z" fill="#FFABAE"/>
<path d="M22.5717 9.53175L21.1872 9.19912C20.9949 9.15271 20.7939 9.15973 20.6053 9.21898L19.6981 9.50479C19.4217 9.59092 19.1914 9.78428 19.0585 10.0418L18.723 10.6874C18.6509 10.8263 18.6755 10.996 18.7841 11.1087L19.0583 11.3924L18.6686 11.6747C18.4728 11.8175 18.3297 12.0212 18.2617 12.2542L18.1575 12.6135C17.9968 13.1702 18.2985 13.7564 18.8449 13.9485L19.6043 14.2164C19.8969 14.3195 20.2197 14.2932 20.4915 14.1438L23.0149 12.7554C23.4106 12.5357 23.6303 12.0945 23.5676 11.6454L23.3973 10.4392C23.3351 9.99539 23.0072 9.63506 22.5717 9.53175ZM22.6781 10.5433L22.8489 11.7494C22.8693 11.8992 22.7959 12.0461 22.6639 12.1191L20.1405 13.5075C20.0495 13.5575 19.9416 13.5665 19.8434 13.5324L19.0839 13.2642C18.9019 13.2002 18.8012 13.0046 18.8549 12.819L18.9592 12.4601C18.9818 12.3825 19.0296 12.3145 19.0949 12.2669L19.4305 12.0234C19.6783 12.5158 20.3702 12.7292 21.0888 12.5028C21.8665 12.2578 22.3314 11.6082 22.1473 11.0239C21.9633 10.4397 21.21 10.1739 20.4323 10.4189C20.1214 10.5129 19.8425 10.691 19.6265 10.9339L19.4889 10.7912L19.7026 10.3803C19.747 10.2938 19.8242 10.2287 19.9169 10.1994L20.8241 9.91362C20.8871 9.89378 20.9541 9.8915 21.018 9.90715L22.4026 10.2399C22.5479 10.2747 22.6571 10.3952 22.6781 10.5433ZM20.0672 11.6793C20.0225 11.5375 20.2278 11.2469 20.6511 11.1135C21.0745 10.9801 21.4093 11.1006 21.4539 11.2424C21.4986 11.3842 21.2934 11.6748 20.87 11.8081C20.4466 11.9415 20.1118 11.8211 20.0672 11.6793Z" fill="#FFABAE"/>
<path d="M23.7157 14.0803C23.253 14.2264 22.7483 14.1448 22.3546 13.8602C22.3546 13.8602 23.2883 13.4674 23.5505 13.3658C23.809 13.267 23.9983 13.0418 24.0514 12.7697L24.0548 12.7526C24.2593 11.7449 24.2518 10.7051 24.0324 9.69987C23.9769 9.44405 23.9394 9.25472 23.9394 9.25472C24.3564 9.72942 24.7431 10.2299 25.0974 10.753C25.1507 10.8335 25.1698 10.9321 25.1505 11.0267L24.7629 12.9163C24.6594 13.4294 24.3023 13.8541 23.8152 14.0441C23.7828 14.0569 23.7494 14.0697 23.7157 14.0803Z" fill="#FFABAE"/>
<path d="M24.6447 14.6914C24.0907 16.1484 22.5711 16.9953 21.0418 16.6994C19.6291 16.4231 18.2491 15.9989 16.9246 15.4339C14.443 14.372 14.3004 13.1681 14.239 12.653C14.2318 12.5724 14.219 12.4928 14.2007 12.4141C14.3097 11.9424 14.4851 11.4886 14.7216 11.0664C14.8016 10.8978 14.9953 10.8163 15.1716 10.8773L15.7967 11.0977C15.5809 11.4595 15.5407 11.9 15.6877 12.2953C16.1565 13.7833 17.6737 14.8866 17.7383 14.9328C17.7632 14.9506 17.7902 14.9653 17.8187 14.9766L19.9898 15.8198C20.0138 15.829 20.0386 15.8357 20.0641 15.8398C20.133 15.8506 21.7667 16.1071 22.8762 15.7575C24.1717 15.3494 24.0829 13.6352 24.0788 13.5625C24.0788 13.5625 23.4056 14.8272 22.6573 15.0629C21.7948 15.3346 20.4516 15.1603 20.2145 15.1258L18.1267 14.314C17.9108 14.1503 16.7408 13.2186 16.3811 12.0769C16.2994 11.8808 16.3138 11.6576 16.4198 11.4737C16.5921 11.261 16.8291 11.1108 17.0948 11.0458C17.0363 11.4341 17.0667 11.8307 17.1839 12.2058C17.555 12.0853 17.8084 11.7419 17.8144 11.3513C17.8631 10.6609 17.9808 9.97748 18.1657 9.31094C17.8223 9.55094 17.5425 9.87137 17.3507 10.2442C17.023 10.2908 16.7056 10.3928 16.4122 10.546L15.4127 10.1932C14.8874 10.0077 14.3072 10.2482 14.067 10.7512C13.428 12.0979 13.4384 12.4138 13.498 12.603C13.5072 12.648 13.5135 12.6936 13.5174 12.7394C13.5873 13.324 13.7717 14.8775 16.6399 16.105C19.1894 17.1959 22.3401 17.8492 23.3343 17.536C23.4105 17.5146 23.4822 17.4791 23.5453 17.4313C25.2296 16.047 24.7584 14.4739 24.7375 14.4076C24.7114 14.5038 24.6806 14.5985 24.6447 14.6914Z" fill="#FFABAE"/>
<path d="M25.7823 15.449C25.7823 15.449 26.0894 13.7129 26.0796 13.6237L25.916 12.099C25.9115 12.0536 25.91 12.0081 25.9111 11.9624L25.9413 10.0768C25.9432 9.96001 25.8893 9.84911 25.796 9.77897C25.796 9.77897 23.6725 8.25264 23.5609 8.28779L22.312 7.91768L23.3421 7.59315C23.678 7.4879 24.0441 7.55094 24.3258 7.76272L26.2304 9.19918C26.5083 9.41044 26.6694 9.74167 26.6637 10.091L26.6353 11.9772C26.635 11.992 26.6356 12.0071 26.6375 12.0218L26.8027 13.5467C26.8317 13.8137 26.7614 14.0821 26.6054 14.3003L25.7823 15.449Z" fill="#FFABAE"/>
<path d="M22.4744 19.3203C22.3291 19.3661 21.8878 19.5051 17.538 19.4755C16.449 19.4921 15.5143 18.7011 15.3487 17.6228C15.309 17.28 15.1502 16.962 14.9002 16.7242L13.8271 15.7038L14.7485 15.9911C15.3951 16.1775 15.8905 16.6997 16.0432 17.3559C16.0521 17.4 16.0597 17.4443 16.0658 17.4889C16.1685 18.2077 16.7812 18.743 17.5061 18.7475C19.5001 18.7968 21.4949 18.6998 23.4743 18.4578C23.2327 18.8374 22.8851 19.1373 22.4744 19.3203Z" fill="#FFABAE"/>
</g>
<g clip-path="url(#clip1)">
<path d="M20.1375 14.0769L20.8415 14.3245C21.1129 14.4201 21.4122 14.3955 21.6643 14.2569L24.0051 12.9701C24.3726 12.7667 24.5771 12.3579 24.5191 11.9418L24.3617 10.8249C24.305 10.4129 24.0007 10.0782 23.5959 9.98273L22.312 9.67539C22.1339 9.63347 21.9476 9.64071 21.7733 9.69631L20.9318 9.96143C20.6753 10.0414 20.4617 10.2205 20.3385 10.4591L20.027 11.057C19.9598 11.1856 19.9827 11.3428 20.0834 11.4471L20.3376 11.7096L19.976 11.9712C19.7942 12.1035 19.6615 12.2922 19.5983 12.508L19.5016 12.8407C19.3519 13.3563 19.6311 13.8989 20.1375 14.0769ZM20.1491 13.0287L20.2459 12.6965C20.267 12.6244 20.3113 12.5615 20.3719 12.5174L20.6832 12.2918C20.912 12.7496 21.5534 12.947 22.2201 12.7369C22.9413 12.5097 23.3728 11.9078 23.2024 11.3669C23.032 10.826 22.3336 10.5803 21.6122 10.8075C21.3238 10.8947 21.0652 11.0599 20.8647 11.2848L20.7373 11.1528L20.9355 10.7722C20.9767 10.6921 21.0483 10.6317 21.1344 10.6046L21.9759 10.3394C22.0341 10.3211 22.0963 10.3189 22.1557 10.3334L23.4396 10.6408C23.5742 10.6732 23.6755 10.7845 23.6948 10.9217L23.8526 12.0385C23.8716 12.1771 23.8033 12.3131 23.681 12.381L21.3402 13.6677C21.2557 13.7139 21.1557 13.7223 21.0647 13.6909L20.3606 13.4429C20.1909 13.3833 20.0979 13.2011 20.1491 13.0287ZM21.273 11.9748C21.2317 11.8436 21.4222 11.5742 21.8148 11.4505C22.2074 11.3269 22.5179 11.4384 22.5593 11.5696C22.6006 11.7008 22.41 11.97 22.0174 12.0937C21.6248 12.2174 21.3144 12.106 21.273 11.9748Z" fill="#222222"/>
<path d="M29.0153 18.2692L29.3268 17.6712L30.1724 18.1117L29.8609 18.7097L29.0153 18.2692Z" fill="#222222"/>
<path d="M15.1196 18.3875L17.1048 19.0852C17.1828 19.8937 17.6933 22.4016 20.9696 22.6487C21.6782 22.7161 22.393 22.6469 23.0755 22.4448C24.1923 22.1134 25.0832 21.2677 25.4721 20.1697L27.1845 19.3475C27.4471 19.2213 27.6622 19.0141 27.7978 18.7562L27.9674 18.4306C29.0661 20.6761 31.6397 21.783 34.0252 21.036C34.2029 20.98 34.3015 20.7907 34.2456 20.6132L34.043 19.97C33.5315 18.3581 32.2492 17.1079 30.6248 16.6376C31.3123 16.6767 31.9921 16.4765 32.5488 16.071L34.0069 15.0146C34.1578 14.9054 34.1915 14.6947 34.0824 14.5438C34.0465 14.4943 33.9979 14.4554 33.9417 14.4315L32.5898 13.8531C31.5484 13.4055 30.3441 13.5784 29.4708 14.301L29.1384 14.5743L29.5576 11.9509C29.603 11.6695 29.5576 11.3808 29.428 11.1268L29.0874 10.4565C29.2045 10.4356 29.3204 10.4078 29.4342 10.3737C30.1216 10.1588 30.7091 9.70484 31.0905 9.09399L31.8674 7.84643C31.9658 7.68829 31.9175 7.48045 31.7593 7.382C31.7075 7.34964 31.6478 7.33216 31.5867 7.33111L29.7862 7.30127C29.1031 7.29156 28.4368 7.51331 27.8955 7.93015C28.9507 6.61386 29.2805 4.85834 28.775 3.24888L28.5723 2.60563C28.5164 2.42811 28.3271 2.32949 28.1494 2.38546C26.0909 3.039 24.6739 4.9266 24.6207 7.08565C24.5109 7.10536 24.404 7.13904 24.3027 7.18583L22.4946 8.05521C22.0616 7.97689 21.6173 7.98527 21.1876 8.0802L19.8369 7.55606C19.3957 7.38283 18.8935 7.54104 18.6314 7.93586L17.8861 9.04826C17.8362 9.12254 17.7591 9.17396 17.6714 9.1913L15.6889 9.58153C15.1407 9.68872 14.7833 10.2202 14.8906 10.7684C14.8978 10.8054 14.9072 10.8421 14.9186 10.8782L14.9615 11.0142L14.0528 13.4585C13.7684 14.2222 13.9683 15.0822 14.5605 15.6421L14.6564 15.7331L14.3098 16.6281C14.0406 17.3226 14.3853 18.1037 15.0797 18.373C15.093 18.3781 15.1064 18.383 15.1197 18.3878L15.1196 18.3875ZM21.0225 21.9767C18.5768 21.7928 17.9672 20.1789 17.8158 19.3425C17.9568 19.3761 18.1012 19.3945 18.2462 19.3971C19.5457 19.4055 20.4708 19.3979 21.1342 19.3826L21.2929 19.8866C21.4284 20.3165 21.7697 20.6504 22.2027 20.7763L22.556 20.8788C22.8112 20.9528 23.0826 20.9493 23.3358 20.8689L24.5966 20.4717C24.1896 21.1545 23.2164 22.1438 21.0211 21.9771L21.0225 21.9767ZM33.3213 19.9502L31.0405 18.5621L30.6917 19.1378L33.0276 20.562C30.9867 20.8037 29.0516 19.5958 28.3719 17.6562L28.6316 17.1552C30.654 16.8832 32.5967 18.042 33.3183 19.9509L33.3213 19.9502ZM29.9028 14.8216C30.5825 14.2602 31.5188 14.1257 32.3289 14.4733L33.1328 14.8167L32.1565 15.5237C31.5356 15.9734 30.7351 16.0938 30.0094 15.8467L29.0547 15.5204L29.9028 14.8216ZM29.7209 16.4611C29.4283 16.432 29.1338 16.4287 28.8408 16.4513L28.8845 16.1753L29.7209 16.4611ZM29.7746 7.97446L30.9799 7.99419L30.518 8.73637C30.134 9.35083 29.4875 9.7531 28.7666 9.82612L28.1423 8.59859C28.5861 8.18882 29.1705 7.96535 29.7746 7.97446ZM27.6011 3.34861L26.5017 5.85284L27.1176 6.12475L28.1928 3.67541C28.5448 5.04507 28.2148 6.50036 27.3068 7.58435C27.2148 7.54129 27.1183 7.50869 27.0191 7.48695L25.2925 7.11183C25.3291 5.53354 26.2106 4.09644 27.6011 3.34861ZM24.5947 7.7951C24.73 7.73051 24.8829 7.71265 25.0295 7.74436L26.8774 8.1459C27.0754 8.18853 27.2438 8.31823 27.3354 8.49898L28.8273 11.433C28.8918 11.56 28.9144 11.7043 28.8918 11.845L28.1373 16.5701C28.1257 16.6416 28.1028 16.7107 28.0695 16.7749L27.1998 18.4448C27.1321 18.5739 27.0247 18.6779 26.8934 18.7414L25.1122 19.5949C25.0835 19.6089 25.0537 19.6207 25.0234 19.6304L23.1332 20.2259C23.0062 20.266 22.8703 20.2675 22.7425 20.2302L22.3893 20.1276C22.1733 20.0649 22.0029 19.8987 21.9347 19.6844L21.8333 19.3628C22.1785 19.3692 22.523 19.3319 22.8589 19.2518C23.5254 19.0418 24.261 17.785 24.5141 17.3164L25.1332 17.1214C25.3417 17.0552 25.5234 16.9237 25.6511 16.7461L27.3349 14.3981C27.4797 14.1958 27.5451 13.9474 27.5183 13.7001L27.3658 12.2883C27.3642 12.2745 27.3635 12.2607 27.3637 12.2468L27.3925 10.5005C27.398 10.177 27.2488 9.87049 26.9912 9.67503L25.2255 8.34576C24.9641 8.14953 24.6239 8.09133 24.3122 8.18955L23.4667 8.4559C23.4299 8.43217 23.3928 8.41104 23.3562 8.38892L24.5947 7.7951ZM15.867 12.8788C15.8607 12.8045 15.8493 12.7307 15.8328 12.658C15.935 12.2197 16.0988 11.798 16.319 11.4055C16.394 11.2516 16.5726 11.1784 16.7342 11.2351L17.3137 11.4389C17.1135 11.7739 17.076 12.1815 17.2119 12.5474C17.6459 13.925 19.0523 14.9458 19.1121 14.9886C19.1353 15.0051 19.1603 15.0187 19.1866 15.0291L21.1998 15.8088C21.2219 15.8174 21.245 15.8235 21.2685 15.8274C21.3324 15.8373 22.8474 16.074 23.8765 15.7498C24.7604 15.4713 24.9493 14.5405 24.9863 14.0399C25.3176 13.8336 25.5495 13.5002 25.6277 13.1178L25.9857 11.3689C26.0037 11.2811 25.9859 11.1899 25.9366 11.1154C25.4095 10.3316 24.7975 9.6087 24.1115 8.95971L24.5148 8.83267C24.6184 8.80003 24.7316 8.81931 24.8185 8.88469L26.584 10.2139C26.6705 10.2788 26.7205 10.3814 26.7186 10.4897L26.6897 12.2357C26.6887 12.278 26.6902 12.3202 26.6942 12.3622L26.8469 13.7734C26.8553 13.8554 26.8335 13.9377 26.7854 14.0047L25.5966 15.6674C25.6991 15.2849 25.7014 14.8824 25.6031 14.4989L24.9601 14.7015C24.9634 14.7121 25.2747 15.7618 24.1199 16.7335L23.9269 16.7943C23.2282 16.8695 20.8386 16.5113 18.3577 15.4527C16.0565 14.4709 15.9244 13.3549 15.867 12.8788ZM19.2425 12.261C18.9982 11.4794 19.3375 10.6338 20.0544 10.2379L20.0845 10.2213C20.1627 10.1783 20.2206 10.106 20.2457 10.0203L20.5431 8.99632C20.8988 8.8343 21.9806 8.42174 22.8804 8.89055C23.8915 9.4172 24.9999 10.9445 25.2982 11.3731L24.9688 12.9823C24.8856 13.3914 24.4865 13.6555 24.0774 13.5724C23.9726 13.5511 23.8734 13.5078 23.7866 13.4453L23.3937 13.9933C23.6505 14.1775 23.9614 14.2709 24.2773 14.2589C24.2474 14.631 24.0156 14.9566 23.6738 15.1069C22.8737 15.3589 21.6283 15.198 21.4083 15.1662L19.4727 14.4155C19.2726 14.2639 18.188 13.4017 17.855 12.3447C17.7793 12.1632 17.7926 11.9566 17.8911 11.7862C18.0527 11.5876 18.2751 11.4474 18.5241 11.3875C18.466 11.7472 18.492 12.1156 18.5994 12.4638L19.2426 12.2611L19.2425 12.261ZM15.5934 10.4023C15.6422 10.3199 15.7239 10.2622 15.818 10.2435L17.8003 9.85293C18.0631 9.80043 18.2946 9.64642 18.4446 9.42407L19.1898 8.31167C19.2777 8.18063 19.4447 8.12801 19.5918 8.18503L20.1894 8.41665C20.1373 8.44196 20.105 8.45951 20.0966 8.46437C20.0182 8.50729 19.9602 8.57967 19.9351 8.66547L19.6339 9.70194C19.264 9.93085 18.9639 10.2566 18.7659 10.6439C18.458 10.6865 18.1597 10.7818 17.8841 10.9256L16.9572 10.5993C16.4704 10.4261 15.9316 10.6491 15.7096 11.1157L15.7042 11.1277L15.5618 10.6755C15.5324 10.5842 15.5439 10.4846 15.5934 10.4023ZM14.6859 13.6928L15.2913 12.0616L15.2961 12.0766C15.1281 12.5443 15.1438 12.715 15.1805 12.8317C15.189 12.8734 15.1949 12.9155 15.1983 12.9579C15.2629 13.4992 15.4333 14.9376 18.0924 16.073C20.0449 16.9071 22.3732 17.4614 23.6462 17.466C23.2934 18.0303 22.8903 18.5348 22.6562 18.6085C22.5517 18.6415 21.925 18.7471 18.2498 18.7243C17.575 18.723 17.0049 18.2229 16.9157 17.5539C16.851 17.0988 16.6345 16.6786 16.3012 16.362L15.0242 15.1523C14.6284 14.7781 14.4949 14.2033 14.6852 13.6929L14.6859 13.6927L14.6859 13.6928ZM14.9384 16.872L15.1853 16.2342L15.8361 16.8513C16.059 17.0632 16.2039 17.3439 16.2474 17.6482C16.2721 17.809 16.3166 17.966 16.3798 18.1159L15.3434 17.7513C14.9922 17.6278 14.8075 17.2428 14.9312 16.8915C14.9334 16.8849 14.936 16.8784 14.9384 16.872Z" fill="#222222"/>
</g>
<g clip-path="url(#clip2)">
<path d="M3.77637 35.0533C3.77637 35.6121 4.00469 36.0658 4.56359 36.0658H27.8526C28.4121 36.0658 29.1498 35.6121 29.1498 35.0533V19.3565H3.77637V35.0533ZM12.7295 24.1279C14.5068 22.4984 16.5441 24.3074 16.5441 24.3074H16.559C16.559 24.3074 18.5956 22.4984 20.3736 24.1279C22.151 25.7574 20.6749 29.7615 16.6381 31.3909L16.5217 31.2535C12.485 29.6241 10.9515 25.7574 12.7295 24.1279Z" fill="#FFABAE"/>
</g>
<path d="M17.5532 24.5558C17.5258 24.5738 17.4997 24.5914 17.4748 24.6085C17.45 24.5914 17.4238 24.5738 17.3964 24.5557C17.1538 24.3959 16.805 24.1981 16.3875 24.0563C15.5399 23.7682 14.3773 23.7085 13.3149 24.6824C12.1962 25.7078 12.2029 27.3549 12.9184 28.8318C13.6303 30.3011 15.082 31.7306 17.1423 32.5927L17.1799 32.6371L17.4135 32.9129L17.7486 32.7777C19.8768 31.9186 21.3549 30.424 22.0633 28.8924C22.7608 27.3845 22.7513 25.706 21.6348 24.6824L21.6348 24.6824C20.5721 23.7085 19.4096 23.7682 18.562 24.0563C18.1446 24.1981 17.7957 24.3959 17.5532 24.5558ZM5.48693 36.4889C5.41619 36.4889 5.37699 36.475 5.35623 36.4643C5.33593 36.4539 5.31568 36.4377 5.29476 36.4075C5.24699 36.3385 5.19971 36.1991 5.19971 35.9764V20.7796H29.5731V35.9764C29.5731 36.0286 29.5314 36.1501 29.3421 36.2865C29.1601 36.4176 28.9362 36.4889 28.776 36.4889H5.48693Z" stroke="#222222"/>
<g clip-path="url(#clip3)">
<path d="M20.7229 8.37973L21.5601 7.03287L19.6186 6.99969C18.7762 6.98563 17.9696 7.33855 17.408 7.96683L18.3108 9.74404C19.2941 9.7279 20.2019 9.21444 20.7229 8.37973Z" fill="#FFABAE"/>
<path d="M17.0202 7.41324C18.2968 6.07074 18.7432 4.13859 18.1853 2.36919L17.9665 1.67454C15.7774 2.36497 14.3227 4.43879 14.4163 6.73626" fill="#FFABAE"/>
<path d="M17.7086 17.7912C18.5547 20.4766 21.4136 21.969 24.0942 21.1245L23.8754 20.4299C23.1065 17.9923 20.6535 16.5008 18.1406 16.9426" fill="#FFABAE"/>
<path d="M18.3646 15.7359L19.7489 16.2102C20.6434 16.5168 21.6304 16.369 22.3955 15.814L23.9673 14.6739L22.5093 14.0502C21.5104 13.6225 20.3574 13.7878 19.5193 14.4786L18.4197 15.3845" fill="#FFABAE"/>
<path d="M15.7596 5.65702L17.0211 2.78183C17.102 2.59773 17.3163 2.51435 17.5002 2.59548C17.6841 2.67644 17.7676 2.89136 17.6867 3.07529L16.4252 5.95048C16.3446 6.13454 16.1301 6.21797 15.9462 6.13701C15.7625 6.05583 15.679 5.84108 15.7596 5.65702Z" fill="#FFABAE"/>
<path d="M20.1231 18.7467C20.2275 18.5749 20.4513 18.5204 20.623 18.6252L23.3057 20.2611C23.4775 20.3656 23.5319 20.5899 23.4277 20.7616C23.3233 20.9336 23.0995 20.9881 22.9278 20.8833L20.2451 19.2474C20.0733 19.1427 20.0187 18.9186 20.1231 18.7467Z" fill="#FFABAE"/>
<path d="M18.9173 10.9344L17.3064 7.76398C17.1578 7.47132 16.8858 7.261 16.5655 7.19114L14.573 6.75682C14.336 6.70509 14.0885 6.73403 13.8698 6.83892L11.8897 7.7888L10.3935 7.87838L8.76476 7.24612C8.4475 7.12274 8.08727 7.23623 7.89803 7.51918L7.09483 8.71982C6.98755 8.8802 6.82105 8.99138 6.63203 9.02874L4.49466 9.44933C4.29151 9.48909 4.11525 9.6136 4.00944 9.7916C3.90384 9.96972 3.87907 10.1846 3.94131 10.3822L4.02514 10.6483L3.00347 13.4041C2.74829 14.0921 2.92847 14.8666 3.4611 15.3717L3.57801 15.4829L3.27922 16.8328C3.17269 17.1084 3.18237 17.4155 3.30591 17.6842C3.42939 17.9527 3.65632 18.1597 3.93479 18.258L6.3046 19.0932C6.3046 19.0932 6.24933 22.5468 10.1539 22.8438C14.0586 23.1409 14.6794 20.2727 14.6794 20.2727L14.6719 20.2697C14.6983 20.2613 14.7251 20.2529 14.7493 20.2393L16.6695 19.3178C16.8826 19.216 17.057 19.0475 17.1659 18.8376L18.103 17.0348C18.1569 16.9307 18.194 16.8186 18.2126 16.7027L19.0238 11.6014C19.0593 11.3734 19.0221 11.14 18.9173 10.9344Z" fill="#FFABAE"/>
<path d="M12.9526 9.53174L11.5681 9.19912C11.3758 9.15271 11.1748 9.15973 10.9861 9.21897L10.0789 9.50478C9.80257 9.59092 9.57226 9.78428 9.4394 10.0418L9.10389 10.6874C9.03171 10.8263 9.05634 10.996 9.16497 11.1087L9.43912 11.3924L9.04946 11.6747C8.85365 11.8175 8.71054 12.0212 8.64252 12.2542L8.53835 12.6135C8.37769 13.1702 8.6794 13.7564 9.2258 13.9485L9.98512 14.2164C10.2778 14.3195 10.6005 14.2932 10.8724 14.1438L13.3958 12.7554C13.7914 12.5357 14.0112 12.0945 13.9484 11.6454L13.7781 10.4392C13.7159 9.99538 13.388 9.63505 12.9526 9.53174ZM13.059 10.5433L13.2298 11.7494C13.2502 11.8992 13.1768 12.0461 13.0448 12.1191L10.5214 13.5075C10.4303 13.5575 10.3224 13.5665 10.2242 13.5324L9.4648 13.2642C9.28275 13.2002 9.18207 13.0046 9.23579 12.819L9.34007 12.4601C9.3627 12.3825 9.4105 12.3145 9.47571 12.2669L9.81136 12.0234C10.0592 12.5158 10.7511 12.7292 11.4697 12.5028C12.2474 12.2578 12.7123 11.6082 12.5282 11.0239C12.3441 10.4397 11.5908 10.1738 10.8131 10.4189C10.5022 10.5129 10.2234 10.691 10.0074 10.9339L9.86976 10.7912L10.0835 10.3803C10.1278 10.2938 10.205 10.2286 10.2978 10.1994L11.205 9.91361C11.2679 9.89377 11.335 9.89149 11.3989 9.90714L12.7834 10.2399C12.9287 10.2747 13.038 10.3952 13.059 10.5433ZM10.448 11.6793C10.4034 11.5375 10.6086 11.2469 11.032 11.1135C11.4554 10.9801 11.7901 11.1006 11.8348 11.2424C11.8795 11.3841 11.6742 11.6748 11.2508 11.8081C10.8275 11.9415 10.4927 11.821 10.448 11.6793Z" fill="#FFABAE"/>
<path d="M14.0966 14.0803C13.6339 14.2264 13.1292 14.1448 12.7354 13.8602C12.7354 13.8602 13.6692 13.4674 13.9314 13.3658C14.1898 13.267 14.3792 13.0418 14.4323 12.7697L14.4357 12.7526C14.6401 11.7449 14.6326 10.7051 14.4133 9.69987C14.3578 9.44405 14.3203 9.25471 14.3203 9.25471C14.7372 9.72941 15.124 10.2299 15.4782 10.753C15.5315 10.8335 15.5507 10.9321 15.5313 11.0267L15.1438 12.9163C15.0402 13.4294 14.6831 13.8541 14.1961 14.0441C14.1637 14.0569 14.1303 14.0697 14.0966 14.0803Z" fill="#FFABAE"/>
<path d="M15.0256 14.6914C14.4715 16.1484 12.9519 16.9953 11.4227 16.6993C10.01 16.4231 8.62992 15.9989 7.30544 15.4339C4.82383 14.372 4.68124 13.1681 4.61981 12.653C4.61268 12.5724 4.59986 12.4928 4.58158 12.4141C4.69053 11.9424 4.86594 11.4886 5.10249 11.0664C5.18244 10.8978 5.37615 10.8163 5.55242 10.8773L6.17753 11.0977C5.96176 11.4595 5.92153 11.9 6.06859 12.2953C6.53738 13.7833 8.05451 14.8866 8.11912 14.9328C8.1441 14.9506 8.17104 14.9653 8.19955 14.9766L10.3707 15.8198C10.3946 15.829 10.4195 15.8357 10.4449 15.8398C10.5138 15.8505 12.1475 16.1071 13.257 15.7575C14.5526 15.3494 14.4638 13.6352 14.4597 13.5625C14.4597 13.5625 13.7864 14.8272 13.0382 15.0629C12.1757 15.3346 10.8325 15.1603 10.5953 15.1258L8.50754 14.314C8.29165 14.1503 7.12166 13.2186 6.76197 12.0769C6.68028 11.8808 6.69463 11.6576 6.80065 11.4737C6.97294 11.261 7.20996 11.1108 7.47567 11.0457C7.41713 11.4341 7.44755 11.8307 7.56478 12.2057C7.93585 12.0853 8.18922 11.7419 8.19531 11.3513C8.24392 10.6609 8.3617 9.97748 8.54658 9.31093C8.20312 9.55094 7.92334 9.87136 7.73154 10.2442C7.40381 10.2908 7.08649 10.3928 6.7931 10.546L5.79356 10.1932C5.26822 10.0077 4.68805 10.2482 4.44791 10.7512C3.80889 12.0979 3.81927 12.4138 3.8789 12.603C3.88806 12.648 3.89441 12.6936 3.89822 12.7394C3.96814 13.3239 4.15258 14.8775 7.02078 16.105C9.57031 17.1959 12.7209 17.8492 13.7152 17.536C13.7914 17.5146 13.863 17.4791 13.9261 17.4313C15.6105 16.047 15.1392 14.4739 15.1183 14.4075C15.0923 14.5038 15.0614 14.5985 15.0256 14.6914Z" fill="#FFABAE"/>
<path d="M16.1632 15.449C16.1632 15.449 16.4703 13.7129 16.4605 13.6237L16.2968 12.099C16.2924 12.0536 16.2909 12.0081 16.2919 11.9624L16.3222 10.0767C16.3241 9.96 16.2702 9.8491 16.1768 9.77897C16.1768 9.77897 14.0534 8.25264 13.9418 8.28778L12.6929 7.91767L13.723 7.59314C14.0588 7.48789 14.425 7.55094 14.7066 7.76272L16.6112 9.19917C16.8892 9.41044 17.0503 9.74166 17.0446 10.091L17.0162 11.9772C17.0158 11.992 17.0165 12.0071 17.0183 12.0218L17.1835 13.5467C17.2125 13.8137 17.1423 14.0821 16.9862 14.3003L16.1632 15.449Z" fill="#FFABAE"/>
<path d="M12.8552 19.3203C12.71 19.3661 12.2686 19.5051 7.91885 19.4755C6.82991 19.4921 5.89515 18.7011 5.7296 17.6228C5.6899 17.2799 5.5311 16.962 5.28108 16.7242L4.20801 15.7038L5.12938 15.9911C5.77598 16.1775 6.27134 16.6997 6.4241 17.3559C6.433 17.4 6.4406 17.4443 6.44668 17.4889C6.54937 18.2077 7.16203 18.743 7.88693 18.7475C9.88092 18.7967 11.8757 18.6998 13.8552 18.4578C13.6136 18.8374 13.2659 19.1372 12.8552 19.3203Z" fill="#FFABAE"/>
</g>
<g clip-path="url(#clip4)">
<path d="M10.5184 14.0769L11.2224 14.3245C11.4938 14.4201 11.793 14.3955 12.0452 14.2569L14.386 12.9701C14.7535 12.7667 14.9579 12.3579 14.9 11.9418L14.7426 10.8249C14.6859 10.4129 14.3816 10.0782 13.9768 9.98272L12.6929 9.67539C12.5147 9.63346 12.3284 9.6407 12.1541 9.6963L11.3126 9.96142C11.0562 10.0414 10.8425 10.2205 10.7193 10.459L10.4079 11.057C10.3407 11.1856 10.3635 11.3428 10.4643 11.4471L10.7184 11.7095L10.3569 11.9712C10.1751 12.1035 10.0423 12.2922 9.97915 12.508L9.88244 12.8407C9.73277 13.3562 10.0119 13.8989 10.5184 14.0769ZM10.53 13.0287L10.6267 12.6964C10.6478 12.6244 10.6921 12.5615 10.7528 12.5174L11.064 12.2918C11.2928 12.7496 11.9343 12.9469 12.601 12.7369C13.3221 12.5097 13.7537 11.9078 13.5833 11.3669C13.4129 10.826 12.7144 10.5803 11.9931 10.8075C11.7047 10.8947 11.446 11.0599 11.2455 11.2848L11.1181 11.1527L11.3163 10.7722C11.3576 10.6921 11.4292 10.6316 11.5152 10.6045L12.3568 10.3394C12.415 10.3211 12.4771 10.3189 12.5365 10.3334L13.8204 10.6408C13.9551 10.6732 14.0564 10.7845 14.0757 10.9217L14.2335 12.0384C14.2524 12.1771 14.1841 12.3131 14.0618 12.381L11.721 13.6677C11.6366 13.7139 11.5366 13.7223 11.4456 13.6909L10.7414 13.4429C10.5718 13.3833 10.4787 13.2011 10.53 13.0287ZM11.6539 11.9748C11.6126 11.8436 11.8031 11.5742 12.1957 11.4505C12.5883 11.3269 12.8988 11.4383 12.9401 11.5696C12.9815 11.7008 12.7909 11.97 12.3983 12.0937C12.0057 12.2174 11.6952 12.106 11.6539 11.9748Z" fill="#222222"/>
<path d="M19.3962 18.2692L19.7077 17.6712L20.5532 18.1117L20.2418 18.7097L19.3962 18.2692Z" fill="#222222"/>
<path d="M5.50048 18.3875L7.48566 19.0852C7.56362 19.8937 8.07416 22.4016 11.3505 22.6487C12.0591 22.7161 12.7739 22.6468 13.4564 22.4448C14.5731 22.1134 15.464 21.2677 15.853 20.1697L17.5653 19.3474C17.8279 19.2213 18.043 19.014 18.1786 18.7562L18.3482 18.4306C19.4469 20.6761 22.0205 21.7829 24.4061 21.036C24.5837 20.98 24.6824 20.7907 24.6264 20.6131L24.4238 19.97C23.9124 18.3581 22.63 17.1079 21.0056 16.6376C21.6932 16.6767 22.373 16.4765 22.9297 16.071L24.3878 15.0146C24.5387 14.9054 24.5724 14.6947 24.4633 14.5438C24.4274 14.4943 24.3788 14.4554 24.3226 14.4315L22.9707 13.8531C21.9292 13.4055 20.725 13.5784 19.8517 14.301L19.5193 14.5742L19.9384 11.9509C19.9838 11.6695 19.9385 11.3808 19.8088 11.1268L19.4683 10.4565C19.5854 10.4356 19.7012 10.4078 19.8151 10.3736C20.5025 10.1588 21.0899 9.70483 21.4713 9.09398L22.2483 7.84642C22.3467 7.68829 22.2983 7.48044 22.1402 7.382C22.0884 7.34963 22.0287 7.33216 21.9675 7.3311L20.167 7.30127C19.484 7.29156 18.8177 7.5133 18.2764 7.93015C19.3315 6.61385 19.6614 4.85833 19.1558 3.24887L18.9532 2.60562C18.8973 2.42811 18.7079 2.32948 18.5303 2.38545C16.4718 3.03899 15.0547 4.9266 15.0016 7.08565C14.8918 7.10535 14.7849 7.13904 14.6836 7.18582L12.8754 8.05521C12.4424 7.97688 11.9982 7.98527 11.5684 8.08019L10.2177 7.55606C9.77651 7.38282 9.27434 7.54103 9.01221 7.93586L8.26698 9.04826C8.21708 9.12253 8.13995 9.17395 8.05223 9.19129L6.06973 9.58152C5.52158 9.68871 5.16414 10.2202 5.27145 10.7684C5.27868 10.8054 5.28802 10.8421 5.2995 10.8782L5.34236 11.0142L4.43369 13.4585C4.14927 14.2222 4.34913 15.0822 4.94138 15.6421L5.03725 15.7331L4.6907 16.6281C4.42144 17.3226 4.76614 18.1037 5.46057 18.3729C5.47387 18.3781 5.48725 18.383 5.50056 18.3877L5.50048 18.3875ZM11.4033 21.9767C8.95762 21.7928 8.34803 20.1789 8.19665 19.3425C8.3377 19.3761 8.48201 19.3945 8.62705 19.3971C9.92651 19.4055 10.8517 19.3979 11.515 19.3826L11.6738 19.8866C11.8092 20.3165 12.1506 20.6504 12.5836 20.7763L12.9369 20.8788C13.192 20.9528 13.4634 20.9493 13.7166 20.8689L14.9775 20.4716C14.5705 21.1545 13.5973 22.1438 11.4019 21.9771L11.4033 21.9767ZM23.7021 19.9502L21.4214 18.5621L21.0726 19.1378L23.4085 20.5619C21.3675 20.8037 19.4324 19.5958 18.7528 17.6562L19.0125 17.1552C21.0349 16.8831 22.9776 18.042 23.6991 19.9509L23.7021 19.9502ZM20.2837 14.8216C20.9633 14.2602 21.8997 14.1257 22.7097 14.4733L23.5136 14.8167L22.5373 15.5237C21.9164 15.9734 21.1159 16.0938 20.3903 15.8467L19.4356 15.5204L20.2837 14.8216ZM20.1018 16.4611C19.8091 16.432 19.5146 16.4287 19.2216 16.4513L19.2654 16.1752L20.1018 16.4611ZM20.1555 7.97445L21.3607 7.99419L20.8989 8.73637C20.5148 9.35082 19.8684 9.75309 19.1474 9.82612L18.5232 8.59859C18.9669 8.18881 19.5513 7.96534 20.1555 7.97445ZM17.982 3.3486L16.8826 5.85283L17.4984 6.12474L18.5737 3.67541C18.9256 5.04506 18.5956 6.50035 17.6876 7.58434C17.5956 7.54128 17.4991 7.50868 17.3999 7.48694L15.6734 7.11183C15.7099 5.53354 16.5914 4.09643 17.982 3.3486ZM14.9756 7.7951C15.1108 7.7305 15.2638 7.71264 15.4103 7.74435L17.2583 8.1459C17.4563 8.18853 17.6247 8.31823 17.7163 8.49897L19.2082 11.433C19.2727 11.56 19.2952 11.7043 19.2726 11.845L18.5181 16.5701C18.5066 16.6416 18.4837 16.7107 18.4504 16.7748L17.5807 18.4448C17.513 18.5739 17.4055 18.6779 17.2742 18.7414L15.493 19.5949C15.4644 19.6089 15.4345 19.6207 15.4042 19.6304L13.5141 20.2259C13.3871 20.266 13.2511 20.2675 13.1234 20.2302L12.7702 20.1275C12.5542 20.0649 12.3837 19.8987 12.3155 19.6844L12.2142 19.3628C12.5593 19.3692 12.9039 19.3319 13.2397 19.2518C13.9063 19.0418 14.6419 17.785 14.895 17.3164L15.514 17.1214C15.7226 17.0552 15.9042 16.9237 16.032 16.7461L17.7158 14.3981C17.8605 14.1958 17.9259 13.9474 17.8992 13.7001L17.7466 12.2883C17.7451 12.2745 17.7443 12.2607 17.7446 12.2468L17.7734 10.5005C17.7789 10.177 17.6297 9.87048 17.372 9.67503L15.6063 8.34575C15.3449 8.14952 15.0048 8.09132 14.693 8.18954L13.8476 8.45589C13.8108 8.43217 13.7736 8.41104 13.737 8.38891L14.9756 7.7951ZM6.2479 12.8788C6.24157 12.8045 6.23017 12.7307 6.21366 12.658C6.3159 12.2197 6.47971 11.798 6.69988 11.4055C6.77488 11.2516 6.95348 11.1784 7.11504 11.2351L7.69455 11.4389C7.49437 11.7739 7.45687 12.1815 7.59271 12.5474C8.02672 13.925 9.4332 14.9458 9.49299 14.9886C9.51613 15.0051 9.54112 15.0187 9.5675 15.0291L11.5806 15.8088C11.6028 15.8174 11.6258 15.8235 11.6493 15.8274C11.7132 15.8373 13.2283 16.074 14.2573 15.7498C15.1412 15.4713 15.3301 14.5405 15.3672 14.0399C15.6984 13.8336 15.9304 13.5002 16.0085 13.1178L16.3666 11.3689C16.3845 11.2811 16.3668 11.1899 16.3174 11.1153C15.7904 10.3316 15.1784 9.60869 14.4924 8.9597L14.8956 8.83267C14.9993 8.80002 15.1124 8.8193 15.1994 8.88468L16.9649 10.2139C17.0514 10.2788 17.1014 10.3814 17.0995 10.4897L17.0705 12.2357C17.0695 12.278 17.071 12.3202 17.0751 12.3622L17.2277 13.7734C17.2362 13.8554 17.2144 13.9377 17.1662 14.0047L15.9774 15.6674C16.08 15.2849 16.0822 14.8824 15.984 14.4989L15.341 14.7015C15.3443 14.7121 15.6555 15.7617 14.5007 16.7335L14.3078 16.7943C13.6091 16.8695 11.2195 16.5113 8.73851 15.4527C6.43737 14.4709 6.30526 13.3549 6.2479 12.8788ZM9.62338 12.261C9.37908 11.4794 9.7184 10.6338 10.4352 10.2379L10.4654 10.2213C10.5436 10.1783 10.6015 10.106 10.6265 10.0203L10.9239 8.99631C11.2797 8.8343 12.3614 8.42174 13.2613 8.89054C14.2724 9.41719 15.3807 10.9445 15.679 11.3731L15.3497 12.9823C15.2665 13.3914 14.8673 13.6555 14.4583 13.5724C14.3535 13.5511 14.2543 13.5078 14.1674 13.4453L13.7746 13.9933C14.0314 14.1775 14.3423 14.2709 14.6581 14.2589C14.6282 14.631 14.3964 14.9566 14.0546 15.1069C13.2546 15.3589 12.0092 15.198 11.7891 15.1662L9.8536 14.4155C9.65342 14.2639 8.56884 13.4017 8.23584 12.3447C8.16014 12.1632 8.1735 11.9566 8.27197 11.7862C8.4336 11.5876 8.65593 11.4474 8.90492 11.3875C8.8469 11.7472 8.87282 12.1155 8.98029 12.4637L9.62342 12.2611L9.62338 12.261ZM5.97421 10.4023C6.02307 10.3199 6.10475 10.2622 6.19887 10.2435L8.18112 9.85292C8.444 9.80042 8.67545 9.64641 8.82543 9.42406L9.57067 8.31166C9.65859 8.18062 9.82561 8.128 9.97264 8.18502L10.5702 8.41664C10.5181 8.44196 10.4858 8.45951 10.4775 8.46436C10.3991 8.50728 10.3411 8.57966 10.3159 8.66546L10.0148 9.70193C9.6449 9.93084 9.34474 10.2566 9.14672 10.6438C8.83886 10.6865 8.54053 10.7818 8.26494 10.9255L7.3381 10.5993C6.85127 10.4261 6.31248 10.6491 6.0905 11.1157L6.08509 11.1277L5.94263 10.6755C5.9133 10.5842 5.92477 10.4846 5.97421 10.4023ZM5.06677 13.6928L5.6722 12.0616L5.67695 12.0766C5.50898 12.5443 5.52466 12.715 5.56141 12.8317C5.56982 12.8734 5.57571 12.9155 5.57921 12.9579C5.64376 13.4992 5.81416 14.9376 8.47328 16.073C10.4258 16.9071 12.7541 17.4614 14.0271 17.466C13.6742 18.0303 13.2711 18.5348 13.0371 18.6085C12.9326 18.6415 12.3059 18.7471 8.63067 18.7243C7.95585 18.723 7.38577 18.2229 7.29657 17.5539C7.23189 17.0988 7.01539 16.6786 6.6821 16.3619L5.40503 15.1523C5.00925 14.7781 4.87574 14.2033 5.0661 13.6929L5.06673 13.6927L5.06677 13.6928ZM5.31926 16.872L5.56619 16.2342L6.21694 16.8513C6.43987 17.0632 6.58479 17.3439 6.62822 17.6482C6.65299 17.809 6.69747 17.966 6.76069 18.1159L5.72426 17.7513C5.37309 17.6278 5.1884 17.2428 5.31206 16.8915C5.31431 16.8849 5.31685 16.8784 5.31926 16.872Z" fill="#222222"/>
</g>
<defs>
<clipPath id="clip0">
<rect x="9.61914" y="7.21986" width="20.62" height="20.62" transform="rotate(-17.4869 9.61914 7.21986)" fill="white"/>
</clipPath>
<clipPath id="clip1">
<rect x="11.1509" y="7.58507" width="19.8114" height="19.8114" transform="rotate(-17.4869 11.1509 7.58507)" fill="white"/>
</clipPath>
<clipPath id="clip2">
<rect x="0.922852" y="3.75808" width="32.3077" height="32.3077" fill="white"/>
</clipPath>
<clipPath id="clip3">
<rect y="7.21985" width="20.62" height="20.62" transform="rotate(-17.4869 0 7.21985)" fill="white"/>
</clipPath>
<clipPath id="clip4">
<rect x="1.53174" y="7.58506" width="19.8114" height="19.8114" transform="rotate(-17.4869 1.53174 7.58506)" fill="white"/>
</clipPath>
</defs>
</svg>
