<svg width="11" height="8" viewBox="0 0 11 8" fill="none" xmlns="http://www.w3.org/2000/svg">
<g clip-path="url(#clip0)">
<path d="M8.44282 3.7205L4.78688 0.0645596C4.7008 -0.0215199 4.56275 -0.0215199 4.47667 0.0645596C4.39059 0.150639 4.39059 0.288691 4.47667 0.37477L7.97669 3.87479L4.47667 7.37482C4.39059 7.4609 4.39059 7.59895 4.47667 7.68503C4.5189 7.72726 4.57574 7.74999 4.63096 7.74999C4.68618 7.74999 4.74303 7.72888 4.78526 7.68503L8.4412 4.02909C8.52728 3.94463 8.52728 3.80496 8.44282 3.7205Z" fill="#DA666A"/>
</g>
<g clip-path="url(#clip1)">
<path d="M5.85884 3.7205L2.2029 0.0645596C2.11682 -0.0215199 1.97876 -0.0215199 1.89268 0.0645596C1.80661 0.150639 1.80661 0.288691 1.89268 0.37477L5.39271 3.87479L1.89268 7.37482C1.80661 7.4609 1.80661 7.59895 1.89268 7.68503C1.93491 7.72726 1.99176 7.74999 2.04698 7.74999C2.1022 7.74999 2.15904 7.72888 2.20127 7.68503L5.85721 4.02909C5.94329 3.94463 5.94329 3.80496 5.85884 3.7205Z" fill="#DA666A"/>
</g>
<defs>
<clipPath id="clip0">
<rect x="2.58398" width="7.74999" height="7.74999" fill="white"/>
</clipPath>
<clipPath id="clip1">
<rect width="7.74999" height="7.74999" fill="white"/>
</clipPath>
</defs>
</svg>
