<svg width="9" height="7" viewBox="0 0 9 7" fill="none" xmlns="http://www.w3.org/2000/svg">
<g clip-path="url(#clip0)">
<path d="M6.80819 3.75041L3.85985 0.802064C3.79043 0.732645 3.6791 0.732645 3.60968 0.802064C3.54026 0.871483 3.54026 0.982816 3.60968 1.05223L6.43228 3.87484L3.60968 6.69744C3.54026 6.76686 3.54026 6.87819 3.60968 6.94761C3.64374 6.98166 3.68958 7 3.73411 7C3.77864 7 3.82449 6.98297 3.85854 6.94761L6.80688 3.99927C6.8763 3.93116 6.8763 3.81852 6.80819 3.75041Z" fill="#DA666A"/>
</g>
<g clip-path="url(#clip1)">
<path d="M4.72519 3.75041L1.77684 0.802064C1.70742 0.732645 1.59609 0.732645 1.52667 0.802064C1.45725 0.871483 1.45725 0.982816 1.52667 1.05223L4.34928 3.87484L1.52667 6.69744C1.45725 6.76686 1.45725 6.87819 1.52667 6.94761C1.56073 6.98166 1.60657 7 1.6511 7C1.69564 7 1.74148 6.98297 1.77553 6.94761L4.72388 3.99927C4.79329 3.93116 4.79329 3.81852 4.72519 3.75041Z" fill="#DA666A"/>
</g>
<defs>
<clipPath id="clip0">
<rect x="2.08301" y="0.75" width="6.25" height="6.25" fill="white"/>
</clipPath>
<clipPath id="clip1">
<rect y="0.75" width="6.25" height="6.25" fill="white"/>
</clipPath>
</defs>
</svg>
