<svg width="32" height="32" viewBox="0 0 32 32" fill="none" xmlns="http://www.w3.org/2000/svg">
<circle cx="16.8" cy="17.5999" r="12.4001" fill="#FFABAE"/>
<path d="M8.63425 24.4328C6.67152 22.5064 5.59631 19.9547 5.59631 17.2398C5.59631 14.5249 6.67152 11.9733 8.63426 10.0469C10.5994 8.11818 13.2117 7.05464 15.9999 7.05464C18.7881 7.05464 21.4004 8.11819 23.3655 10.0469C25.3283 11.9733 26.4035 14.5249 26.4035 17.2398C26.4035 19.9547 25.3283 22.5064 23.3655 24.4328L8.63425 24.4328ZM28.1541 12.2144C29.4387 11.1013 30.2 9.47651 30.2 7.73371C30.2 4.46086 27.5389 1.79982 24.2661 1.79982C22.155 1.79982 20.2474 2.90971 19.1901 4.66104C18.1579 4.40939 17.0884 4.27968 15.9999 4.27968C14.9113 4.27968 13.8418 4.4094 12.8096 4.66105C11.7522 2.90979 9.8444 1.79982 7.73369 1.79982C4.46085 1.79982 1.7998 4.46086 1.7998 7.73371C1.7998 9.47583 2.56118 11.1011 3.84565 12.2144C3.17363 13.7858 2.82135 15.4874 2.82135 17.2398C2.82135 20.7071 4.199 23.9678 6.69049 26.4132C9.17926 28.8559 12.489 30.2 15.9999 30.2C19.5108 30.2 22.8205 28.8558 25.3093 26.4132L24.7665 25.8601L25.3093 26.4132C27.8008 23.9678 29.1784 20.7071 29.1784 17.2398C29.1784 15.4875 28.8262 13.7858 28.1541 12.2144ZM8.23722 6.76398C7.69419 7.1545 7.17787 7.5884 6.69299 8.06406C6.65923 7.95872 6.64131 7.84747 6.64131 7.73371C6.64131 7.13224 7.13222 6.64133 7.73369 6.64133C7.91402 6.64133 8.08567 6.6852 8.23722 6.76398ZM25.3071 8.06434C24.8217 7.58818 24.3049 7.15387 23.7612 6.76301C23.9124 6.68481 24.0842 6.64133 24.2661 6.64133C24.8676 6.64133 25.3585 7.13224 25.3585 7.73371C25.3585 7.84783 25.3407 7.95911 25.3071 8.06434ZM24.7665 8.61957L25.3049 8.07101C25.3049 8.07102 25.3049 8.07103 25.3049 8.07103L24.7665 8.61957Z" stroke="#FFABAE" stroke-width="2"/>
<g clip-path="url(#clip0)">
<path d="M30.0002 7.23248C30.0002 4.34704 27.6527 1.99957 24.7673 1.99957C22.6355 1.99957 20.7406 3.28155 19.9353 5.22721C18.6796 4.83439 17.3559 4.62973 16.0001 4.62973C14.6442 4.62973 13.3206 4.83439 12.0648 5.22721C11.2595 3.28166 9.36421 1.99957 7.23291 1.99957C4.34747 1.99957 2 4.34704 2 7.23248C2 9.03507 2.92406 10.6958 4.43492 11.6522C3.55113 13.389 3.08346 15.3164 3.08346 17.3147C3.08346 20.7045 4.42802 23.8909 6.8694 26.2871C9.3087 28.6813 12.5514 29.9998 16.0001 29.9998C19.4488 29.9998 22.6915 28.6812 25.1308 26.2871C27.5722 23.8909 28.9167 20.7045 28.9167 17.3147C28.9167 15.3164 28.449 13.389 27.5652 11.6522C29.0762 10.6958 30.0002 9.03589 30.0002 7.23248ZM24.7673 2.8215C27.1995 2.8215 29.1783 4.80025 29.1783 7.23248C29.1783 8.73567 28.4161 10.1204 27.167 10.9308C26.9347 10.5403 26.6808 10.1608 26.4049 9.79431C27.2703 9.24148 27.8084 8.2812 27.8084 7.23248C27.8084 5.5556 26.4442 4.19137 24.7673 4.19137C23.5199 4.19137 22.4286 4.93745 21.9633 6.05653C21.5567 5.84826 21.1396 5.66157 20.7131 5.49768C21.4022 3.8826 22.9868 2.8215 24.7673 2.8215ZM25.8841 9.14833C25.6458 8.87107 25.3951 8.60186 25.1308 8.34241C24.3861 7.61144 23.5661 6.98136 22.6886 6.45785C23.0071 5.59505 23.8264 5.01329 24.7673 5.01329C25.991 5.01329 26.9865 6.0088 26.9865 7.23248C26.9865 8.02849 26.5609 8.75386 25.8841 9.14833ZM2.82192 7.23248C2.82192 4.80025 4.80068 2.8215 7.23291 2.8215C9.01309 2.8215 10.598 3.88265 11.2871 5.49762C10.8604 5.66162 10.443 5.84842 10.0362 6.05686C9.56964 4.93943 8.47385 4.19137 7.23291 4.19137C5.55602 4.19137 4.1918 5.5556 4.1918 7.23248C4.1918 8.27868 4.73043 9.24104 5.59526 9.79436C5.31936 10.1609 5.0655 10.5404 4.83317 10.9308C3.58423 10.1204 2.82192 8.73501 2.82192 7.23248ZM6.11619 9.14817C5.43986 8.75348 5.01372 8.02657 5.01372 7.23248C5.01372 6.0088 6.00923 5.01329 7.23291 5.01329C8.16897 5.01329 8.99188 5.59669 9.31112 6.45812C8.4338 6.98158 7.61401 7.61155 6.8694 8.34241C6.60513 8.60181 6.35449 8.87096 6.11619 9.14817ZM24.5551 25.7006C22.2704 27.9429 19.2321 29.1778 16.0001 29.1778C12.7681 29.1778 9.7298 27.9429 7.44513 25.7006C5.16249 23.4602 3.90538 20.482 3.90538 17.3147C3.90538 14.1474 5.16249 11.1693 7.44513 8.92893C9.7298 6.68662 12.7681 5.45165 16.0001 5.45165C19.2321 5.45165 22.2704 6.68662 24.5551 8.92893C26.8377 11.1693 28.0948 14.1474 28.0948 17.3147C28.0948 20.482 26.8377 23.4602 24.5551 25.7006Z" fill="#222222"/>
<path d="M11.7591 14.2462L11.9069 14.0985C12.0674 13.938 12.0674 13.6777 11.9069 13.5173C11.7464 13.3568 11.4861 13.3568 11.3257 13.5173L11.1779 13.6651L11.0301 13.5173C10.8696 13.3568 10.6094 13.3568 10.449 13.5173C10.2885 13.6778 10.2885 13.938 10.449 14.0985L10.5968 14.2462L10.449 14.394C10.2885 14.5545 10.2885 14.8147 10.449 14.9752C10.5292 15.0554 10.6344 15.0956 10.7396 15.0956C10.8447 15.0956 10.9499 15.0555 11.0301 14.9752L11.1779 14.8274L11.3257 14.9752C11.4059 15.0554 11.5111 15.0956 11.6163 15.0956C11.7214 15.0956 11.8266 15.0555 11.9069 14.9752C12.0674 14.8147 12.0674 14.5545 11.9069 14.394L11.7591 14.2462Z" fill="#222222"/>
<path d="M21.5509 13.5173C21.3904 13.3568 21.1302 13.3568 20.9697 13.5173L20.822 13.6651L20.6742 13.5173C20.5137 13.3568 20.2535 13.3568 20.093 13.5173C19.9325 13.6778 19.9325 13.938 20.093 14.0985L20.2408 14.2462L20.093 14.394C19.9325 14.5545 19.9325 14.8147 20.093 14.9752C20.1732 15.0554 20.2785 15.0956 20.3836 15.0956C20.4888 15.0956 20.594 15.0555 20.6742 14.9752L20.822 14.8274L20.9697 14.9752C21.05 15.0554 21.1552 15.0956 21.2603 15.0956C21.3655 15.0956 21.4707 15.0555 21.5509 14.9752C21.7114 14.8147 21.7114 14.5545 21.5509 14.394L21.4031 14.2462L21.5509 14.0985C21.7114 13.938 21.7114 13.6777 21.5509 13.5173Z" fill="#222222"/>
<path d="M16.4641 19.5835C16.5002 19.7737 16.6672 19.9175 16.8679 19.9175C17.0948 19.9175 17.2788 19.7335 17.2788 19.5065C17.2788 19.0144 16.7411 18.6572 16.0003 18.6572C15.7734 18.6572 15.5894 18.8412 15.5894 19.0682C15.5894 19.2951 15.7734 19.4791 16.0003 19.4791C16.2451 19.4791 16.405 19.5446 16.4641 19.5835Z" fill="#222222"/>
<path d="M19.9455 22.1641C19.7185 22.1641 19.5345 22.3481 19.5345 22.575C19.5345 23.4362 18.834 24.1367 17.9729 24.1367C17.1118 24.1367 16.4112 23.4362 16.4112 22.575V22.0849C17.8943 21.9125 19.0414 20.8223 19.0414 19.5065C19.0414 18.0714 17.6771 16.9038 16.0002 16.9038C14.3233 16.9038 12.9591 18.0714 12.9591 19.5065C12.9591 20.8224 14.1061 21.9125 15.5893 22.0849V22.575C15.5893 23.4362 14.8887 24.1367 14.0276 24.1367C13.1665 24.1367 12.466 23.4362 12.466 22.575C12.466 22.3481 12.282 22.1641 12.055 22.1641C11.828 22.1641 11.644 22.3481 11.644 22.575C11.644 23.8894 12.7133 24.9586 14.0276 24.9586C14.847 24.9586 15.571 24.543 16.0002 23.9115C16.4294 24.543 17.1534 24.9586 17.9729 24.9586C19.2872 24.9586 20.3564 23.8894 20.3564 22.575C20.3564 22.3481 20.1724 22.1641 19.9455 22.1641ZM13.781 19.5065C13.781 18.5246 14.7766 17.7257 16.0002 17.7257C17.2239 17.7257 18.2194 18.5246 18.2194 19.5065C18.2194 20.4885 17.2239 21.2874 16.0002 21.2874C14.7766 21.2874 13.781 20.4885 13.781 19.5065Z" fill="#222222"/>
<path d="M23.4246 14.2462C23.4246 12.8111 22.257 11.6435 20.8219 11.6435C19.3867 11.6435 18.2191 12.8111 18.2191 14.2462C18.2191 14.5206 18.2639 14.7911 18.3489 15.048C17.6103 14.8302 16.8205 14.712 15.9999 14.712C15.1793 14.712 14.3895 14.8302 13.651 15.048C13.7359 14.7911 13.7807 14.5206 13.7807 14.2462C13.7807 12.8111 12.6131 11.6435 11.178 11.6435C9.74282 11.6435 8.5752 12.8111 8.5752 14.2462C8.5752 15.4789 9.43684 16.5134 10.5892 16.781C9.34106 17.953 8.5752 19.529 8.5752 21.26C8.5752 24.8706 11.9059 27.808 15.9999 27.808C20.0939 27.808 23.4246 24.8706 23.4246 21.26C23.4246 19.529 22.6587 17.953 21.4106 16.781C22.563 16.5134 23.4246 15.4789 23.4246 14.2462ZM11.178 16.0271C10.196 16.0271 9.39712 15.2282 9.39712 14.2462C9.39712 13.2643 10.196 12.4654 11.178 12.4654C12.1599 12.4654 12.9588 13.2643 12.9588 14.2462C12.9588 14.7377 12.7583 15.1938 12.393 15.5364C12.3224 15.5712 12.2508 15.6088 12.1786 15.6478C12.0009 15.7423 11.828 15.8433 11.6604 15.9502C11.4858 16.0016 11.3273 16.0271 11.178 16.0271ZM22.6027 21.26C22.6027 24.4174 19.6407 26.986 15.9999 26.986C12.3591 26.986 9.39712 24.4174 9.39712 21.26C9.39712 19.3996 10.4257 17.7438 12.0154 16.6972C12.0337 16.6889 12.0517 16.6796 12.0686 16.6687C12.3069 16.5149 12.5262 16.3885 12.7369 16.2835C13.6999 15.8067 14.8138 15.5339 15.9999 15.5339C17.186 15.5339 18.2999 15.8067 19.2629 16.2834C19.4736 16.3885 19.693 16.5148 19.9312 16.6686C19.9482 16.6796 19.9661 16.6889 19.9844 16.6971C21.5741 17.7438 22.6027 19.3996 22.6027 21.26ZM20.8219 16.0271C20.6725 16.0271 20.514 16.0016 20.3394 15.9502C20.1717 15.8433 19.9989 15.7423 19.8211 15.6478C19.749 15.6088 19.6774 15.5712 19.6067 15.5364C19.2415 15.1938 19.041 14.7377 19.041 14.2462C19.041 13.2643 19.8399 12.4654 20.8219 12.4654C21.8038 12.4654 22.6027 13.2643 22.6027 14.2462C22.6027 15.2282 21.8038 16.0271 20.8219 16.0271Z" fill="#222222"/>
</g>
<defs>
<clipPath id="clip0">
<rect x="2" y="1.99957" width="28.0002" height="28.0002" fill="white"/>
</clipPath>
</defs>
</svg>
