<svg width="29" height="29" viewBox="0 0 29 29" fill="none" xmlns="http://www.w3.org/2000/svg">
<g clip-path="url(#clip0)">
<path d="M20.7781 9.1541C21.5115 9.23554 22.2443 8.99642 22.7886 8.49811C23.3656 7.97555 23.6572 7.20842 23.5728 6.4346C23.5038 5.66226 23.278 4.91221 22.9096 4.22998L21.7665 2.1068C21.7041 1.99021 21.5902 1.91025 21.4593 1.89169C21.3291 1.87312 21.1979 1.91669 21.1046 2.00927L19.3104 3.80346C18.5415 4.57184 18.2049 5.67192 18.412 6.73883C19.2396 7.50497 20.0283 8.31023 20.7781 9.1541Z" fill="#FFABAE"/>
<path d="M15.4478 0.698763L14.802 -0.000793457L14.1641 0.689604C14.3812 0.786641 14.5945 0.892589 14.8069 0.99631C15.0179 0.891351 15.233 0.795057 15.4478 0.698763Z" fill="#FFABAE"/>
<path d="M17.8436 1.35426C17.8436 1.24286 17.7902 1.1379 17.6998 1.0728C17.6095 1.00745 17.4931 0.989627 17.3874 1.02478C16.8879 1.19137 16.397 1.38322 15.917 1.59982C16.5888 2.00059 17.2324 2.44666 17.8436 2.93507V1.35426Z" fill="#FFABAE"/>
<path d="M21.8223 10.3859C22.7686 11.5535 23.6377 12.7813 24.4242 14.0619C25.1782 12.9091 25.778 11.6627 26.2087 10.3539C26.2429 10.2485 26.2246 10.1331 26.1595 10.0433C26.0941 9.95366 25.9902 9.90044 25.8793 9.90019H23.4335C22.9345 10.1683 22.3864 10.3336 21.8223 10.3859Z" fill="#FFABAE"/>
<path d="M17.7931 4.21212C16.1697 2.7828 14.2723 1.69857 12.2164 1.02574C12.111 0.991584 11.9954 1.0099 11.9058 1.07501C11.8159 1.14036 11.7627 1.24433 11.7627 1.35522V1.91294C13.75 3.01797 15.6229 4.31708 17.3539 5.79119C17.397 5.2414 17.5463 4.70522 17.7931 4.21212Z" fill="#FFABAE"/>
<path d="M24.5831 6.34299C24.6249 6.8054 24.5757 7.27177 24.438 7.71537L25.5153 6.63806C25.6084 6.54449 25.652 6.41255 25.6329 6.28209C25.6138 6.15139 25.5341 6.03752 25.418 5.97489L24.4346 5.44466C24.5044 5.74022 24.5539 6.04049 24.5831 6.34299Z" fill="#FFABAE"/>
<path d="M25.6332 14.0483C25.4345 14.3824 25.2211 14.7075 24.9985 15.0308C25.177 15.3436 25.3453 15.6625 25.5137 15.9813H25.8803C25.9917 15.9816 26.0966 15.9281 26.1617 15.8377C26.2271 15.7471 26.2449 15.6308 26.2098 15.5251C26.0429 15.0233 25.8506 14.5305 25.6332 14.0483Z" fill="#FFABAE"/>
<path d="M23.933 4.024L24.4346 4.29382V3.30711H23.5645L23.8023 3.74922C23.8511 3.83908 23.889 3.93265 23.933 4.024Z" fill="#FFABAE"/>
<path d="M9.35413 23.8252L6.79503 22.972L6.75146 22.9767L8.05923 25.3734C8.29217 25.7999 8.78033 26.0195 9.25388 25.9105C9.72742 25.8019 10.0708 25.3914 10.0943 24.906C10.1176 24.4208 9.81555 23.9792 9.35462 23.8252H9.35413Z" fill="#FFABAE"/>
<path d="M12.0136 3.23161C14.1667 5.58649 16.2584 9.30013 14.7811 14.1025C13.7389 17.35 11.5187 20.0895 8.55762 21.7815L26.2629 20.0554C23.5436 13.0026 18.5227 7.07447 12.0136 3.23161Z" fill="#FFABAE"/>
<path d="M26.5356 12.2937C26.4383 12.5117 26.3435 12.7306 26.2363 12.9452C26.3413 13.1561 26.4393 13.3705 26.5356 13.5853L27.2352 12.9395L26.5356 12.2937Z" fill="#FFABAE"/>
<path d="M2.79402 19.744L4.85531 20.9812L4.22309 18.6617C4.10872 18.2426 3.7285 17.9518 3.29406 17.9505C2.85962 17.9495 2.47791 18.2384 2.36132 18.657C2.24448 19.0754 2.42172 19.5202 2.79402 19.744Z" fill="#FFABAE"/>
<path d="M13.8102 13.8044C14.8155 10.5366 14.1652 7.43541 11.869 4.58718C10.9481 3.46135 9.87478 2.4692 8.68014 1.63919L6.28467 21.734L6.35967 21.7592C8.14842 20.9755 12.3101 18.6796 13.8102 13.8044Z" fill="#FFABAE"/>
<path d="M5.16953 27.4317V25.8764C5.00764 26.2224 4.82124 26.5566 4.61182 26.8762L5.16953 27.4317Z" fill="#FFABAE"/>
<path d="M4.72821 22.5719H0.30957L2.51741 24.7798C3.36252 24.1609 4.10812 23.4163 4.72821 22.5719Z" fill="#FFABAE"/>
<path d="M3.25 25.5125L3.87307 26.1355C4.2377 25.5206 4.52435 24.8627 4.72684 24.177C4.27706 24.6669 3.78271 25.1139 3.25 25.5125Z" fill="#FFABAE"/>
</g>
<g clip-path="url(#clip1)">
<path d="M6.07098 26.2285C5.55981 26.8194 4.84945 27.2024 4.07476 27.3047L4.18821 28.212C5.16678 28.0907 6.06786 27.6175 6.72329 26.8806L7.92428 28.0816C8.05515 28.2125 8.25167 28.2515 8.42273 28.1807C8.59356 28.1099 8.705 27.9431 8.705 27.7582V23.6066L9.59357 25.2354C9.89148 25.7817 10.4386 26.1468 11.0572 26.212C11.1228 26.2189 11.1889 26.2225 11.2553 26.2225C11.808 26.2232 12.3334 25.9822 12.6936 25.563C13.1037 25.0845 13.2486 24.4331 13.0804 23.8256C12.9123 23.2182 12.4527 22.7343 11.8546 22.5349L11.4949 22.4145L27.5022 20.8542C27.6433 20.8403 27.7699 20.7617 27.8452 20.6414C27.9205 20.5212 27.9356 20.3729 27.8863 20.2398L27.7947 19.9938C27.4446 19.0485 27.0453 18.1259 26.6058 17.2255C26.9734 17.1889 27.3043 16.9875 27.5055 16.6775C27.7065 16.3675 27.7559 15.983 27.6393 15.6326C27.5777 15.4428 27.4997 15.257 27.4303 15.069L28.6793 13.9167C28.7733 13.83 28.8267 13.7081 28.8267 13.5803C28.8267 13.4526 28.7733 13.3309 28.6793 13.2442L27.4312 12.0926C27.5008 11.9046 27.5772 11.719 27.6393 11.5287C27.7608 11.1553 27.6962 10.7465 27.4658 10.4285C27.2353 10.1107 26.8666 9.9222 26.474 9.92153H25.4124L26.7914 8.54211C27.0801 8.25358 27.2152 7.84536 27.1558 7.44138C27.0966 7.03762 26.8499 6.68546 26.4906 6.49184L26.0647 6.26316H26.0843V4.43331C26.0843 4.18074 25.8796 3.97596 25.627 3.97596H23.8923L23.5689 3.37413C23.3753 3.01481 23.0231 2.76805 22.6194 2.70864C22.2154 2.64946 21.8072 2.78457 21.5187 3.07332L20.1388 4.45252V3.12892C20.1381 2.73656 19.9496 2.36786 19.6319 2.1374C19.3143 1.90694 18.9054 1.8424 18.532 1.96366C18.3422 2.02485 18.1566 2.10078 17.9686 2.17224L16.8161 0.923679C16.7274 0.833682 16.6064 0.78299 16.48 0.78299C16.3536 0.78299 16.2325 0.833682 16.1439 0.923679L14.9976 2.16398C14.8089 2.09408 14.62 2.0244 14.4284 1.96187C14.0545 1.84039 13.6452 1.90515 13.3274 2.13606C13.0094 2.36697 12.8212 2.73611 12.8212 3.12892V3.15282C12.1488 2.80802 11.4679 2.47863 10.7684 2.18273C10.7635 2.18273 10.7584 2.18273 10.7535 2.18273C10.6954 2.15951 10.6331 2.14901 10.5706 2.15169H10.5462C10.4893 2.15661 10.4337 2.17202 10.3825 2.19747C10.377 2.2006 10.3725 2.20462 10.3669 2.20797C10.3616 2.2111 10.3616 2.20797 10.3593 2.20797C10.3569 2.20797 10.3528 2.21512 10.3486 2.21802C10.2943 2.25174 10.2474 2.2964 10.2115 2.34933C10.2115 2.35335 10.2079 2.35737 10.205 2.36161C10.1686 2.41833 10.1452 2.48265 10.1365 2.54964L8.11053 19.5661L7.82 18.502C7.60852 17.7266 6.90529 17.1882 6.1018 17.186C5.29809 17.184 4.59219 17.7188 4.37646 18.4928C4.16096 19.2671 4.48901 20.0898 5.17794 20.5034L6.59667 21.3553H2.30208C2.11717 21.3553 1.95036 21.4667 1.87957 21.6378C1.80877 21.8086 1.84785 22.0052 1.97872 22.136L4.5971 24.7544C3.75363 25.2189 2.80767 25.4654 1.84473 25.4715V26.3862C3.05376 26.3817 4.23957 26.0539 5.27888 25.4364L6.07098 26.2285ZM11.5652 23.4007C11.9817 23.5389 12.2553 23.9377 12.2345 24.3761C12.2135 24.8145 11.9033 25.1854 11.4757 25.2834C11.0478 25.3815 10.607 25.1829 10.3973 24.7975L9.21728 22.636L9.25659 22.6318L11.5652 23.4007ZM27.0654 12.9977L27.6965 13.5803L27.0654 14.163C26.9785 13.9691 26.8901 13.7757 26.7956 13.5855C26.8921 13.3919 26.9776 13.1944 27.0654 12.9977ZM26.7268 16.1956C26.6685 16.2769 26.5743 16.3251 26.474 16.3244H26.1433C25.9914 16.0368 25.8396 15.7492 25.6786 15.4669C25.8793 15.1766 26.0721 14.882 26.2512 14.5806C26.447 15.0156 26.6203 15.4602 26.7704 15.9129C26.803 16.0085 26.7867 16.1141 26.7268 16.1956ZM26.474 10.8362C26.5741 10.8365 26.6681 10.8842 26.7268 10.9653C26.7856 11.0461 26.8021 11.1504 26.7713 11.2456C26.3827 12.4269 25.8412 13.5522 25.1605 14.5931C24.451 13.4376 23.667 12.33 22.8134 11.2766C23.3224 11.2286 23.8168 11.079 24.2668 10.8362H26.474ZM26.0569 7.29734C26.1616 7.35384 26.2335 7.45657 26.2507 7.57448C26.2679 7.69216 26.2286 7.81119 26.1446 7.89561L25.1728 8.86971C25.2969 8.46953 25.3414 8.0488 25.3036 7.63165C25.2762 7.35875 25.2304 7.08787 25.1665 6.82123L26.0569 7.29734ZM25.1696 4.89066V5.7808L24.7172 5.53739C24.6775 5.45498 24.6433 5.37057 24.5993 5.28951L24.3849 4.89066H25.1696ZM20.5463 5.33841L22.1649 3.71982C22.2491 3.6363 22.3675 3.59699 22.4849 3.61374C22.6031 3.63049 22.7058 3.70262 22.7621 3.80781L23.7933 5.72319C24.1259 6.33865 24.3295 7.01529 24.3921 7.71204C24.4682 8.41013 24.2051 9.10241 23.6846 9.5736C23.1935 10.0231 22.5325 10.2389 21.8708 10.1654C21.1948 9.40522 20.4829 8.679 19.7355 7.9865C19.5488 7.024 19.8525 6.03159 20.5463 5.33841ZM26.8193 19.9998L10.8468 21.557C13.5177 20.0304 15.5202 17.5589 16.4599 14.6295C17.7926 10.2971 15.9056 6.94607 13.9632 4.82255C19.8357 8.28909 24.3657 13.6371 26.8193 19.9998ZM18.8125 2.83258C18.9079 2.80087 19.0128 2.81695 19.0943 2.87591C19.1758 2.93486 19.2243 3.02933 19.2241 3.12982V4.55591C18.6727 4.11531 18.0921 3.7129 17.4862 3.35135C17.919 3.15595 18.3619 2.98288 18.8125 2.83258ZM16.48 1.90649L17.0626 2.53758C16.8688 2.62445 16.6747 2.71155 16.4844 2.80601C16.2928 2.71088 16.1003 2.61686 15.9047 2.52932L16.48 1.90649ZM13.7359 3.12892C13.7361 3.02866 13.7843 2.93419 13.8658 2.87568C13.9473 2.81695 14.0521 2.80087 14.1474 2.83258C16.0021 3.43978 17.7138 4.41813 19.1783 5.708C18.9561 6.15352 18.8221 6.63767 18.7841 7.1341C17.2212 5.80336 15.53 4.63072 13.7359 3.6334V3.12892ZM10.9574 3.38596C12.0351 4.13474 13.0034 5.02979 13.8341 6.04543C15.9031 8.61491 16.4923 11.4126 15.5854 14.3606C14.2321 18.7586 10.4777 20.8298 8.86601 21.5382L8.79834 21.5154L10.9574 3.38596ZM6.62079 25.4849L6.0587 24.9228C6.53928 24.5632 6.98524 24.1599 7.39101 23.718C7.20856 24.3366 6.94973 24.9302 6.62079 25.4849ZM7.79029 26.6542L7.28716 26.1512C7.47609 25.8634 7.64425 25.5628 7.79029 25.2511V26.6542ZM5.64713 19.7191C5.31126 19.517 5.15159 19.1157 5.25677 18.7383C5.36196 18.3609 5.70631 18.1 6.09823 18.1009C6.49015 18.102 6.83316 18.3644 6.93633 18.7425L7.50668 20.835L5.64713 19.7191ZM3.40615 22.27H7.39235C6.83294 23.0317 6.16031 23.7035 5.39791 24.2618L3.40615 22.27Z" fill="#222222"/>
</g>
<defs>
<clipPath id="clip0">
<rect y="-0.000793457" width="27.4325" height="27.4325" fill="white"/>
</clipPath>
<clipPath id="clip1">
<rect x="1.56738" y="0.78299" width="27.4325" height="27.4325" fill="white"/>
</clipPath>
</defs>
</svg>
