<svg width="38" height="38" viewBox="0 0 38 38" fill="none" xmlns="http://www.w3.org/2000/svg">
<g clip-path="url(#clip0)">
<path d="M19.0655 6.59236C19.8801 6.30561 20.1769 5.04024 19.7284 3.76605C19.28 2.49186 18.256 1.69138 17.4414 1.97813C17.2448 2.04729 17.0105 2.19753 16.7745 2.40334C16.9084 2.08595 16.9829 1.788 16.9829 1.56296C16.9829 0.699316 15.8879 -0.000793457 14.5371 -0.000793457C13.1863 -0.000793457 12.0913 0.699316 12.0913 1.56296C12.0913 1.76039 12.1486 2.01383 12.253 2.28728C12.0657 2.14109 11.8841 2.03363 11.7266 1.9782C10.912 1.69145 9.88802 2.49194 9.43954 3.76612C8.99106 5.04031 9.28786 6.30568 10.1025 6.59243C10.3038 6.66333 10.5893 6.69274 10.9116 6.67778C10.6595 6.82354 10.4561 6.98317 10.332 7.13565C9.78692 7.80548 10.1944 9.03971 11.2421 9.8923C12.2898 10.7449 13.581 10.8931 14.1261 10.2232C14.3187 9.98653 14.4895 9.55988 14.584 9.06941C14.6784 9.5598 14.8493 9.98653 15.0419 10.2232C15.587 10.893 16.8782 10.7449 17.9259 9.8923C18.9736 9.03971 19.3811 7.80548 18.836 7.13565C18.7119 6.98317 18.5085 6.82347 18.2564 6.67778C18.5787 6.69267 18.8641 6.66325 19.0655 6.59236Z" fill="#FFABAE"/>
<path d="M17.4418 1.97813C17.2453 2.04729 17.011 2.19753 16.775 2.40334C16.9089 2.08595 16.9834 1.788 16.9834 1.56296C16.9834 0.709359 15.9135 0.016043 14.5845 0V9.06941C14.6789 9.5598 14.8498 9.98653 15.0423 10.2232C15.5874 10.893 16.8787 10.7449 17.9264 9.8923C18.9741 9.03971 19.3815 7.80548 18.8364 7.13565C18.7123 6.98317 18.509 6.82346 18.2569 6.67778C18.5792 6.69274 18.8645 6.66332 19.0659 6.59243C19.8806 6.30568 20.1774 5.04031 19.7289 3.76612C19.2804 2.49194 18.2565 1.69145 17.4418 1.97813Z" fill="#FFABAE"/>
<path d="M17.4418 1.97813C17.2453 2.04729 17.011 2.19753 16.775 2.40334C16.9089 2.08595 16.9834 1.788 16.9834 1.56296C16.9834 0.709359 15.9135 0.016043 14.5845 0V9.06941C14.6789 9.5598 14.8498 9.98653 15.0423 10.2232C15.5874 10.893 16.8787 10.7449 17.9264 9.8923C18.9741 9.03971 19.3815 7.80548 18.8364 7.13565C18.7123 6.98317 18.509 6.82346 18.2569 6.67778C18.5792 6.69274 18.8645 6.66332 19.0659 6.59243C19.8806 6.30568 20.1774 5.04031 19.7289 3.76612C19.2804 2.49194 18.2565 1.69145 17.4418 1.97813Z" fill="#FFABAE"/>
<path d="M26.8971 6.59236C27.7117 6.30561 28.0085 5.04024 27.56 3.76605C27.1116 2.49186 26.0876 1.69138 25.273 1.97813C25.0764 2.04729 24.8421 2.19753 24.6061 2.40334C24.74 2.08595 24.8145 1.788 24.8145 1.56296C24.8145 0.699316 23.7195 -0.000793457 22.3686 -0.000793457C21.0178 -0.000793457 19.9228 0.699316 19.9228 1.56296C19.9228 1.76039 19.9802 2.01383 20.0845 2.28728C19.8972 2.14109 19.7156 2.03363 19.5581 1.9782C18.7435 1.69145 17.7196 2.49194 17.2711 3.76612C16.8226 5.04031 17.1194 6.30568 17.9341 6.59243C18.1354 6.66333 18.4208 6.69274 18.7431 6.67778C18.491 6.82354 18.2876 6.98317 18.1636 7.13565C17.6185 7.80548 18.0259 9.03971 19.0736 9.8923C20.1213 10.7449 21.4126 10.8931 21.9577 10.2232C22.1502 9.98653 22.3211 9.55988 22.4155 9.06941C22.51 9.5598 22.6808 9.98653 22.8734 10.2232C23.4185 10.893 24.7097 10.7449 25.7575 9.8923C26.8052 9.03971 27.2126 7.80548 26.6675 7.13565C26.5434 6.98317 26.3401 6.82347 26.0879 6.67778C26.4103 6.69267 26.6957 6.66325 26.8971 6.59236Z" fill="#FFABAE"/>
<path d="M14.5371 7.07683C15.4167 7.07683 16.1298 6.36373 16.1298 5.48409C16.1298 4.60445 15.4167 3.89136 14.5371 3.89136C13.6574 3.89136 12.9443 4.60445 12.9443 5.48409C12.9443 6.36373 13.6574 7.07683 14.5371 7.07683Z" fill="#FFABAE"/>
<path d="M14.5845 7.07458C15.4423 7.04958 16.1304 6.34795 16.1304 5.48416C16.1304 4.62037 15.4423 3.91874 14.5845 3.89374V7.07458Z" fill="#FFABAE"/>
<path d="M25.2729 1.97813C25.0763 2.04729 24.8421 2.19753 24.606 2.40334C24.7399 2.08595 24.8145 1.788 24.8145 1.56296C24.8145 0.709359 23.7446 0.016043 22.4155 0V9.06941C22.51 9.5598 22.6808 9.98653 22.8734 10.2232C23.4185 10.893 24.7097 10.7449 25.7574 9.8923C26.8052 9.03971 27.2126 7.80548 26.6675 7.13565C26.5434 6.98317 26.3401 6.82346 26.0879 6.67778C26.4102 6.69274 26.6956 6.66332 26.897 6.59243C27.7117 6.30568 28.0084 5.04031 27.56 3.76612C27.1115 2.49194 26.0875 1.69145 25.2729 1.97813Z" fill="#FFABAE"/>
<path d="M22.3691 7.07683C23.2487 7.07683 23.9618 6.36373 23.9618 5.48409C23.9618 4.60445 23.2487 3.89136 22.3691 3.89136C21.4895 3.89136 20.7764 4.60445 20.7764 5.48409C20.7764 6.36373 21.4895 7.07683 22.3691 7.07683Z" fill="#FFABAE"/>
<path d="M22.4155 7.07458C23.2733 7.04958 23.9614 6.34795 23.9614 5.48416C23.9614 4.62037 23.2733 3.91874 22.4155 3.89374V7.07458Z" fill="#FFABAE"/>
<path d="M15.6084 12.1114C16.4231 11.8247 16.7199 10.5593 16.2714 9.28511C15.8229 8.01092 14.7989 7.21044 13.9843 7.49719C13.7878 7.56634 13.5535 7.71659 13.3175 7.9224C13.4514 7.60501 13.5259 7.30706 13.5259 7.08202C13.5259 6.21837 12.4308 5.51826 11.0801 5.51826C9.72927 5.51826 8.63423 6.21837 8.63423 7.08202C8.63423 7.27945 8.69161 7.53289 8.79596 7.80634C8.60865 7.66015 8.42704 7.55269 8.26957 7.49726C7.45492 7.21051 6.43099 8.011 5.98251 9.28518C5.53403 10.5594 5.83083 11.8247 6.64548 12.1115C6.84681 12.1824 7.13226 12.2118 7.45456 12.1968C7.20243 12.3426 6.99907 12.5022 6.87499 12.6547C6.32989 13.3245 6.73733 14.5588 7.78503 15.4114C8.83274 16.2639 10.124 16.4122 10.6691 15.7423C10.8617 15.5056 11.0325 15.0789 11.127 14.5885C11.2214 15.0789 11.3922 15.5056 11.5848 15.7423C12.1299 16.4121 13.4212 16.2639 14.4689 15.4114C15.5166 14.5588 15.924 13.3245 15.3789 12.6547C15.2548 12.5022 15.0515 12.3425 14.7994 12.1968C15.1217 12.2117 15.407 12.1823 15.6084 12.1114ZM15.6084 12.1114C16.4231 11.8247 16.7199 10.5593 16.2714 9.28511C15.8229 8.01092 14.7989 7.21044 13.9843 7.49719C13.7878 7.56634 13.5535 7.71659 13.3175 7.9224C13.4514 7.60501 13.5259 7.30706 13.5259 7.08202C13.5259 6.21837 12.4308 5.51826 11.0801 5.51826C9.72927 5.51826 8.63423 6.21837 8.63423 7.08202C8.63423 7.27945 8.69161 7.53289 8.79596 7.80634C8.60865 7.66015 8.42704 7.55269 8.26957 7.49726C7.45492 7.21051 6.43099 8.011 5.98251 9.28518C5.53403 10.5594 5.83083 11.8247 6.64548 12.1115C6.84681 12.1824 7.13226 12.2118 7.45456 12.1968C7.20243 12.3426 6.99907 12.5022 6.87499 12.6547C6.32989 13.3245 6.73733 14.5588 7.78503 15.4114C8.83274 16.2639 10.124 16.4122 10.6691 15.7423C10.8617 15.5056 11.0325 15.0789 11.127 14.5885C11.2214 15.0789 11.3922 15.5056 11.5848 15.7423C12.1299 16.4121 13.4212 16.2639 14.4689 15.4114C15.5166 14.5588 15.924 13.3245 15.3789 12.6547C15.2548 12.5022 15.0515 12.3425 14.7994 12.1968C15.1217 12.2117 15.407 12.1823 15.6084 12.1114ZM15.6084 12.1114C16.4231 11.8247 16.7199 10.5593 16.2714 9.28511C15.8229 8.01092 14.7989 7.21044 13.9843 7.49719C13.7878 7.56634 13.5535 7.71659 13.3175 7.9224C13.4514 7.60501 13.5259 7.30706 13.5259 7.08202C13.5259 6.21837 12.4308 5.51826 11.0801 5.51826C9.72927 5.51826 8.63423 6.21837 8.63423 7.08202C8.63423 7.27945 8.69161 7.53289 8.79596 7.80634C8.60865 7.66015 8.42704 7.55269 8.26957 7.49726C7.45492 7.21051 6.43099 8.011 5.98251 9.28518C5.53403 10.5594 5.83083 11.8247 6.64548 12.1115C6.84681 12.1824 7.13226 12.2118 7.45456 12.1968C7.20243 12.3426 6.99907 12.5022 6.87499 12.6547C6.32989 13.3245 6.73733 14.5588 7.78503 15.4114C8.83274 16.2639 10.124 16.4122 10.6691 15.7423C10.8617 15.5056 11.0325 15.0789 11.127 14.5885C11.2214 15.0789 11.3922 15.5056 11.5848 15.7423C12.1299 16.4121 13.4212 16.2639 14.4689 15.4114C15.5166 14.5588 15.924 13.3245 15.3789 12.6547C15.2548 12.5022 15.0515 12.3425 14.7994 12.1968C15.1217 12.2117 15.407 12.1823 15.6084 12.1114Z" fill="#FFABAE"/>
<path d="M30.354 12.1114C31.1687 11.8247 31.4655 10.5593 31.017 9.28511C30.5685 8.01092 29.5445 7.21044 28.7299 7.49719C28.5334 7.56634 28.2991 7.71659 28.0631 7.9224C28.197 7.60501 28.2715 7.30706 28.2715 7.08202C28.2715 6.21837 27.1765 5.51826 25.8257 5.51826C24.4749 5.51826 23.3798 6.21837 23.3798 7.08202C23.3798 7.27945 23.4372 7.53289 23.5416 7.80634C23.3543 7.66015 23.1726 7.55269 23.0152 7.49726C22.2005 7.21051 21.1766 8.011 20.7281 9.28518C20.2796 10.5594 20.5764 11.8247 21.3911 12.1115C21.5924 12.1824 21.8779 12.2118 22.2002 12.1968C21.948 12.3426 21.7447 12.5022 21.6206 12.6547C21.0755 13.3245 21.4829 14.5588 22.5306 15.4114C23.5783 16.2639 24.8696 16.4122 25.4147 15.7423C25.6073 15.5056 25.7781 15.0789 25.8726 14.5885C25.967 15.0789 26.1378 15.5056 26.3304 15.7423C26.8755 16.4121 28.1668 16.2639 29.2145 15.4114C30.2622 14.5588 30.6696 13.3245 30.1245 12.6547C30.0004 12.5022 29.7971 12.3425 29.545 12.1968C29.8673 12.2117 30.1527 12.1823 30.354 12.1114Z" fill="#FFABAE"/>
<path d="M22.981 12.1114C23.7956 11.8247 24.0924 10.5593 23.644 9.28511C23.1955 8.01092 22.1715 7.21044 21.3569 7.49719C21.1603 7.56634 20.9261 7.71659 20.69 7.9224C20.8239 7.60501 20.8984 7.30706 20.8984 7.08202C20.8984 6.21837 19.8034 5.51826 18.4526 5.51826C17.1018 5.51826 16.0068 6.21837 16.0068 7.08202C16.0068 7.27945 16.0642 7.53289 16.1685 7.80634C15.9812 7.66015 15.7996 7.55269 15.6421 7.49726C14.8275 7.21051 13.8036 8.011 13.3551 9.28518C12.9066 10.5594 13.2034 11.8247 14.018 12.1115C14.2194 12.1824 14.5048 12.2118 14.8271 12.1968C14.575 12.3426 14.3716 12.5022 14.2476 12.6547C13.7025 13.3245 14.1099 14.5588 15.1576 15.4114C16.2053 16.2639 17.4965 16.4122 18.0416 15.7423C18.2342 15.5056 18.4051 15.0789 18.4995 14.5885C18.594 15.0789 18.7648 15.5056 18.9574 15.7423C19.5025 16.4121 20.7937 16.2639 21.8414 15.4114C22.8891 14.5588 23.2966 13.3245 22.7515 12.6547C22.6274 12.5022 22.424 12.3425 22.1719 12.1968C22.4942 12.2117 22.7796 12.1823 22.981 12.1114ZM22.981 12.1114C23.7956 11.8247 24.0924 10.5593 23.644 9.28511C23.1955 8.01092 22.1715 7.21044 21.3569 7.49719C21.1603 7.56634 20.9261 7.71659 20.69 7.9224C20.8239 7.60501 20.8984 7.30706 20.8984 7.08202C20.8984 6.21837 19.8034 5.51826 18.4526 5.51826C17.1018 5.51826 16.0068 6.21837 16.0068 7.08202C16.0068 7.27945 16.0642 7.53289 16.1685 7.80634C15.9812 7.66015 15.7996 7.55269 15.6421 7.49726C14.8275 7.21051 13.8036 8.011 13.3551 9.28518C12.9066 10.5594 13.2034 11.8247 14.018 12.1115C14.2194 12.1824 14.5048 12.2118 14.8271 12.1968C14.575 12.3426 14.3716 12.5022 14.2476 12.6547C13.7025 13.3245 14.1099 14.5588 15.1576 15.4114C16.2053 16.2639 17.4965 16.4122 18.0416 15.7423C18.2342 15.5056 18.4051 15.0789 18.4995 14.5885C18.594 15.0789 18.7648 15.5056 18.9574 15.7423C19.5025 16.4121 20.7937 16.2639 21.8414 15.4114C22.8891 14.5588 23.2966 13.3245 22.7515 12.6547C22.6274 12.5022 22.424 12.3425 22.1719 12.1968C22.4942 12.2117 22.7796 12.1823 22.981 12.1114Z" fill="#FFABAE"/>
<path d="M13.9844 7.49729C13.7878 7.56645 13.5535 7.71669 13.3175 7.9225C13.4514 7.60511 13.5259 7.30716 13.5259 7.08213C13.5259 6.21848 12.4309 5.51837 11.0801 5.51837C11.0801 5.51837 11.113 14.6611 11.127 14.5886C11.2214 15.079 11.3923 15.5057 11.5849 15.7424C12.13 16.4122 13.4212 16.2641 14.4689 15.4115C15.5166 14.5589 15.924 13.3247 15.3789 12.6548C15.2549 12.5023 15.0515 12.3426 14.7994 12.1969C15.1217 12.2119 15.4071 12.1825 15.6085 12.1116C16.4231 11.8248 16.7199 10.5595 16.2714 9.28529C15.8229 8.0111 14.7989 7.21054 13.9844 7.49729Z" fill="#FFABAE"/>
<path d="M11.0805 12.5958C11.9602 12.5958 12.6733 11.8827 12.6733 11.0031C12.6733 10.1235 11.9602 9.41037 11.0805 9.41037C10.2009 9.41037 9.48779 10.1235 9.48779 11.0031C9.48779 11.8827 10.2009 12.5958 11.0805 12.5958Z" fill="#FFABAE"/>
<path d="M11.1106 12.5945C11.9762 12.5783 12.6732 11.8727 12.6732 11.0032C12.6732 10.1287 11.9682 9.41953 11.0957 9.41122C11.1003 10.5094 11.1055 11.6583 11.1106 12.5945Z" fill="#FFABAE"/>
<path d="M21.3574 7.49728C21.1608 7.56644 20.9265 7.71667 20.6905 7.92249C20.8244 7.6051 20.8989 7.30715 20.8989 7.08211C20.8989 6.22851 19.829 5.53519 18.5 5.51915V14.5886C18.5945 15.079 18.7653 15.5057 18.9579 15.7424C19.503 16.4122 20.7942 16.264 21.8419 15.4114C22.8896 14.5589 23.2971 13.3246 22.752 12.6548C22.6279 12.5023 22.4245 12.3426 22.1724 12.1969C22.4947 12.2119 22.7801 12.1825 22.9815 12.1116C23.7961 11.8248 24.0929 10.5595 23.6444 9.28527C23.196 8.01101 22.172 7.21053 21.3574 7.49728Z" fill="#FFABAE"/>
<path d="M18.4531 12.5958C19.3327 12.5958 20.0458 11.8827 20.0458 11.0031C20.0458 10.1235 19.3327 9.41037 18.4531 9.41037C17.5734 9.41037 16.8604 10.1235 16.8604 11.0031C16.8604 11.8827 17.5734 12.5958 18.4531 12.5958Z" fill="#FFABAE"/>
<path d="M18.5 12.5937C19.3578 12.5687 20.0459 11.8671 20.0459 11.0032C20.0459 10.1394 19.3578 9.43783 18.5 9.41275V12.5937Z" fill="#FFABAE"/>
<path d="M28.7304 7.49728C28.5339 7.56644 28.2996 7.71667 28.0636 7.92249C28.1975 7.6051 28.272 7.30715 28.272 7.08211C28.272 6.22851 27.2021 5.53519 25.873 5.51915V14.5886C25.9675 15.079 26.1383 15.5057 26.3309 15.7424C26.876 16.4122 28.1673 16.264 29.215 15.4114C30.2627 14.5589 30.6701 13.3246 30.125 12.6548C30.0009 12.5023 29.7976 12.3426 29.5454 12.1969C29.8677 12.2119 30.1531 12.1825 30.3545 12.1116C31.1692 11.8248 31.466 10.5595 31.0175 9.28527C30.5691 8.01101 29.5451 7.21053 28.7304 7.49728Z" fill="#FFABAE"/>
<path d="M25.8256 12.5958C26.7053 12.5958 27.4184 11.8827 27.4184 11.0031C27.4184 10.1235 26.7053 9.41037 25.8256 9.41037C24.946 9.41037 24.2329 10.1235 24.2329 11.0031C24.2329 11.8827 24.946 12.5958 25.8256 12.5958Z" fill="#FFABAE"/>
<path d="M25.873 12.5937C26.7308 12.5686 27.419 11.8671 27.419 11.0032C27.419 10.1394 26.7308 9.43782 25.873 9.41281V12.5937Z" fill="#FFABAE"/>
<path d="M19.6878 29.05H17.3122L6.75864 15.36C6.57718 15.1246 6.7116 14.7807 7.00478 14.7316C8.83115 14.4256 14.1826 13.5946 18.4297 13.5946C22.8278 13.5946 28.1734 14.4249 29.9958 14.7312C30.2888 14.7805 30.4231 15.1243 30.2417 15.3596L19.6878 29.05Z" fill="#FFABAE"/>
<path d="M29.9954 14.7312C29.2465 14.6053 27.9025 14.391 26.2741 14.1822L18.4277 29.05H19.6874L30.2413 15.3596C30.4227 15.1243 30.2884 14.7804 29.9954 14.7312Z" fill="#FFABAE"/>
<path d="M19.6982 29.048H17.3114L15.8055 34.4487C15.4482 35.7303 16.4117 36.9992 17.7421 36.9992H19.2606C20.5899 36.9992 21.5533 35.732 21.1978 34.4511L19.6982 29.048Z" fill="#FFABAE"/>
<path d="M19.6983 29.048H18.5015V36.9992H19.2608C20.5901 36.9992 21.5535 35.732 21.198 34.4511L19.6983 29.048Z" fill="#FFABAE"/>
<path d="M23.8877 26.8156C22.472 25.4 19.87 28.0791 19.87 28.0791L19.1821 28.7766V29.7423L19.87 30.4398C19.87 30.4398 22.472 33.1189 23.8877 31.7033C23.9346 31.6564 23.9908 31.4776 24.0487 31.2364C24.3609 29.9356 24.3617 28.5763 24.0474 27.2759C23.99 27.0381 23.9342 26.8622 23.8877 26.8156Z" fill="#FFABAE"/>
<path d="M13.1116 26.8156C14.5273 25.4 17.1293 28.0791 17.1293 28.0791L17.8172 28.7766V29.7423L17.1293 30.4398C17.1293 30.4398 14.5273 33.1189 13.1116 31.7033C13.0647 31.6564 13.0085 31.4776 12.9506 31.2364C12.6384 29.9356 12.6376 28.5763 12.9519 27.2759C13.0093 27.0381 13.0651 26.8622 13.1116 26.8156Z" fill="#FFABAE"/>
<path d="M19.0965 30.694H17.9023C17.5806 30.694 17.3198 30.4332 17.3198 30.1115V28.4074C17.3198 28.0858 17.5806 27.825 17.9023 27.825H19.0965C19.4181 27.825 19.6789 28.0858 19.6789 28.4074V30.1115C19.6789 30.4332 19.4181 30.694 19.0965 30.694Z" fill="#FFABAE"/>
<path d="M27.1826 17.8565C26.2358 17.6414 25.4277 16.6677 24.4631 16.5235C23.5021 16.3798 22.4438 17.0742 21.472 17.001C20.5022 16.928 19.5603 16.0827 18.5867 16.0798C17.6132 16.077 16.6663 16.9167 15.6959 16.984C14.7238 17.0514 13.6698 16.3506 12.7078 16.4885C11.7424 16.6268 10.9284 17.5955 9.98011 17.8048C9.55439 17.8988 9.08994 17.844 8.62354 17.7797L9.39894 18.7855C9.95806 18.8473 10.5373 18.9823 11.0519 18.8687C11.8809 18.6857 12.5925 17.8389 13.4364 17.718C14.2774 17.5975 15.1988 18.2101 16.0486 18.1511C16.8969 18.0923 17.7247 17.3582 18.5757 17.3608C19.4268 17.3633 20.2502 18.1022 21.098 18.166C21.9476 18.23 22.8727 17.6229 23.7127 17.7485C24.556 17.8746 25.2625 18.7257 26.0901 18.9138C26.5416 19.0164 27.0442 18.9275 27.5389 18.8648L28.3067 17.8689C27.919 17.9144 27.537 17.9371 27.1826 17.8565Z" fill="#FFABAE"/>
</g>
<g clip-path="url(#clip1)">
<path d="M32.1617 10.3753C31.9173 9.68079 31.5074 9.08316 31.0076 8.69249C30.5339 8.32213 30.0044 8.16466 29.5174 8.24155C29.4707 7.83188 29.2607 7.45985 28.9328 7.15641C29.1075 6.52495 29.0661 5.75742 28.8058 5.01771C28.5614 4.32324 28.1515 3.7256 27.6517 3.33486C27.178 2.9645 26.6483 2.80725 26.1614 2.88392C26.0396 1.81403 24.8071 0.999451 23.2556 0.999451C21.7098 0.999451 20.4805 1.8081 20.3512 2.87229C20.0738 2.84468 19.7839 2.89151 19.4996 3.00981C19.1855 2.87951 18.864 2.83579 18.5591 2.88392C18.4373 1.81403 17.2048 0.999451 15.6533 0.999451C14.1079 0.999451 12.8789 1.80774 12.749 2.87156C11.7502 2.77061 10.6788 3.64098 10.1942 5.01778C9.94421 5.72815 9.8968 6.47104 10.0505 7.09021C9.68333 7.40197 9.44623 7.79415 9.39311 8.22919C8.39426 8.12795 7.32292 8.99861 6.83838 10.3753C6.32688 11.8287 6.67752 13.2519 7.63113 13.7321C7.35204 14.2576 7.38211 14.9401 7.70564 15.6166C7.6393 15.6941 7.58387 15.7823 7.54506 15.8812C7.42532 16.1861 7.4733 16.5232 7.67341 16.7828L14.6605 25.8463C14.7671 25.9847 14.9276 26.0572 15.0897 26.0572C15.2051 26.0572 15.3214 26.0204 15.4198 25.9445C15.6567 25.762 15.7007 25.422 15.5181 25.1851L11.0572 19.3986C11.154 19.3888 11.2505 19.3754 11.3465 19.3542C11.8806 19.2363 12.3387 18.9403 12.7817 18.654C13.1931 18.3881 13.5816 18.1371 13.9544 18.0837C14.3241 18.0306 14.7662 18.1617 15.2341 18.3006C15.7418 18.4512 16.2668 18.6067 16.8157 18.5688C17.3638 18.5308 17.8618 18.3041 18.3434 18.0849C18.7867 17.8831 19.2055 17.6924 19.5795 17.6924C19.5806 17.6924 19.5816 17.6924 19.5827 17.6924C19.9577 17.6935 20.3765 17.8872 20.82 18.0922C21.3002 18.3143 21.7968 18.5439 22.3445 18.5851C22.894 18.6264 23.4194 18.4739 23.9278 18.3264C24.3965 18.1904 24.8391 18.0622 25.2087 18.1172C25.5812 18.1729 25.9682 18.4264 26.3781 18.6948C26.8192 18.9837 27.2753 19.2824 27.8086 19.4036C27.8462 19.4122 27.884 19.4187 27.9218 19.4253L23.4888 25.1758C23.3062 25.4127 23.3502 25.7526 23.587 25.9352C23.8239 26.1178 24.164 26.0739 24.3464 25.837L31.3265 16.7824C31.5266 16.5229 31.5746 16.186 31.4551 15.881C31.4163 15.782 31.3608 15.6939 31.2945 15.6163C31.6179 14.9399 31.648 14.2575 31.3689 13.7321C32.3226 13.2519 32.6733 11.8286 32.1617 10.3753ZM21.3601 4.19749C21.5556 4.05303 21.6309 3.79599 21.5442 3.56893C21.4347 3.28174 21.4228 3.11654 21.4228 3.05888C21.4228 2.49997 22.3904 2.08235 23.2556 2.08235C24.1208 2.08235 25.0884 2.49997 25.0884 3.05888C25.0884 3.11206 25.0769 3.31289 24.9286 3.66432C24.8308 3.89651 24.906 4.16562 25.1101 4.31334C25.3144 4.46112 25.5935 4.4484 25.7833 4.28291C25.9572 4.13137 26.1334 4.01546 26.2547 3.97275C26.4539 3.90265 26.72 3.9812 26.9847 4.18817C27.3187 4.44927 27.6102 4.88272 27.7843 5.37737C27.9298 5.79073 27.9835 6.21435 27.9448 6.57749C27.6491 6.47242 27.3228 6.40225 26.9761 6.37298C26.9662 6.37211 26.9564 6.37132 26.9465 6.37052C26.9026 6.36712 26.8583 6.36445 26.8137 6.36235C26.8011 6.36178 26.7886 6.36098 26.776 6.36048C26.7215 6.35845 26.6668 6.35708 26.6114 6.35708C26.5548 6.35708 26.4987 6.35852 26.4429 6.36062C26.0398 6.37616 25.6611 6.44705 25.321 6.56296C25.174 5.55464 24.304 4.77764 23.2555 4.77764C22.4551 4.77764 21.759 5.23053 21.4087 5.89328C21.4028 5.84407 21.3959 5.79471 21.388 5.74521C21.3857 5.73068 21.383 5.71616 21.3805 5.70156C21.3696 5.63775 21.3573 5.57394 21.3432 5.50998C21.3414 5.5016 21.3399 5.49329 21.338 5.48498C21.3222 5.41546 21.3041 5.34601 21.2846 5.27656C21.28 5.26045 21.2753 5.24441 21.2705 5.22836C21.25 5.15834 21.2281 5.08846 21.2036 5.01886C21.2034 5.0185 21.2033 5.01821 21.2033 5.01785C21.2031 5.01742 21.2029 5.01699 21.2028 5.01648C21.1822 4.95809 21.1601 4.90071 21.1372 4.84377C21.1316 4.82967 21.1259 4.81573 21.1201 4.80178C21.0966 4.74512 21.0724 4.68897 21.0467 4.63391C21.0452 4.63044 21.0434 4.62711 21.0418 4.62364C21.017 4.57075 20.9909 4.51886 20.9642 4.46762C20.9582 4.45613 20.9523 4.44464 20.9461 4.43322C20.9174 4.37939 20.8878 4.32627 20.857 4.27438C20.8566 4.27359 20.8562 4.27279 20.8557 4.272C21.0225 4.33147 21.2121 4.3069 21.3601 4.19749ZM24.2605 6.86525C24.2605 7.01072 24.2287 7.14868 24.1729 7.27362C24.0712 7.38303 23.984 7.50003 23.9131 7.62332C23.7367 7.77652 23.5071 7.87003 23.2556 7.87003C22.7016 7.87003 22.2509 7.41931 22.2509 6.86525C22.2509 6.31126 22.7016 5.86054 23.2556 5.86054C23.8097 5.86054 24.2605 6.31126 24.2605 6.86525ZM18.4497 12.2229C18.4497 11.6689 18.9005 11.2182 19.4544 11.2182C20.0084 11.2182 20.4591 11.6689 20.4591 12.2229C20.4591 12.7769 20.0084 13.2276 19.4544 13.2276C18.9005 13.2276 18.4497 12.7769 18.4497 12.2229ZM18.7946 14.203C18.2807 14.2123 17.7553 14.2323 17.2258 14.2609C17.2227 14.24 17.2178 14.2197 17.214 14.1989C17.21 14.1774 17.2065 14.1558 17.2018 14.1346C17.1956 14.1069 17.1878 14.08 17.1802 14.0529C17.1748 14.0336 17.1702 14.0138 17.1641 13.9948C17.1549 13.9656 17.1438 13.9373 17.133 13.9089C17.1269 13.8927 17.1216 13.8762 17.115 13.8603C17.0982 13.8202 17.0796 13.7811 17.0596 13.7427C17.0578 13.7392 17.0564 13.7355 17.0546 13.7321C17.2826 13.6174 17.4757 13.4482 17.6312 13.2381C17.8833 13.6889 18.2976 14.0369 18.7946 14.203ZM21.3177 13.1627C21.4301 13.3302 21.5634 13.4732 21.7148 13.5872C21.7878 13.6422 21.8647 13.6909 21.9456 13.7319C21.9233 13.7739 21.9032 13.8171 21.8847 13.8612C21.8787 13.8755 21.8741 13.8905 21.8685 13.9049C21.8569 13.9351 21.8453 13.9653 21.8354 13.9965C21.8297 14.0144 21.8253 14.033 21.8203 14.0512C21.8123 14.0797 21.8042 14.1082 21.7977 14.1374C21.7932 14.1572 21.7901 14.1774 21.7863 14.1975C21.7821 14.22 21.777 14.2421 21.7736 14.265C21.2154 14.2348 20.6593 14.2134 20.1131 14.2035C20.6381 14.0284 21.0707 13.6503 21.3177 13.1627ZM20.8625 7.81287C21.1304 7.98927 21.2873 8.20643 21.2873 8.41643C21.2873 8.46962 21.2758 8.67045 21.1276 9.0218C21.0296 9.25406 21.1049 9.52311 21.3091 9.67089C21.3312 9.68686 21.3543 9.70059 21.378 9.71281C21.3856 9.71678 21.3935 9.71974 21.4012 9.72336C21.4129 9.72878 21.4245 9.73485 21.4365 9.73933C21.4361 9.73998 21.4357 9.7407 21.4354 9.74135C21.3836 9.83559 21.3348 9.93336 21.2892 10.0345C21.2841 10.0457 21.2793 10.0569 21.2743 10.0682C21.2575 10.1064 21.2412 10.145 21.2253 10.1841C21.22 10.1973 21.2145 10.2106 21.2092 10.2239C21.1895 10.2737 21.1705 10.324 21.1524 10.3753C21.1066 10.5056 21.0674 10.6368 21.035 10.7681C21.0289 10.7927 21.0236 10.8172 21.0181 10.8417C20.6353 10.4089 20.0764 10.1352 19.4544 10.1352C18.871 10.1352 18.3431 10.3761 17.9639 10.7632C17.9318 10.6346 17.8933 10.5051 17.8476 10.3753C17.8255 10.3125 17.8018 10.2512 17.7773 10.1906C17.7725 10.1787 17.7678 10.1669 17.7629 10.1551C17.7376 10.094 17.7113 10.0339 17.6837 9.97513C17.6827 9.97303 17.6817 9.97101 17.6807 9.96891C17.6516 9.90713 17.6211 9.84686 17.5896 9.78775C17.5885 9.78558 17.5874 9.78341 17.5862 9.78124C17.5534 9.71996 17.5193 9.6602 17.4841 9.60195C17.484 9.60188 17.484 9.60173 17.484 9.60166C17.5099 9.58836 17.535 9.57283 17.559 9.55519C17.7545 9.41074 17.8298 9.15369 17.7431 8.92663C17.6335 8.63944 17.6217 8.47425 17.6217 8.41658C17.6217 7.85768 18.5893 7.44005 19.4545 7.44005C19.4919 7.44005 19.5291 7.44135 19.5662 7.44258C20.0385 7.46159 20.527 7.59961 20.8625 7.81287ZM11.2157 5.3773C11.503 4.56121 12.2183 3.78717 12.7454 3.97268C12.7896 3.98821 12.913 4.04046 13.1029 4.18875C13.2946 4.33834 13.5624 4.34188 13.7579 4.19742C13.9534 4.05296 14.0287 3.79591 13.942 3.56886C13.8325 3.28182 13.8206 3.11662 13.8206 3.0588C13.8206 2.4999 14.7882 2.08228 15.6534 2.08228C16.5186 2.08228 17.4862 2.4999 17.4862 3.0588C17.4862 3.11199 17.4747 3.31282 17.3265 3.66417C17.2285 3.89644 17.3037 4.16555 17.508 4.31326C17.7121 4.46097 17.9912 4.44833 18.1813 4.28277C18.355 4.1313 18.5312 4.01538 18.6526 3.9726C18.8202 3.91363 19.0354 3.96104 19.2572 4.10059C19.2693 4.10817 19.2814 4.11554 19.2934 4.12364C19.321 4.14221 19.3486 4.16201 19.3762 4.18333C19.3822 4.18803 19.3882 4.19316 19.3942 4.19793C19.4307 4.22698 19.4667 4.25762 19.5021 4.29057C19.5037 4.29209 19.5054 4.29353 19.507 4.29505C19.545 4.33075 19.5821 4.36884 19.6184 4.40873C19.6215 4.41212 19.6246 4.41545 19.6277 4.41892C19.664 4.45924 19.6995 4.50144 19.7339 4.5456C19.7358 4.54805 19.7377 4.55058 19.7397 4.55311C19.8456 4.68984 19.9419 4.84391 20.0255 5.00976C20.0286 5.01605 20.0318 5.02226 20.0349 5.02855C20.0604 5.08015 20.0847 5.13283 20.1076 5.18645C20.1109 5.19411 20.114 5.20191 20.1173 5.20957C20.1402 5.26464 20.1622 5.32043 20.1822 5.37723C20.1968 5.41864 20.2102 5.46026 20.2229 5.50196C20.2267 5.51446 20.2303 5.52696 20.2339 5.53947C20.2426 5.56953 20.251 5.59959 20.2588 5.62965C20.2623 5.6431 20.2658 5.65654 20.2691 5.66991C20.2771 5.70271 20.2846 5.73545 20.2915 5.76811C20.2934 5.77722 20.2956 5.78633 20.2974 5.79543C20.3058 5.83713 20.3133 5.87868 20.3198 5.92002C20.3213 5.92912 20.3223 5.93816 20.3237 5.94726C20.3285 5.97964 20.3328 6.01187 20.3364 6.04395C20.338 6.05711 20.3393 6.07019 20.3406 6.08319C20.3435 6.11253 20.3458 6.14173 20.3478 6.17078C20.3486 6.18285 20.3495 6.19492 20.3502 6.20691C20.3523 6.24666 20.3537 6.28611 20.3539 6.32507C20.3539 6.32557 20.3539 6.32608 20.3539 6.32658C20.3541 6.36539 20.3531 6.40362 20.3515 6.44149C20.3513 6.44532 20.351 6.44907 20.3508 6.4529C20.1426 6.40694 19.9237 6.37666 19.6966 6.36409C19.6863 6.36351 19.6762 6.36308 19.6659 6.36257C19.5962 6.35918 19.5258 6.35694 19.4547 6.35694C18.8074 6.35694 18.216 6.49915 17.7373 6.74211C17.6733 5.64808 16.7633 4.7775 15.6536 4.7775C14.6051 4.7775 13.735 5.5545 13.5881 6.56282C13.3619 6.48571 13.1191 6.42812 12.8629 6.39394C12.8413 6.39104 12.8192 6.38888 12.7974 6.38635C12.7732 6.38353 12.7493 6.38035 12.7248 6.37789C12.7186 6.37724 12.7122 6.37695 12.7059 6.3763C12.5727 6.36366 12.4365 6.35686 12.2976 6.35686C12.2449 6.35686 12.1925 6.35802 12.1404 6.3599C12.1323 6.36019 12.1243 6.36076 12.1162 6.36105C12.0696 6.36301 12.0233 6.36561 11.9773 6.369C11.9742 6.36922 11.9712 6.36951 11.9682 6.36973C11.6428 6.39451 11.3352 6.4555 11.0532 6.54728C11.0204 6.19 11.075 5.777 11.2157 5.3773ZM16.658 6.86525C16.658 7.41931 16.2073 7.87003 15.6533 7.87003C15.4019 7.87003 15.1722 7.77645 14.9958 7.62317C14.9248 7.49989 14.8378 7.38289 14.7362 7.27355C14.6804 7.14868 14.6487 7.01072 14.6487 6.86525C14.6487 6.31126 15.0994 5.86054 15.6534 5.86054C16.2073 5.86054 16.658 6.31126 16.658 6.86525ZM9.29758 13.229C9.22972 12.9976 9.0174 12.84 8.77821 12.84C8.76975 12.84 8.76129 12.8402 8.75284 12.8406C8.51458 12.8515 8.29764 12.8319 8.1724 12.7879C7.73758 12.6349 7.51153 11.7244 7.85978 10.7349C8.20803 9.7454 8.95453 9.17703 9.38943 9.3303C9.43365 9.34584 9.55701 9.39809 9.747 9.54638C9.93857 9.69597 10.2065 9.69951 10.4019 9.55505C10.5975 9.41059 10.6727 9.15354 10.5861 8.92648C10.4765 8.63944 10.4647 8.47425 10.4647 8.41643C10.4647 8.05749 10.9399 7.66559 11.6454 7.50964C11.6542 7.50776 11.663 7.50596 11.6717 7.50408C11.713 7.49541 11.755 7.48753 11.7978 7.48052C11.8322 7.47496 11.8668 7.46961 11.9019 7.46513C11.92 7.46282 11.9383 7.46079 11.9567 7.45877C12.006 7.45342 12.0557 7.44872 12.106 7.44576C12.1117 7.4454 12.1176 7.44526 12.1234 7.44497C12.181 7.44186 12.2389 7.43998 12.2975 7.43998C12.3251 7.43998 12.3525 7.44056 12.3799 7.44121C12.8023 7.45393 13.2406 7.56305 13.5731 7.73677C13.6838 7.79697 13.7806 7.8636 13.861 7.93428C13.9304 8.05012 14.0106 8.15873 14.1003 8.25868C14.1142 8.29669 14.1238 8.33477 14.1278 8.37264C14.1291 8.38717 14.1302 8.40176 14.1302 8.41658C14.1302 8.46977 14.1186 8.67059 13.9705 9.02195C13.8725 9.25414 13.9477 9.52325 14.1519 9.67104C14.1766 9.68889 14.2025 9.70421 14.2291 9.71743C14.2378 9.72177 14.2471 9.72459 14.256 9.72842C14.2742 9.73622 14.2923 9.74403 14.311 9.74981C14.322 9.7532 14.3333 9.75501 14.3444 9.75768C14.3615 9.76173 14.3786 9.76592 14.396 9.76831C14.4081 9.76997 14.4201 9.77026 14.4322 9.77105C14.4446 9.77192 14.4569 9.77394 14.4693 9.77394C14.4753 9.77394 14.4814 9.77336 14.4876 9.77315C14.4917 9.773 14.4958 9.77286 14.5 9.77257C14.5259 9.77112 14.5517 9.7678 14.5772 9.76267C14.5812 9.76187 14.5851 9.76093 14.589 9.76C14.6147 9.75421 14.64 9.7467 14.6648 9.73709C14.6681 9.73586 14.6712 9.73434 14.6744 9.73304C14.6997 9.72271 14.7244 9.71071 14.7482 9.6964C14.7502 9.69525 14.752 9.69387 14.754 9.69264C14.7788 9.67732 14.8027 9.6602 14.8252 9.64054C14.8904 9.58374 14.9559 9.53193 15.0187 9.48712C15.1234 9.4124 15.2207 9.35711 15.2966 9.33045C15.2974 9.33016 15.2984 9.32994 15.2993 9.32965C15.3125 9.3251 15.326 9.3212 15.3396 9.31795C15.3511 9.31527 15.3629 9.31318 15.3748 9.31137C15.3774 9.31094 15.3798 9.31036 15.3824 9.31C15.6895 9.26866 16.11 9.52586 16.4473 9.99818C16.4535 10.0069 16.4597 10.0157 16.4657 10.0246C16.4768 10.0405 16.4879 10.0564 16.4988 10.0728C16.5172 10.1008 16.5354 10.1292 16.5531 10.1582C16.5565 10.1637 16.5598 10.1694 16.5632 10.1749C16.5804 10.2036 16.5973 10.2327 16.6137 10.2623C16.6163 10.2669 16.6188 10.2713 16.6213 10.276C16.6593 10.3451 16.695 10.4167 16.7281 10.4905C16.7305 10.4956 16.7327 10.5007 16.7349 10.5058C16.7485 10.5364 16.7615 10.5673 16.7742 10.5986C16.7776 10.607 16.781 10.6154 16.7844 10.6239C16.799 10.6606 16.813 10.6976 16.8262 10.7351C16.8354 10.7612 16.844 10.7873 16.8524 10.8133C16.9808 11.2161 17.0233 11.666 16.9697 12.0374C16.9108 12.4035 16.7586 12.6742 16.5543 12.7714C16.541 12.7774 16.5275 12.7833 16.5137 12.7882C16.4985 12.7936 16.4818 12.7985 16.4641 12.8031C16.3404 12.835 16.1558 12.8492 15.9551 12.8415C15.9548 12.8415 15.9543 12.8415 15.954 12.8415C15.9517 12.8415 15.9493 12.8414 15.947 12.8413C15.9469 12.8413 15.9468 12.8413 15.9467 12.8413C15.9433 12.8412 15.9352 12.841 15.9299 12.8408C15.9273 12.8407 15.9248 12.8412 15.9222 12.8411C15.9195 12.8412 15.9168 12.8407 15.9141 12.8408C15.9089 12.8409 15.9006 12.8411 15.8967 12.8413C15.8915 12.8415 15.8863 12.8424 15.881 12.8428C15.7234 12.8504 15.5809 12.9256 15.4857 13.0451C15.481 13.051 15.4756 13.0561 15.4712 13.0622C15.4603 13.077 15.4514 13.0933 15.4421 13.1094C15.4363 13.1193 15.4297 13.1286 15.4245 13.1389C15.417 13.1537 15.4116 13.1698 15.4055 13.1855C15.401 13.197 15.3953 13.2079 15.3915 13.2199C15.3911 13.2213 15.391 13.2227 15.3906 13.2241C15.39 13.2259 15.3891 13.2275 15.3886 13.2294C15.3843 13.2438 15.3827 13.2584 15.3797 13.273C15.3769 13.2866 15.3731 13.3002 15.3714 13.3139C15.3693 13.3305 15.3693 13.3468 15.3688 13.3633C15.3684 13.3767 15.367 13.3902 15.3675 13.4036C15.3682 13.4202 15.3709 13.4364 15.3731 13.4527C15.3748 13.4656 15.3757 13.4787 15.3784 13.4914C15.3817 13.5075 15.387 13.5229 15.3917 13.5386C15.3956 13.5511 15.3986 13.5638 15.4033 13.5761C15.4091 13.5911 15.4166 13.6052 15.4238 13.6196C15.4297 13.6317 15.4349 13.644 15.4417 13.6555C15.4496 13.6691 15.4592 13.6816 15.4684 13.6946C15.4764 13.7059 15.4839 13.7176 15.4928 13.7282C15.5027 13.7402 15.5141 13.7508 15.5251 13.7618C15.5353 13.7721 15.5449 13.7828 15.556 13.7923C15.5663 13.8011 15.5777 13.8086 15.5887 13.8167C15.5906 13.8181 15.5926 13.8194 15.5945 13.8208C15.6044 13.8279 15.6132 13.836 15.6236 13.8424C15.6273 13.8447 15.6312 13.8468 15.635 13.849C15.6358 13.8494 15.6364 13.8501 15.6372 13.8505C15.642 13.8533 15.6459 13.8559 15.6506 13.8586C15.8101 13.952 15.9128 14.0325 15.9759 14.0903C15.9761 14.0904 15.9762 14.0906 15.9764 14.0907C15.9888 14.1021 15.9997 14.1126 16.0092 14.1222C16.0118 14.1249 16.0137 14.127 16.0162 14.1295C16.0225 14.136 16.0289 14.1427 16.0338 14.1482C16.0408 14.1558 16.0464 14.1625 16.0509 14.168C16.0661 14.1867 16.0789 14.2066 16.0906 14.2269C16.0927 14.2305 16.0949 14.234 16.0969 14.2377C16.1076 14.2575 16.1169 14.2778 16.1247 14.2987C16.1261 14.3025 16.1273 14.3064 16.1286 14.3102C16.131 14.3171 16.1326 14.3242 16.1347 14.3312C13.2225 14.5456 10.3425 14.9685 8.72299 15.2309C8.49543 14.8025 8.45511 14.3901 8.6357 14.1681C8.6719 14.1235 8.78471 14.0035 9.04927 13.8505C9.2652 13.7252 9.36789 13.4686 9.29758 13.229ZM28.7333 18.3728C28.4964 18.3926 28.2593 18.3954 28.0488 18.3475C27.7057 18.2696 27.349 18.036 26.9716 17.7888C26.4822 17.4683 25.9761 17.1369 25.3689 17.0461C24.7648 16.9558 24.1861 17.1238 23.6263 17.2862C23.1909 17.4126 22.779 17.5319 22.426 17.5052C22.0736 17.4787 21.6854 17.2992 21.2745 17.1093C20.745 16.8644 20.1975 16.6113 19.586 16.6095C18.972 16.6083 18.4257 16.8576 17.8948 17.0992C17.4827 17.2868 17.0934 17.464 16.7407 17.4884C16.3869 17.513 15.9766 17.3912 15.5421 17.2623C14.9831 17.0966 14.4052 16.9252 13.8007 17.0117C13.1931 17.0988 12.6852 17.4271 12.194 17.7445C11.8149 17.9895 11.4568 18.2209 11.1131 18.2967C10.8507 18.3546 10.5449 18.3349 10.205 18.2931L8.69365 16.3326C10.1236 16.0981 13.4643 15.589 16.7108 15.3772C16.7109 15.3772 16.7111 15.3772 16.7112 15.3772C17.322 15.3374 17.9043 15.3098 18.4527 15.2944C18.4734 15.2938 18.4941 15.2933 18.5148 15.2928C18.6011 15.2905 18.6866 15.2885 18.7712 15.2868C18.8208 15.2859 18.8702 15.2851 18.9196 15.2844C18.9794 15.2835 19.0393 15.2825 19.0982 15.2819C19.2099 15.2807 19.3212 15.28 19.4315 15.28C19.5471 15.28 19.6635 15.2807 19.7803 15.2819C19.8423 15.2825 19.9055 15.2836 19.9684 15.2846C20.0203 15.2854 20.072 15.286 20.1241 15.287C20.2126 15.2887 20.3022 15.2908 20.3924 15.2932C20.4157 15.2937 20.439 15.2943 20.4623 15.2949C21.0401 15.3109 21.6511 15.3396 22.2895 15.3811C22.2895 15.3811 22.2895 15.3811 22.2896 15.3811C25.5826 15.5951 28.8926 16.0996 30.3064 16.3321L28.7333 18.3728ZM30.8277 12.7879C30.7024 12.832 30.4854 12.8517 30.2472 12.8406C29.9993 12.8285 29.7727 12.9894 29.7025 13.2291C29.6323 13.4687 29.7349 13.7253 29.9511 13.8503C30.2156 14.0032 30.3285 14.1233 30.3647 14.1678C30.5453 14.3897 30.5051 14.8019 30.2778 15.2301C28.6708 14.9692 25.8112 14.55 22.8647 14.3346C22.867 14.327 22.8687 14.3191 22.8713 14.3115C22.8727 14.3075 22.874 14.3033 22.8755 14.2993C22.8832 14.2785 22.8925 14.2583 22.903 14.2387C22.9053 14.2345 22.9077 14.2306 22.91 14.2265C22.9217 14.2064 22.9343 14.1868 22.9493 14.1683C22.9495 14.1681 22.9496 14.168 22.9497 14.1678C22.9541 14.1623 22.9598 14.1557 22.9667 14.148C22.972 14.1421 22.9788 14.135 22.9858 14.1279C22.9877 14.1259 22.9892 14.1242 22.9913 14.1221C23.0491 14.0638 23.1591 13.9699 23.3517 13.8573C23.3521 13.8571 23.3524 13.8568 23.3528 13.8566C23.3563 13.8545 23.3592 13.8526 23.3628 13.8505C23.3631 13.8504 23.3634 13.8502 23.3636 13.8501C23.373 13.8446 23.3834 13.8382 23.3924 13.8321C23.4007 13.8265 23.4077 13.8197 23.4155 13.8137C23.4275 13.8048 23.4392 13.796 23.4503 13.7861C23.4619 13.7759 23.4725 13.765 23.483 13.7539C23.4929 13.7435 23.5028 13.7332 23.5118 13.7221C23.5215 13.71 23.5302 13.6974 23.5389 13.6846C23.5467 13.6731 23.5545 13.6617 23.5614 13.6496C23.5691 13.6361 23.5756 13.6221 23.5821 13.608C23.5879 13.5956 23.5937 13.5832 23.5985 13.5703C23.6039 13.5557 23.608 13.5409 23.6122 13.5258C23.6159 13.5126 23.6198 13.4996 23.6224 13.4861C23.6255 13.4708 23.6271 13.4552 23.6287 13.4396C23.6302 13.426 23.632 13.4124 23.6324 13.3986C23.6329 13.3827 23.6318 13.3667 23.6309 13.3507C23.6301 13.3369 23.6297 13.3233 23.6279 13.3097C23.6258 13.2934 23.6218 13.2773 23.618 13.261C23.6156 13.2504 23.6146 13.2397 23.6115 13.2291C23.6107 13.2261 23.6091 13.2235 23.6082 13.2205C23.6072 13.2173 23.6069 13.214 23.6058 13.2108C23.6015 13.198 23.5953 13.1865 23.5902 13.1743C23.5849 13.1615 23.5802 13.1484 23.5739 13.1361C23.5668 13.1221 23.5582 13.1092 23.5499 13.0959C23.5424 13.0839 23.5355 13.0714 23.5271 13.0601C23.5185 13.0484 23.5087 13.0381 23.4992 13.0273C23.4893 13.0159 23.4799 13.004 23.4691 12.9934C23.4601 12.9848 23.4501 12.9774 23.4406 12.9694C23.4277 12.9585 23.4152 12.9471 23.4014 12.9374C23.3934 12.9319 23.3847 12.9276 23.3764 12.9225C23.3598 12.9122 23.3436 12.9017 23.326 12.8932C23.3209 12.8908 23.3155 12.8894 23.3104 12.8871C23.252 12.8612 23.1888 12.8462 23.1229 12.8426C23.1214 12.8425 23.12 12.8424 23.1186 12.8424C23.1135 12.8421 23.1086 12.8412 23.1033 12.841C23.1 12.8408 23.0919 12.8406 23.0866 12.8404C23.084 12.8403 23.0814 12.8408 23.0788 12.8408C23.076 12.8408 23.0734 12.8403 23.0705 12.8404C23.0654 12.8405 23.0572 12.8408 23.0534 12.841C23.0533 12.841 23.0532 12.841 23.053 12.841C23.0507 12.841 23.0484 12.8411 23.0461 12.8412C23.0457 12.8412 23.0453 12.8411 23.0449 12.8412C22.8445 12.8489 22.6595 12.8348 22.5358 12.8027C22.5181 12.7981 22.5015 12.7932 22.4864 12.7879C22.2872 12.7178 22.1289 12.4898 22.0522 12.1626C21.9553 11.7499 21.9996 11.2294 22.1737 10.7349C22.1869 10.6974 22.201 10.6604 22.2154 10.6237C22.2188 10.6151 22.2223 10.6067 22.2258 10.5982C22.2383 10.5671 22.2513 10.5363 22.2648 10.5059C22.2672 10.5006 22.2695 10.4952 22.2719 10.49C22.305 10.4165 22.3405 10.3451 22.3783 10.2762C22.3811 10.2712 22.3838 10.2663 22.3865 10.2613C22.4026 10.2324 22.4191 10.2039 22.436 10.176C22.4397 10.1698 22.4433 10.1635 22.4471 10.1574C22.4646 10.1287 22.4826 10.1007 22.5008 10.0731C22.5122 10.0559 22.5238 10.0392 22.5355 10.0225C22.5409 10.0147 22.5463 10.0069 22.5518 9.99912C22.8894 9.526 23.3105 9.26837 23.6179 9.30993C23.6192 9.31014 23.6204 9.31043 23.6217 9.31058C23.6348 9.31246 23.6478 9.31477 23.6604 9.3178C23.675 9.32127 23.6893 9.32532 23.7033 9.3303C23.7475 9.34591 23.8709 9.39809 24.0609 9.54645C24.2524 9.69611 24.5204 9.69958 24.7157 9.55519C24.9112 9.41074 24.9866 9.15369 24.8999 8.92663C24.7903 8.63944 24.7785 8.47425 24.7785 8.41658C24.7785 8.40184 24.7795 8.38724 24.7808 8.37264C24.7848 8.33485 24.7944 8.29676 24.8083 8.25875C24.8981 8.15873 24.9784 8.05012 25.0478 7.93413C25.128 7.8636 25.2246 7.79712 25.335 7.73706C25.6675 7.56319 26.1061 7.45393 26.5288 7.44121C26.5561 7.44049 26.5835 7.43998 26.6112 7.43998C26.7414 7.43998 26.8706 7.44815 26.9965 7.46376C26.9981 7.46397 26.9996 7.46419 27.0012 7.46441C27.0603 7.47185 27.1186 7.4811 27.1762 7.49187C27.1853 7.4936 27.1944 7.49555 27.2035 7.49736C27.251 7.50668 27.2978 7.51723 27.3439 7.52872C27.3633 7.53364 27.3825 7.53891 27.4016 7.54419C27.4331 7.55286 27.4642 7.56211 27.495 7.57172C28.0708 7.75448 28.444 8.09839 28.444 8.41643C28.444 8.46962 28.4325 8.67045 28.2843 9.0218C28.1863 9.25406 28.2616 9.52318 28.4657 9.67089C28.6698 9.8186 28.9491 9.80596 29.139 9.64032C29.3127 9.48886 29.4888 9.37301 29.6103 9.33023C29.8095 9.26013 30.0756 9.33869 30.3403 9.54566C30.6743 9.80675 30.9658 10.2402 31.1399 10.7348C31.4885 11.7243 31.2625 12.6349 30.8277 12.7879Z" fill="#222222"/>
<path d="M12.2972 10.1351C11.146 10.1351 10.2095 11.0716 10.2095 12.2228C10.2095 13.374 11.146 14.3105 12.2972 14.3105C13.4483 14.3105 14.3848 13.374 14.3848 12.2228C14.3848 11.0716 13.4483 10.1351 12.2972 10.1351ZM12.2972 13.2275C11.7432 13.2275 11.2924 12.7768 11.2924 12.2228C11.2924 11.6688 11.7432 11.2181 12.2972 11.2181C12.8512 11.2181 13.3019 11.6688 13.3019 12.2228C13.3019 12.7768 12.8512 13.2275 12.2972 13.2275Z" fill="#222222"/>
<path d="M26.6116 10.1352C25.4604 10.1352 24.5239 11.0717 24.5239 12.2229C24.5239 13.3741 25.4604 14.3105 26.6116 14.3105C27.7628 14.3105 28.6994 13.3741 28.6994 12.2229C28.6994 11.0717 27.7628 10.1352 26.6116 10.1352ZM26.6116 13.2276C26.0576 13.2276 25.6069 12.7769 25.6069 12.2229C25.6069 11.6689 26.0576 11.2182 26.6116 11.2182C27.1657 11.2182 27.6164 11.6689 27.6164 12.2229C27.6164 12.7769 27.1657 13.2276 26.6116 13.2276Z" fill="#222222"/>
<path d="M25.4116 27.8923C25.3154 27.4937 25.24 27.3164 25.1131 27.1897C24.7434 26.8199 24.2681 26.6272 23.7353 26.6304C22.4983 26.6394 21.2117 27.6984 20.6809 28.1898C20.5076 28.077 20.3013 28.0108 20.0795 28.0108H18.9203C18.6985 28.0108 18.4921 28.0771 18.3187 28.1899C17.7854 27.6962 16.5002 26.6394 15.2645 26.6304C14.7344 26.6275 14.2564 26.8199 13.8867 27.1896C13.7598 27.3165 13.6844 27.4937 13.5881 27.8921C13.2648 29.2299 13.2643 30.647 13.5866 31.9902C13.6833 32.3933 13.759 32.5723 13.8866 32.6999C14.2528 33.0661 14.7234 33.2592 15.2488 33.2592C15.254 33.2592 15.2592 33.2592 15.2645 33.2592C15.8441 33.255 16.4344 33.02 16.953 32.7211L16.3631 34.8368C16.1519 35.5942 16.3035 36.3878 16.779 37.0141C17.2544 37.6403 17.9781 37.9995 18.7644 37.9995H20.2384C21.0241 37.9995 21.7475 37.6408 22.223 37.0153C22.6985 36.3899 22.8508 35.5969 22.6406 34.8398L22.0537 32.7253C22.5707 33.0223 23.1583 33.2551 23.7352 33.2593C23.7404 33.2593 23.7455 33.2593 23.7508 33.2593C24.2761 33.2593 24.7468 33.0661 25.1131 32.7C25.2406 32.5724 25.3164 32.3933 25.413 31.9903C25.7353 30.647 25.7349 29.2299 25.4116 27.8923ZM18.897 29.1159C18.8981 29.1037 18.9077 29.0938 18.9202 29.0938H20.0794C20.0926 29.0938 20.1033 29.1045 20.1033 29.1178L20.1027 30.7735C20.1022 30.7793 20.1002 30.7846 20.0965 30.7886C20.0962 30.7888 20.0959 30.789 20.0957 30.7893C20.0914 30.7933 20.0858 30.796 20.0795 30.796H18.9203C18.914 30.796 18.9083 30.7932 18.9041 30.7893C18.9039 30.789 18.9034 30.7888 18.9032 30.7886C18.899 30.7843 18.8963 30.7785 18.8963 30.772L18.897 29.1159ZM16.8991 31.462C16.2583 31.9261 15.6902 32.1731 15.2565 32.1763C15.0354 32.1761 14.8614 32.1168 14.7073 31.9851C14.6934 31.9433 14.6707 31.8671 14.6396 31.7375C14.3571 30.5602 14.3574 29.3184 14.6406 28.1465C14.6711 28.0203 14.6934 27.9457 14.7072 27.9046C14.8593 27.7744 15.0332 27.7132 15.2482 27.7132C15.2506 27.7132 15.253 27.7132 15.2554 27.7132C16.163 27.719 17.3865 28.7715 17.7839 29.1792L17.8133 29.209V30.6805L17.7815 30.7128C17.7806 30.7137 17.6889 30.8075 17.5354 30.9459C17.535 30.9463 17.5347 30.9467 17.5344 30.947C17.3787 31.0872 17.1584 31.2743 16.8991 31.462ZM21.361 36.3599C21.092 36.7137 20.6829 36.9165 20.2384 36.9165H18.7644C18.3196 36.9165 17.9103 36.7134 17.6413 36.3591C17.3723 36.005 17.2866 35.556 17.4061 35.1277L18.3556 31.7224C18.3568 31.7231 18.3581 31.7237 18.3593 31.7244C18.3789 31.736 18.3987 31.7471 18.419 31.7575C18.4199 31.7579 18.4208 31.7583 18.4217 31.7588C18.4579 31.7771 18.4953 31.7934 18.5337 31.8077C18.5439 31.8115 18.554 31.8154 18.5644 31.8189C18.5807 31.8245 18.5972 31.8298 18.6138 31.8346C18.6329 31.8401 18.6524 31.845 18.672 31.8495C18.6872 31.8531 18.7024 31.8563 18.7178 31.8592C18.7421 31.8638 18.7667 31.8675 18.7915 31.8705C18.8015 31.8717 18.8115 31.8727 18.8216 31.8736C18.8542 31.8766 18.887 31.8786 18.9203 31.8786H20.0795C20.1127 31.8786 20.1455 31.8766 20.1782 31.8736C20.1885 31.8727 20.1987 31.8716 20.209 31.8704C20.2328 31.8675 20.2564 31.8638 20.2797 31.8595C20.2949 31.8567 20.3099 31.8537 20.3248 31.8503C20.3459 31.8454 20.3668 31.8401 20.3875 31.8341C20.4045 31.8292 20.4211 31.8237 20.4377 31.818C20.448 31.8144 20.4582 31.8106 20.4684 31.8067C20.5303 31.7833 20.5895 31.7547 20.6455 31.7211C20.6472 31.7201 20.6489 31.7193 20.6505 31.7183L21.5972 35.1291C21.7161 35.5576 21.6299 36.0061 21.361 36.3599ZM24.3601 31.7375C24.329 31.8671 24.3063 31.9433 24.2923 31.9852C24.1384 32.1167 23.9614 32.1774 23.7441 32.1764C22.9916 32.1716 22.0222 31.4473 21.4863 30.9675C21.482 30.9635 21.4784 30.9588 21.4741 30.9548C21.3407 30.835 21.2529 30.748 21.2255 30.7204C21.2224 30.7171 21.2188 30.7136 21.2157 30.7105L21.1864 30.6807V29.2091L21.2186 29.1764C21.2222 29.1727 21.5846 28.8014 22.1005 28.4278C22.7415 27.9636 23.3095 27.7166 23.7432 27.7134C23.746 27.7134 23.7488 27.7134 23.7515 27.7134C23.9664 27.7134 24.1402 27.7746 24.2926 27.9048C24.3064 27.946 24.3287 28.0205 24.3591 28.1466C24.6422 29.3184 24.6425 30.5602 24.3601 31.7375Z" fill="#222222"/>
</g>
<defs>
<clipPath id="clip0">
<rect y="-0.000793457" width="37" height="37" fill="white"/>
</clipPath>
<clipPath id="clip1">
<rect x="1" y="0.999451" width="37" height="37" fill="white"/>
</clipPath>
</defs>
</svg>
