<svg width="22" height="22" viewBox="0 0 22 22" fill="none" xmlns="http://www.w3.org/2000/svg">
<path d="M15.9286 0H6.07104C2.72347 0 0 2.7236 0 6.07117V15.9287C0 19.2764 2.72347 21.9999 6.07104 21.9999H15.9286C19.2764 21.9999 21.9999 19.2763 21.9999 15.9287V6.07117C22 2.7236 19.2764 0 15.9286 0ZM20.0481 15.9287C20.0481 18.2001 18.2001 20.0479 15.9287 20.0479H6.07104C3.79977 20.0481 1.95193 18.2001 1.95193 15.9287V6.07117C1.95193 3.7999 3.79977 1.95193 6.07104 1.95193H15.9286C18.2 1.95193 20.0479 3.7999 20.0479 6.07117V15.9287H20.0481Z" fill="black"/>
<path d="M11 5.3313C7.87413 5.3313 5.33115 7.87428 5.33115 11.0001C5.33115 14.1258 7.87413 16.6687 11 16.6687C14.1258 16.6687 16.6688 14.1258 16.6688 11.0001C16.6688 7.87428 14.1258 5.3313 11 5.3313ZM11 14.7166C8.95055 14.7166 7.28308 13.0494 7.28308 11C7.28308 8.95045 8.95042 7.2831 11 7.2831C13.0495 7.2831 14.7168 8.95045 14.7168 11C14.7168 13.0494 13.0494 14.7166 11 14.7166Z" fill="black"/>
<path d="M16.9065 3.67627C16.5304 3.67627 16.161 3.82852 15.8954 4.09529C15.6285 4.36075 15.4751 4.73031 15.4751 5.10769C15.4751 5.48389 15.6286 5.85333 15.8954 6.12009C16.1609 6.38556 16.5304 6.53911 16.9065 6.53911C17.2839 6.53911 17.6521 6.38556 17.9189 6.12009C18.1857 5.85333 18.3379 5.48376 18.3379 5.10769C18.3379 4.73031 18.1857 4.36075 17.9189 4.09529C17.6534 3.82852 17.2839 3.67627 16.9065 3.67627Z" fill="black"/>
</svg>
