<svg width="32" height="32" viewBox="0 0 32 32" fill="none" xmlns="http://www.w3.org/2000/svg">
<path d="M23.1688 0H8.8306C3.96141 0 0 3.9616 0 8.83079V23.169C0 28.0384 3.96141 31.9998 8.8306 31.9998H23.1688C28.0384 31.9998 31.9998 28.0382 31.9998 23.169V8.83079C32 3.9616 28.0384 0 23.1688 0ZM29.1608 23.169C29.1608 26.4729 26.4729 29.1606 23.169 29.1606H8.8306C5.52693 29.1608 2.83918 26.4729 2.83918 23.169V8.83079C2.83918 5.52712 5.52693 2.83918 8.8306 2.83918H23.1688C26.4727 2.83918 29.1606 5.52712 29.1606 8.83079V23.169H29.1608Z" fill="#222222"/>
<path d="M15.9999 7.75488C11.4532 7.75488 7.75436 11.4538 7.75436 16.0004C7.75436 20.5469 11.4532 24.2456 15.9999 24.2456C20.5466 24.2456 24.2454 20.5469 24.2454 16.0004C24.2454 11.4538 20.5466 7.75488 15.9999 7.75488ZM15.9999 21.4062C13.019 21.4062 10.5935 18.9812 10.5935 16.0002C10.5935 13.0191 13.0188 10.5939 15.9999 10.5939C18.981 10.5939 21.4063 13.0191 21.4063 16.0002C21.4063 18.9812 18.9809 21.4062 15.9999 21.4062Z" fill="#222222"/>
<path d="M24.5912 5.34741C24.0442 5.34741 23.5069 5.56887 23.1206 5.95689C22.7323 6.34302 22.5092 6.88057 22.5092 7.42948C22.5092 7.97668 22.7325 8.51404 23.1206 8.90206C23.5067 9.28819 24.0442 9.51154 24.5912 9.51154C25.1402 9.51154 25.6758 9.28819 26.0638 8.90206C26.4519 8.51404 26.6733 7.97649 26.6733 7.42948C26.6733 6.88057 26.4519 6.34302 26.0638 5.95689C25.6777 5.56887 25.1402 5.34741 24.5912 5.34741Z" fill="#222222"/>
</svg>
