<svg width="21" height="28" viewBox="0 0 21 28" fill="none" xmlns="http://www.w3.org/2000/svg">
<g clip-path="url(#clip0)">
<path d="M10.1646 0.0022922C13.9837 0.14337 16.8393 1.88548 18.6507 5.2817C19.3095 6.51645 19.5996 7.87804 19.6414 9.28364C19.6723 10.3119 19.406 11.2846 19.0734 12.2443C18.2397 14.6459 16.8566 16.7497 15.5334 18.8866C13.7091 21.8331 11.8886 24.7808 10.0745 27.7337C9.85 28.0987 9.71362 28.0793 9.50713 27.7253C7.89056 24.9542 6.26176 22.1903 4.64841 19.4179C4.03086 18.356 3.41459 17.2914 2.84786 16.2023C2.07592 14.7196 1.44808 13.1749 0.973334 11.5648C0.555844 10.1476 0.543621 8.73033 0.892924 7.31891C1.52077 4.78016 2.94564 2.8096 5.16497 1.4163C6.55188 0.545246 8.4901 -0.0462436 10.1646 0.0022922ZM15.5334 9.29593C15.5379 6.25629 13.1127 3.79326 10.1105 3.78809C7.1109 3.78291 4.64455 6.23106 4.65356 9.24028C4.66256 12.3336 7.03949 14.7494 10.0861 14.7572C13.1314 14.7649 15.5083 12.3168 15.5334 9.29593Z" fill="#FFABAE"/>
</g>
<g clip-path="url(#clip1)">
<path d="M20.0734 12.2443C19.3219 14.4091 18.124 16.3319 16.926 18.2551C16.7949 18.4655 16.6639 18.6759 16.5334 18.8866C14.7091 21.8331 12.8886 24.7808 11.0745 27.7337C10.85 28.0987 10.7136 28.0793 10.5071 27.7253L19.6507 5.2817C20.3095 6.51645 20.5996 7.87804 20.6414 9.28364C20.6723 10.3119 20.406 11.2846 20.0734 12.2443ZM20.0734 12.2443L19.5538 12.064M20.0734 12.2443L19.5537 12.0642C19.5537 12.0641 19.5538 12.064 19.5538 12.064M19.5538 12.064C18.8237 14.167 17.6594 16.0368 16.4568 17.9681C16.3267 18.1769 16.1962 18.3864 16.0658 18.5971L16.0658 18.5971C14.3057 21.4398 12.549 24.2839 10.7982 27.1328M19.5538 12.064C19.8806 11.1209 20.1194 10.2256 20.0917 9.30015L20.0916 9.29999C20.0518 7.95888 19.7758 6.68451 19.1655 5.54058L19.1655 5.54054C17.4483 2.32114 14.7726 0.686571 11.1465 0.551999M10.7982 27.1328L11.1486 0.552061C11.1479 0.55204 11.1472 0.55202 11.1465 0.551999M10.7982 27.1328C10.1369 26.0001 9.47489 24.8705 8.81317 23.7413C7.91536 22.2092 7.01807 20.678 6.12386 19.1414C5.50576 18.0785 4.89571 17.0245 4.33576 15.9484L4.3357 15.9483C3.57974 14.4963 2.96537 12.9846 2.50092 11.4094M11.1465 0.551999C9.5929 0.507531 7.76188 1.06284 6.45749 1.88206L6.4574 1.88211C4.35872 3.19967 3.02046 5.05059 2.42684 7.45095L2.42682 7.45104C2.09994 8.77186 2.11218 10.0897 2.50088 11.4093L11.1465 0.551999Z" stroke="black" stroke-width="1.1"/>
</g>
<defs>
<clipPath id="clip0">
<rect x="0.642578" width="19" height="28" fill="white"/>
</clipPath>
<clipPath id="clip1">
<rect x="1.64258" width="19" height="28" fill="white"/>
</clipPath>
</defs>
</svg>
