<?xml version="1.0" encoding="utf-8"?>
<!-- Generator: Adobe Illustrator 16.0.0, SVG Export Plug-In . SVG Version: 6.00 Build 0)  -->
<!DOCTYPE svg PUBLIC "-//W3C//DTD SVG 1.1//EN" "http://www.w3.org/Graphics/SVG/1.1/DTD/svg11.dtd">
<svg version="1.1" id="Layer_1" xmlns="http://www.w3.org/2000/svg" xmlns:xlink="http://www.w3.org/1999/xlink" x="0px" y="0px"
	 width="265px" height="87px" viewBox="34.5 22 265 87" enable-background="new 34.5 22 265 87" xml:space="preserve">
<path fill="#2D2D2D" d="M122.386,78.248c-4.81,1.984-5.669,1.436-6.789-4.694c-1.612,1.519-3.09,2.858-4.507,4.262
	c-1.576,1.561-2.083,3.185-1.623,5.628c0.448,2.384-0.142,5.113-0.872,7.509c-0.418,1.373-1.832,2.743-3.153,3.45
	c-1.101,0.589-2.929,0.668-4.058,0.15c-1.592-0.73-1.982-2.564-1.29-4.223c0.738-1.768,1.664-3.477,2.685-5.1
	c0.755-1.2,1.791-2.225,3.143-3.861c-1.596-1.02-2.912-1.859-4.204-2.685c4.814-3.255,7.704-12.416,6.091-19.461
	c-2.746-0.554-2.987,1.691-3.718,3.369c-1.261,2.899-1.471,6.23-4.262,8.486c-2.215,1.788-4.015,4.091-6.002,6.161
	c-1.803,1.878-3.979,2.929-6.55,2.136c-2.521-0.777-3.311-3.029-3.382-5.371c-0.088-2.895,0.079-5.807,0.312-8.698
	c0.073-0.897,0.497-2.216,1.151-2.531c1.709-0.823,2.022-2.298,2.584-3.791c1.131-3.005,3.207-4.479,5.721-4.241
	c2.365,0.223,3.88,1.714,4.396,5.016c0.419,2.685,0.372,5.441,0.606,9.45c1.738-3.208,2.999-5.447,4.169-7.732
	c0.66-1.29,1.01-2.755,1.774-3.969c2.221-3.531,5.726-3.416,7.279,0.514c0.898,2.274,1.221,5.164,0.692,7.527
	c-0.798,3.555-2.542,6.901-3.947,10.311c-0.384,0.935-0.996,1.774-1.263,2.809c3.447-2.87,7.058-5.652,8.407-10.079
	c1.262-4.148,2.064-8.437,3.113-12.85c1.204-0.058,2.262-0.108,3.533-0.17c-0.222,6.915-3.532,13.227-2.402,20.715
	c4.157-2.758,3.869-6.74,4.76-10.084c0.908-3.407,1.432-6.917,2.153-10.521c1.149,0,2.054,0,3.541,0
	c-1.126,6.449-2.22,12.72-3.327,19.061c4.383-2.26,6.035-6.317,7.808-19.06c0.357-0.16,0.761-0.461,1.194-0.51
	c0.783-0.088,1.581-0.025,2.423-0.025c0.133,0.951,0.234,1.682,0.347,2.504c1.633-1.033,3.073-2.394,4.771-2.916
	c2.513-0.773,2.993,1.626,3.678,3.548c1.387-1.085,2.408-2.241,3.689-2.784c1.207-0.511,3.038-0.939,3.948-0.369
	c0.931,0.584,1.62,2.494,1.464,3.7c-0.498,3.825-1.454,7.589-2.204,11.383c-0.287,1.459-0.495,2.933-0.785,4.682
	c3.911-0.512,4.656-3.106,5.379-5.553c1.094-3.698,2.027-7.445,2.956-11.189c0.563-2.266,1.639-3.438,4.423-2.244
	c-0.646,3.236-1.536,6.479-1.882,9.778c-0.324,3.079-0.069,6.219-0.069,10.068c5.877-5.917,6.26-13.132,7.781-20.598
	c1.695,0.338,3.152,0.628,4.605,0.92c-0.043,0.226-0.088,0.452-0.132,0.678c0.304-0.101,0.651-0.141,0.905-0.314
	c1.888-1.285,3.904-2.925,6.128-1.213c1.948,1.501,1.177,3.846,0.7,5.884c-0.848,3.609-1.769,7.201-2.674,10.796
	c-0.371,1.469-0.482,2.838,1.5,4.135c0.959-1.29,2.119-2.407,2.737-3.769c1.39-3.064,2.714-6.19,3.675-9.409
	c0.678-2.264,0.784-4.713,1.01-7.094c0.24-2.528,0.318-5.072,0.461-7.506c2.623-0.653,4.142,0.179,3.392,2.216
	c-2.17,5.894,0.306,10.652,2.938,15.563c0.854,1.594,1.013,3.562,2.435,5.524c0.679-2.337,1.517-4.643,2.005-7.018
	c1.324-6.434,2.465-12.908,3.756-19.35c0.348-1.734,0.838-3.471,1.516-5.101c1.193-2.882,3.742-4.073,6.184-3.1
	c1.706,0.681,2.545,2.714,1.354,5.489c-1.645,3.832-3.881,7.41-5.859,11.1c-0.619,1.154-1.225,2.313-1.1,3.957
	c1.556-1.279,3.109-2.557,4.559-3.75c3.967,2.066,3.838,2.042,3.224,5.477c-0.657,3.691-2.601,6.511-5.497,8.765
	c2.067,4.222,3.862,8.336,6.045,12.234c2.885,5.158,8.155,7.715,12.485,5.876c4.24-1.801,8.363-6.189,7.619-12.782
	c-0.497-4.41-2.353-6.946-5.591-7.563c-3.42-0.651-5.702,0.724-7.973,4.77c-0.228,0.404-0.564,0.75-1.023,1.348
	c-0.996-0.383-1.994-0.764-3.07-1.176c0.161-0.612,0.184-1.098,0.402-1.469c2.96-5.042,7.283-6.899,12.551-5.426
	c5.146,1.44,7.764,5.168,7.869,10.783c0.102,5.394-1.335,10.159-6.463,12.476c-5.52,2.494-11.202,2.891-16.424-1.354
	c-3.11-2.529-5.254-5.586-6.707-9.299c-0.961-2.453-1.354-5.32-4.514-7.507c-0.518,3.237-0.955,5.98-1.453,9.097
	c-1.021,0.197-2.201,0.426-3.55,0.688c-0.37-1.08-0.668-1.947-1.028-2.996c-2.834,1.67-5.244,4.789-9.088,3.13
	c-1.098-0.474-1.996-1.412-2.91-2.08c1.675-3.284,3.834-0.972,5.91-0.976c3.385-3.975,0.338-7.48-0.705-12.054
	c-2.279,4.001-4.066,7.31-6.031,10.508c-0.825,1.343-1.836,2.72-3.094,3.614c-2.851,2.027-5.785,0.742-5.742-2.711
	c0.037-3.002,1.072-5.984,1.615-8.986c0.465-2.583,2.174-5.026,1.043-8.04c-2.803,0.062-3.703,2.118-4.254,4.02
	c-1.388,4.785-2.477,9.658-3.681,14.496c-0.114,0.461-0.194,0.929-0.301,1.438c-2.071,1.159-3.476,0.788-4.101-1.992
	c-1.695,1.485-2.835,4.559-5.339,2.911c-1.617-1.063-2.437-3.335-3.754-5.27c-1.096,1.589-2.328,3.376-3.593,5.208
	c-4.794,0.052-6.574-1.685-5.828-6.221c0.468-2.848,1.507-5.599,2.149-8.424c0.439-1.927,0.636-3.91,1.006-6.283
	c-4.826,2.146-5.716,4.306-8.837,20.148c-1.075,0.136-2.264,0.287-3.846,0.486c-0.437-7.004,3.819-13.208,2.486-20.784
	c-6.977,5.772-4.767,13.989-7.755,20.671c-0.944,0.127-2.163,0.292-3.665,0.496c0-1.454,0-2.646,0-3.894
	c-0.495,0.128-0.879,0.108-1.039,0.288c-2.183,2.453-3.692,5.18-3.894,8.588c-0.103,1.756-0.536,3.529-1.078,5.213
	c-0.485,1.512-1.105,3.078-2.056,4.322c-1.721,2.25-3.963,2.596-5.938,1.279c-1.591-1.061-2.28-3.501-1.056-5.645
	c1.184-2.074,2.941-3.818,4.401-5.742c1.096-1.445,2.119-2.946,3.175-4.423C122.975,78.768,122.68,78.508,122.386,78.248z
	 M92.268,71.411c2.856-4.465,3.01-9.957,0.361-12.958C88.133,62.196,87.984,67.581,92.268,71.411z M211.338,57.719
	c-3.802,1.924-5.316,4.939-5.643,9.096C210.29,64.781,211.848,62.259,211.338,57.719z M102.56,94.283
	c3.286-3.09,3.479-6.009,3.35-9.874C103.032,87.172,101.488,89.602,102.56,94.283z M91.993,74.647
	c-1.84-2.008-3.248-3.542-5.058-5.517c-0.257,2.93-0.319,5.195,1.869,6.525C89.348,75.985,90.617,75.116,91.993,74.647z
	 M209.281,49.085c1.406-2.794,3.316-5.435,2.475-8.913C210.033,42.871,209.003,45.779,209.281,49.085z M121.607,85.215
	c-3.842,4.183-3.995,4.872-1.694,7.723C120.476,90.368,120.956,88.186,121.607,85.215z"/>
<path fill="#2D2D2D" d="M67.39,72.777c-1.134,3.838-2.028,7.77-3.467,11.488c-1.685,4.357-4.922,7.158-9.779,7.605
	c-4.673,0.432-8.674-2.21-9.686-6.313c-1.114-4.523,1.152-8.847,5.55-10.504c0.406-0.153,0.92-0.021,2.15-0.021
	c-0.533,1.521-0.889,2.741-1.404,3.891c-0.171,0.383-0.803,0.533-1.134,0.878c-2.279,2.362-2.563,5.675-0.707,7.884
	c1.912,2.275,6.037,2.927,8.27,0.619c1.923-1.989,3.573-4.677,4.26-7.335c1.164-4.505,1.494-9.228,2.139-13.863
	c0.98-7.028,1.843-14.073,2.948-21.081c0.315-2,1.293-3.896,2.066-6.127c1.754,0.485,3.089,0.854,4.771,1.32
	c-2.934,8.463-4.836,16.853-5.281,25.699c2.568,0.639,4.213-0.683,5.793-1.984c6.049-4.982,8.112-14.684,4.662-21.672
	c-3.085-6.249-10.905-9.592-18.674-8.088c-6.787,1.313-11.435,5.08-13.507,11.726c-2.868,9.193,1.16,15.638,10.59,16.982
	c0.164,0.375,0.436,0.79,0.518,1.237s-0.027,0.929-0.053,1.376c-9.246,2.045-16.314-4.415-15.683-14.292
	c0.698-10.914,9.049-18.462,17.299-19.352c3.03-0.327,6.138-0.54,9.158-0.256c13.194,1.237,19.574,12.587,15.085,25.055
	c-2.152,5.977-6.219,10.088-12.887,12.035c4.738,5.514,6.018,12.218,8.336,18.488c0.835,2.261,1.678,4.575,2.926,6.615
	c3.169,5.176,7.368,5.365,11.239,0.711c0.303-0.363,0.629-0.705,1.14-1.275c0.951,0.314,1.95,0.646,3.08,1.02
	c-0.312,0.647-0.435,1.1-0.706,1.435c-5.526,6.845-13.775,6.72-18.521-0.706c-2.396-3.748-3.819-8.143-5.495-12.32
	c-1.483-3.699-2.708-7.503-4.046-11.26C68.024,72.519,67.708,72.647,67.39,72.777z"/>
<path fill="#2D2D2D" d="M264.646,71.092c3.498-4.731,3.474-10.603,5.131-16.273c1.191-0.053,2.371-0.104,3.587-0.157
	c-0.271,6.934-3.613,13.225-1.86,20.082c4.945-5.623,4.178-13.045,6.436-19.86c0.887-0.112,1.929-0.244,3.525-0.446
	c-1.234,7.078-2.406,13.808-3.73,21.399c1.453-0.982,2.359-1.434,3.066-2.099c5.691-5.362,9.719-11.638,10.602-19.617
	c0.733-6.627-2.104-11.97-7.441-13.715c-4.949-1.619-9.25-0.323-12.857,3.301c-1.01,1.011-1.756,2.282-2.785,3.651
	c-0.825-0.354-1.674-0.719-2.637-1.133c0.145-0.57,0.142-1.074,0.377-1.41c4.957-7.077,11.904-8.07,18.877-6.552
	c5.537,1.207,9.033,5.739,9.57,11.474c0.67,7.168-1.518,13.457-6.089,18.859c-2.497,2.951-5.219,5.795-8.228,8.206
	c-2.504,2.006-3.518,4.43-4.006,7.371c-0.316,1.904-0.688,3.826-1.314,5.645c-0.407,1.18-1.078,2.598-2.061,3.166
	c-1.25,0.725-3.009,1.13-4.414,0.889c-1.905-0.326-2.149-2.211-2.022-3.902c0.237-3.166,2.377-5.231,4.485-7.24
	c1.528-1.455,3.041-2.834,3.004-5.703c-0.942,0.45-1.551,0.838-2.219,1.043c-2.473,0.767-3.672,0.258-4.479-2.123
	c-0.405-1.197-0.211-2.606-0.668-3.771c-0.23-0.59-1.303-0.85-1.995-1.258L264.646,71.092z M272.398,84.424
	c-3.951,3.804-4.159,4.538-2.23,7.585C272.311,89.919,272.326,87.387,272.398,84.424z"/>
<path fill="#2D2D2D" d="M264.501,70.919c-1.808,2.009-3.511,4.126-5.449,6c-3.418,3.306-7.188,2.177-8.157-2.56
	c-0.509-2.484-0.715-5.186-0.326-7.673c1.225-7.807,2.703-15.578,4.3-23.319c0.376-1.823,1.274-3.794,2.549-5.089
	c0.897-0.915,2.968-1.297,4.265-0.958c0.725,0.19,1.409,2.392,1.271,3.588c-0.202,1.737-1.167,3.383-1.806,5.068
	c-0.321-0.093-0.642-0.188-0.963-0.281c0.316-1.836,0.633-3.671,0.947-5.507c-0.336-0.086-0.672-0.174-1.008-0.26
	c-1.99,2.633-3.426,5.876-3.229,9.005c0.151,2.407-0.158,4.279-1.112,6.65c0.661-0.169,1.319-0.351,1.985-0.505
	c3.053-0.706,4.987-0.026,5.527,2.91c0.598,3.246,0.32,6.665,0.307,10.007c-0.004,1.207-0.94,2.605,1.045,3.097L264.501,70.919z
	 M258.907,71.504c1.332-4.042,2.187-7.603,1.327-11.288c-0.207-0.893-1.217-1.921-2.088-2.223c-0.59-0.205-1.828,0.558-2.348,1.223
	c-1.681,2.151-1.877,4.688-1.336,7.3C254.936,68.805,255.938,70.647,258.907,71.504z M253.88,70.588
	c0.667,4.99,0.789,5.069,3.815,2.98C256.573,72.691,255.514,71.863,253.88,70.588z"/>
<path fill="#2D2D2D" d="M168.951,46.923c0.053,2.813-1.674,4.674-3.529,4.597c-1.614-0.068-2.236-1.124-2.29-2.541
	c-0.078-1.999,1.82-4.193,3.502-3.792C167.645,45.428,168.45,46.525,168.951,46.923z"/>
<path fill="#2D2D2D" d="M241.48,78.256c-0.43-1.889-0.763-3.831,1.343-4.917c0.782-0.405,2.372-0.295,2.95,0.255
	c0.58,0.551,0.726,2.079,0.416,2.947C245.438,78.637,243.869,79.401,241.48,78.256z"/>
</svg>
