<svg width="31" height="45" viewBox="0 0 31 45" fill="none" xmlns="http://www.w3.org/2000/svg">
<path d="M15.3752 0.0037362C21.5425 0.230468 26.1537 3.03029 29.079 8.48849C30.1427 10.4729 30.6112 12.6612 30.6787 14.9202C30.7286 16.5728 30.2985 18.136 29.7615 19.6784C28.4152 23.5381 26.1818 26.9193 24.045 30.3535C21.099 35.0889 18.1592 39.8264 15.2298 44.5721C14.8672 45.1587 14.647 45.1275 14.3136 44.5586C11.7031 40.1051 9.07284 35.663 6.46755 31.2074C5.4703 29.5007 4.47514 27.7898 3.55996 26.0394C2.31341 23.6566 1.29954 21.174 0.532915 18.5864C-0.141263 16.3087 -0.161 14.0309 0.403066 11.7626C1.41693 7.68245 3.71786 4.51549 7.3017 2.27625C9.54134 0.876341 12.6712 -0.0742678 15.3752 0.0037362ZM24.045 14.9399C24.0523 10.0548 20.136 6.09637 15.2879 6.08805C10.444 6.07973 6.46131 10.0143 6.47586 14.8505C6.4904 19.822 10.3287 23.7045 15.2485 23.717C20.1661 23.7294 24.0045 19.7949 24.045 14.9399Z" fill="#DA666A"/>
</svg>
