<svg width="1920" height="429" viewBox="0 0 1920 429" fill="none" xmlns="http://www.w3.org/2000/svg">
<mask id="mask0" mask-type="alpha" maskUnits="userSpaceOnUse" x="0" y="0" width="1920" height="429">
<rect width="1920" height="429" fill="#FFD9DA"/>
</mask>
<g mask="url(#mask0)">
<path d="M1470.79 67.6647C1468.92 65.9566 1466.37 65.6071 1464.22 66.5801C1462.93 65.4497 1461.53 64.3713 1460 63.3833C1446.64 54.7611 1430.74 60.6291 1430.07 60.8795C1428.65 61.415 1427.5 62.4599 1426.76 63.7775C1426.32 64.07 1425.92 64.4345 1425.56 64.8423C1408.77 58.212 1394.51 65.9492 1393.84 66.3223C1391.95 67.3759 1390.76 69.3456 1390.52 71.4962C1379.76 72.8559 1370.33 79.1578 1364.72 85.2514C1362.56 87.5953 1360.79 90.0596 1359.47 92.5349C1359.43 92.6167 1359.3 92.8708 1359.1 93.2699C1357.07 92.7593 1354.88 93.322 1353.3 94.9359C1343.21 105.191 1339.31 114.527 1338.08 121.9C1336.3 123.289 1335.24 125.66 1335.44 128.147C1335.98 134.533 1338.41 140.091 1341.15 144.474C1340.67 146.371 1340.99 148.418 1342.05 150.068C1340.37 152.541 1340.42 155.939 1342.26 158.332C1342.98 159.256 1344.76 161.511 1347.16 164.167C1346.72 166.077 1347.07 168.167 1348.24 169.837C1348.53 170.252 1355.52 180.08 1369.31 186.915C1376.8 190.625 1387.28 193.886 1400.53 193.423C1394.81 197.886 1385.72 207.493 1383.59 224.566C1383.59 224.566 1388.49 215.504 1395.62 207.221L1388.04 222.672C1388.04 222.672 1412.16 211.714 1421.19 189.908C1424.33 188.97 1427.57 187.832 1430.92 186.459C1431.32 186.29 1431.7 186.079 1432.05 185.839C1438.56 190.163 1461.33 207.65 1478.88 250.705C1480.17 253.85 1481.36 256.909 1482.47 259.873C1479.9 257.604 1476.72 254.853 1473.35 252.069C1470.32 230.382 1459.1 223.806 1459.1 223.806C1458.9 234.434 1461.54 240.971 1463.93 244.69C1461.65 243.023 1459.45 241.525 1457.46 240.339C1449.75 226.34 1438.33 221.182 1428.71 222.335C1414.37 224.048 1402.82 237.625 1402.82 237.625C1402.82 237.625 1410.24 257.724 1425.95 258.481C1441.66 259.235 1455.7 244.882 1455.7 244.882C1444.61 237.411 1427.69 237.351 1427.69 237.351C1437.88 234.161 1448.99 238.345 1454.88 241.235C1454.88 241.235 1472.25 253.632 1485.04 267.027C1499.03 307.297 1497.05 328.819 1497.05 328.819L1499.75 325.878C1499.75 325.878 1505.68 298.614 1481.58 247.235C1459.65 200.473 1454.75 195.013 1451.87 184.34C1450.39 178.836 1449.34 174.105 1448.74 171.236C1449.75 169.711 1450.54 168.126 1451.1 166.495C1451.57 166.607 1452.05 166.642 1452.52 166.641C1457.64 167.22 1475.47 169.903 1488.17 179.933C1488.17 179.933 1475.41 163.853 1462.14 160.502C1462.5 160.142 1462.85 159.795 1463.21 159.4C1464.16 158.365 1465.06 157.276 1465.93 156.142C1468.14 157.274 1475.04 159.752 1482.63 151.727C1491.86 141.965 1502 137.372 1502 137.372C1502 137.372 1484.54 130.925 1474.23 140.083C1479.07 124.974 1474.5 115.154 1473.93 114.019C1473.4 112.97 1472.64 112.113 1471.72 111.497C1473.16 108.872 1474.5 106.264 1475.66 103.732C1483.73 86.1129 1476.01 72.4345 1470.79 67.6647ZM1443.07 250.546C1421.16 262.21 1409.98 245.172 1409.98 245.172C1422.44 253.028 1443.07 250.546 1443.07 250.546ZM1429.25 74.1686C1446.07 84.7742 1452.85 97.1894 1449.72 109.68C1446.58 122.176 1435.52 135.267 1435.52 135.267C1435.52 135.267 1444.91 111.199 1438.69 100.43C1432.46 89.6604 1419.26 81.2786 1419.26 81.2786C1419.26 81.2786 1429.59 85.032 1437.08 92.6651C1437.08 92.6651 1417.69 69.0828 1396.76 72.3081C1396.76 72.3105 1412.44 63.5594 1429.25 74.1686ZM1383.79 149.22C1383.79 149.22 1388.08 142.156 1395.74 138.645C1395.74 138.645 1385.95 139.924 1382.69 142.932C1382.69 142.932 1379.84 133.734 1389.78 128.809C1399.73 123.884 1410.13 121.943 1418.13 113.255C1426.12 104.566 1427.2 98.5913 1427.2 98.5913C1427.2 98.5913 1433.48 104.52 1434.26 114.979C1434.94 124.127 1431.8 134.764 1426.99 139.445C1426.99 139.445 1403.81 139.504 1385.93 153.312C1385.93 153.312 1391.83 145.57 1402.46 140.974C1402.45 140.977 1389.71 144.664 1383.79 149.22ZM1404.62 97.1857C1404.62 97.1857 1410.95 95.6846 1414.93 99.8941C1414.93 99.8941 1413.82 94.776 1409.46 94.1228C1409.46 94.1228 1418.98 94.0955 1419.35 102.785C1419.71 111.471 1409.02 114.993 1409.02 114.993C1409.02 114.993 1417.84 106.376 1412.84 102.169C1407.85 97.9567 1404.62 97.1857 1404.62 97.1857ZM1397.63 107.719C1397.96 102.55 1414.96 104.132 1407.8 108.965C1407.8 108.964 1397.29 112.899 1397.63 107.719ZM1389.28 102.617C1388.08 107.666 1397.2 114.113 1397.2 114.113C1392.64 115.366 1389.77 118.93 1389.77 118.93C1394.09 116.109 1403.09 117.957 1403.09 117.957C1388.42 120.93 1381.43 132.136 1381.43 132.136C1381.43 132.136 1375 115.999 1380.61 104.014C1386.23 92.0304 1401.01 95.49 1401.01 95.49C1401.01 95.49 1390.49 97.5675 1389.28 102.617ZM1364.94 95.9201C1370.32 85.7968 1385.37 75.8557 1399.29 78.3744C1413.21 80.8956 1422.46 94.6521 1422.46 94.6521C1415.82 87.2074 1406.89 85.0989 1406.89 85.0989C1414.62 88.5077 1419.24 95.2148 1419.24 95.2148C1409.52 86.5467 1392.48 81.2352 1378.89 96.7977C1365.31 112.36 1377.63 145.623 1377.63 145.623C1371.16 140.687 1367.69 134.1 1367.69 134.1L1370.63 142.986C1363.91 137.489 1362.67 125.123 1362.67 125.123C1362.21 130.164 1362.61 134.539 1362.61 134.539C1354.78 114.708 1364.94 95.9201 1364.94 95.9201ZM1341.73 127.55C1341.73 127.55 1342.37 130.329 1345.25 134.948C1345.25 134.948 1337.83 120.021 1357.65 99.8284C1357.65 99.8284 1348.13 121.659 1357.79 137.103C1357.79 137.103 1354.43 134.606 1351.28 128.133C1351.28 128.133 1352.02 144.71 1375.79 157.91C1375.79 157.91 1359.15 158.806 1347.24 146.255L1354.04 149.735C1354.04 149.732 1342.81 140.54 1341.73 127.55ZM1443.44 167.567C1435.22 179.439 1414.51 179.476 1414.51 179.476L1428.65 180.157C1404.64 190.031 1386.47 187.322 1373.99 181.744C1402.68 180.337 1415.73 160.234 1415.73 160.234C1395.99 176.657 1372.17 176.633 1364.11 176.079C1356.87 170.903 1353.28 165.788 1353.28 165.788C1358.52 169.725 1365.72 170.726 1365.72 170.726C1358.01 168.137 1347.12 154.032 1347.12 154.032C1347.12 154.032 1367.3 166.598 1379.68 164.643C1392.07 162.681 1423.07 145.317 1429.63 144.602C1436.2 143.883 1451.66 155.693 1443.44 167.567ZM1467.29 140.576C1461.7 154.948 1452.43 159.933 1452.43 159.933C1452.43 159.933 1448 147.665 1453.26 136.58C1458.75 124.995 1466.38 116.71 1466.38 116.71L1461.77 130.276L1468.37 117.225C1468.37 117.224 1472.9 126.207 1467.29 140.576ZM1469.99 100.76C1461.93 118.335 1444.45 140.202 1446.23 153.4C1446.23 153.4 1440.27 140.268 1446.5 128.144C1452.74 116.023 1461.9 96.7146 1456.26 89.1993C1450.63 81.6852 1430.09 69.5166 1430.09 69.5166C1430.09 69.5166 1441.89 72.737 1450.49 79.1652C1450.49 79.1652 1441.5 69.6876 1432.18 67.2457C1432.18 67.2457 1445.78 62.093 1456.74 69.1671C1467.7 76.2362 1470.89 89.0816 1470.89 89.0816C1470.89 89.0816 1470.44 78.0732 1466.69 72.7989C1466.68 72.8002 1478.04 83.1838 1469.99 100.76Z" fill="#FFABAE" fill-opacity="0.17"/>
<path d="M1477.23 226.876C1477.25 229.467 1479.23 235.036 1479.23 235.036C1482.17 229.356 1485.82 219.417 1485.82 219.417C1485.91 227.237 1481.71 238.958 1481.71 238.958C1501.47 217.482 1489.94 199.885 1489.94 199.885C1475.5 214.864 1477.23 226.876 1477.23 226.876Z" fill="#FFABAE" fill-opacity="0.17"/>
<path d="M1468.91 252.861C1468.91 252.861 1458.73 263.375 1451.7 273.336C1451.7 273.336 1455.83 261.895 1466.49 250.311C1466.49 250.311 1451.11 248.848 1441.13 263.961C1431.16 279.075 1440.69 294.739 1440.69 294.739C1440.69 294.739 1472.69 284.217 1468.91 252.861ZM1439.55 285.506C1435.01 266.113 1452.76 255.329 1452.76 255.329C1439.06 268.168 1439.55 285.506 1439.55 285.506Z" fill="#FFABAE" fill-opacity="0.17"/>
<path d="M1194.43 331.175C1194.43 331.175 1181.26 325.635 1169.87 322.923C1169.87 322.923 1181.32 322.192 1195.59 327.76C1195.59 327.76 1190.45 312.181 1173.46 308.745C1156.46 305.312 1147.1 321.095 1147.1 321.095C1147.1 321.095 1169.33 347.867 1194.43 331.175ZM1154.48 316.149C1169.08 303.68 1185.63 316.481 1185.63 316.481C1169.02 308.474 1154.48 316.149 1154.48 316.149Z" fill="#FFABAE" fill-opacity="0.2"/>
<path d="M1029.47 143.802C1029.47 143.802 1038.61 149.206 1046.7 152.358C1046.7 152.358 1038.26 151.72 1028.31 146.181C1028.31 146.181 1030.68 158.111 1042.81 162.367C1054.94 166.621 1063.21 156.029 1063.21 156.029C1063.21 156.029 1049.33 134.157 1029.47 143.802ZM1057.36 158.894C1045.56 166.522 1034.6 155.458 1034.6 155.458C1046.04 163.021 1057.36 158.894 1057.36 158.894Z" fill="#FFABAE" fill-opacity="0.2"/>
<path d="M1197.54 103.149C1197.54 103.149 1194.58 88.3495 1190.39 76.6961C1190.39 76.6961 1197.29 86.4922 1200.85 102.298C1200.85 102.298 1210.14 89.0992 1203.41 72.0512C1196.69 55.0052 1179.22 55.3881 1179.22 55.3881C1179.22 55.3881 1170.66 90.0093 1197.54 103.149ZM1187.15 59.2284C1204.94 65.3534 1204.12 87.176 1204.12 87.176C1201.17 67.9444 1187.15 59.2284 1187.15 59.2284Z" fill="#FFABAE" fill-opacity="0.2"/>
<path d="M1727.23 66.4026C1727.25 68.9932 1729.23 74.5625 1729.23 74.5625C1732.17 68.8817 1735.82 58.943 1735.82 58.943C1735.91 66.7633 1731.71 78.4844 1731.71 78.4844C1751.47 57.0081 1739.94 39.4115 1739.94 39.4115C1725.5 54.3902 1727.23 66.4026 1727.23 66.4026Z" fill="#FFABAE" fill-opacity="0.2"/>
<path d="M1387.31 400.219C1389.39 401.549 1394.87 402.635 1394.87 402.635C1391.86 396.997 1385.82 388.497 1385.82 388.497C1392.11 392.479 1399.28 402.412 1399.28 402.412C1392.41 373.185 1372.36 374.578 1372.36 374.578C1376.81 395.563 1387.31 400.219 1387.31 400.219Z" fill="#FFABAE" fill-opacity="0.2"/>
<path d="M1478.18 11.8953C1476.65 9.88326 1471.86 6.8531 1471.86 6.8531C1472.88 13.253 1475.82 23.4542 1475.82 23.4542C1471.19 17.4043 1467.64 5.44051 1467.64 5.44051C1464.72 35.4165 1484 41.4664 1484 41.4664C1486.54 20.1212 1478.18 11.8953 1478.18 11.8953Z" fill="#FFABAE" fill-opacity="0.2"/>
<path d="M1744.78 310.754C1743.16 312.683 1741.12 318.227 1741.12 318.227C1746.87 316.142 1755.82 311.421 1755.82 311.421C1750.97 317.269 1740.48 322.909 1740.48 322.909C1768.61 321.267 1771.16 299.947 1771.16 299.947C1751.05 300.62 1744.78 310.754 1744.78 310.754Z" fill="#FFABAE" fill-opacity="0.2"/>
</g>
</svg>
