<svg width="296" height="1921" viewBox="0 0 296 1921" fill="none" xmlns="http://www.w3.org/2000/svg">
<mask id="mask0" mask-type="alpha" maskUnits="userSpaceOnUse" x="0" y="0" width="296" height="1921">
<rect y="1921" width="1920" height="296" transform="rotate(-90 0 1921)" fill="#FFD9DA"/>
</mask>
<g mask="url(#mask0)">
<path d="M237.518 566.569C237.518 566.569 232.339 579.735 229.805 591.126C229.805 591.126 229.121 579.683 234.326 565.405C234.326 565.405 219.763 570.547 216.552 587.542C213.343 604.535 228.096 613.897 228.096 613.897C228.096 613.897 253.12 591.665 237.518 566.569ZM223.472 606.52C211.818 591.914 223.783 575.373 223.783 575.373C216.298 591.98 223.472 606.52 223.472 606.52Z" fill="#DA666A" fill-opacity="0.1"/>
<path d="M178.113 59.9613C178.113 59.9613 184.957 47.5789 188.948 36.6129C188.948 36.6129 188.141 48.0482 181.126 61.529C181.126 61.529 196.233 58.3208 201.623 41.8869C207.011 25.4538 193.598 14.2564 193.598 14.2564C193.598 14.2564 165.9 33.0522 178.113 59.9613ZM197.225 22.171C206.885 38.1668 192.874 53.0146 192.874 53.0146C202.451 37.5189 197.225 22.171 197.225 22.171Z" fill="#DA666A" fill-opacity="0.1"/>
<path d="M262.417 323.456C262.417 323.456 248.583 326.422 237.69 330.609C237.69 330.609 246.847 323.712 261.621 320.154C261.621 320.154 249.284 310.863 233.348 317.585C217.415 324.309 217.773 341.777 217.773 341.777C217.773 341.777 250.134 350.334 262.417 323.456ZM221.362 333.846C227.088 316.058 247.486 316.881 247.486 316.881C229.51 319.828 221.362 333.846 221.362 333.846Z" fill="#DA666A" fill-opacity="0.1"/>
<path d="M188.069 543.764C190.49 543.746 195.696 541.766 195.696 541.766C190.386 538.829 181.096 535.181 181.096 535.181C188.406 535.09 199.362 539.291 199.362 539.291C179.287 519.527 162.839 531.062 162.839 531.062C176.84 545.503 188.069 543.764 188.069 543.764Z" fill="#DA666A" fill-opacity="0.1"/>
<path d="M52.0558 133.688C53.2989 131.61 54.3139 126.133 54.3139 126.133C49.0443 129.142 41.0987 135.182 41.0987 135.182C44.8209 128.89 54.1058 121.715 54.1058 121.715C26.786 128.588 28.0886 148.636 28.0886 148.636C47.7038 144.184 52.0558 133.688 52.0558 133.688Z" fill="#DA666A" fill-opacity="0.1"/>
<path d="M60.2936 232.82C58.4129 234.346 55.5805 239.142 55.5805 239.142C61.5627 238.123 71.0982 235.177 71.0982 235.177C65.4431 239.81 54.2601 243.363 54.2601 243.363C82.2797 246.281 87.9347 227.003 87.9347 227.003C67.9826 224.455 60.2936 232.82 60.2936 232.82Z" fill="#DA666A" fill-opacity="0.1"/>
<path d="M110.472 596.22C112.275 597.837 117.457 599.878 117.457 599.878C115.508 594.131 111.095 585.179 111.095 585.179C116.562 590.033 121.834 600.516 121.834 600.516C120.298 572.387 100.37 569.842 100.37 569.842C100.999 589.946 110.472 596.22 110.472 596.22Z" fill="#DA666A" fill-opacity="0.1"/>
</g>
</svg>
