<svg width="21" height="21" viewBox="0 0 21 21" fill="none" xmlns="http://www.w3.org/2000/svg">
<circle cx="9.625" cy="10.5" r="9.625" fill="#FFABAE"/>
<path d="M10.9351 0.875C16.4927 0.873952 20.9969 5.37529 21 10.9333C21.0031 16.4814 16.488 20.9995 10.9388 21C5.38857 21.001 0.875524 16.4887 0.875 10.937C0.874476 5.38001 5.37756 0.876048 10.9351 0.875ZM10.944 19.8862C15.8701 19.8757 19.9072 15.8278 19.8852 10.9218C19.8627 5.98959 15.8659 1.99562 10.943 1.98671C6.02221 1.97832 1.99029 6.00846 1.98977 10.9359C1.98872 15.8571 6.03059 19.8967 10.944 19.8862Z" fill="black"/>
<path d="M11.4995 10.3699C12.3894 10.3699 13.2353 10.3683 14.0818 10.3715C14.2028 10.372 14.3276 10.3793 14.4439 10.4092C14.686 10.4711 14.8443 10.6849 14.8485 10.9276C14.8532 11.176 14.684 11.4025 14.4366 11.4685C14.3616 11.4884 14.282 11.4989 14.2044 11.4989C12.9911 11.501 11.7778 11.5005 10.5645 11.4994C10.5137 11.4994 10.4628 11.4905 10.3957 11.4847C10.3879 11.4103 10.3743 11.3438 10.3743 11.2772C10.3732 9.33891 10.3722 7.40115 10.3743 5.46287C10.3748 5.04618 10.5745 4.80665 10.9151 4.79669C11.2008 4.7883 11.4204 4.9555 11.478 5.23906C11.4985 5.34022 11.4995 5.44715 11.4995 5.55145C11.5006 7.04421 11.5006 8.53697 11.5006 10.0297C11.4995 10.1319 11.4995 10.2347 11.4995 10.3699Z" fill="black"/>
</svg>
