<svg width="50" height="48" viewBox="0 0 50 48" fill="none" xmlns="http://www.w3.org/2000/svg">
<circle cx="20" cy="21" r="20" fill="#FFABAE"/>
<path d="M49.2 43.2H46.8V28C46.7997 27.5582 46.4412 27.2003 45.9994 27.2006C45.7387 27.2008 45.4944 27.328 45.3448 27.5416L34.1448 43.5416C33.8916 43.9037 33.9799 44.4025 34.342 44.6556C34.4763 44.7495 34.6361 44.7999 34.8 44.8H45.2V47.2C45.2 47.6418 45.5582 48 46 48C46.4418 48 46.8 47.6418 46.8 47.2V44.8H49.2C49.6418 44.8 50 44.4418 50 44C50 43.5582 49.6418 43.2 49.2 43.2ZM45.2 43.2H36.336L45.2 30.5376V43.2Z" fill="#222222"/>
<path d="M34.8 46.4H25.3288L34.1344 36.0312C34.1544 36.0074 34.1731 35.9826 34.1904 35.9568C35.847 33.505 35.2952 30.1855 32.9344 28.4016C30.0639 26.3391 26.0649 26.9942 24.0025 29.8647C23.2204 30.9532 22.7998 32.2597 22.8 33.6C22.8 34.0418 23.1582 34.4 23.6 34.4C24.0418 34.4 24.4 34.0418 24.4 33.6C24.3997 30.949 26.5486 28.7998 29.1995 28.7995C30.2043 28.7994 31.1838 29.1146 32 29.7008C33.6537 30.9679 34.0388 33.3015 32.88 35.0328L22.9904 46.6824C22.7045 47.0193 22.7459 47.5241 23.0828 47.81C23.2273 47.9326 23.4105 47.9999 23.6 48H34.8C35.2418 48 35.6 47.6418 35.6 47.2C35.6 46.7582 35.2418 46.4 34.8 46.4Z" fill="#222222"/>
<path d="M23.6176 42.4152C23.6343 41.9737 23.2898 41.6023 22.8483 41.5856C22.8482 41.5856 22.8481 41.5856 22.848 41.5856C12.411 41.1982 4.0341 32.8363 3.628 22.4H6.8C7.2418 22.4 7.6 22.0418 7.6 21.6C7.6 21.1582 7.2418 20.8 6.8 20.8H3.628C4.0283 10.3821 12.382 2.0287 22.8 1.6288V4C22.8 4.4418 23.1582 4.8 23.6 4.8C24.0418 4.8 24.4 4.4418 24.4 4V1.6288C34.6754 2.0262 42.9686 10.1628 43.5616 20.4288L40.4416 17.3088C40.1238 17.0018 39.6174 17.0106 39.3104 17.3284C39.011 17.6384 39.011 18.1299 39.3104 18.44L43.776 22.9056C43.8601 23.0074 43.9685 23.0863 44.0912 23.1352C44.1225 23.1446 44.1543 23.1524 44.1864 23.1584C44.2413 23.1782 44.2981 23.1919 44.356 23.1992C44.364 23.1992 44.3712 23.1992 44.3792 23.1992C44.3872 23.1992 44.3944 23.1992 44.4016 23.1992C44.4625 23.1946 44.5227 23.1828 44.5808 23.164C44.6137 23.16 44.6463 23.1539 44.6784 23.1456C44.7867 23.1071 44.8853 23.0454 44.9672 22.9648L49.4936 18.44C49.8005 18.1222 49.7918 17.6158 49.474 17.3088C49.164 17.0094 48.6725 17.0094 48.3624 17.3088L45.1648 20.504C44.5933 9.037 35.138 0.0281 23.6568 0.0112C23.6368 0.0104 23.62 0 23.6 0C23.58 0 23.5632 0.0104 23.5432 0.0112C11.6582 0.0275 2.0275 9.6582 2.0112 21.5432C2.0112 21.5632 2 21.58 2 21.6C2 21.62 2.0104 21.6368 2.0112 21.6568C2.0311 33.2485 11.2051 42.7538 22.7888 43.1848H22.8184C23.2483 43.1847 23.6013 42.8448 23.6176 42.4152Z" fill="#222222"/>
<path d="M34.348 10.852C34.0356 10.5397 33.5292 10.5397 33.2168 10.852L24.62 19.448C23.9705 19.1584 23.2286 19.1584 22.5792 19.448L18.5088 15.3776C18.191 15.0707 17.6845 15.0795 17.3776 15.3973C17.0782 15.7073 17.0782 16.1988 17.3776 16.5088L21.44 20.5712C20.8696 21.7652 21.3752 23.1956 22.5693 23.7659C23.4858 24.2037 24.5788 24.016 25.2968 23.2976C26.0187 22.5818 26.2046 21.4858 25.7592 20.572L34.348 11.9832C34.6603 11.6708 34.6603 11.1644 34.348 10.852ZM24.1658 22.1654C24.1657 22.1655 24.1657 22.1655 24.1656 22.1656C23.8492 22.4681 23.3508 22.4681 23.0344 22.1656C22.7219 21.8532 22.7219 21.3467 23.0342 21.0342C23.3466 20.7217 23.8531 20.7217 24.1656 21.034C24.4781 21.3464 24.4781 21.853 24.1658 22.1654Z" fill="#222222"/>
</svg>
