<svg width="48" height="48" viewBox="0 0 48 48" fill="none" xmlns="http://www.w3.org/2000/svg">
<path d="M47.2 43.2H44.8V28C44.7997 27.5582 44.4412 27.2003 43.9994 27.2006C43.7387 27.2008 43.4944 27.328 43.3448 27.5416L32.1448 43.5416C31.8916 43.9037 31.9799 44.4025 32.342 44.6556C32.4763 44.7495 32.6361 44.7999 32.8 44.8H43.2V47.2C43.2 47.6418 43.5582 48 44 48C44.4418 48 44.8 47.6418 44.8 47.2V44.8H47.2C47.6418 44.8 48 44.4418 48 44C48 43.5582 47.6418 43.2 47.2 43.2ZM43.2 43.2H34.336L43.2 30.5376V43.2Z" fill="#222222"/>
<path d="M32.8 46.4H23.3288L32.1344 36.0312C32.1544 36.0074 32.1731 35.9826 32.1904 35.9568C33.847 33.505 33.2952 30.1855 30.9344 28.4016C28.0639 26.3391 24.0649 26.9942 22.0025 29.8647C21.2204 30.9532 20.7998 32.2597 20.8 33.6C20.8 34.0418 21.1582 34.4 21.6 34.4C22.0418 34.4 22.4 34.0418 22.4 33.6C22.3997 30.949 24.5486 28.7998 27.1995 28.7995C28.2043 28.7994 29.1838 29.1146 30 29.7008C31.6537 30.9679 32.0388 33.3015 30.88 35.0328L20.9904 46.6824C20.7045 47.0193 20.7459 47.5241 21.0828 47.81C21.2273 47.9326 21.4105 47.9999 21.6 48H32.8C33.2418 48 33.6 47.6418 33.6 47.2C33.6 46.7582 33.2418 46.4 32.8 46.4Z" fill="#222222"/>
<path d="M21.6176 42.4152C21.6343 41.9737 21.2898 41.6023 20.8483 41.5856C20.8482 41.5856 20.8481 41.5856 20.848 41.5856C10.411 41.1982 2.0341 32.8363 1.628 22.4H4.8C5.2418 22.4 5.6 22.0418 5.6 21.6C5.6 21.1582 5.2418 20.8 4.8 20.8H1.628C2.0283 10.3821 10.382 2.0287 20.8 1.6288V4C20.8 4.4418 21.1582 4.8 21.6 4.8C22.0418 4.8 22.4 4.4418 22.4 4V1.6288C32.6754 2.0262 40.9686 10.1628 41.5616 20.4288L38.4416 17.3088C38.1238 17.0018 37.6174 17.0106 37.3104 17.3284C37.011 17.6384 37.011 18.1299 37.3104 18.44L41.776 22.9056C41.8601 23.0074 41.9685 23.0863 42.0912 23.1352C42.1225 23.1446 42.1543 23.1524 42.1864 23.1584C42.2413 23.1782 42.2981 23.1919 42.356 23.1992C42.364 23.1992 42.3712 23.1992 42.3792 23.1992C42.3872 23.1992 42.3944 23.1992 42.4016 23.1992C42.4625 23.1946 42.5227 23.1828 42.5808 23.164C42.6137 23.16 42.6463 23.1539 42.6784 23.1456C42.7867 23.1071 42.8853 23.0454 42.9672 22.9648L47.4936 18.44C47.8005 18.1222 47.7918 17.6158 47.474 17.3088C47.164 17.0094 46.6725 17.0094 46.3624 17.3088L43.1648 20.504C42.5933 9.037 33.138 0.0281 21.6568 0.0112C21.6368 0.0104 21.62 0 21.6 0C21.58 0 21.5632 0.0104 21.5432 0.0112C9.6582 0.0275 0.0275 9.6582 0.0112 21.5432C0.0112 21.5632 0 21.58 0 21.6C0 21.62 0.0104 21.6368 0.0112 21.6568C0.0311 33.2485 9.2051 42.7538 20.7888 43.1848H20.8184C21.2483 43.1847 21.6013 42.8448 21.6176 42.4152Z" fill="#222222"/>
<path d="M32.348 10.852C32.0356 10.5397 31.5292 10.5397 31.2168 10.852L22.62 19.448C21.9705 19.1584 21.2286 19.1584 20.5792 19.448L16.5088 15.3776C16.191 15.0707 15.6845 15.0795 15.3776 15.3973C15.0782 15.7073 15.0782 16.1988 15.3776 16.5088L19.44 20.5712C18.8696 21.7652 19.3752 23.1956 20.5693 23.7659C21.4858 24.2037 22.5788 24.016 23.2968 23.2976C24.0187 22.5818 24.2046 21.4858 23.7592 20.572L32.348 11.9832C32.6603 11.6708 32.6603 11.1644 32.348 10.852ZM22.1658 22.1654C22.1657 22.1655 22.1657 22.1655 22.1656 22.1656C21.8492 22.4681 21.3508 22.4681 21.0344 22.1656C20.7219 21.8532 20.7219 21.3467 21.0342 21.0342C21.3466 20.7217 21.8531 20.7217 22.1656 21.034C22.4781 21.3464 22.4781 21.853 22.1658 22.1654Z" fill="#222222"/>
</svg>
