<svg width="55" height="55" viewBox="0 0 55 55" fill="none" xmlns="http://www.w3.org/2000/svg">
<path d="M10.2667 9.27337C10.6717 9.27337 11 8.94502 11 8.54004V6.34004C11 5.93505 10.6717 5.6067 10.2667 5.6067C9.86171 5.6067 9.53336 5.93505 9.53336 6.34004V8.54004C9.53336 8.94502 9.86171 9.27337 10.2667 9.27337Z" fill="#222222"/>
<path d="M10.2667 10.74C9.86171 10.74 9.53336 11.0684 9.53336 11.4734V13.6734C9.53336 14.0783 9.86171 14.4067 10.2667 14.4067C10.6717 14.4067 11 14.0783 11 13.6734V11.4734C11 11.0684 10.6717 10.74 10.2667 10.74Z" fill="#222222"/>
<path d="M9.53331 10.0067C9.53331 9.60173 9.20496 9.27338 8.79997 9.27338H6.59997C6.19499 9.27338 5.86664 9.60173 5.86664 10.0067C5.86664 10.4117 6.19499 10.74 6.59997 10.74H8.79997C9.20496 10.74 9.53331 10.4117 9.53331 10.0067Z" fill="#222222"/>
<path d="M11.7333 10.74H13.9333C14.3383 10.74 14.6666 10.4117 14.6666 10.0067C14.6666 9.60173 14.3383 9.27338 13.9333 9.27338H11.7333C11.3283 9.27338 11 9.60173 11 10.0067C11 10.4117 11.3283 10.74 11.7333 10.74Z" fill="#222222"/>
<path d="M45.1 12.94C46.5153 12.94 47.6666 11.7887 47.6666 10.3734C47.6666 8.95803 46.5153 7.8067 45.1 7.8067C43.6847 7.8067 42.5333 8.95803 42.5333 10.3734C42.5333 11.7887 43.6847 12.94 45.1 12.94ZM45.1 9.27337C45.7066 9.27337 46.2 9.76672 46.2 10.3734C46.2 10.98 45.7066 11.4734 45.1 11.4734C44.4933 11.4734 44 10.98 44 10.3734C44 9.76672 44.4933 9.27337 45.1 9.27337Z" fill="#222222"/>
<path d="M7.33334 19.5401C7.73835 19.5401 8.06667 19.2117 8.06667 18.8067C8.06667 18.4017 7.73835 18.0734 7.33334 18.0734C6.92833 18.0734 6.60001 18.4017 6.60001 18.8067C6.60001 19.2117 6.92833 19.5401 7.33334 19.5401Z" fill="#222222"/>
<path d="M48.4 19.5401C48.805 19.5401 49.1334 19.2117 49.1334 18.8067C49.1334 18.4017 48.805 18.0734 48.4 18.0734C47.995 18.0734 47.6667 18.4017 47.6667 18.8067C47.6667 19.2117 47.995 19.5401 48.4 19.5401Z" fill="#222222"/>
<path d="M22.7333 10.0067C23.1383 10.0067 23.4667 9.67838 23.4667 9.27337C23.4667 8.86836 23.1383 8.54004 22.7333 8.54004C22.3283 8.54004 22 8.86836 22 9.27337C22 9.67838 22.3283 10.0067 22.7333 10.0067Z" fill="#222222"/>
<path d="M44.9216 31.2107C46.4303 29.9944 48.0236 27.7017 46.957 23.7129C46.6191 22.449 45.7472 21.3664 44.5647 20.7425C41.9624 19.3699 39.5633 19.3618 38.3418 19.4847C37.9929 17.3505 36.34 15.6218 34.1568 15.2262C31.3054 14.7105 29.5275 16.6428 28.6277 18.4719C27.7301 17.2031 25.9624 15.6464 22.6919 15.6464C21.2747 15.6464 20.1366 16.1308 19.3098 17.0859C18.5676 17.943 18.1967 19.0628 18.0217 20.1212C12.5814 20.2268 8.50408 23.5693 8.33065 23.7138C8.16345 23.8531 8.06683 24.0596 8.06683 24.2772C8.06683 29.8758 10.8711 32.9978 12.219 34.1739C10.5162 36.2912 8.95252 38.9338 8.90595 41.5369C8.87112 43.4819 9.67137 45.1691 11.2845 46.5518C13.4807 48.4341 16.3321 49.3929 19.6619 49.3929C20.8833 49.3929 22.1699 49.2637 23.5108 49.0037C26.6851 48.3884 29.1933 47.2426 29.9231 46.8873C30.4509 47.2283 30.9709 47.4892 31.4132 47.6641C31.4497 47.6786 31.4873 47.6899 31.5254 47.6984C33.0957 48.0432 34.6023 48.1868 36.0252 48.1868C42.94 48.1862 47.8438 44.7933 48.0896 44.6198C48.2843 44.4823 48.4 44.259 48.4 44.0207V38.427C48.4 35.6354 47.1058 32.9639 44.9216 31.2107ZM43.8803 22.04C44.7023 22.4735 45.3073 23.2214 45.54 24.0918C46.0695 26.0716 46.1263 28.761 43.4687 30.4495C43.2824 30.377 42.8807 30.2071 42.3681 29.915C43.2984 29.3654 44.2117 28.3279 44.5691 26.5052C44.647 26.1078 44.3879 25.7224 43.9905 25.6445C43.5937 25.5673 43.2074 25.8258 43.1297 26.2231C42.9013 27.3889 42.3953 28.2055 41.626 28.65C41.3723 28.7967 41.1273 28.8792 40.9315 28.926C40.2884 28.398 39.6205 27.7176 39.0425 26.8563C39.0791 26.6975 39.1116 26.5364 39.1389 26.3725C39.5531 23.888 39.5146 22.0581 39.0265 20.9134C40.1527 20.8758 41.9602 21.0272 43.8803 22.04ZM29.0242 40.2413C29.9904 39.0967 30.375 37.3659 30.1669 35.0854C31.8382 34.4844 36.5688 32.4795 38.456 28.5208C38.8832 29.0394 39.332 29.487 39.776 29.8709C40.3196 33.2532 37.7102 36.6995 35.0471 38.4749C33.2638 39.6638 30.6464 40.0891 29.0242 40.2413ZM17.9595 35.2169C17.2775 33.9234 17.2366 32.421 17.835 30.7378C18.409 31.4926 19.2911 32.4989 20.4677 33.4022C22.3674 34.8606 24.4462 35.5971 26.6084 35.5971C27.3038 35.5971 28.0082 35.5181 28.7177 35.3652C28.8601 37.1705 28.5729 38.5348 27.8742 39.3332C27.3891 39.8875 26.8141 40.0499 26.5133 40.0977C24.2392 39.6068 19.5611 38.2543 17.9595 35.2169ZM19.2111 23.8119C19.2331 23.7901 19.2494 23.7642 19.2683 23.7402C19.5904 23.469 20.8221 22.5716 22.7859 22.7689C22.3454 23.4604 22.0455 24.2544 21.8973 25.144C21.6075 26.8829 22.211 27.8989 22.8837 28.4794C22.9684 29.649 23.6427 30.6387 24.8037 31.2851C25.7011 31.7847 26.8061 32.0366 27.8665 32.0366C28.8491 32.0366 29.7939 31.8201 30.498 31.3835C33.5058 29.5194 35.2156 27.5884 35.5799 25.6441C35.8175 24.3767 35.4968 23.1486 34.6269 21.9932C34.3977 21.6891 34.1379 21.4108 33.8547 21.1587C35.8318 20.4131 37.0485 20.9601 37.1004 20.9845C37.1804 21.0245 37.2665 21.0494 37.3553 21.0582C37.442 21.1062 38.419 21.7714 37.6924 26.131C36.9983 30.2951 32.3422 32.6304 30.2174 33.4902C30.0855 33.4624 29.9449 33.469 29.8094 33.5199C26.8019 34.6476 23.9721 34.2261 21.3979 32.267C19.6557 30.9412 18.6059 29.317 18.3729 28.9357C18.355 28.8911 18.3339 28.8477 18.3071 28.8068C18.2404 28.7052 16.7022 26.2911 19.2111 23.8119ZM29.0611 21.0551C30.8026 20.8916 32.487 21.5899 33.455 22.8756C34.0668 23.6879 34.2967 24.5285 34.1383 25.3739C33.8529 26.8961 32.3682 28.4986 29.7253 30.1367C28.7247 30.7567 26.758 30.6944 25.5171 30.0034C25.1634 29.8065 24.8888 29.5759 24.6943 29.3133C26.9106 29.7552 29.7323 28.8253 30.8918 27.4771C31.6017 26.6517 31.6879 25.6969 31.1283 24.8574C30.4729 23.8742 29.6441 23.3264 28.6654 23.2296C26.7868 23.0433 25.1332 24.6761 25.0637 24.7458C24.7773 25.0321 24.7773 25.4965 25.0637 25.7829C25.35 26.0693 25.8146 26.0693 26.1006 25.7829C26.1127 25.7708 27.3453 24.5723 28.5208 24.6891C29.0484 24.7414 29.5022 25.0626 29.9077 25.6711C30.0443 25.876 30.1235 26.121 29.7796 26.5208C28.8299 27.6252 25.8859 28.402 24.288 27.6542C23.4624 27.2679 23.1535 26.5256 23.3438 25.3849C23.5246 24.3006 23.9765 23.4784 24.5848 22.8563C24.618 22.8296 24.6481 22.799 24.6765 22.7665C25.8549 21.628 27.5726 21.1941 29.0611 21.0551ZM33.8954 16.6696C35.3456 16.9323 36.4676 18.0173 36.8232 19.3934C35.8992 19.2267 34.344 19.2115 32.4007 20.2013C31.5885 19.8163 30.6841 19.595 29.7493 19.5684C30.256 18.3188 31.4787 16.2314 33.8954 16.6696ZM20.4206 18.0438C20.964 17.4176 21.7068 17.1132 22.6919 17.1132C25.8153 17.1132 27.1903 18.7785 27.7303 19.7631C26.1653 20.0611 24.88 20.6404 23.9105 21.4742C21.886 20.9957 20.3293 21.4537 19.3481 21.9536C19.3431 20.7966 19.5114 19.0914 20.4206 18.0438ZM9.53753 24.6343C10.4758 23.9398 13.7758 21.7268 17.8851 21.5897C17.8686 22.1949 17.8996 22.7055 17.9289 23.0283C16.4028 24.6794 16.2182 26.3283 16.3438 27.4441C16.4327 28.2363 16.6824 28.8611 16.8694 29.2369C16.7884 29.4098 16.7139 29.5814 16.6434 29.7519C16.6155 29.7686 16.5873 29.784 16.5612 29.8049C16.4212 29.9165 14.8509 31.1808 13.1686 33.0568C12.0204 32.0545 9.65083 29.4131 9.53753 24.6343ZM12.239 45.4384C10.9564 44.339 10.3457 43.0721 10.3723 41.5653C10.4339 38.0627 13.9141 34.2446 15.9793 32.2822C15.8556 33.5139 16.0569 34.667 16.5807 35.7337C16.5273 35.7564 16.4754 35.7835 16.427 35.8198C16.2741 35.9344 12.6846 38.6696 12.9558 42.508C12.9831 42.8945 13.305 43.1897 13.6866 43.1897C13.704 43.1897 13.7214 43.1891 13.739 43.1878C14.1429 43.1592 14.4472 42.8087 14.4188 42.4046C14.2043 39.3708 17.2762 37.0163 17.3072 36.9928C17.3232 36.9809 17.3356 36.966 17.3503 36.953C19.505 39.6823 23.6084 40.9521 25.9165 41.4735C26.0243 41.5402 26.1494 41.5822 26.2852 41.5849C26.288 41.5849 26.2933 41.5851 26.301 41.5851C26.3221 41.5851 26.362 41.5844 26.4169 41.5813C26.571 41.6128 26.7135 41.6403 26.8415 41.664C26.6873 43.4031 27.5335 44.8217 28.6247 45.8669C25.978 47.0182 17.6337 50.0628 12.239 45.4384ZM46.9333 43.6232C45.5158 44.5045 39.411 47.9015 31.9038 46.2803C31.6708 46.1804 30.6621 45.7217 29.7675 44.9275C28.6856 43.967 28.1963 42.9064 28.3059 41.7686C29.0713 41.7274 30.336 41.6154 31.7128 41.3164C31.9592 41.7105 32.6412 42.6358 33.9509 43.2918C34.9826 43.8084 36.0956 44.0088 37.2022 44.0088C38.9611 44.0088 40.7033 43.5022 42.0722 42.9546C42.4484 42.8043 42.6312 42.3775 42.4809 42.0015C42.3304 41.6251 41.9036 41.4429 41.5277 41.5928C36.315 43.6779 34.0003 41.8383 33.2271 40.9147C34.1533 40.619 35.0678 40.2241 35.8607 39.6955C37.4829 38.6142 38.918 37.12 39.9014 35.4887C40.795 34.0063 41.2718 32.4764 41.3123 30.9949C42.3062 31.605 43.0567 31.8626 43.1196 31.8835C43.1964 31.9092 43.2747 31.9213 43.3517 31.9213C43.3752 31.9213 43.3983 31.918 43.4216 31.9158L43.7666 32.1717C45.7495 33.6411 46.9333 35.9797 46.9333 38.4274V43.6232Z" fill="#222222"/>
</svg>
