<svg width="57" height="56" viewBox="0 0 57 56" fill="none" xmlns="http://www.w3.org/2000/svg">
<path d="M21.2667 44.74C29.9744 44.74 37.0333 37.6811 37.0333 28.9734C37.0333 20.2657 29.9744 13.2067 21.2667 13.2067C12.559 13.2067 5.5 20.2657 5.5 28.9734C5.5 37.6811 12.559 44.74 21.2667 44.74Z" fill="#FFABAE"/>
<path d="M10.6333 10.2734C10.2283 10.2734 9.89999 9.94502 9.89999 9.54004V7.34004C9.89999 6.93505 10.2283 6.6067 10.6333 6.6067C11.0383 6.6067 11.3667 6.93505 11.3667 7.34004V9.54004C11.3667 9.94502 11.0383 10.2734 10.6333 10.2734Z" fill="#FFABAE"/>
<path d="M10.6333 15.4067C10.2283 15.4067 9.89999 15.0783 9.89999 14.6734V12.4734C9.89999 12.0684 10.2283 11.74 10.6333 11.74C11.0383 11.74 11.3667 12.0684 11.3667 12.4734V14.6734C11.3667 15.0783 11.0383 15.4067 10.6333 15.4067Z" fill="#FFABAE"/>
<path d="M9.16667 11.74H6.96667C6.56169 11.74 6.23334 11.4117 6.23334 11.0067C6.23334 10.6017 6.56169 10.2734 6.96667 10.2734H9.16667C9.57166 10.2734 9.90001 10.6017 9.90001 11.0067C9.90001 11.4117 9.57166 11.74 9.16667 11.74Z" fill="#FFABAE"/>
<path d="M14.3 11.74H12.1C11.695 11.74 11.3667 11.4117 11.3667 11.0067C11.3667 10.6017 11.695 10.2734 12.1 10.2734H14.3C14.705 10.2734 15.0333 10.6017 15.0333 11.0067C15.0333 11.4117 14.705 11.74 14.3 11.74Z" fill="#FFABAE"/>
<path d="M45.4667 13.94C44.0513 13.94 42.9 12.7887 42.9 11.3734C42.9 9.95803 44.0513 8.8067 45.4667 8.8067C46.882 8.8067 48.0333 9.95803 48.0333 11.3734C48.0333 12.7887 46.8818 13.94 45.4667 13.94ZM45.4667 10.2734C44.86 10.2734 44.3667 10.7667 44.3667 11.3734C44.3667 11.98 44.86 12.4734 45.4667 12.4734C46.0733 12.4734 46.5667 11.98 46.5667 11.3734C46.5667 10.7667 46.0731 10.2734 45.4667 10.2734Z" fill="#FFABAE"/>
<path d="M7.70001 20.54C8.10502 20.54 8.43334 20.2117 8.43334 19.8067C8.43334 19.4017 8.10502 19.0734 7.70001 19.0734C7.295 19.0734 6.96667 19.4017 6.96667 19.8067C6.96667 20.2117 7.295 20.54 7.70001 20.54Z" fill="#FFABAE"/>
<path d="M48.7667 20.54C49.1717 20.54 49.5 20.2117 49.5 19.8067C49.5 19.4017 49.1717 19.0734 48.7667 19.0734C48.3617 19.0734 48.0333 19.4017 48.0333 19.8067C48.0333 20.2117 48.3617 20.54 48.7667 20.54Z" fill="#FFABAE"/>
<path d="M23.1 11.0067C23.505 11.0067 23.8333 10.6784 23.8333 10.2734C23.8333 9.86835 23.505 9.54002 23.1 9.54002C22.695 9.54002 22.3667 9.86835 22.3667 10.2734C22.3667 10.6784 22.695 11.0067 23.1 11.0067Z" fill="#FFABAE"/>
<path d="M13.6695 35.0938C13.6695 35.0938 9.16666 32.1877 9.16666 25.2774C9.16666 25.2774 15.0898 20.3415 22 22.3158L21.0127 34.1619L13.6695 35.0938Z" fill="#FFABAE"/>
<path d="M13.6695 35.8271C13.5291 35.8271 13.3908 35.7868 13.2719 35.71C13.0742 35.5825 8.43332 32.5042 8.43332 25.2774C8.43332 25.0598 8.52994 24.8533 8.69714 24.714C8.95105 24.5022 15.002 19.5537 22.2013 21.6107C22.5381 21.707 22.7597 22.0278 22.7308 22.3767L21.7437 34.2228C21.7149 34.5678 21.4487 34.8457 21.1053 34.8894L13.7619 35.8212C13.7311 35.8251 13.7003 35.8271 13.6695 35.8271ZM9.9042 25.6354C10.0335 31.0027 13.0476 33.6968 13.8649 34.3298L20.3315 33.5092L21.2177 22.8719C15.8088 21.6349 11.0625 24.7829 9.9042 25.6354Z" fill="#FFABAE"/>
<path d="M30.1648 47.1307C30.1648 47.1307 19.0386 52.9184 12.1282 46.9954C5.21785 41.0725 17.3848 31.3787 17.3848 31.3787C17.3848 31.3787 36.355 30.484 30.1648 47.1307Z" fill="#FFABAE"/>
<path d="M20.0285 50.3933C16.6986 50.3933 13.847 49.4345 11.651 47.5522C10.0379 46.1695 9.23765 44.4823 9.27248 42.5373C9.37387 36.8877 16.6194 31.0509 16.9279 30.8051C17.0484 30.709 17.1963 30.6533 17.3503 30.6461C17.7256 30.6278 26.5962 30.2725 30.4391 35.5325C32.5589 38.4345 32.6981 42.4227 30.8523 47.3863C30.7889 47.5566 30.6647 47.6974 30.5034 47.7814C30.3859 47.8424 27.5849 49.2856 23.8776 50.0043C22.5363 50.2641 21.2498 50.3933 20.0285 50.3933ZM17.6558 32.1058C16.542 33.0412 10.818 38.0658 10.7388 42.5654C10.712 44.0722 11.3229 45.3392 12.6055 46.4385C18.503 51.4937 27.9279 47.3832 29.5772 46.6016C31.1363 42.2601 31.0288 38.8294 29.2569 36.401C26.2039 32.2166 19.0484 32.0895 17.6558 32.1058ZM30.1648 47.1307H30.1666H30.1648Z" fill="#FFABAE"/>
<path d="M28.0533 42.0595C28.0533 42.0595 13.0684 40.0852 18.0633 30.2134C18.0633 30.2134 16.0653 27.2519 19.0623 24.2903C19.0623 24.2903 18.0633 17.3801 23.0582 17.3801C28.0531 17.3801 29.1093 21.2735 29.1093 21.2735C29.1093 21.2735 30.3246 16.211 34.3926 16.9482C36.5154 17.3328 38.0433 19.1962 38.0433 21.3289C38.0433 23.4616 41.1292 20.5666 44.589 22.3915C45.586 22.9173 46.3263 23.823 46.6151 24.9026C47.1416 26.8715 47.3933 30.1982 44.0372 32.1879L44.5698 32.5827C46.7502 34.1982 48.0333 36.7342 48.0333 39.4274V45.0211C48.0333 45.0211 41.0403 49.957 32.0494 47.9827C32.0494 47.9825 27.0543 46.0082 28.0533 42.0595Z" fill="#FFABAE"/>
<path d="M36.3919 49.1871C34.969 49.1871 33.4624 49.0436 31.8921 48.6987C31.854 48.6903 31.8164 48.6789 31.7799 48.6645C29.9886 47.9564 26.926 45.8444 27.208 42.664C25.0837 42.2716 19.1089 40.8414 17.0302 36.9036C16.0036 34.9588 16.073 32.7176 17.2359 30.2371C17.0487 29.8614 16.7992 29.2365 16.7103 28.4443C16.5847 27.3283 16.7693 25.6796 18.2954 24.0285C18.1997 22.9743 18.0837 19.9255 19.6761 18.0863C20.5031 17.1311 21.6411 16.6468 23.0582 16.6468C26.3287 16.6468 28.0964 18.2035 28.994 19.4723C29.8938 17.6432 31.6718 15.7109 34.5231 16.2266C36.7063 16.622 38.3592 18.3507 38.7081 20.485C39.9293 20.3622 42.3286 20.3703 44.931 21.7429C46.1135 22.3666 46.9854 23.4494 47.3233 24.7133C48.3899 28.702 46.7966 30.9948 45.2879 32.211C47.4725 33.9639 48.7667 36.6354 48.7667 39.4274V45.0211C48.7667 45.2594 48.6508 45.4829 48.4563 45.6202C48.2103 45.7936 43.3065 49.1866 36.3919 49.1871ZM32.2705 47.2801C39.7777 48.9015 45.8823 45.5043 47.3 44.6231V39.4272C47.3 36.9795 46.1162 34.6409 44.1333 33.1713L43.6009 32.7766C43.4036 32.6305 43.2925 32.3951 43.3052 32.15C43.3178 31.9047 43.4524 31.6821 43.6636 31.5567C46.4974 29.8765 46.4477 27.1136 45.9069 25.0917C45.6742 24.2212 45.0694 23.4734 44.2471 23.0398C41.0967 21.3782 38.2459 22.0346 38.2169 22.041C37.9982 22.0932 37.7669 22.0432 37.5907 21.904C37.4143 21.7649 37.3102 21.553 37.3102 21.3284C37.3102 19.5282 36.0283 17.9893 34.2621 17.6694C30.9296 17.0651 29.8661 21.2666 29.8223 21.4457C29.7429 21.7708 29.4534 22.0016 29.119 22.0058C29.1159 22.0058 29.1128 22.0058 29.1095 22.0058C28.779 22.0058 28.4884 21.7851 28.4018 21.4651C28.3641 21.332 27.401 18.1131 23.0584 18.1131C22.0734 18.1131 21.3305 18.4174 20.7871 19.0437C19.3173 20.7373 19.7832 24.1515 19.7881 24.1858C19.8209 24.4157 19.743 24.6484 19.5778 24.8115C17.0689 27.2907 18.6071 29.7051 18.6736 29.8066C18.8177 30.0261 18.8362 30.3099 18.7176 30.5442C17.6185 32.7163 17.4867 34.6246 18.326 36.2165C20.4622 40.268 28.0728 41.322 28.1494 41.332C28.3569 41.3595 28.5428 41.4743 28.6602 41.6477C28.7777 41.821 28.8156 42.036 28.7641 42.239C28.4251 43.5782 28.886 44.819 30.134 45.9269C31.0288 46.7215 32.0377 47.1802 32.2705 47.2801Z" fill="#FFABAE"/>
<path d="M28.233 33.0366C27.1726 33.0366 26.0674 32.7847 25.1702 32.2851C24.0092 31.6387 23.3348 30.6491 23.2501 29.4794C22.5775 28.899 21.974 27.8829 22.2638 26.144C22.798 22.9388 25.2938 20.968 29.2914 20.5947C31.537 20.3857 33.7214 21.3042 34.9934 22.9932C35.8633 24.1484 36.184 25.3768 35.9464 26.6441C35.5823 28.5882 33.8725 30.5193 30.8645 32.3836C30.1602 32.8201 29.2156 33.0366 28.233 33.0366ZM25.0608 30.3137C25.2555 30.5763 25.5301 30.8069 25.8835 31.0038C27.1247 31.6948 29.0911 31.7571 30.0918 31.1371C32.7347 29.4988 34.2195 27.8965 34.5048 26.3743C34.6632 25.5289 34.4333 24.6883 33.8215 23.876C32.8535 22.5905 31.17 21.892 29.4276 22.0555C27.1126 22.2715 24.2416 23.198 23.7101 26.3855C23.52 27.5262 23.8287 28.2685 24.6543 28.6547C26.252 29.4026 29.1962 28.6258 30.1459 27.5214C30.4898 27.1215 30.4106 26.8766 30.274 26.6716C29.8683 26.0632 29.4146 25.742 28.8871 25.6897C27.7116 25.5729 26.479 26.7712 26.4669 26.7835C26.1807 27.0698 25.7163 27.0698 25.43 26.7835C25.1436 26.4971 25.1436 26.0327 25.43 25.7464C25.4995 25.6769 27.1539 24.0441 29.0318 24.2302C30.0104 24.327 30.8391 24.8748 31.4947 25.858C32.0542 26.6973 31.968 27.6521 31.2582 28.4777C30.0988 29.8257 27.2769 30.7554 25.0608 30.3137Z" fill="#FFABAE"/>
<path d="M27.923 42.7929C27.518 42.7929 27.1896 42.4645 27.1896 42.0595C27.1896 41.6546 27.518 41.3262 27.923 41.3262C27.9899 41.326 32.6816 41.2965 35.4136 39.4751C38.0848 37.6942 40.7028 34.2325 40.1383 30.8405C40.0717 30.441 40.3416 30.0631 40.7413 29.9966C41.1404 29.9291 41.5184 30.2001 41.585 30.5996C41.9012 32.4985 41.4455 34.535 40.2677 36.4886C39.2843 38.1199 37.8492 39.6139 36.2271 40.6954C33.1168 42.769 28.1336 42.7929 27.923 42.7929Z" fill="#FFABAE"/>
<path d="M43.7182 32.9211C43.6412 32.9211 43.5629 32.909 43.4861 32.8833C43.3554 32.8397 40.2617 31.7804 38.172 28.6456C37.9473 28.3086 38.0384 27.8532 38.3753 27.6286C38.7123 27.4035 39.1677 27.4952 39.3923 27.832C41.206 30.5526 43.9226 31.4827 43.9498 31.4917C44.334 31.6198 44.5418 32.0351 44.4136 32.4193C44.3113 32.7268 44.0249 32.9211 43.7182 32.9211Z" fill="#FFABAE"/>
<path d="M26.6677 42.5851C26.66 42.5851 26.6547 42.5851 26.6519 42.585C26.2471 42.5769 25.9254 42.2419 25.9336 41.837C25.9417 41.4371 26.2684 41.1185 26.6664 41.1185H26.6747C26.7258 41.1181 27.5704 41.0994 28.2409 40.3334C29.0263 39.4358 29.2932 37.8243 29.0123 35.6733C28.9658 35.3165 29.185 34.9785 29.5299 34.8756C29.6054 34.8529 37.1593 32.5271 38.0587 27.1311C38.7853 22.7712 37.8083 22.1061 37.7216 22.0582C37.633 22.0494 37.5467 22.0243 37.4668 21.9845C37.4061 21.9561 35.7594 21.2136 33.1672 22.6489C32.8132 22.8451 32.3668 22.7169 32.1704 22.3626C31.9741 22.0082 32.1024 21.5619 32.4568 21.3658C35.3636 19.7563 37.464 20.4036 37.9946 20.6165C38.23 20.6616 38.6192 20.8006 38.9783 21.2244C39.8385 22.2401 40.0158 24.3085 39.5052 27.3723C38.6053 32.773 32.4839 35.384 30.5335 36.0854C30.747 38.4271 30.3377 40.1912 29.3134 41.3339C28.2275 42.5463 26.8398 42.5851 26.6677 42.5851ZM37.7922 22.0621H37.7949C37.794 22.0621 37.7931 22.0621 37.7922 22.0621ZM37.7909 22.0621H37.7922C37.7918 22.0621 37.7913 22.0621 37.7909 22.0621ZM37.7898 22.0621H37.7909C37.7905 22.0621 37.7902 22.0621 37.7898 22.0621ZM37.7889 22.0621H37.7894C37.7892 22.0621 37.7891 22.0621 37.7889 22.0621Z" fill="#FFABAE"/>
<path d="M26.9749 36.5971C24.8127 36.5971 22.7339 35.8607 20.8342 34.4022C18.6324 32.7119 17.4612 30.6599 17.4125 30.5733C17.2135 30.2206 17.3384 29.7733 17.6911 29.5743C18.0442 29.3756 18.4906 29.5001 18.6896 29.8521C18.7004 29.871 19.7863 31.7617 21.7642 33.2669C24.3384 35.2261 27.1684 35.6476 30.1758 34.5198C30.5545 34.3769 30.9778 34.5698 31.1197 34.9489C31.2618 35.3281 31.0699 35.7508 30.6906 35.8929C29.4375 36.3634 28.193 36.5971 26.9749 36.5971Z" fill="#FFABAE"/>
<path d="M19.0395 25.0207C18.8494 25.0207 18.6597 24.9475 18.5163 24.8014C18.2343 24.5134 18.2356 24.0538 18.5216 23.7698C18.6166 23.6754 20.8918 21.4723 24.6956 22.5838C25.0844 22.6973 25.3075 23.1045 25.194 23.4933C25.0804 23.8822 24.6734 24.1051 24.2845 23.9916C21.3393 23.1313 19.6231 24.745 19.5516 24.8141C19.409 24.9519 19.2242 25.0207 19.0395 25.0207Z" fill="#FFABAE"/>
<path d="M37.5689 45.0084C36.4623 45.0084 35.3493 44.8081 34.3176 44.2914C32.65 43.4563 31.9966 42.1803 31.9697 42.1264C31.7884 41.7642 31.9349 41.3236 32.2969 41.1423C32.657 40.9619 33.0957 41.1062 33.2787 41.4651C33.3661 41.632 35.3421 45.2132 41.8943 42.5925C42.2703 42.4425 42.6971 42.6247 42.8474 43.0011C42.9977 43.3771 42.8149 43.8039 42.4387 43.9543C41.0698 44.5019 39.3276 45.0084 37.5689 45.0084Z" fill="#FFABAE"/>
<path d="M14.0532 44.1897C13.6717 44.1897 13.3498 43.8945 13.3225 43.508C13.0513 39.6694 16.6408 36.9345 16.7937 36.8199C17.1178 36.577 17.5775 36.643 17.8204 36.9673C18.0629 37.291 17.9975 37.7501 17.6741 37.993C17.6431 38.0165 14.5712 40.371 14.7857 43.4048C14.8141 43.8089 14.5097 44.1594 14.1059 44.188C14.0881 44.1891 14.0707 44.1897 14.0532 44.1897Z" fill="#FFABAE"/>
<path d="M40.903 31.4539C40.883 31.4539 40.8632 31.4537 40.8437 31.4531C40.4388 31.443 40.1187 31.1068 40.1287 30.7018C40.1386 30.3031 40.465 29.9866 40.8615 29.9866H40.8733C40.8962 29.9865 41.4227 29.9791 41.9925 29.6499C42.7618 29.2055 43.2678 28.3889 43.4962 27.2229C43.5741 26.8256 43.9604 26.5671 44.357 26.6443C44.7544 26.7222 45.0135 27.1076 44.9356 27.505C44.3216 30.6382 42.0646 31.4539 40.903 31.4539Z" fill="#FFABAE"/>
<path d="M12.2667 9.27337C12.6717 9.27337 13 8.94502 13 8.54004V6.34004C13 5.93505 12.6717 5.6067 12.2667 5.6067C11.8617 5.6067 11.5334 5.93505 11.5334 6.34004V8.54004C11.5334 8.94502 11.8617 9.27337 12.2667 9.27337Z" fill="#222222"/>
<path d="M12.2667 10.74C11.8617 10.74 11.5334 11.0684 11.5334 11.4734V13.6734C11.5334 14.0783 11.8617 14.4067 12.2667 14.4067C12.6717 14.4067 13 14.0783 13 13.6734V11.4734C13 11.0684 12.6717 10.74 12.2667 10.74Z" fill="#222222"/>
<path d="M11.5333 10.0067C11.5333 9.60173 11.205 9.27338 10.8 9.27338H8.59997C8.19499 9.27338 7.86664 9.60173 7.86664 10.0067C7.86664 10.4117 8.19499 10.74 8.59997 10.74H10.8C11.205 10.74 11.5333 10.4117 11.5333 10.0067Z" fill="#222222"/>
<path d="M13.7333 10.74H15.9333C16.3383 10.74 16.6666 10.4117 16.6666 10.0067C16.6666 9.60173 16.3383 9.27338 15.9333 9.27338H13.7333C13.3283 9.27338 13 9.60173 13 10.0067C13 10.4117 13.3283 10.74 13.7333 10.74Z" fill="#222222"/>
<path d="M47.1 12.94C48.5153 12.94 49.6666 11.7887 49.6666 10.3734C49.6666 8.95803 48.5153 7.8067 47.1 7.8067C45.6847 7.8067 44.5333 8.95803 44.5333 10.3734C44.5333 11.7887 45.6847 12.94 47.1 12.94ZM47.1 9.27337C47.7066 9.27337 48.2 9.76672 48.2 10.3734C48.2 10.98 47.7066 11.4734 47.1 11.4734C46.4933 11.4734 46 10.98 46 10.3734C46 9.76672 46.4933 9.27337 47.1 9.27337Z" fill="#222222"/>
<path d="M9.33334 19.5401C9.73835 19.5401 10.0667 19.2117 10.0667 18.8067C10.0667 18.4017 9.73835 18.0734 9.33334 18.0734C8.92833 18.0734 8.60001 18.4017 8.60001 18.8067C8.60001 19.2117 8.92833 19.5401 9.33334 19.5401Z" fill="#222222"/>
<path d="M50.4 19.5401C50.805 19.5401 51.1334 19.2117 51.1334 18.8067C51.1334 18.4017 50.805 18.0734 50.4 18.0734C49.995 18.0734 49.6667 18.4017 49.6667 18.8067C49.6667 19.2117 49.995 19.5401 50.4 19.5401Z" fill="#222222"/>
<path d="M24.7333 10.0067C25.1383 10.0067 25.4667 9.67838 25.4667 9.27337C25.4667 8.86836 25.1383 8.54004 24.7333 8.54004C24.3283 8.54004 24 8.86836 24 9.27337C24 9.67838 24.3283 10.0067 24.7333 10.0067Z" fill="#222222"/>
<path d="M46.9216 31.2107C48.4303 29.9944 50.0236 27.7017 48.957 23.7129C48.6191 22.449 47.7472 21.3664 46.5647 20.7425C43.9624 19.3699 41.5633 19.3618 40.3418 19.4847C39.9929 17.3505 38.34 15.6218 36.1568 15.2262C33.3054 14.7105 31.5275 16.6428 30.6277 18.4719C29.7301 17.2031 27.9624 15.6464 24.6919 15.6464C23.2747 15.6464 22.1366 16.1308 21.3098 17.0859C20.5676 17.943 20.1967 19.0628 20.0217 20.1212C14.5814 20.2268 10.5041 23.5693 10.3307 23.7138C10.1635 23.8531 10.0668 24.0596 10.0668 24.2772C10.0668 29.8758 12.8711 32.9978 14.219 34.1739C12.5162 36.2912 10.9525 38.9338 10.906 41.5369C10.8711 43.4819 11.6714 45.1691 13.2845 46.5518C15.4807 48.4341 18.3321 49.3929 21.6619 49.3929C22.8833 49.3929 24.1699 49.2637 25.5108 49.0037C28.6851 48.3884 31.1933 47.2426 31.9231 46.8873C32.4509 47.2283 32.9709 47.4892 33.4132 47.6641C33.4497 47.6786 33.4873 47.6899 33.5254 47.6984C35.0957 48.0432 36.6023 48.1868 38.0252 48.1868C44.94 48.1862 49.8438 44.7933 50.0896 44.6198C50.2843 44.4823 50.4 44.259 50.4 44.0207V38.427C50.4 35.6354 49.1058 32.9639 46.9216 31.2107ZM45.8803 22.04C46.7023 22.4735 47.3073 23.2214 47.54 24.0918C48.0695 26.0716 48.1263 28.761 45.4687 30.4495C45.2824 30.377 44.8807 30.2071 44.3681 29.915C45.2984 29.3654 46.2117 28.3279 46.5691 26.5052C46.647 26.1078 46.3879 25.7224 45.9905 25.6445C45.5937 25.5673 45.2074 25.8258 45.1297 26.2231C44.9013 27.3889 44.3953 28.2055 43.626 28.65C43.3723 28.7967 43.1273 28.8792 42.9315 28.926C42.2884 28.398 41.6205 27.7176 41.0425 26.8563C41.0791 26.6975 41.1116 26.5364 41.1389 26.3725C41.5531 23.888 41.5146 22.0581 41.0265 20.9134C42.1527 20.8758 43.9602 21.0272 45.8803 22.04ZM31.0242 40.2413C31.9904 39.0967 32.375 37.3659 32.1669 35.0854C33.8382 34.4844 38.5688 32.4795 40.456 28.5208C40.8832 29.0394 41.332 29.487 41.776 29.8709C42.3196 33.2532 39.7102 36.6995 37.0471 38.4749C35.2638 39.6638 32.6464 40.0891 31.0242 40.2413ZM19.9595 35.2169C19.2775 33.9234 19.2366 32.421 19.835 30.7378C20.409 31.4926 21.2911 32.4989 22.4677 33.4022C24.3674 34.8606 26.4462 35.5971 28.6084 35.5971C29.3038 35.5971 30.0082 35.5181 30.7177 35.3652C30.8601 37.1705 30.5729 38.5348 29.8742 39.3332C29.3891 39.8875 28.8141 40.0499 28.5133 40.0977C26.2392 39.6068 21.5611 38.2543 19.9595 35.2169ZM21.2111 23.8119C21.2331 23.7901 21.2494 23.7642 21.2683 23.7402C21.5904 23.469 22.8221 22.5716 24.7859 22.7689C24.3454 23.4604 24.0455 24.2544 23.8973 25.144C23.6075 26.8829 24.211 27.8989 24.8837 28.4794C24.9684 29.649 25.6427 30.6387 26.8037 31.2851C27.7011 31.7847 28.8061 32.0366 29.8665 32.0366C30.8491 32.0366 31.7939 31.8201 32.498 31.3835C35.5058 29.5194 37.2156 27.5884 37.5799 25.6441C37.8175 24.3767 37.4968 23.1486 36.6269 21.9932C36.3977 21.6891 36.1379 21.4108 35.8547 21.1587C37.8318 20.4131 39.0485 20.9601 39.1004 20.9845C39.1804 21.0245 39.2665 21.0494 39.3553 21.0582C39.442 21.1062 40.419 21.7714 39.6924 26.131C38.9983 30.2951 34.3422 32.6304 32.2174 33.4902C32.0855 33.4624 31.9449 33.469 31.8094 33.5199C28.8019 34.6476 25.9721 34.2261 23.3979 32.267C21.6557 30.9412 20.6059 29.317 20.3729 28.9357C20.355 28.8911 20.3339 28.8477 20.3071 28.8068C20.2404 28.7052 18.7022 26.2911 21.2111 23.8119ZM31.0611 21.0551C32.8026 20.8916 34.487 21.5899 35.455 22.8756C36.0668 23.6879 36.2967 24.5285 36.1383 25.3739C35.8529 26.8961 34.3682 28.4986 31.7253 30.1367C30.7247 30.7567 28.758 30.6944 27.5171 30.0034C27.1634 29.8065 26.8888 29.5759 26.6943 29.3133C28.9106 29.7552 31.7323 28.8253 32.8918 27.4771C33.6017 26.6517 33.6879 25.6969 33.1283 24.8574C32.4729 23.8742 31.6441 23.3264 30.6654 23.2296C28.7868 23.0433 27.1332 24.6761 27.0637 24.7458C26.7773 25.0321 26.7773 25.4965 27.0637 25.7829C27.35 26.0693 27.8146 26.0693 28.1006 25.7829C28.1127 25.7708 29.3453 24.5723 30.5208 24.6891C31.0484 24.7414 31.5022 25.0626 31.9077 25.6711C32.0443 25.876 32.1235 26.121 31.7796 26.5208C30.8299 27.6252 27.8859 28.402 26.288 27.6542C25.4624 27.2679 25.1535 26.5256 25.3438 25.3849C25.5246 24.3006 25.9765 23.4784 26.5848 22.8563C26.618 22.8296 26.6481 22.799 26.6765 22.7665C27.8549 21.628 29.5726 21.1941 31.0611 21.0551ZM35.8954 16.6696C37.3456 16.9323 38.4676 18.0173 38.8232 19.3934C37.8992 19.2267 36.344 19.2115 34.4007 20.2013C33.5885 19.8163 32.6841 19.595 31.7493 19.5684C32.256 18.3188 33.4787 16.2314 35.8954 16.6696ZM22.4206 18.0438C22.964 17.4176 23.7068 17.1132 24.6919 17.1132C27.8153 17.1132 29.1903 18.7785 29.7303 19.7631C28.1653 20.0611 26.88 20.6404 25.9105 21.4742C23.886 20.9957 22.3293 21.4537 21.3481 21.9536C21.3431 20.7966 21.5114 19.0914 22.4206 18.0438ZM11.5375 24.6343C12.4758 23.9398 15.7758 21.7268 19.8851 21.5897C19.8686 22.1949 19.8996 22.7055 19.9289 23.0283C18.4028 24.6794 18.2182 26.3283 18.3438 27.4441C18.4327 28.2363 18.6824 28.8611 18.8694 29.2369C18.7884 29.4098 18.7139 29.5814 18.6434 29.7519C18.6155 29.7686 18.5873 29.784 18.5612 29.8049C18.4212 29.9165 16.8509 31.1808 15.1686 33.0568C14.0204 32.0545 11.6508 29.4131 11.5375 24.6343ZM14.239 45.4384C12.9564 44.339 12.3457 43.0721 12.3723 41.5653C12.4339 38.0627 15.9141 34.2446 17.9793 32.2822C17.8556 33.5139 18.0569 34.667 18.5807 35.7337C18.5273 35.7564 18.4754 35.7835 18.427 35.8198C18.2741 35.9344 14.6846 38.6696 14.9558 42.508C14.9831 42.8945 15.305 43.1897 15.6866 43.1897C15.704 43.1897 15.7214 43.1891 15.739 43.1878C16.1429 43.1592 16.4472 42.8087 16.4188 42.4046C16.2043 39.3708 19.2762 37.0163 19.3072 36.9928C19.3232 36.9809 19.3356 36.966 19.3503 36.953C21.505 39.6823 25.6084 40.9521 27.9165 41.4735C28.0243 41.5402 28.1494 41.5822 28.2852 41.5849C28.288 41.5849 28.2933 41.5851 28.301 41.5851C28.3221 41.5851 28.362 41.5844 28.4169 41.5813C28.571 41.6128 28.7135 41.6403 28.8415 41.664C28.6873 43.4031 29.5335 44.8217 30.6247 45.8669C27.978 47.0182 19.6337 50.0628 14.239 45.4384ZM48.9333 43.6232C47.5158 44.5045 41.411 47.9015 33.9038 46.2803C33.6708 46.1804 32.6621 45.7217 31.7675 44.9275C30.6856 43.967 30.1963 42.9064 30.3059 41.7686C31.0713 41.7274 32.336 41.6154 33.7128 41.3164C33.9592 41.7105 34.6412 42.6358 35.9509 43.2918C36.9826 43.8084 38.0956 44.0088 39.2022 44.0088C40.9611 44.0088 42.7033 43.5022 44.0722 42.9546C44.4484 42.8043 44.6312 42.3775 44.4809 42.0015C44.3304 41.6251 43.9036 41.4429 43.5277 41.5928C38.315 43.6779 36.0003 41.8383 35.2271 40.9147C36.1533 40.619 37.0678 40.2241 37.8607 39.6955C39.4829 38.6142 40.918 37.12 41.9014 35.4887C42.795 34.0063 43.2718 32.4764 43.3123 30.9949C44.3062 31.605 45.0567 31.8626 45.1196 31.8835C45.1964 31.9092 45.2747 31.9213 45.3517 31.9213C45.3752 31.9213 45.3983 31.918 45.4216 31.9158L45.7666 32.1717C47.7495 33.6411 48.9333 35.9797 48.9333 38.4274V43.6232Z" fill="#222222"/>
</svg>
