<svg width="43" height="43" viewBox="0 0 43 43" fill="none" xmlns="http://www.w3.org/2000/svg">
<path d="M43 8.45228L34.5279 0H23.8537L19.647 4.19298C9.18706 3.32024 0.753075 9.20459 0.634931 9.2892C0.292693 9.53311 0.21266 10.0095 0.458095 10.3525C0.606729 10.5598 0.840731 10.6711 1.07854 10.6711C1.23175 10.6711 1.38648 10.6246 1.52063 10.5286C1.62658 10.4531 8.92333 5.36376 18.1988 5.63587L4.57257 19.2179L4.57867 19.224L0 23.7912L19.1668 43L26.8195 35.3679C28.3913 36.1911 30.2198 36.5958 32.0286 36.595C34.6971 36.595 37.3146 35.7276 38.9656 34.0767C44.5808 28.4606 42.3521 22.3003 41.5899 20.6364L42.9992 19.2301V8.45228H43ZM33.8983 1.52444L41.4756 9.08492V18.5975L26.5833 33.441C23.4703 31.2092 22.5229 27.0215 23.9208 21.5305C24.0252 21.1227 23.7783 20.7073 23.3705 20.6036C22.9612 20.4946 22.5481 20.7462 22.4436 21.1539C20.4702 28.9035 23.122 32.7252 25.4918 34.5287L23.744 36.2711L6.73499 19.2263L20.2111 5.78527C23.4109 6.15113 26.7898 7.20757 30.155 9.34256C30.1253 9.51101 30.1032 9.68251 30.1032 9.85934C30.1032 11.5134 31.4485 12.8587 33.1025 12.8587C34.7566 12.8587 36.1026 11.5134 36.1026 9.85934C36.1026 8.20532 34.7566 6.86 33.1025 6.86C32.1757 6.86 31.3563 7.29142 30.806 7.95455C27.6892 6.00555 24.5657 4.91938 21.5694 4.43156L24.4833 1.52444H33.8983ZM31.8716 10.5187C32.2085 10.7717 32.6864 10.7039 32.9379 10.3662C33.191 10.0301 33.1224 9.55217 32.7855 9.29987C32.5499 9.1238 32.3136 8.96831 32.0781 8.8029C32.3441 8.54451 32.7047 8.38444 33.1025 8.38444C33.9158 8.38444 34.5782 9.04605 34.5782 9.86011C34.5782 10.6726 33.9166 11.335 33.1025 11.335C32.4905 11.335 31.9653 10.96 31.742 10.428C31.7854 10.4592 31.8289 10.4859 31.8716 10.5187ZM2.15556 23.7943L5.65569 20.3033L22.67 37.3542L19.1699 40.8452L2.15556 23.7943ZM37.8878 32.9989C35.9243 34.9608 31.508 35.8557 27.956 34.2344L40.4374 21.7858C41.1958 23.6731 42.423 28.4629 37.8878 32.9989Z" fill="#222222"/>
</svg>
