<svg width="46" height="44" viewBox="0 0 46 44" fill="none" xmlns="http://www.w3.org/2000/svg">
<g clip-path="url(#clip0)">
<path d="M34.5279 0H23.8537L21.0312 2.81336C24.3096 3.24249 27.7502 4.3218 31.1886 6.38971C31.7252 6.71213 32.3472 6.89659 32.9722 6.86381C33.5202 6.83485 34.1194 6.98348 34.7924 7.48578C35.5546 8.0544 36.1042 8.91495 36.1027 9.86544C36.0996 11.5172 34.755 12.8594 33.1025 12.8594C32.2176 12.8594 31.4249 12.4715 30.8769 11.8594C30.5948 11.5446 30.2823 11.2527 29.9317 11.0156C25.3835 7.94312 20.7805 7.02464 16.6713 7.15955L4.57257 19.2179L4.57867 19.224L0 23.7912L19.1668 43L25.6915 36.4929C23.3469 35.1278 18.4153 30.9561 20.9398 20.8826C21.2119 19.798 22.1974 18.9831 23.3133 19.0578C24.789 19.1562 25.7448 20.5442 25.398 21.9063C24.0656 27.1397 24.978 30.8258 28.0376 32.5667C28.3867 32.7656 28.7525 32.9295 29.1276 33.0652L39.2415 22.9787C39.0021 22.2058 38.7422 21.7386 38.7331 21.7233C38.1012 20.6295 38.4762 19.2309 39.57 18.5997C40.6653 17.9686 42.0625 18.3429 42.6936 19.4367C42.7058 19.4572 42.7172 19.4801 42.7294 19.5007L43.0008 19.2301V8.45228L34.5279 0Z" fill="#FFABAE"/>
</g>
<path d="M46 9.45228L37.5279 1H26.8537L22.647 5.19298C12.1871 4.32024 3.75308 10.2046 3.63493 10.2892C3.29269 10.5331 3.21266 11.0095 3.4581 11.3525C3.60673 11.5598 3.84073 11.6711 4.07854 11.6711C4.23175 11.6711 4.38648 11.6246 4.52063 11.5286C4.62658 11.4531 11.9233 6.36376 21.1988 6.63587L7.57257 20.2179L7.57867 20.224L3 24.7912L22.1668 44L29.8195 36.3679C31.3913 37.1911 33.2198 37.5958 35.0286 37.595C37.6971 37.595 40.3146 36.7276 41.9656 35.0767C47.5808 29.4606 45.3521 23.3003 44.5899 21.6364L45.9992 20.2301V9.45228H46ZM36.8983 2.52444L44.4756 10.0849V19.5975L29.5833 34.441C26.4703 32.2092 25.5229 28.0215 26.9208 22.5305C27.0252 22.1227 26.7783 21.7073 26.3705 21.6036C25.9612 21.4946 25.5481 21.7462 25.4436 22.1539C23.4702 29.9035 26.122 33.7252 28.4918 35.5287L26.744 37.2711L9.73499 20.2263L23.2111 6.78527C26.4109 7.15113 29.7898 8.20757 33.155 10.3426C33.1253 10.511 33.1032 10.6825 33.1032 10.8593C33.1032 12.5134 34.4485 13.8587 36.1025 13.8587C37.7566 13.8587 39.1026 12.5134 39.1026 10.8593C39.1026 9.20532 37.7566 7.86 36.1025 7.86C35.1757 7.86 34.3563 8.29142 33.806 8.95455C30.6892 7.00555 27.5657 5.91938 24.5694 5.43156L27.4833 2.52444H36.8983ZM34.8716 11.5187C35.2085 11.7717 35.6864 11.7039 35.9379 11.3662C36.191 11.0301 36.1224 10.5522 35.7855 10.2999C35.5499 10.1238 35.3136 9.96831 35.0781 9.8029C35.3441 9.54451 35.7047 9.38444 36.1025 9.38444C36.9158 9.38444 37.5782 10.0461 37.5782 10.8601C37.5782 11.6726 36.9166 12.335 36.1025 12.335C35.4905 12.335 34.9653 11.96 34.742 11.428C34.7854 11.4592 34.8289 11.4859 34.8716 11.5187ZM5.15556 24.7943L8.65569 21.3033L25.67 38.3542L22.1699 41.8452L5.15556 24.7943ZM40.8878 33.9989C38.9243 35.9608 34.508 36.8557 30.956 35.2344L43.4374 22.7858C44.1958 24.6731 45.423 29.4629 40.8878 33.9989Z" fill="#222222"/>
<defs>
<clipPath id="clip0">
<rect width="43" height="43" fill="white"/>
</clipPath>
</defs>
</svg>
