<svg width="47" height="44" viewBox="0 0 47 44" fill="none" xmlns="http://www.w3.org/2000/svg">
<g clip-path="url(#clip0)">
<path d="M40.872 33.8087C38.9391 32.567 36.3563 33.0131 34.5794 34.7302L33.0067 33.7197C33.6674 32.3877 34.035 30.9137 34.035 29.3624C34.035 23.423 28.6528 14.7806 22.0138 14.7806C15.3744 14.7806 9.9926 23.423 9.9926 29.3624C9.9926 30.9137 10.3602 32.3877 11.0208 33.7197L9.4481 34.7302C7.67128 33.0131 5.08812 32.567 3.15553 33.8087C0.84831 35.2908 0.342084 38.6151 2.02458 41.2342C3.70707 43.853 6.94114 44.7745 9.24803 43.2924L16.2432 38.7984C17.9563 39.6387 19.9224 40.1167 22.0138 40.1167C24.1051 40.1167 26.0713 39.6387 27.7843 38.7984L34.7792 43.2924C37.0864 44.7745 40.3205 43.853 42.003 41.2342C43.6855 38.6151 43.1792 35.2908 40.872 33.8087Z" fill="#FFABAE"/>
<path d="M15.8283 28.1214C14.5436 27.5034 12.3518 27.2264 10.5911 27.83C10.6455 27.6477 10.7046 27.4651 10.766 27.2825H10.1893C10.0604 27.9988 9.99258 28.6978 9.99258 29.3624C9.99258 30.9137 10.3602 32.3877 11.0208 33.7197L10.807 33.857C11.4085 33.951 11.9809 33.99 12.4666 33.9876C14.1726 33.9806 17.2439 33.6083 17.6323 31.1664C17.8421 29.8482 16.8944 28.635 15.8283 28.1214Z" fill="#FFABAE"/>
<path d="M33.8382 27.2825H33.2608C33.3226 27.4654 33.3817 27.6484 33.4364 27.831C31.6757 27.2264 29.4839 27.5034 28.1992 28.1214C27.1331 28.635 26.1854 29.8482 26.3952 31.1668C26.7836 33.6086 29.8549 33.9806 31.5609 33.9876C32.0466 33.9903 32.619 33.951 33.2205 33.857L33.0067 33.7197C33.6674 32.3877 34.0349 30.9137 34.0349 29.3624C34.0349 28.6978 33.9671 27.9988 33.8382 27.2825Z" fill="#FFABAE"/>
<path d="M32.9195 0.499847C31.8241 0.851654 30.8798 1.81274 30.3094 2.87689C28.0714 1.08261 25.1764 0 22.0138 0C18.8512 0 15.9562 1.08261 13.7181 2.87689C13.1478 1.81274 12.2035 0.851654 11.1081 0.499512C8.54309 -0.32428 5.71353 3.177 6.32147 4.67755C6.7055 5.62655 8.71026 6.47452 10.4864 6.79107C9.64349 8.41012 9.16949 10.2316 9.16949 12.1585C9.16949 18.8733 14.9199 22.2967 22.0138 22.2967C29.1073 22.2967 34.8581 18.8733 34.8581 12.1585C34.8581 10.2316 34.3838 8.41012 33.5408 6.79107C35.3173 6.47452 37.3217 5.62655 37.7061 4.67755C38.3141 3.177 35.4845 -0.32428 32.9195 0.499847Z" fill="#FFABAE"/>
<path d="M33.9178 0.383698C35.1243 1.36728 35.899 2.87756 35.5519 3.73492C35.2317 4.52582 33.7862 5.24655 32.2853 5.64804C31.8388 5.76721 31.5958 6.24893 31.7767 6.67392C32.3743 8.07712 32.7039 9.60989 32.7039 11.2158C32.7039 17.9307 26.9531 21.3541 19.8596 21.3541C17.7773 21.3541 15.8115 21.059 14.0723 20.4726C16.258 21.6854 19.0157 22.2967 22.0138 22.2967C29.1073 22.2967 34.8581 18.8737 34.8581 12.1585C34.8581 10.2319 34.3837 8.41012 33.5408 6.79108C35.3173 6.47485 37.3217 5.62655 37.7061 4.67789C38.2355 3.3707 36.1575 0.546509 33.9178 0.383698Z" fill="#FFABAE"/>
<path d="M26.9394 9.27823C26.5779 9.27823 26.2845 8.98517 26.2845 8.62363V8.11304C26.2845 7.75116 26.5779 7.4581 26.9394 7.4581C27.3009 7.4581 27.594 7.75116 27.594 8.11304V8.62363C27.5943 8.98517 27.3009 9.27823 26.9394 9.27823Z" fill="#FFABAE"/>
<path d="M17.0881 9.27823C16.7266 9.27823 16.4335 8.98517 16.4335 8.62363V8.11304C16.4335 7.75116 16.7266 7.4581 17.0881 7.4581C17.4497 7.4581 17.7431 7.75116 17.7431 8.11304V8.62363C17.7431 8.98517 17.4497 9.27823 17.0881 9.27823Z" fill="#FFABAE"/>
<path d="M22.0138 10.2162C19.4551 10.2162 17.3805 12.0856 17.3805 14.3918C17.3805 16.6981 19.4551 17.8716 22.0138 17.8716C24.5724 17.8716 26.647 16.6981 26.647 14.3918C26.647 12.0856 24.5724 10.2162 22.0138 10.2162Z" fill="#FFABAE"/>
<path d="M22.0138 16.3147C21.6522 16.3147 21.3588 16.0216 21.3588 15.6601V13.5701C21.3588 13.2085 21.6522 12.9155 22.0138 12.9155C22.3753 12.9155 22.6684 13.2085 22.6684 13.5701V15.6601C22.6684 16.0216 22.3753 16.3147 22.0138 16.3147Z" fill="#FFABAE"/>
<path d="M22.0138 10.2162C20.817 10.2162 19.8469 11.3246 19.8469 12.2364C19.8469 13.1481 20.817 13.5701 22.0138 13.5701C23.2105 13.5701 24.1803 13.1481 24.1803 12.2364C24.1803 11.3246 23.2105 10.2162 22.0138 10.2162Z" fill="#FFABAE"/>
<path d="M41.6971 41.6683C42.7724 39.6031 42.3205 37.165 40.5847 36.0498C38.7279 34.8571 36.1058 35.6288 34.7282 37.7732C33.4461 39.7689 33.6939 42.2497 35.2304 43.5458C37.3526 44.5824 40.069 43.7966 41.6971 41.6683Z" fill="#FFABAE"/>
<path d="M2.33037 41.6683C1.25515 39.6031 1.70666 37.165 3.44286 36.0498C5.29958 34.8571 7.92168 35.6288 9.29937 37.7732C10.5814 39.7689 10.3336 42.2497 8.79717 43.5458C6.67458 44.5824 3.95849 43.7966 2.33037 41.6683Z" fill="#FFABAE"/>
<path d="M21.7932 38.5339C21.9275 38.6235 22.1 38.6235 22.2343 38.5339C23.5388 37.6614 30.2601 33.0453 32.1886 29.2621C33.9544 25.7991 32.6744 20.6831 28.5803 19.6052C26.2015 18.9788 23.3569 20.1007 22.1887 22.2746C22.1128 22.4156 21.9147 22.4156 21.8389 22.2746C20.6707 20.1007 17.8263 18.9788 15.4473 19.6052C11.3531 20.6831 10.0731 25.7991 11.8389 29.2621C13.7675 33.0453 20.4884 37.6614 21.7932 38.5339Z" fill="#FFABAE"/>
<path d="M28.5803 19.6052C27.7504 19.3866 26.8639 19.3813 26.0115 19.5588C26.0673 19.5733 26.123 19.5881 26.178 19.6052C29.7109 20.6831 30.8153 25.7987 29.2919 29.2621C27.8038 32.6442 23.0114 36.6923 21.2078 38.1354C21.4555 38.3063 21.6549 38.4413 21.7932 38.5339C21.9275 38.6235 22.1 38.6235 22.2343 38.5339C23.5388 37.6614 30.2601 33.045 32.1886 29.2621C33.9544 25.7987 32.6744 20.6831 28.5803 19.6052Z" fill="#FFABAE"/>
<path d="M38.077 28.4067C37.5366 30.2399 35.6107 31.1543 33.7879 31.5397C32.9829 31.7103 32.1974 31.7774 31.5609 31.7744C29.8549 31.767 26.7836 31.395 26.3952 28.9532C26.1854 27.6346 27.1331 26.4214 28.1996 25.9081C29.4839 25.2901 31.6757 25.0132 33.4364 25.6178C32.865 23.706 31.906 21.7549 30.6619 20.0446C31.1114 19.7512 31.532 19.4279 31.9184 19.0754C31.9278 19.0805 31.9358 19.0858 31.9442 19.0909C34.137 20.4333 36.5271 22.3296 37.7155 24.9427C38.2012 26.0095 38.4225 27.2371 38.077 28.4067Z" fill="#FFABAE"/>
<path d="M17.6323 28.9532C17.2439 31.395 14.1726 31.7673 12.4666 31.7744C11.8302 31.7774 11.0446 31.7103 10.2396 31.5401C8.41683 31.1544 6.49062 30.2399 5.95015 28.4067C5.60506 27.2371 5.82628 26.0095 6.31203 24.943C7.50039 22.3296 9.89052 20.4333 12.0833 19.0912C12.0913 19.0862 12.0997 19.0808 12.1091 19.0758C12.4955 19.4279 12.9161 19.7515 13.3656 20.0449C12.1205 21.7543 11.1625 23.7053 10.5911 25.6168C12.3518 25.0135 14.5436 25.2901 15.8283 25.9081C16.8944 26.4217 17.8421 27.6349 17.6323 28.9532Z" fill="#FFABAE"/>
<path d="M34.4522 24.6597C33.9738 24.4052 33.4501 24.2263 32.9077 24.1098C33.1091 24.612 33.2863 25.1162 33.4364 25.6178C33.3283 25.5805 33.6106 25.695 33.8379 25.8158C33.9356 25.8682 34.041 25.8927 34.1444 25.8927C34.3787 25.8927 34.6056 25.7665 34.7231 25.5453C34.893 25.2257 34.7718 24.8292 34.4522 24.6597Z" fill="#FFABAE"/>
<path d="M10.5911 25.6169C10.7408 25.1157 10.9181 24.6118 11.1192 24.1103C10.5767 24.2264 10.0533 24.4053 9.57497 24.6598C9.25572 24.8293 9.13454 25.2258 9.30406 25.5454C9.42189 25.7666 9.64848 25.8928 9.8828 25.8928C9.98653 25.8928 10.0916 25.8683 10.1896 25.8159C10.4226 25.6924 10.6744 25.5913 10.9386 25.5108C10.8214 25.5423 10.7052 25.5776 10.5911 25.6169Z" fill="#FFABAE"/>
</g>
<g clip-path="url(#clip1)">
<path d="M43.6958 32.9218C41.7414 31.6663 39.1256 31.9389 37.1759 33.5515L36.5327 33.1386C36.7194 32.7026 36.8755 32.2554 37 31.8012C39.2686 31.2309 40.7719 30.0338 41.2529 28.4027V28.403C41.6927 26.9122 41.2875 25.507 40.8702 24.5912C39.9397 22.5448 38.2401 20.7271 35.6905 19.0536C37.3112 17.3097 38.1541 15.0699 38.1541 12.4478C38.1541 10.7939 37.8215 9.19833 37.1638 7.69342C37.8315 7.52188 38.4777 7.2916 39.0387 7.02237C40.0162 6.55273 40.6332 6.0163 40.8716 5.42783C41.1536 4.73193 41.0169 3.41736 39.7037 2.00308C39.1441 1.40018 38.4908 0.934906 37.8148 0.657288C37.0034 0.32428 36.1793 0.275269 35.431 0.515625C34.4924 0.817413 33.588 1.53748 32.9173 2.49622C30.6547 0.881866 27.8856 0 25.0413 0C22.1966 0 19.4275 0.881866 17.1649 2.49622C16.4942 1.53748 15.5898 0.817413 14.6509 0.515625C13.9026 0.275269 13.0785 0.32428 12.2675 0.657288C11.5914 0.934906 10.9381 1.40018 10.3785 2.00308C9.0653 3.41736 8.92867 4.73193 9.21065 5.42783C9.44933 6.0163 10.066 6.55273 11.0439 7.02237C11.6048 7.2916 12.251 7.52188 12.9191 7.69342C12.6532 8.30371 12.439 8.93381 12.2799 9.57498C12.194 9.92041 12.4048 10.2702 12.7502 10.3558C13.0953 10.4417 13.4451 10.2313 13.531 9.8855C13.7321 9.07513 14.0322 8.28424 14.4223 7.53497C14.5173 7.35303 14.5196 7.13684 14.4293 6.95255C14.3387 6.76859 14.1662 6.63867 13.9641 6.60242C12.1305 6.27545 10.6172 5.46576 10.4054 4.94376C10.2597 4.58389 10.5692 3.69229 11.3232 2.88025C12.0422 2.1058 13.1903 1.40051 14.2568 1.74292C15.0833 2.00845 15.892 2.75571 16.4203 3.74197C16.511 3.91083 16.6718 4.03067 16.8594 4.06894C17.0474 4.10754 17.2425 4.06021 17.3918 3.94037C19.5238 2.23068 22.2406 1.28906 25.0413 1.28906C27.8416 1.28906 30.5584 2.23068 32.6907 3.9407C32.8401 4.06055 33.0351 4.10788 33.2231 4.06927C33.4108 4.03101 33.5716 3.91116 33.6622 3.74197C34.1906 2.75604 34.9993 2.00845 35.8254 1.74292C36.8923 1.40051 38.0403 2.1058 38.7591 2.88025C39.5134 3.69263 39.8229 4.58389 39.6768 4.94376C39.4654 5.46576 37.952 6.27545 36.1185 6.60275C35.9164 6.63867 35.7439 6.76859 35.6532 6.95255C35.5626 7.13684 35.5653 7.35269 35.6599 7.53464C36.4596 9.07111 36.8651 10.7241 36.8651 12.4478C36.8651 14.9746 35.9657 17.0925 34.2433 18.6672C34.2363 18.6733 34.2289 18.6793 34.2218 18.686C33.8767 19.0006 33.494 19.296 33.0838 19.5635C33.0774 19.5676 33.0714 19.5719 33.065 19.5763C33.0402 19.5927 33.015 19.6089 32.9898 19.625C32.5524 19.3779 32.0804 19.1849 31.5796 19.0533C29.1888 18.4232 26.4636 19.4125 25.0413 21.335C23.6196 19.4128 20.8938 18.4232 18.503 19.0533C18.0021 19.1849 17.5301 19.3779 17.0927 19.625C17.0676 19.6092 17.0427 19.5931 17.0179 19.577C17.0115 19.5723 17.0051 19.5679 16.9984 19.5635C16.5885 19.2957 16.2055 19.0006 15.8604 18.686C15.8534 18.6797 15.8463 18.6733 15.8393 18.6676C14.1168 17.0928 13.2175 14.9749 13.2175 12.4478C13.2175 12.092 12.9288 11.8033 12.573 11.8033C12.2168 11.8033 11.9284 12.092 11.9284 12.4478C11.9284 15.0703 12.771 17.31 14.3921 19.054C11.8401 20.7294 10.1422 22.5458 9.212 24.5909C8.79473 25.5073 8.38955 26.9125 8.82964 28.403C9.31035 30.0338 10.8139 31.2309 13.0822 31.8012C13.2067 32.2554 13.3632 32.7026 13.5498 33.1386L12.9066 33.5519C10.9569 31.9389 8.34087 31.6666 6.38647 32.9218C3.85131 34.5502 3.27157 38.1838 5.09405 41.0214C6.30388 42.9033 8.29656 44 10.2782 44C10.7743 44 11.2668 43.9308 11.7428 43.7888C11.7445 43.7885 11.7461 43.7878 11.7478 43.7875C11.7545 43.7855 11.7609 43.7835 11.7673 43.7815C11.774 43.7794 11.7804 43.7774 11.7871 43.7754C11.7894 43.7747 11.7918 43.7741 11.7941 43.7734C12.2121 43.6438 12.6163 43.4582 12.9976 43.2131L19.4872 39.0438C22.9707 40.6283 27.1112 40.6283 30.595 39.0438L37.0846 43.2131C37.4777 43.4656 37.895 43.6552 38.326 43.7848H38.3263C38.3391 43.7888 38.3519 43.7925 38.3646 43.7966C38.3754 43.7996 38.3864 43.8026 38.3972 43.806C38.3985 43.8063 38.4002 43.8066 38.4015 43.807C38.8581 43.9369 39.3294 44 39.8041 44C41.8018 44 43.7874 42.8895 44.9882 41.0211C46.811 38.1834 46.2313 34.5499 43.6958 32.9218ZM39.697 25.125C40.0233 25.8417 40.3439 26.9286 40.0166 28.0381C40.0166 28.0381 40.0166 28.0381 40.0162 28.0381C39.5197 29.7223 37.4982 30.3856 36.337 30.6313C34.0845 31.1084 30.2909 30.9127 29.931 28.6497C29.7813 27.7108 30.501 26.7729 31.3255 26.3758C32.6347 25.7457 34.9909 25.5671 36.5149 26.3771C36.8295 26.5443 37.2196 26.4248 37.3867 26.1102C37.5536 25.796 37.4344 25.4056 37.1199 25.2388C36.9681 25.1579 36.8117 25.085 36.6516 25.0196C36.1229 23.3649 35.3299 21.7372 34.335 20.2628C34.4669 20.1648 34.5954 20.0644 34.7207 19.962C37.2098 21.5482 38.84 23.2401 39.697 25.125ZM18.8313 20.2997C20.8841 19.7586 23.3393 20.7781 24.3034 22.5714C24.4495 22.8446 24.7321 23.0145 25.0413 23.0145C25.3501 23.0145 25.6328 22.8446 25.7781 22.5727C26.7429 20.7781 29.1982 19.7586 31.2513 20.2997C32.35 20.5887 33.2819 21.2454 33.9462 22.1987C34.4195 22.8778 34.7522 23.7057 34.9134 24.5879C33.4037 24.417 31.8206 24.7067 30.7662 25.2139C29.5258 25.8115 28.4036 27.2529 28.658 28.8522C28.8977 30.3598 30.0532 31.4038 31.9203 31.8657C29.4194 34.3914 26.0393 36.7433 25.0413 37.4184C24.0426 36.743 20.6632 34.3914 18.1623 31.8657C20.0294 31.4038 21.1848 30.3598 21.4245 28.8522C21.679 27.2529 20.5564 25.8115 19.316 25.2139C18.2569 24.7043 16.6724 24.418 15.1689 24.5875C15.3303 23.7053 15.663 22.8778 16.136 22.1991C16.8007 21.2454 17.7322 20.5887 18.8313 20.2997ZM10.0657 28.0381C9.73836 26.929 10.059 25.8417 10.3852 25.1246C11.2423 23.2401 12.8724 21.5482 15.3612 19.962C15.4864 20.0644 15.615 20.1648 15.7466 20.2625C14.7523 21.7348 13.9594 23.3626 13.43 25.0196C13.2702 25.085 13.1138 25.1579 12.962 25.2384C12.6478 25.4056 12.5283 25.796 12.6955 26.1102C12.8623 26.4244 13.2524 26.5439 13.5669 26.3768C15.0913 25.5667 17.4476 25.7457 18.7564 26.3758C19.5477 26.7568 20.305 27.6833 20.1512 28.6501C19.791 30.911 15.9866 31.106 13.7449 30.631C12.584 30.3856 10.5625 29.7226 10.0657 28.0381ZM11.8552 42.3722C11.5951 42.4921 11.3245 42.5797 11.0476 42.6357C11.0456 42.6361 11.0439 42.6367 11.0419 42.6371C11.0304 42.6391 11.0187 42.6414 11.0073 42.6438C11.0019 42.6448 10.9969 42.6458 10.9915 42.6468C10.9855 42.6478 10.9794 42.6488 10.9734 42.6498C10.9613 42.6522 10.9492 42.6542 10.9371 42.6566L10.9344 42.6569C9.35769 42.9268 7.6188 42.2047 6.47979 40.7468C5.60833 39.0227 5.98296 37.0679 7.36199 36.182C8.8622 35.2179 11.013 35.8816 12.1564 37.6614C13.1984 39.2835 13.0647 41.292 11.8552 42.3722ZM30.359 37.7296C28.74 38.5238 26.901 38.9435 25.0413 38.9435C23.1812 38.9435 21.3423 38.5238 19.7232 37.7296C19.5208 37.6306 19.2808 37.6443 19.0911 37.7662L14.0342 41.015C14.3139 39.7142 14.0611 38.2412 13.241 36.9645C11.7136 34.5872 8.76351 33.7493 6.66509 35.0974C6.17833 35.4103 5.77785 35.8128 5.46969 36.2767C5.71709 35.3455 6.26293 34.5334 7.08303 34.0064C8.66381 32.9913 10.8478 33.327 12.3947 34.8221C12.6099 35.0299 12.9392 35.0625 13.191 34.901L14.718 33.9205C14.9946 33.7429 15.0933 33.386 14.9473 33.092C14.7811 32.7563 14.6358 32.4115 14.5129 32.0607C15.1977 32.1403 15.8664 32.1567 16.6073 32.1034C19.2888 35.0303 23.2829 37.7934 24.4689 38.5873C24.6428 38.7034 24.8419 38.7618 25.0413 38.7618C25.2407 38.7618 25.4397 38.7034 25.614 38.5873C26.7996 37.7934 30.7937 35.0303 33.4752 32.1034C34.2154 32.1567 34.8841 32.1403 35.5696 32.0607C35.4464 32.4115 35.3014 32.7563 35.1352 33.092C34.9892 33.386 35.0882 33.7429 35.3645 33.9205L36.8916 34.901C37.143 35.0625 37.4727 35.0299 37.6879 34.8221C39.2347 33.327 41.4188 32.9913 42.9992 34.0064C43.8196 34.5334 44.3655 35.3455 44.6129 36.277C44.3047 35.8128 43.9042 35.4103 43.4175 35.0974C43.1177 34.9051 42.7192 34.9917 42.5265 35.2914C42.3342 35.5909 42.4211 35.9897 42.7206 36.182C44.0996 37.0679 44.4739 39.0227 43.6028 40.7468C42.4581 42.2118 40.688 42.9543 39.0709 42.6428C39.0629 42.6414 39.0551 42.6398 39.0471 42.6381C39.041 42.6371 39.0347 42.6357 39.0286 42.6344C39.0182 42.6324 39.0078 42.63 38.9974 42.628C38.9961 42.6277 38.9947 42.6273 38.9934 42.627C38.7309 42.5706 38.4744 42.486 38.227 42.3722C37.0175 41.292 36.8839 39.2832 37.9259 37.6614C38.5254 36.7285 39.4368 36.0605 40.4275 35.8286C40.7739 35.7473 40.9891 35.4005 40.9082 35.0541C40.8269 34.7073 40.4798 34.4922 40.1334 34.5734C38.8198 34.8812 37.62 35.7527 36.8416 36.9645C36.0215 38.2412 35.7687 39.7142 36.048 41.015L30.9911 37.7662C30.8014 37.644 30.5618 37.6306 30.359 37.7296Z" fill="#222222"/>
<path d="M30.4674 9.01572V8.52023C30.4674 8.1644 30.1787 7.8757 29.8229 7.8757C29.4667 7.8757 29.1784 8.1644 29.1784 8.52023V9.01572C29.1784 9.37189 29.4667 9.66025 29.8229 9.66025C30.1787 9.66025 30.4674 9.37189 30.4674 9.01572Z" fill="#222222"/>
<path d="M20.2597 7.8757C19.9035 7.8757 19.6151 8.1644 19.6151 8.52023V9.01572C19.6151 9.37189 19.9035 9.66025 20.2597 9.66025C20.6155 9.66025 20.9042 9.37189 20.9042 9.01572V8.52023C20.9042 8.1644 20.6155 7.8757 20.2597 7.8757Z" fill="#222222"/>
<path d="M25.0413 9.91739C22.2057 9.91739 19.8991 12.0249 19.8991 14.6154C19.8991 15.8924 20.4503 16.9498 21.4933 17.6732C22.4031 18.3044 23.6297 18.638 25.0413 18.638C26.4525 18.638 27.6795 18.3044 28.5889 17.6732C29.6319 16.9498 30.1834 15.8924 30.1834 14.6154C30.1834 12.0249 27.8766 9.91739 25.0413 9.91739ZM26.4999 12.523C26.4999 13.1548 25.1903 13.1733 25.0413 13.1733C24.8919 13.1733 23.5824 13.1548 23.5824 12.523C23.5824 11.7963 24.4649 11.2065 25.0413 11.2065C25.6173 11.2065 26.4999 11.7963 26.4999 12.523ZM25.0413 17.349C22.2003 17.349 21.1882 15.9367 21.1882 14.6154C21.1882 13.6745 21.6212 12.8215 22.3202 12.2041C22.3024 12.3112 22.2933 12.4176 22.2933 12.5227C22.2933 13.5415 23.0996 14.2485 24.3964 14.4211V15.8464C24.3964 16.2022 24.6851 16.4909 25.041 16.4909C25.3971 16.4909 25.6855 16.2022 25.6855 15.8464V14.4211C26.9826 14.2485 27.7889 13.5415 27.7889 12.5227C27.7889 12.4176 27.7802 12.3116 27.7634 12.2051C28.4617 12.8225 28.894 13.6751 28.894 14.6151C28.894 15.9367 27.8819 17.349 25.0413 17.349Z" fill="#222222"/>
</g>
<defs>
<clipPath id="clip0">
<rect width="44" height="44" fill="white"/>
</clipPath>
<clipPath id="clip1">
<rect x="3" width="44" height="44" fill="white"/>
</clipPath>
</defs>
</svg>
