<svg width="1920" height="296" viewBox="0 0 1920 296" fill="none" xmlns="http://www.w3.org/2000/svg">
<mask id="mask0" mask-type="alpha" maskUnits="userSpaceOnUse" x="0" y="0" width="1920" height="296">
<rect width="1920" height="296" fill="#FFD9DA"/>
</mask>
<g mask="url(#mask0)">
<path d="M1530.79 39.2485C1528.92 37.6519 1526.37 37.3251 1524.22 38.2347C1522.93 37.178 1521.53 36.17 1520 35.2465C1506.64 27.187 1490.74 32.672 1490.07 32.9061C1488.65 33.4066 1487.5 34.3833 1486.76 35.615C1486.32 35.8884 1485.92 36.2291 1485.56 36.6102C1468.77 30.4127 1454.51 37.6449 1453.84 37.9937C1451.95 38.9785 1450.76 40.8196 1450.52 42.8298C1439.76 44.1009 1430.33 49.9914 1424.72 55.6873C1422.56 57.8782 1420.79 60.1816 1419.47 62.4954C1419.43 62.5719 1419.3 62.8094 1419.1 63.1825C1417.07 62.7051 1414.88 63.2312 1413.3 64.7397C1403.21 74.3251 1399.31 83.052 1398.08 89.9436C1396.3 91.2425 1395.24 93.4589 1395.44 95.7832C1395.98 101.752 1398.41 106.948 1401.15 111.045C1400.67 112.817 1400.99 114.732 1402.05 116.274C1400.37 118.585 1400.42 121.761 1402.26 123.998C1402.98 124.862 1404.76 126.969 1407.16 129.452C1406.72 131.238 1407.07 133.191 1408.24 134.752C1408.53 135.14 1415.52 144.327 1429.31 150.715C1436.8 154.183 1447.28 157.232 1460.53 156.798C1454.81 160.971 1445.72 169.95 1443.59 185.909C1443.59 185.909 1448.49 177.438 1455.62 169.696L1448.04 184.139C1448.04 184.139 1472.16 173.896 1481.19 153.514C1484.33 152.636 1487.57 151.573 1490.92 150.289C1491.32 150.131 1491.7 149.935 1492.05 149.71C1498.56 153.751 1521.33 170.097 1538.88 210.343C1540.17 213.282 1541.36 216.142 1542.47 218.912C1539.9 216.79 1536.72 214.219 1533.35 211.617C1530.32 191.345 1519.1 185.199 1519.1 185.199C1518.9 195.133 1521.54 201.244 1523.93 204.72C1521.65 203.161 1519.45 201.762 1517.46 200.653C1509.75 187.567 1498.33 182.746 1488.71 183.824C1474.37 185.425 1462.82 198.115 1462.82 198.115C1462.82 198.115 1470.24 216.903 1485.95 217.611C1501.66 218.315 1515.7 204.899 1515.7 204.899C1504.61 197.916 1487.69 197.859 1487.69 197.859C1497.88 194.878 1508.99 198.789 1514.88 201.491C1514.88 201.491 1532.25 213.078 1545.04 225.598C1559.03 263.24 1557.05 283.358 1557.05 283.358L1559.75 280.608C1559.75 280.608 1565.68 255.124 1541.58 207.098C1519.65 163.389 1514.75 158.285 1511.87 148.309C1510.39 143.163 1509.34 138.742 1508.74 136.06C1509.75 134.635 1510.54 133.153 1511.1 131.628C1511.57 131.733 1512.05 131.766 1512.52 131.765C1517.64 132.306 1535.47 134.814 1548.17 144.189C1548.17 144.189 1535.41 129.159 1522.14 126.026C1522.5 125.69 1522.85 125.366 1523.21 124.996C1524.16 124.028 1525.06 123.011 1525.93 121.951C1528.14 123.009 1535.04 125.325 1542.63 117.824C1551.86 108.7 1562 104.406 1562 104.406C1562 104.406 1544.54 98.3797 1534.23 106.94C1539.07 92.817 1534.5 83.6383 1533.93 82.577C1533.4 81.5968 1532.64 80.7962 1531.72 80.2203C1533.16 77.7663 1534.5 75.3285 1535.66 72.9614C1543.73 56.4925 1536.01 43.7069 1530.79 39.2485ZM1503.07 210.193C1481.16 221.096 1469.98 205.17 1469.98 205.17C1482.44 212.514 1503.07 210.193 1503.07 210.193ZM1489.25 45.3279C1506.07 55.2412 1512.85 66.8461 1509.72 78.5217C1506.58 90.202 1495.52 102.438 1495.52 102.438C1495.52 102.438 1504.91 79.9411 1498.69 69.8748C1492.46 59.8085 1479.26 51.9738 1479.26 51.9738C1479.26 51.9738 1489.59 55.4822 1497.08 62.6171C1497.08 62.6171 1477.69 40.574 1456.76 43.5888C1456.76 43.5911 1472.44 35.4111 1489.25 45.3279ZM1443.79 115.481C1443.79 115.481 1448.08 108.878 1455.74 105.596C1455.74 105.596 1445.95 106.791 1442.69 109.603C1442.69 109.603 1439.84 101.005 1449.78 96.4019C1459.73 91.7986 1470.13 89.9842 1478.13 81.8633C1486.12 73.7412 1487.2 68.1565 1487.2 68.1565C1487.2 68.1565 1493.48 73.6983 1494.26 83.4749C1494.94 92.0257 1491.8 101.968 1486.99 106.344C1486.99 106.344 1463.81 106.399 1445.93 119.306C1445.93 119.306 1451.83 112.069 1462.46 107.773C1462.45 107.776 1449.71 111.222 1443.79 115.481ZM1464.62 66.8427C1464.62 66.8427 1470.95 65.4395 1474.93 69.3743C1474.93 69.3743 1473.82 64.5903 1469.46 63.9797C1469.46 63.9797 1478.98 63.9542 1479.35 72.0762C1479.71 80.196 1469.02 83.4877 1469.02 83.4877C1469.02 83.4877 1477.84 75.4328 1472.84 71.5004C1467.85 67.5633 1464.62 66.8427 1464.62 66.8427ZM1457.63 76.6888C1457.96 71.8572 1474.96 73.3357 1467.8 77.8532C1467.8 77.8521 1457.29 81.5307 1457.63 76.6888ZM1449.28 71.9198C1448.08 76.639 1457.2 82.6651 1457.2 82.6651C1452.64 83.8364 1449.77 87.1675 1449.77 87.1675C1454.09 84.5305 1463.09 86.258 1463.09 86.258C1448.42 89.0376 1441.43 99.5117 1441.43 99.5117C1441.43 99.5117 1435 84.4285 1440.61 73.2256C1446.23 62.0239 1461.01 65.2577 1461.01 65.2577C1461.01 65.2577 1450.49 67.1995 1449.28 71.9198ZM1424.94 65.6597C1430.32 56.1971 1445.37 46.9048 1459.29 49.2592C1473.21 51.6158 1482.46 64.4744 1482.46 64.4744C1475.82 57.5156 1466.89 55.5448 1466.89 55.5448C1474.62 58.731 1479.24 65.0004 1479.24 65.0004C1469.52 56.8981 1452.48 51.9333 1438.89 66.48C1425.31 81.0267 1437.63 112.119 1437.63 112.119C1431.16 107.505 1427.69 101.348 1427.69 101.348L1430.63 109.653C1423.91 104.516 1422.67 92.9561 1422.67 92.9561C1422.21 97.6683 1422.61 101.758 1422.61 101.758C1414.78 83.2212 1424.94 65.6597 1424.94 65.6597ZM1401.73 95.2247C1401.73 95.2247 1402.37 97.8224 1405.25 102.141C1405.25 102.141 1397.83 88.1871 1417.65 69.3129C1417.65 69.3129 1408.13 89.7188 1417.79 104.154C1417.79 104.154 1414.43 101.821 1411.28 95.7704C1411.28 95.7704 1412.02 111.265 1435.79 123.603C1435.79 123.603 1419.15 124.441 1407.24 112.71L1414.04 115.962C1414.04 115.96 1402.81 107.367 1401.73 95.2247ZM1503.44 132.63C1495.22 143.728 1474.51 143.762 1474.51 143.762L1488.65 144.399C1464.64 153.628 1446.47 151.096 1433.99 145.882C1462.68 144.567 1475.73 125.776 1475.73 125.776C1455.99 141.127 1432.17 141.105 1424.11 140.587C1416.87 135.748 1413.28 130.968 1413.28 130.968C1418.52 134.647 1425.72 135.584 1425.72 135.584C1418.01 133.163 1407.12 119.979 1407.12 119.979C1407.12 119.979 1427.3 131.724 1439.68 129.897C1452.07 128.063 1483.07 111.833 1489.63 111.164C1496.2 110.492 1511.66 121.532 1503.44 132.63ZM1527.29 107.401C1521.7 120.835 1512.43 125.494 1512.43 125.494C1512.43 125.494 1508 114.027 1513.26 103.665C1518.75 92.8367 1526.38 85.0924 1526.38 85.0924L1521.77 97.7737L1528.37 85.5744C1528.37 85.5732 1532.9 93.9699 1527.29 107.401ZM1529.99 70.1841C1521.93 86.6113 1504.45 107.051 1506.23 119.388C1506.23 119.388 1500.27 107.113 1506.5 95.7808C1512.74 84.4505 1521.9 66.4024 1516.26 59.3775C1510.63 52.3538 1490.09 40.9795 1490.09 40.9795C1490.09 40.9795 1501.89 43.9897 1510.49 49.9984C1510.49 49.9984 1501.5 41.1394 1492.18 38.8568C1492.18 38.8568 1505.78 34.0404 1516.74 40.6528C1527.7 47.2605 1530.89 59.2675 1530.89 59.2675C1530.89 59.2675 1530.44 48.9776 1526.69 44.0476C1526.68 44.0487 1538.04 53.7546 1529.99 70.1841Z" fill="#DA666A" fill-opacity="0.1"/>
<path d="M1537.23 188.069C1537.25 190.49 1539.23 195.696 1539.23 195.696C1542.17 190.386 1545.82 181.096 1545.82 181.096C1545.91 188.406 1541.71 199.362 1541.71 199.362C1561.47 179.287 1549.94 162.839 1549.94 162.839C1535.5 176.84 1537.23 188.069 1537.23 188.069Z" fill="#DA666A" fill-opacity="0.1"/>
<path d="M1528.91 212.357C1528.91 212.357 1518.73 222.185 1511.7 231.496C1511.7 231.496 1515.83 220.801 1526.49 209.974C1526.49 209.974 1511.11 208.606 1501.13 222.733C1491.16 236.86 1500.69 251.502 1500.69 251.502C1500.69 251.502 1532.69 241.666 1528.91 212.357ZM1499.55 242.871C1495.01 224.744 1512.76 214.664 1512.76 214.664C1499.06 226.665 1499.55 242.871 1499.55 242.871Z" fill="#DA666A" fill-opacity="0.1"/>
<path d="M1254.43 277.518C1254.43 277.518 1241.26 272.339 1229.87 269.804C1229.87 269.804 1241.32 269.121 1255.59 274.326C1255.59 274.326 1250.45 259.763 1233.46 256.552C1216.46 253.343 1207.1 268.096 1207.1 268.096C1207.1 268.096 1229.33 293.12 1254.43 277.518ZM1214.48 263.472C1229.08 251.818 1245.63 263.783 1245.63 263.783C1229.02 256.298 1214.48 263.472 1214.48 263.472Z" fill="#DA666A" fill-opacity="0.1"/>
<path d="M341.037 168.113C341.037 168.113 353.42 174.957 364.386 178.948C364.386 178.948 352.95 178.141 339.469 171.126C339.469 171.126 342.678 186.233 359.112 191.623C375.545 197.011 386.742 183.598 386.742 183.598C386.742 183.598 367.946 155.9 341.037 168.113ZM378.827 187.225C362.832 196.885 347.984 182.874 347.984 182.874C363.48 192.451 378.827 187.225 378.827 187.225Z" fill="#DA666A" fill-opacity="0.1"/>
<path d="M1237.54 52.4168C1237.54 52.4168 1234.58 38.5832 1230.39 27.6904C1230.39 27.6904 1237.29 36.8471 1240.85 51.6212C1240.85 51.6212 1250.14 39.284 1243.41 23.3486C1236.69 7.41523 1219.22 7.77316 1219.22 7.77316C1219.22 7.77316 1210.66 40.1347 1237.54 52.4168ZM1227.15 11.3627C1244.94 17.088 1244.12 37.4863 1244.12 37.4863C1241.17 19.5099 1227.15 11.3627 1227.15 11.3627Z" fill="#DA666A" fill-opacity="0.1"/>
<path d="M947.234 188.069C947.253 190.49 949.233 195.696 949.233 195.696C952.17 190.386 955.817 181.096 955.817 181.096C955.909 188.406 951.708 199.362 951.708 199.362C971.472 179.287 959.936 162.839 959.936 162.839C945.495 176.84 947.234 188.069 947.234 188.069Z" fill="#DA666A" fill-opacity="0.1"/>
<path d="M827.311 242.056C829.389 243.299 834.865 244.314 834.865 244.314C831.856 239.044 825.817 231.099 825.817 231.099C832.108 234.821 839.283 244.106 839.283 244.106C832.41 216.786 812.363 218.088 812.363 218.088C816.815 237.704 827.311 242.056 827.311 242.056Z" fill="#DA666A" fill-opacity="0.1"/>
<path d="M618.178 50.2937C616.653 48.413 611.857 45.5806 611.857 45.5806C612.875 51.5628 615.822 61.0982 615.822 61.0982C611.189 55.4432 607.635 44.2602 607.635 44.2602C604.718 72.2797 623.995 77.9347 623.995 77.9347C626.544 57.9827 618.178 50.2937 618.178 50.2937Z" fill="#DA666A" fill-opacity="0.1"/>
<path d="M454.778 250.472C453.162 252.274 451.121 257.457 451.121 257.457C456.867 255.508 465.819 251.095 465.819 251.095C460.965 256.562 450.482 261.833 450.482 261.833C478.611 260.298 481.157 240.37 481.157 240.37C461.052 240.999 454.778 250.472 454.778 250.472Z" fill="#DA666A" fill-opacity="0.1"/>
</g>
</svg>
