<svg width="55" height="55" viewBox="0 0 55 55" fill="none" xmlns="http://www.w3.org/2000/svg">
<path d="M21.2667 43.74C29.9744 43.74 37.0333 36.6811 37.0333 27.9734C37.0333 19.2657 29.9744 12.2067 21.2667 12.2067C12.559 12.2067 5.5 19.2657 5.5 27.9734C5.5 36.6811 12.559 43.74 21.2667 43.74Z" fill="#FFABAE"/>
<path d="M10.6333 9.27337C10.2283 9.27337 9.89999 8.94502 9.89999 8.54004V6.34004C9.89999 5.93505 10.2283 5.6067 10.6333 5.6067C11.0383 5.6067 11.3667 5.93505 11.3667 6.34004V8.54004C11.3667 8.94502 11.0383 9.27337 10.6333 9.27337Z" fill="#FFABAE"/>
<path d="M10.6333 14.4067C10.2283 14.4067 9.89999 14.0783 9.89999 13.6734V11.4734C9.89999 11.0684 10.2283 10.74 10.6333 10.74C11.0383 10.74 11.3667 11.0684 11.3667 11.4734V13.6734C11.3667 14.0783 11.0383 14.4067 10.6333 14.4067Z" fill="#FFABAE"/>
<path d="M9.16667 10.74H6.96667C6.56169 10.74 6.23334 10.4117 6.23334 10.0067C6.23334 9.60171 6.56169 9.27336 6.96667 9.27336H9.16667C9.57166 9.27336 9.90001 9.60171 9.90001 10.0067C9.90001 10.4117 9.57166 10.74 9.16667 10.74Z" fill="#FFABAE"/>
<path d="M14.3 10.74H12.1C11.695 10.74 11.3667 10.4117 11.3667 10.0067C11.3667 9.60171 11.695 9.27336 12.1 9.27336H14.3C14.705 9.27336 15.0333 9.60171 15.0333 10.0067C15.0333 10.4117 14.705 10.74 14.3 10.74Z" fill="#FFABAE"/>
<path d="M45.4667 12.94C44.0513 12.94 42.9 11.7887 42.9 10.3734C42.9 8.95803 44.0513 7.8067 45.4667 7.8067C46.882 7.8067 48.0333 8.95803 48.0333 10.3734C48.0333 11.7887 46.8818 12.94 45.4667 12.94ZM45.4667 9.27337C44.86 9.27337 44.3667 9.76672 44.3667 10.3734C44.3667 10.98 44.86 11.4734 45.4667 11.4734C46.0733 11.4734 46.5667 10.98 46.5667 10.3734C46.5667 9.76672 46.0731 9.27337 45.4667 9.27337Z" fill="#FFABAE"/>
<path d="M7.70001 19.54C8.10502 19.54 8.43334 19.2117 8.43334 18.8067C8.43334 18.4017 8.10502 18.0734 7.70001 18.0734C7.295 18.0734 6.96667 18.4017 6.96667 18.8067C6.96667 19.2117 7.295 19.54 7.70001 19.54Z" fill="#FFABAE"/>
<path d="M48.7667 19.54C49.1717 19.54 49.5 19.2117 49.5 18.8067C49.5 18.4017 49.1717 18.0734 48.7667 18.0734C48.3617 18.0734 48.0333 18.4017 48.0333 18.8067C48.0333 19.2117 48.3617 19.54 48.7667 19.54Z" fill="#FFABAE"/>
<path d="M23.1 10.0067C23.505 10.0067 23.8333 9.67837 23.8333 9.27336C23.8333 8.86835 23.505 8.54002 23.1 8.54002C22.695 8.54002 22.3667 8.86835 22.3667 9.27336C22.3667 9.67837 22.695 10.0067 23.1 10.0067Z" fill="#FFABAE"/>
<path d="M13.6695 34.0938C13.6695 34.0938 9.16666 31.1877 9.16666 24.2774C9.16666 24.2774 15.0898 19.3415 22 21.3158L21.0127 33.1619L13.6695 34.0938Z" fill="#FFABAE"/>
<path d="M13.6695 34.8271C13.5291 34.8271 13.3908 34.7868 13.2719 34.71C13.0742 34.5825 8.43332 31.5042 8.43332 24.2774C8.43332 24.0598 8.52994 23.8533 8.69714 23.714C8.95105 23.5022 15.002 18.5537 22.2013 20.6107C22.5381 20.707 22.7597 21.0278 22.7308 21.3767L21.7437 33.2228C21.7149 33.5678 21.4487 33.8457 21.1053 33.8894L13.7619 34.8212C13.7311 34.8251 13.7003 34.8271 13.6695 34.8271ZM9.9042 24.6354C10.0335 30.0027 13.0476 32.6968 13.8649 33.3298L20.3315 32.5092L21.2177 21.8719C15.8088 20.6349 11.0625 23.7829 9.9042 24.6354Z" fill="#FFABAE"/>
<path d="M30.1648 46.1307C30.1648 46.1307 19.0386 51.9184 12.1282 45.9954C5.21785 40.0725 17.3848 30.3787 17.3848 30.3787C17.3848 30.3787 36.355 29.484 30.1648 46.1307Z" fill="#FFABAE"/>
<path d="M20.0285 49.3933C16.6986 49.3933 13.847 48.4345 11.651 46.5522C10.0379 45.1695 9.23765 43.4823 9.27248 41.5373C9.37387 35.8877 16.6194 30.0509 16.9279 29.8051C17.0484 29.709 17.1963 29.6533 17.3503 29.6461C17.7256 29.6278 26.5962 29.2725 30.4391 34.5325C32.5589 37.4345 32.6981 41.4227 30.8523 46.3863C30.7889 46.5566 30.6647 46.6974 30.5034 46.7814C30.3859 46.8424 27.5849 48.2856 23.8776 49.0043C22.5363 49.2641 21.2498 49.3933 20.0285 49.3933ZM17.6558 31.1058C16.542 32.0412 10.818 37.0658 10.7388 41.5654C10.712 43.0722 11.3229 44.3392 12.6055 45.4385C18.503 50.4937 27.9279 46.3832 29.5772 45.6016C31.1363 41.2601 31.0288 37.8294 29.2569 35.401C26.2039 31.2166 19.0484 31.0895 17.6558 31.1058ZM30.1648 46.1307H30.1666H30.1648Z" fill="#FFABAE"/>
<path d="M28.0533 41.0595C28.0533 41.0595 13.0684 39.0852 18.0633 29.2134C18.0633 29.2134 16.0653 26.2519 19.0623 23.2903C19.0623 23.2903 18.0633 16.3801 23.0582 16.3801C28.0531 16.3801 29.1093 20.2735 29.1093 20.2735C29.1093 20.2735 30.3246 15.211 34.3926 15.9482C36.5154 16.3328 38.0433 18.1962 38.0433 20.3289C38.0433 22.4616 41.1292 19.5666 44.589 21.3915C45.586 21.9173 46.3263 22.823 46.6151 23.9026C47.1416 25.8715 47.3933 29.1982 44.0372 31.1879L44.5698 31.5827C46.7502 33.1982 48.0333 35.7342 48.0333 38.4274V44.0211C48.0333 44.0211 41.0403 48.957 32.0494 46.9827C32.0494 46.9825 27.0543 45.0082 28.0533 41.0595Z" fill="#FFABAE"/>
<path d="M36.3919 48.1871C34.969 48.1871 33.4624 48.0436 31.8921 47.6987C31.854 47.6903 31.8164 47.6789 31.7799 47.6645C29.9886 46.9564 26.926 44.8444 27.208 41.664C25.0837 41.2716 19.1089 39.8414 17.0302 35.9036C16.0036 33.9588 16.073 31.7176 17.2359 29.2371C17.0487 28.8614 16.7992 28.2365 16.7103 27.4443C16.5847 26.3283 16.7693 24.6796 18.2954 23.0285C18.1997 21.9743 18.0837 18.9255 19.6761 17.0863C20.5031 16.1311 21.6411 15.6468 23.0582 15.6468C26.3287 15.6468 28.0964 17.2035 28.994 18.4723C29.8938 16.6432 31.6718 14.7109 34.5231 15.2266C36.7063 15.622 38.3592 17.3507 38.7081 19.485C39.9293 19.3622 42.3286 19.3703 44.931 20.7429C46.1135 21.3666 46.9854 22.4494 47.3233 23.7133C48.3899 27.702 46.7966 29.9948 45.2879 31.211C47.4725 32.9639 48.7667 35.6354 48.7667 38.4274V44.0211C48.7667 44.2594 48.6508 44.4829 48.4563 44.6202C48.2103 44.7936 43.3065 48.1866 36.3919 48.1871ZM32.2705 46.2801C39.7777 47.9015 45.8823 44.5043 47.3 43.6231V38.4272C47.3 35.9795 46.1162 33.6409 44.1333 32.1713L43.6009 31.7766C43.4036 31.6305 43.2925 31.3951 43.3052 31.15C43.3178 30.9047 43.4524 30.6821 43.6636 30.5567C46.4974 28.8765 46.4477 26.1136 45.9069 24.0917C45.6742 23.2212 45.0694 22.4734 44.2471 22.0398C41.0967 20.3782 38.2459 21.0346 38.2169 21.041C37.9982 21.0932 37.7669 21.0432 37.5907 20.904C37.4143 20.7649 37.3102 20.553 37.3102 20.3284C37.3102 18.5282 36.0283 16.9893 34.2621 16.6694C30.9296 16.0651 29.8661 20.2666 29.8223 20.4457C29.7429 20.7708 29.4534 21.0016 29.119 21.0058C29.1159 21.0058 29.1128 21.0058 29.1095 21.0058C28.779 21.0058 28.4884 20.7851 28.4018 20.4651C28.3641 20.332 27.401 17.1131 23.0584 17.1131C22.0734 17.1131 21.3305 17.4174 20.7871 18.0437C19.3173 19.7373 19.7832 23.1515 19.7881 23.1858C19.8209 23.4157 19.743 23.6484 19.5778 23.8115C17.0689 26.2907 18.6071 28.7051 18.6736 28.8066C18.8177 29.0261 18.8362 29.3099 18.7176 29.5442C17.6185 31.7163 17.4867 33.6246 18.326 35.2165C20.4622 39.268 28.0728 40.322 28.1494 40.332C28.3569 40.3595 28.5428 40.4743 28.6602 40.6477C28.7777 40.821 28.8156 41.036 28.7641 41.239C28.4251 42.5782 28.886 43.819 30.134 44.9269C31.0288 45.7215 32.0377 46.1802 32.2705 46.2801Z" fill="#FFABAE"/>
<path d="M28.233 32.0366C27.1726 32.0366 26.0674 31.7847 25.1702 31.2851C24.0092 30.6387 23.3348 29.6491 23.2501 28.4794C22.5775 27.899 21.974 26.8829 22.2638 25.144C22.798 21.9388 25.2938 19.968 29.2914 19.5947C31.537 19.3857 33.7214 20.3042 34.9934 21.9932C35.8633 23.1484 36.184 24.3768 35.9464 25.6441C35.5823 27.5882 33.8725 29.5193 30.8645 31.3836C30.1602 31.8201 29.2156 32.0366 28.233 32.0366ZM25.0608 29.3137C25.2555 29.5763 25.5301 29.8069 25.8835 30.0038C27.1247 30.6948 29.0911 30.7571 30.0918 30.1371C32.7347 28.4988 34.2195 26.8965 34.5048 25.3743C34.6632 24.5289 34.4333 23.6883 33.8215 22.876C32.8535 21.5905 31.17 20.892 29.4276 21.0555C27.1126 21.2715 24.2416 22.198 23.7101 25.3855C23.52 26.5262 23.8287 27.2685 24.6543 27.6547C26.252 28.4026 29.1962 27.6258 30.1459 26.5214C30.4898 26.1215 30.4106 25.8766 30.274 25.6716C29.8683 25.0632 29.4146 24.742 28.8871 24.6897C27.7116 24.5729 26.479 25.7712 26.4669 25.7835C26.1807 26.0698 25.7163 26.0698 25.43 25.7835C25.1436 25.4971 25.1436 25.0327 25.43 24.7464C25.4995 24.6769 27.1539 23.0441 29.0318 23.2302C30.0104 23.327 30.8391 23.8748 31.4947 24.858C32.0542 25.6973 31.968 26.6521 31.2582 27.4777C30.0988 28.8257 27.2769 29.7554 25.0608 29.3137Z" fill="#FFABAE"/>
<path d="M27.923 41.7929C27.518 41.7929 27.1896 41.4645 27.1896 41.0595C27.1896 40.6546 27.518 40.3262 27.923 40.3262C27.9899 40.326 32.6816 40.2965 35.4136 38.4751C38.0848 36.6942 40.7028 33.2325 40.1383 29.8405C40.0717 29.441 40.3416 29.0631 40.7413 28.9966C41.1404 28.9291 41.5184 29.2001 41.585 29.5996C41.9012 31.4985 41.4455 33.535 40.2677 35.4886C39.2843 37.1199 37.8492 38.6139 36.2271 39.6954C33.1168 41.769 28.1336 41.7929 27.923 41.7929Z" fill="#FFABAE"/>
<path d="M43.7182 31.9211C43.6412 31.9211 43.5629 31.909 43.4861 31.8833C43.3554 31.8397 40.2617 30.7804 38.172 27.6456C37.9473 27.3086 38.0384 26.8532 38.3753 26.6286C38.7123 26.4035 39.1677 26.4952 39.3923 26.832C41.206 29.5526 43.9226 30.4827 43.9498 30.4917C44.334 30.6198 44.5418 31.0351 44.4136 31.4193C44.3113 31.7268 44.0249 31.9211 43.7182 31.9211Z" fill="#FFABAE"/>
<path d="M26.6677 41.5851C26.66 41.5851 26.6547 41.5851 26.6519 41.585C26.2471 41.5769 25.9254 41.2419 25.9336 40.837C25.9417 40.4371 26.2684 40.1185 26.6664 40.1185H26.6747C26.7258 40.1181 27.5704 40.0994 28.2409 39.3334C29.0263 38.4358 29.2932 36.8243 29.0123 34.6733C28.9658 34.3165 29.185 33.9785 29.5299 33.8756C29.6054 33.8529 37.1593 31.5271 38.0587 26.1311C38.7853 21.7712 37.8083 21.1061 37.7216 21.0582C37.633 21.0494 37.5467 21.0243 37.4668 20.9845C37.4061 20.9561 35.7594 20.2136 33.1672 21.6489C32.8132 21.8451 32.3668 21.7169 32.1704 21.3626C31.9741 21.0082 32.1024 20.5619 32.4568 20.3658C35.3636 18.7563 37.464 19.4036 37.9946 19.6165C38.23 19.6616 38.6192 19.8006 38.9783 20.2244C39.8385 21.2401 40.0158 23.3085 39.5052 26.3723C38.6053 31.773 32.4839 34.384 30.5335 35.0854C30.747 37.4271 30.3377 39.1912 29.3134 40.3339C28.2275 41.5463 26.8398 41.5851 26.6677 41.5851ZM37.7922 21.0621H37.7949C37.794 21.0621 37.7931 21.0621 37.7922 21.0621ZM37.7909 21.0621H37.7922C37.7918 21.0621 37.7913 21.0621 37.7909 21.0621ZM37.7898 21.0621H37.7909C37.7905 21.0621 37.7902 21.0621 37.7898 21.0621ZM37.7889 21.0621H37.7894C37.7892 21.0621 37.7891 21.0621 37.7889 21.0621Z" fill="#FFABAE"/>
<path d="M26.9749 35.5971C24.8127 35.5971 22.7339 34.8607 20.8342 33.4022C18.6324 31.7119 17.4612 29.6599 17.4125 29.5733C17.2135 29.2206 17.3384 28.7733 17.6911 28.5743C18.0442 28.3756 18.4906 28.5001 18.6896 28.8521C18.7004 28.871 19.7863 30.7617 21.7642 32.2669C24.3384 34.2261 27.1684 34.6476 30.1758 33.5198C30.5545 33.3769 30.9778 33.5698 31.1197 33.9489C31.2618 34.3281 31.0699 34.7508 30.6906 34.8929C29.4375 35.3634 28.193 35.5971 26.9749 35.5971Z" fill="#FFABAE"/>
<path d="M19.0395 24.0207C18.8494 24.0207 18.6597 23.9475 18.5163 23.8014C18.2343 23.5134 18.2356 23.0538 18.5216 22.7698C18.6166 22.6754 20.8918 20.4723 24.6956 21.5838C25.0844 21.6973 25.3075 22.1045 25.194 22.4933C25.0804 22.8822 24.6734 23.1051 24.2845 22.9916C21.3393 22.1313 19.6231 23.745 19.5516 23.8141C19.409 23.9519 19.2242 24.0207 19.0395 24.0207Z" fill="#FFABAE"/>
<path d="M37.5689 44.0084C36.4623 44.0084 35.3493 43.8081 34.3176 43.2914C32.65 42.4563 31.9966 41.1803 31.9697 41.1264C31.7884 40.7642 31.9349 40.3236 32.2969 40.1423C32.657 39.9619 33.0957 40.1062 33.2787 40.4651C33.3661 40.632 35.3421 44.2132 41.8943 41.5925C42.2703 41.4425 42.6971 41.6247 42.8474 42.0011C42.9977 42.3771 42.8149 42.8039 42.4387 42.9543C41.0698 43.5019 39.3276 44.0084 37.5689 44.0084Z" fill="#FFABAE"/>
<path d="M14.0532 43.1897C13.6717 43.1897 13.3498 42.8945 13.3225 42.508C13.0513 38.6694 16.6408 35.9345 16.7937 35.8199C17.1178 35.577 17.5775 35.643 17.8204 35.9673C18.0629 36.291 17.9975 36.7501 17.6741 36.993C17.6431 37.0165 14.5712 39.371 14.7857 42.4048C14.8141 42.8089 14.5097 43.1594 14.1059 43.188C14.0881 43.1891 14.0707 43.1897 14.0532 43.1897Z" fill="#FFABAE"/>
<path d="M40.903 30.4539C40.883 30.4539 40.8632 30.4537 40.8437 30.4531C40.4388 30.443 40.1187 30.1068 40.1287 29.7018C40.1386 29.3031 40.465 28.9866 40.8615 28.9866H40.8733C40.8962 28.9865 41.4227 28.9791 41.9925 28.6499C42.7618 28.2055 43.2678 27.3889 43.4962 26.2229C43.5741 25.8256 43.9604 25.5671 44.357 25.6443C44.7544 25.7222 45.0135 26.1076 44.9356 26.505C44.3216 29.6382 42.0646 30.4539 40.903 30.4539Z" fill="#FFABAE"/>
</svg>
