<svg width="40" height="24" viewBox="0 0 40 24" fill="none" xmlns="http://www.w3.org/2000/svg">
<path d="M35.4661 10.1304C36.0349 9.39508 36.4865 8.80508 36.82 8.35995C39.2218 5.16663 40.2629 3.12672 39.9439 2.23736L39.8187 2.02907C39.7355 1.90396 39.5199 1.78907 39.1731 1.68507C38.8259 1.58115 38.3816 1.56455 37.8404 1.63315L31.8425 1.67546C31.7037 1.66163 31.5647 1.66486 31.4259 1.68507C31.287 1.70619 31.1969 1.72738 31.155 1.74759C31.1131 1.76878 31.0787 1.78576 31.0511 1.79959L30.9679 1.8621C30.8985 1.90351 30.8222 1.97662 30.7389 2.08106C30.6556 2.18543 30.5857 2.30641 30.5306 2.44572C29.8781 4.12556 29.1354 5.68773 28.3022 7.1317C27.7884 7.99259 27.3162 8.73941 26.8863 9.37028C26.4558 10.0026 26.0948 10.4676 25.8032 10.7655C25.5117 11.0639 25.2477 11.3039 25.0119 11.4838C24.7755 11.665 24.5952 11.7409 24.4707 11.7133C24.3455 11.6857 24.2274 11.6582 24.1165 11.6296C23.9221 11.505 23.7656 11.3353 23.648 11.1196C23.5298 10.905 23.4503 10.634 23.4083 10.3075C23.3669 9.98148 23.3421 9.70008 23.3357 9.46368C23.3283 9.22782 23.332 8.89487 23.3463 8.46394C23.3601 8.03346 23.3669 7.74244 23.3669 7.58931C23.3669 7.06227 23.3775 6.48933 23.3983 5.8713C23.419 5.25372 23.4365 4.76395 23.4503 4.4029C23.4641 4.04238 23.4709 3.66021 23.4709 3.25739C23.4709 2.85546 23.4466 2.53904 23.3977 2.30964C23.349 2.08106 23.2759 1.85895 23.1793 1.6433C23.0818 1.42854 22.9397 1.26158 22.7521 1.14391C22.5645 1.02572 22.3322 0.932392 22.0545 0.862437C21.3182 0.695475 20.3811 0.606283 19.2429 0.59163C16.6603 0.564956 15.0012 0.731392 14.2654 1.09192C13.9739 1.24505 13.7099 1.45289 13.474 1.71686C13.2239 2.02268 13.1894 2.18957 13.3701 2.21624C14.2033 2.34135 14.793 2.64026 15.1401 3.11207L15.2652 3.36176C15.3622 3.54292 15.4593 3.86212 15.5568 4.3201C15.6538 4.77815 15.7164 5.2849 15.7444 5.84041C15.8138 6.85391 15.8138 7.72125 15.7444 8.44373C15.675 9.16613 15.6092 9.7281 15.5467 10.13C15.4841 10.5329 15.3903 10.8589 15.2657 11.1086C15.1406 11.3592 15.0574 11.5119 15.0155 11.5675C14.9737 11.6226 14.9392 11.6576 14.9116 11.6715C14.7309 11.7404 14.5437 11.7754 14.3493 11.7754C14.1547 11.7754 13.9188 11.6778 13.6411 11.4833C13.3633 11.2897 13.075 11.0221 12.7769 10.6818C12.478 10.342 12.1419 9.86606 11.7666 9.25487C11.3918 8.64465 11.0027 7.92218 10.6004 7.0894L10.2674 6.48512C10.0591 6.09702 9.77441 5.53091 9.41344 4.78822C9.05246 4.04553 8.73281 3.32727 8.45555 2.63244C8.34426 2.34135 8.17775 2.11924 7.95571 1.9661L7.85179 1.90358C7.78236 1.84835 7.67108 1.78907 7.5184 1.72693C7.36526 1.66441 7.20619 1.61933 7.03923 1.5913L1.33284 1.6327C0.749751 1.6327 0.354287 1.76517 0.145998 2.02907L0.0627422 2.15372C0.0206636 2.22361 0 2.33489 0 2.48712C0 2.64026 0.0418532 2.82743 0.125109 3.0491C0.95834 5.00718 1.86431 6.89538 2.84286 8.71363C3.82194 10.5329 4.67223 11.9979 5.39418 13.1085C6.11613 14.22 6.8519 15.2675 7.60195 16.2534C8.352 17.2394 8.84815 17.8707 9.09093 18.148C9.33371 18.4263 9.52457 18.6346 9.6635 18.773L10.1841 19.2733C10.517 19.6063 11.0068 20.0054 11.6525 20.4708C12.2981 20.9361 13.0127 21.3942 13.7977 21.8449C14.5818 22.2965 15.4951 22.6638 16.5361 22.949C17.5773 23.2341 18.5908 23.3485 19.5767 23.2924H21.9717C22.4578 23.251 22.8255 23.0989 23.0754 22.8344L23.1586 22.7305C23.2137 22.6477 23.2662 22.519 23.3149 22.3455C23.3632 22.1722 23.3881 21.9809 23.3881 21.773C23.3738 21.1762 23.4194 20.6372 23.5233 20.1589C23.6272 19.6798 23.7453 19.3193 23.8774 19.0756C24.0094 18.8332 24.1583 18.6281 24.3252 18.4611C24.4918 18.2942 24.6094 18.1944 24.6793 18.1595C24.7488 18.1254 24.8045 18.1011 24.8459 18.0863C25.1788 17.9754 25.571 18.0831 26.0226 18.4092C26.4738 18.7362 26.8973 19.138 27.2932 19.6172C27.6886 20.0964 28.1641 20.6339 28.7197 21.2313C29.2748 21.8281 29.7608 22.2723 30.1774 22.5639L30.5941 22.8146C30.8717 22.9805 31.2323 23.1332 31.677 23.2726C32.1212 23.411 32.5103 23.446 32.8432 23.3765L38.1748 23.2928C38.7023 23.2928 39.112 23.2064 39.4036 23.0325C39.6951 22.8601 39.8686 22.6679 39.9242 22.46C39.9793 22.2518 39.983 22.0168 39.9348 21.7523C39.8861 21.4888 39.8373 21.3048 39.7891 21.2009C39.7404 21.097 39.6952 21.0096 39.6533 20.9406C38.959 19.6912 37.6332 18.1566 35.6755 16.3379L35.6337 16.2965L35.613 16.2754L35.5923 16.2551H35.5715C34.6825 15.408 34.1206 14.8387 33.8846 14.5467C33.4543 13.9922 33.3568 13.4297 33.5932 12.8605C33.7587 12.4288 34.3832 11.5192 35.4661 10.1304Z" fill="#222222"/>
</svg>
